<svg width="277" height="60" viewBox="0 0 277 60" fill="none" xmlns="http://www.w3.org/2000/svg">
<path d="M93.336 37.288C88.584 37.288 84.912 33.688 84.912 29.08C84.912 24.472 88.608 20.872 93.36 20.872C95.784 20.872 98.064 21.904 99.48 23.608C99.816 23.992 99.984 24.376 99.984 24.808C99.984 25.6 99.312 26.272 98.472 26.272C98.016 26.272 97.584 26.056 97.224 25.648C96.192 24.448 94.896 23.872 93.36 23.872C90.384 23.872 88.248 26.056 88.248 29.104C88.248 32.128 90.384 34.288 93.36 34.288C94.872 34.288 96.144 33.712 97.2 32.512C97.584 32.104 97.992 31.888 98.472 31.888C99.312 31.888 99.96 32.56 99.96 33.352C99.96 33.736 99.816 34.12 99.456 34.552C98.064 36.256 95.784 37.288 93.336 37.288ZM105.229 37C104.269 37 103.573 36.304 103.573 35.344V22.528C103.573 21.664 104.245 20.872 105.205 20.872C106.141 20.872 106.813 21.592 106.813 22.528V34.072H112.453C113.317 34.072 113.941 34.72 113.941 35.536C113.941 36.376 113.317 37 112.453 37H105.229ZM118.268 37.288C117.308 37.288 116.636 36.568 116.636 35.632V22.528C116.636 21.592 117.308 20.872 118.268 20.872C119.204 20.872 119.876 21.592 119.876 22.528V35.632C119.876 36.568 119.204 37.288 118.268 37.288ZM125.588 37C124.676 37 123.98 36.304 123.98 35.392V22.768C123.98 21.856 124.676 21.16 125.588 21.16H133.34C134.204 21.16 134.828 21.784 134.828 22.624C134.828 23.44 134.18 24.088 133.34 24.088H127.22V27.304H131.42C132.236 27.304 132.836 27.904 132.836 28.696C132.836 29.464 132.236 30.064 131.42 30.064H127.22V34.072H133.628C134.492 34.072 135.116 34.72 135.116 35.536C135.116 36.376 134.468 37 133.628 37H125.588ZM150.094 20.872C151.006 20.872 151.702 21.592 151.702 22.528V35.656C151.702 36.568 151.03 37.288 150.118 37.288C149.326 37.288 148.942 36.832 148.51 36.304L141.454 27.232V35.632C141.454 36.568 140.758 37.288 139.846 37.288C138.91 37.288 138.214 36.568 138.214 35.632V22.504C138.214 21.592 138.91 20.872 139.798 20.872C140.614 20.872 140.974 21.328 141.454 21.928L148.486 30.928L148.462 22.528C148.462 21.592 149.158 20.872 150.094 20.872ZM161.008 37.288C160.096 37.288 159.4 36.568 159.4 35.632V24.088H155.632C154.792 24.088 154.144 23.44 154.144 22.624C154.144 21.784 154.792 21.16 155.632 21.16H166.408C167.272 21.16 167.896 21.784 167.896 22.624C167.896 23.44 167.248 24.088 166.408 24.088H162.64V35.632C162.64 36.568 161.944 37.288 161.008 37.288ZM181.41 37.288C179.538 37.288 177.474 36.448 176.298 35.152C175.914 34.768 175.698 34.36 175.698 33.904C175.722 33.04 176.418 32.464 177.186 32.464C177.474 32.464 177.786 32.56 178.026 32.776C178.674 33.448 179.802 34.408 181.41 34.408C182.826 34.408 183.666 33.736 183.666 32.656C183.666 31.744 183.114 31.36 181.65 30.688L179.946 29.92C177.426 28.768 176.106 27.4 176.106 25.36C176.106 22.696 178.362 20.872 181.362 20.872C183.738 20.872 185.13 21.976 185.802 22.744C186.138 23.104 186.234 23.464 186.234 23.776C186.234 24.592 185.49 25.216 184.746 25.216C184.458 25.216 184.146 25.12 183.858 24.88C183.21 24.304 182.49 23.752 181.362 23.752C180.21 23.752 179.394 24.304 179.394 25.288C179.394 26.08 179.826 26.464 181.242 27.112L183.042 27.904C185.682 29.08 186.954 30.376 186.954 32.536C186.954 35.464 184.578 37.288 181.41 37.288ZM191.909 37.288C190.973 37.288 190.277 36.568 190.277 35.632V22.816C190.277 21.856 190.973 21.16 191.933 21.16H196.253C199.637 21.16 201.941 23.224 201.941 26.272C201.941 29.296 199.589 31.408 196.253 31.408H193.517V35.632C193.517 36.568 192.821 37.288 191.909 37.288ZM193.517 28.576H196.229C197.717 28.576 198.629 27.688 198.629 26.272C198.629 24.904 197.717 24.016 196.229 24.016H193.517V28.576ZM216.161 34.864C216.305 35.2 216.353 35.488 216.353 35.728C216.353 36.592 215.681 37.288 214.769 37.288C214.073 37.288 213.545 36.88 213.233 36.136L212.561 34.504H205.865L205.193 36.136C204.905 36.88 204.377 37.288 203.681 37.288C202.769 37.288 202.073 36.592 202.073 35.728C202.073 35.488 202.145 35.2 202.265 34.864L207.689 21.976C207.977 21.256 208.505 20.872 209.225 20.872C209.945 20.872 210.473 21.256 210.761 21.976L216.161 34.864ZM209.225 25.648L206.921 31.84H211.481L209.225 25.648ZM226.633 37.288C221.881 37.288 218.209 33.688 218.209 29.08C218.209 24.472 221.905 20.872 226.657 20.872C229.081 20.872 231.361 21.904 232.777 23.608C233.113 23.992 233.281 24.376 233.281 24.808C233.281 25.6 232.609 26.272 231.769 26.272C231.313 26.272 230.881 26.056 230.521 25.648C229.489 24.448 228.193 23.872 226.657 23.872C223.681 23.872 221.545 26.056 221.545 29.104C221.545 32.128 223.681 34.288 226.657 34.288C228.169 34.288 229.441 33.712 230.497 32.512C230.881 32.104 231.289 31.888 231.769 31.888C232.609 31.888 233.257 32.56 233.257 33.352C233.257 33.736 233.113 34.12 232.753 34.552C231.361 36.256 229.081 37.288 226.633 37.288ZM238.478 37C237.566 37 236.87 36.304 236.87 35.392V22.768C236.87 21.856 237.566 21.16 238.478 21.16H246.23C247.094 21.16 247.718 21.784 247.718 22.624C247.718 23.44 247.07 24.088 246.23 24.088H240.11V27.304H244.31C245.126 27.304 245.726 27.904 245.726 28.696C245.726 29.464 245.126 30.064 244.31 30.064H240.11V34.072H246.518C247.382 34.072 248.006 34.72 248.006 35.536C248.006 36.376 247.358 37 246.518 37H238.478Z" fill="white"/>
</svg>
