<svg width="437" height="323" viewBox="0 0 437 323" fill="none" xmlns="http://www.w3.org/2000/svg">
<g filter="url(#filter0_d_1_110)">
<rect x="38" y="19" width="361" height="246.683" rx="32.0414" fill="white"/>
</g>
<path d="M319.495 95.7343L312.511 111.395H310.263L317.225 96.2903H308.097V94.5296H319.495V95.7343ZM330.141 103.982C329.693 104.515 329.156 104.943 328.531 105.267C327.913 105.592 327.233 105.754 326.492 105.754C325.519 105.754 324.669 105.515 323.943 105.036C323.225 104.557 322.669 103.885 322.275 103.02C321.882 102.148 321.685 101.186 321.685 100.136C321.685 99.0086 321.897 97.9931 322.322 97.0896C322.754 96.1861 323.364 95.4949 324.152 95.0161C324.94 94.5374 325.859 94.298 326.909 94.298C328.577 94.298 329.89 94.9235 330.847 96.1745C331.812 97.4178 332.295 99.1167 332.295 101.271V101.897C332.295 105.179 331.646 107.576 330.349 109.09C329.052 110.596 327.094 111.368 324.476 111.407H324.059V109.6H324.511C326.279 109.569 327.639 109.109 328.588 108.221C329.538 107.325 330.056 105.912 330.141 103.982ZM326.839 103.982C327.557 103.982 328.218 103.762 328.82 103.321C329.43 102.881 329.874 102.337 330.152 101.688V100.831C330.152 99.4256 329.847 98.2827 329.237 97.4023C328.627 96.522 327.855 96.0818 326.92 96.0818C325.978 96.0818 325.222 96.4448 324.65 97.1707C324.079 97.8888 323.793 98.8387 323.793 100.02C323.793 101.171 324.067 102.121 324.615 102.87C325.171 103.611 325.913 103.982 326.839 103.982ZM335.064 97.773C335.064 96.7614 335.384 95.9274 336.025 95.271C336.674 94.6146 337.504 94.2864 338.515 94.2864C339.542 94.2864 340.373 94.6184 341.006 95.2826C341.647 95.939 341.967 96.7923 341.967 97.8425V98.6649C341.967 99.6843 341.643 100.518 340.994 101.167C340.353 101.808 339.535 102.128 338.539 102.128C337.535 102.128 336.705 101.808 336.048 101.167C335.392 100.518 335.064 99.6572 335.064 98.5838V97.773ZM336.662 98.6649C336.662 99.2673 336.832 99.7653 337.172 100.159C337.512 100.545 337.967 100.738 338.539 100.738C339.087 100.738 339.527 100.549 339.859 100.171C340.199 99.7924 340.369 99.275 340.369 98.6186V97.773C340.369 97.1707 340.203 96.6726 339.871 96.2787C339.539 95.8849 339.087 95.688 338.515 95.688C337.944 95.688 337.492 95.8849 337.16 96.2787C336.828 96.6726 336.662 97.1861 336.662 97.8193V98.6649ZM343.276 107.26C343.276 106.248 343.597 105.418 344.238 104.769C344.886 104.113 345.716 103.785 346.728 103.785C347.74 103.785 348.57 104.109 349.219 104.758C349.867 105.406 350.192 106.268 350.192 107.341V108.163C350.192 109.175 349.867 110.009 349.219 110.665C348.578 111.314 347.755 111.638 346.751 111.638C345.747 111.638 344.917 111.318 344.261 110.677C343.604 110.028 343.276 109.167 343.276 108.094V107.26ZM344.875 108.163C344.875 108.773 345.045 109.275 345.384 109.669C345.724 110.055 346.18 110.248 346.751 110.248C347.307 110.248 347.751 110.059 348.083 109.681C348.415 109.295 348.581 108.773 348.581 108.117V107.26C348.581 106.65 348.412 106.152 348.072 105.766C347.74 105.379 347.292 105.186 346.728 105.186C346.18 105.186 345.732 105.379 345.384 105.766C345.045 106.144 344.875 106.657 344.875 107.306V108.163ZM339.025 110.121L337.809 109.356L346.045 96.1745L347.261 96.939L339.025 110.121Z" fill="#0088F0"/>
<path d="M303.365 128.975C303.598 128.975 303.813 128.928 304.01 128.833C304.208 128.737 304.37 128.607 304.497 128.441C304.624 128.272 304.696 128.08 304.714 127.865H305.644C305.627 128.203 305.512 128.519 305.301 128.811C305.093 129.101 304.819 129.335 304.481 129.515C304.143 129.691 303.771 129.779 303.365 129.779C302.935 129.779 302.56 129.703 302.239 129.552C301.922 129.4 301.657 129.192 301.446 128.928C301.238 128.663 301.081 128.36 300.975 128.018C300.873 127.673 300.822 127.308 300.822 126.924V126.702C300.822 126.317 300.873 125.954 300.975 125.612C301.081 125.267 301.238 124.962 301.446 124.697C301.657 124.433 301.922 124.225 302.239 124.073C302.56 123.922 302.935 123.846 303.365 123.846C303.813 123.846 304.204 123.938 304.539 124.121C304.874 124.301 305.137 124.548 305.327 124.861C305.521 125.172 305.627 125.524 305.644 125.919H304.714C304.696 125.683 304.629 125.469 304.513 125.279C304.4 125.089 304.245 124.937 304.047 124.824C303.853 124.708 303.626 124.65 303.365 124.65C303.065 124.65 302.813 124.71 302.609 124.83C302.408 124.946 302.248 125.105 302.128 125.305C302.011 125.503 301.927 125.723 301.874 125.966C301.825 126.206 301.8 126.451 301.8 126.702V126.924C301.8 127.174 301.825 127.421 301.874 127.664C301.923 127.907 302.006 128.128 302.122 128.325C302.242 128.522 302.403 128.681 302.604 128.801C302.808 128.917 303.062 128.975 303.365 128.975ZM309.076 123.952V129.673H308.093V123.952H309.076ZM310.996 123.952V124.745H306.21V123.952H310.996ZM312.937 125.052V131.873H311.953V123.952H312.852L312.937 125.052ZM316.792 126.765V126.876C316.792 127.292 316.742 127.678 316.644 128.034C316.545 128.387 316.4 128.693 316.21 128.954C316.023 129.215 315.792 129.418 315.517 129.562C315.242 129.707 314.927 129.779 314.571 129.779C314.207 129.779 313.887 129.719 313.608 129.599C313.33 129.48 313.093 129.305 312.9 129.076C312.706 128.847 312.551 128.572 312.434 128.251C312.321 127.93 312.244 127.569 312.202 127.167V126.575C312.244 126.152 312.323 125.773 312.44 125.438C312.556 125.103 312.709 124.817 312.9 124.581C313.093 124.341 313.328 124.16 313.603 124.036C313.878 123.909 314.195 123.846 314.555 123.846C314.914 123.846 315.233 123.916 315.512 124.057C315.79 124.195 316.025 124.392 316.215 124.65C316.406 124.907 316.548 125.216 316.644 125.575C316.742 125.931 316.792 126.328 316.792 126.765ZM315.808 126.876V126.765C315.808 126.479 315.778 126.212 315.718 125.961C315.658 125.707 315.565 125.485 315.438 125.295C315.314 125.101 315.156 124.949 314.962 124.84C314.768 124.727 314.537 124.671 314.269 124.671C314.022 124.671 313.807 124.713 313.624 124.798C313.444 124.882 313.291 124.997 313.164 125.142C313.037 125.283 312.933 125.445 312.852 125.628C312.774 125.808 312.716 125.995 312.677 126.189V127.558C312.748 127.805 312.847 128.038 312.974 128.256C313.101 128.471 313.27 128.646 313.481 128.78C313.693 128.91 313.959 128.975 314.28 128.975C314.544 128.975 314.772 128.921 314.962 128.811C315.156 128.699 315.314 128.545 315.438 128.351C315.565 128.158 315.658 127.935 315.718 127.685C315.778 127.431 315.808 127.162 315.808 126.876ZM321.413 128.695V125.75C321.413 125.524 321.368 125.328 321.276 125.163C321.188 124.993 321.054 124.863 320.874 124.771C320.694 124.68 320.472 124.634 320.208 124.634C319.961 124.634 319.744 124.676 319.557 124.761C319.374 124.845 319.229 124.956 319.124 125.094C319.021 125.231 318.97 125.38 318.97 125.538H317.992C317.992 125.334 318.045 125.131 318.151 124.93C318.256 124.729 318.408 124.548 318.605 124.385C318.806 124.22 319.046 124.089 319.325 123.994C319.607 123.895 319.92 123.846 320.266 123.846C320.682 123.846 321.049 123.916 321.366 124.057C321.687 124.199 321.937 124.412 322.117 124.697C322.3 124.979 322.392 125.334 322.392 125.76V128.425C322.392 128.616 322.408 128.819 322.439 129.034C322.475 129.249 322.526 129.434 322.593 129.589V129.673H321.572C321.523 129.561 321.484 129.411 321.456 129.224C321.427 129.034 321.413 128.857 321.413 128.695ZM321.583 126.204L321.593 126.892H320.604C320.326 126.892 320.077 126.915 319.859 126.961C319.64 127.003 319.457 127.068 319.309 127.156C319.161 127.244 319.048 127.356 318.97 127.489C318.893 127.62 318.854 127.773 318.854 127.95C318.854 128.129 318.894 128.293 318.976 128.441C319.057 128.589 319.178 128.707 319.34 128.796C319.506 128.88 319.709 128.923 319.949 128.923C320.248 128.923 320.513 128.859 320.742 128.732C320.971 128.605 321.153 128.45 321.286 128.267C321.424 128.083 321.498 127.905 321.509 127.733L321.926 128.203C321.902 128.351 321.835 128.515 321.725 128.695C321.616 128.875 321.47 129.048 321.286 129.213C321.107 129.376 320.892 129.511 320.641 129.621C320.395 129.726 320.116 129.779 319.806 129.779C319.418 129.779 319.078 129.703 318.785 129.552C318.496 129.4 318.271 129.198 318.108 128.944C317.95 128.686 317.87 128.399 317.87 128.082C317.87 127.775 317.93 127.505 318.05 127.273C318.17 127.036 318.343 126.841 318.568 126.686C318.794 126.527 319.065 126.407 319.383 126.326C319.7 126.245 320.054 126.204 320.446 126.204H321.583ZM326.178 123.952V129.673H325.194V123.952H326.178ZM328.098 123.952V124.745H323.312V123.952H328.098ZM331.011 129.779C330.613 129.779 330.252 129.712 329.927 129.578C329.606 129.441 329.33 129.249 329.097 129.002C328.868 128.755 328.692 128.462 328.568 128.124C328.445 127.786 328.383 127.415 328.383 127.014V126.791C328.383 126.326 328.452 125.912 328.589 125.549C328.727 125.182 328.914 124.872 329.15 124.618C329.386 124.364 329.654 124.172 329.954 124.042C330.253 123.911 330.564 123.846 330.884 123.846C331.293 123.846 331.646 123.916 331.942 124.057C332.242 124.199 332.487 124.396 332.677 124.65C332.867 124.9 333.008 125.196 333.1 125.538C333.192 125.877 333.238 126.247 333.238 126.649V127.088H328.965V126.289H332.259V126.215C332.245 125.961 332.192 125.714 332.101 125.475C332.012 125.235 331.871 125.038 331.678 124.882C331.484 124.727 331.219 124.65 330.884 124.65C330.662 124.65 330.458 124.697 330.271 124.793C330.084 124.884 329.924 125.022 329.79 125.205C329.656 125.388 329.552 125.612 329.478 125.877C329.404 126.141 329.367 126.446 329.367 126.791V127.014C329.367 127.285 329.404 127.541 329.478 127.78C329.555 128.017 329.666 128.225 329.811 128.404C329.959 128.584 330.137 128.725 330.345 128.827C330.556 128.93 330.796 128.981 331.064 128.981C331.41 128.981 331.702 128.91 331.942 128.769C332.182 128.628 332.391 128.44 332.571 128.203L333.164 128.674C333.04 128.861 332.883 129.039 332.693 129.208C332.503 129.377 332.268 129.515 331.99 129.621C331.715 129.726 331.388 129.779 331.011 129.779ZM338.076 123.952V124.761H335.432V129.673H334.454V123.952H338.076ZM339.985 128.124L342.624 123.952H343.607V129.673H342.624V125.501L339.985 129.673H339.012V123.952H339.985V128.124ZM346.336 126.945H347.394L345.739 129.673H344.681L346.336 126.945ZM347.156 123.952H349.546V129.673H348.568V124.745H347.156C346.877 124.745 346.65 124.793 346.474 124.888C346.297 124.979 346.169 125.099 346.088 125.247C346.007 125.395 345.966 125.549 345.966 125.707C345.966 125.862 346.003 126.012 346.077 126.157C346.151 126.298 346.267 126.414 346.426 126.506C346.585 126.598 346.789 126.643 347.039 126.643H348.832V127.447H347.039C346.712 127.447 346.421 127.403 346.167 127.315C345.913 127.227 345.698 127.105 345.522 126.95C345.346 126.791 345.212 126.606 345.12 126.395C345.028 126.18 344.982 125.947 344.982 125.697C344.982 125.447 345.03 125.216 345.125 125.004C345.224 124.793 345.365 124.607 345.548 124.449C345.735 124.29 345.962 124.169 346.23 124.084C346.502 123.996 346.81 123.952 347.156 123.952ZM356.918 121.932V129.673H355.939V123.153L353.967 123.872V122.989L356.764 121.932H356.918Z" fill="#8794BA"/>
<path d="M326.335 166.318C326.335 167.16 326.111 167.909 325.663 168.565C325.223 169.222 324.624 169.735 323.868 170.106C324.748 170.484 325.443 171.036 325.953 171.762C326.47 172.488 326.729 173.31 326.729 174.229C326.729 175.689 326.235 176.851 325.246 177.716C324.265 178.581 322.972 179.013 321.366 179.013C319.744 179.013 318.443 178.581 317.462 177.716C316.489 176.843 316.003 175.681 316.003 174.229C316.003 173.318 316.25 172.496 316.744 171.762C317.246 171.029 317.937 170.473 318.817 170.094C318.068 169.723 317.477 169.21 317.045 168.554C316.613 167.897 316.396 167.152 316.396 166.318C316.396 164.897 316.852 163.77 317.763 162.936C318.674 162.102 319.875 161.685 321.366 161.685C322.848 161.685 324.045 162.102 324.957 162.936C325.875 163.77 326.335 164.897 326.335 166.318ZM324.586 174.183C324.586 173.241 324.285 172.473 323.682 171.878C323.088 171.283 322.308 170.986 321.342 170.986C320.377 170.986 319.601 171.28 319.014 171.866C318.435 172.453 318.145 173.226 318.145 174.183C318.145 175.141 318.427 175.894 318.991 176.442C319.562 176.99 320.354 177.264 321.366 177.264C322.37 177.264 323.157 176.99 323.729 176.442C324.3 175.886 324.586 175.133 324.586 174.183ZM321.366 163.445C320.524 163.445 319.84 163.708 319.315 164.233C318.798 164.75 318.539 165.457 318.539 166.353C318.539 167.21 318.794 167.905 319.304 168.438C319.821 168.963 320.508 169.225 321.366 169.225C322.223 169.225 322.906 168.963 323.416 168.438C323.933 167.905 324.192 167.21 324.192 166.353C324.192 165.496 323.926 164.797 323.393 164.256C322.86 163.716 322.184 163.445 321.366 163.445ZM340.316 163.121L333.331 178.782H331.084L338.046 163.677H328.918V161.916H340.316V163.121ZM342.563 165.16C342.563 164.148 342.884 163.314 343.525 162.658C344.173 162.001 345.004 161.673 346.015 161.673C347.042 161.673 347.872 162.005 348.506 162.669C349.147 163.326 349.467 164.179 349.467 165.229V166.052C349.467 167.071 349.143 167.905 348.494 168.554C347.853 169.195 347.035 169.515 346.038 169.515C345.034 169.515 344.204 169.195 343.548 168.554C342.892 167.905 342.563 167.044 342.563 165.97V165.16ZM344.162 166.052C344.162 166.654 344.332 167.152 344.671 167.546C345.011 167.932 345.467 168.125 346.038 168.125C346.587 168.125 347.027 167.936 347.359 167.557C347.699 167.179 347.869 166.662 347.869 166.005V165.16C347.869 164.557 347.702 164.059 347.37 163.665C347.038 163.272 346.587 163.075 346.015 163.075C345.444 163.075 344.992 163.272 344.66 163.665C344.328 164.059 344.162 164.573 344.162 165.206V166.052ZM350.776 174.646C350.776 173.635 351.096 172.805 351.737 172.156C352.386 171.5 353.216 171.171 354.228 171.171C355.239 171.171 356.07 171.496 356.718 172.144C357.367 172.793 357.691 173.654 357.691 174.728V175.55C357.691 176.562 357.367 177.396 356.718 178.052C356.077 178.701 355.255 179.025 354.251 179.025C353.247 179.025 352.417 178.705 351.761 178.064C351.104 177.415 350.776 176.554 350.776 175.48V174.646ZM352.374 175.55C352.374 176.16 352.544 176.662 352.884 177.056C353.224 177.442 353.68 177.635 354.251 177.635C354.807 177.635 355.251 177.446 355.583 177.067C355.915 176.681 356.081 176.16 356.081 175.504V174.646C356.081 174.036 355.911 173.538 355.572 173.152C355.239 172.766 354.792 172.573 354.228 172.573C353.68 172.573 353.232 172.766 352.884 173.152C352.544 173.531 352.374 174.044 352.374 174.693V175.55ZM346.525 177.508L345.309 176.743L353.544 163.561L354.761 164.326L346.525 177.508Z" fill="#EF2A82"/>
<path d="M308.777 196.362C309.01 196.362 309.225 196.314 309.422 196.219C309.62 196.124 309.782 195.994 309.909 195.828C310.036 195.659 310.108 195.467 310.126 195.252H311.056C311.039 195.59 310.924 195.905 310.713 196.198C310.505 196.487 310.231 196.722 309.893 196.901C309.555 197.078 309.183 197.166 308.777 197.166C308.347 197.166 307.972 197.09 307.651 196.938C307.334 196.787 307.069 196.579 306.858 196.314C306.65 196.05 306.493 195.747 306.387 195.405C306.285 195.059 306.234 194.695 306.234 194.31V194.088C306.234 193.704 306.285 193.341 306.387 192.999C306.493 192.653 306.65 192.348 306.858 192.084C307.069 191.82 307.334 191.612 307.651 191.46C307.972 191.308 308.347 191.233 308.777 191.233C309.225 191.233 309.616 191.324 309.951 191.508C310.286 191.687 310.549 191.934 310.739 192.248C310.933 192.558 311.039 192.911 311.056 193.306H310.126C310.108 193.069 310.041 192.856 309.925 192.666C309.812 192.475 309.657 192.324 309.459 192.211C309.266 192.095 309.038 192.036 308.777 192.036C308.478 192.036 308.226 192.096 308.021 192.216C307.82 192.333 307.66 192.491 307.54 192.692C307.423 192.89 307.339 193.11 307.286 193.353C307.237 193.593 307.212 193.838 307.212 194.088V194.31C307.212 194.561 307.237 194.807 307.286 195.051C307.335 195.294 307.418 195.514 307.535 195.712C307.654 195.909 307.815 196.068 308.016 196.188C308.22 196.304 308.474 196.362 308.777 196.362ZM314.488 191.338V197.06H313.505V191.338H314.488ZM316.408 191.338V192.132H311.622V191.338H316.408ZM318.349 192.438V199.26H317.365V191.338H318.264L318.349 192.438ZM322.204 194.152V194.263C322.204 194.679 322.154 195.065 322.056 195.421C321.957 195.773 321.812 196.08 321.622 196.341C321.435 196.602 321.204 196.804 320.929 196.949C320.654 197.094 320.339 197.166 319.983 197.166C319.62 197.166 319.299 197.106 319.02 196.986C318.742 196.866 318.506 196.692 318.312 196.463C318.118 196.233 317.963 195.958 317.846 195.638C317.733 195.317 317.656 194.955 317.614 194.554V193.961C317.656 193.538 317.735 193.159 317.852 192.824C317.968 192.489 318.121 192.204 318.312 191.968C318.506 191.728 318.74 191.546 319.015 191.423C319.29 191.296 319.607 191.233 319.967 191.233C320.326 191.233 320.645 191.303 320.924 191.444C321.202 191.582 321.437 191.779 321.627 192.036C321.818 192.294 321.96 192.602 322.056 192.962C322.154 193.318 322.204 193.714 322.204 194.152ZM321.22 194.263V194.152C321.22 193.866 321.19 193.598 321.13 193.348C321.07 193.094 320.977 192.872 320.85 192.682C320.727 192.488 320.568 192.336 320.374 192.227C320.18 192.114 319.949 192.058 319.681 192.058C319.435 192.058 319.219 192.1 319.036 192.184C318.856 192.269 318.703 192.384 318.576 192.528C318.449 192.669 318.345 192.831 318.264 193.015C318.187 193.194 318.128 193.381 318.09 193.575V194.945C318.16 195.192 318.259 195.424 318.386 195.643C318.513 195.858 318.682 196.032 318.893 196.166C319.105 196.297 319.371 196.362 319.692 196.362C319.956 196.362 320.184 196.307 320.374 196.198C320.568 196.085 320.727 195.932 320.85 195.738C320.977 195.544 321.07 195.322 321.13 195.072C321.19 194.818 321.22 194.548 321.22 194.263ZM326.825 196.082V193.136C326.825 192.911 326.78 192.715 326.688 192.549C326.6 192.38 326.466 192.25 326.286 192.158C326.106 192.066 325.884 192.021 325.62 192.021C325.373 192.021 325.156 192.063 324.969 192.147C324.786 192.232 324.642 192.343 324.536 192.481C324.434 192.618 324.382 192.766 324.382 192.925H323.404C323.404 192.72 323.457 192.518 323.563 192.317C323.668 192.116 323.82 191.934 324.018 191.772C324.218 191.606 324.458 191.476 324.737 191.381C325.019 191.282 325.332 191.233 325.678 191.233C326.094 191.233 326.461 191.303 326.778 191.444C327.099 191.585 327.349 191.798 327.529 192.084C327.712 192.366 327.804 192.72 327.804 193.147V195.812C327.804 196.002 327.82 196.205 327.851 196.42C327.887 196.635 327.938 196.82 328.005 196.975V197.06H326.984C326.935 196.947 326.896 196.797 326.868 196.611C326.84 196.42 326.825 196.244 326.825 196.082ZM326.995 193.591L327.005 194.279H326.016C325.738 194.279 325.489 194.301 325.271 194.347C325.052 194.39 324.869 194.455 324.721 194.543C324.573 194.631 324.46 194.742 324.382 194.876C324.305 195.007 324.266 195.16 324.266 195.336C324.266 195.516 324.307 195.68 324.388 195.828C324.469 195.976 324.59 196.094 324.753 196.182C324.918 196.267 325.121 196.309 325.361 196.309C325.66 196.309 325.925 196.246 326.154 196.119C326.383 195.992 326.565 195.837 326.699 195.653C326.836 195.47 326.91 195.292 326.921 195.119L327.338 195.59C327.314 195.738 327.247 195.902 327.137 196.082C327.028 196.262 326.882 196.434 326.699 196.6C326.519 196.762 326.304 196.898 326.053 197.007C325.807 197.113 325.528 197.166 325.218 197.166C324.83 197.166 324.49 197.09 324.197 196.938C323.908 196.787 323.683 196.584 323.52 196.33C323.362 196.073 323.282 195.786 323.282 195.468C323.282 195.162 323.342 194.892 323.462 194.659C323.582 194.423 323.755 194.227 323.98 194.072C324.206 193.914 324.478 193.794 324.795 193.713C325.112 193.632 325.466 193.591 325.858 193.591H326.995ZM331.59 191.338V197.06H330.606V191.338H331.59ZM333.51 191.338V192.132H328.724V191.338H333.51ZM336.423 197.166C336.025 197.166 335.664 197.099 335.339 196.965C335.018 196.827 334.742 196.635 334.509 196.388C334.28 196.142 334.104 195.849 333.98 195.511C333.857 195.172 333.795 194.802 333.795 194.4V194.178C333.795 193.713 333.864 193.298 334.001 192.935C334.139 192.569 334.326 192.258 334.562 192.005C334.798 191.751 335.066 191.559 335.366 191.428C335.665 191.298 335.976 191.233 336.296 191.233C336.705 191.233 337.058 191.303 337.354 191.444C337.654 191.585 337.899 191.783 338.089 192.036C338.279 192.287 338.42 192.583 338.512 192.925C338.604 193.263 338.65 193.633 338.65 194.035V194.474H334.377V193.676H337.671V193.602C337.657 193.348 337.604 193.101 337.513 192.861C337.425 192.622 337.284 192.424 337.09 192.269C336.896 192.114 336.631 192.036 336.296 192.036C336.074 192.036 335.87 192.084 335.683 192.179C335.496 192.271 335.336 192.408 335.202 192.592C335.068 192.775 334.964 192.999 334.89 193.263C334.816 193.528 334.779 193.833 334.779 194.178V194.4C334.779 194.672 334.816 194.927 334.89 195.167C334.967 195.403 335.078 195.611 335.223 195.791C335.371 195.971 335.549 196.112 335.757 196.214C335.969 196.316 336.208 196.367 336.476 196.367C336.822 196.367 337.114 196.297 337.354 196.156C337.594 196.015 337.804 195.826 337.983 195.59L338.576 196.061C338.452 196.247 338.295 196.425 338.105 196.595C337.915 196.764 337.68 196.901 337.402 197.007C337.127 197.113 336.801 197.166 336.423 197.166ZM343.488 191.338V192.147H340.844V197.06H339.866V191.338H343.488ZM345.397 195.511L348.036 191.338H349.02V197.06H348.036V192.888L345.397 197.06H344.424V191.338H345.397V195.511ZM351.748 194.331H352.806L351.151 197.06H350.093L351.748 194.331ZM352.568 191.338H354.958V197.06H353.98V192.132H352.568C352.289 192.132 352.062 192.179 351.886 192.274C351.709 192.366 351.581 192.486 351.5 192.634C351.419 192.782 351.378 192.935 351.378 193.094C351.378 193.249 351.415 193.399 351.489 193.543C351.563 193.684 351.679 193.801 351.838 193.892C351.997 193.984 352.201 194.03 352.452 194.03H354.244V194.834H352.452C352.124 194.834 351.833 194.79 351.579 194.702C351.325 194.613 351.11 194.492 350.934 194.337C350.758 194.178 350.624 193.993 350.532 193.781C350.44 193.566 350.394 193.334 350.394 193.083C350.394 192.833 350.442 192.602 350.537 192.391C350.636 192.179 350.777 191.994 350.96 191.835C351.147 191.677 351.375 191.555 351.642 191.471C351.914 191.382 352.222 191.338 352.568 191.338ZM364.159 196.256V197.06H359.12V196.357L361.642 193.549C361.952 193.203 362.192 192.911 362.361 192.671C362.534 192.428 362.654 192.211 362.721 192.021C362.792 191.827 362.827 191.629 362.827 191.428C362.827 191.174 362.774 190.945 362.668 190.741C362.566 190.533 362.414 190.367 362.213 190.244C362.012 190.12 361.769 190.059 361.484 190.059C361.142 190.059 360.856 190.126 360.627 190.26C360.401 190.39 360.232 190.573 360.119 190.81C360.006 191.046 359.95 191.317 359.95 191.624H358.972C358.972 191.19 359.067 190.794 359.257 190.434C359.448 190.074 359.73 189.789 360.103 189.577C360.477 189.362 360.937 189.255 361.484 189.255C361.97 189.255 362.386 189.341 362.732 189.514C363.077 189.683 363.341 189.923 363.525 190.233C363.712 190.54 363.805 190.899 363.805 191.312C363.805 191.538 363.766 191.767 363.689 191.999C363.615 192.229 363.511 192.458 363.377 192.687C363.246 192.916 363.093 193.142 362.917 193.364C362.744 193.586 362.559 193.804 362.361 194.019L360.299 196.256H364.159Z" fill="#8794BA"/>
<path d="M177.093 95.537C177.041 94.1603 178.116 92.9965 179.493 93.0065C191.491 93.0931 203.166 97.0571 212.756 104.342C223.009 112.13 230.244 123.233 233.229 135.758C236.213 148.284 234.763 161.456 229.124 173.032C223.485 184.607 214.007 193.87 202.305 199.24C190.603 204.611 177.4 205.758 164.947 202.486C152.494 199.214 141.561 191.725 134.01 181.296C126.459 170.866 122.759 158.141 123.538 145.289C124.268 133.268 128.874 121.832 136.631 112.678C137.522 111.627 139.105 111.572 140.115 112.508C141.125 113.445 141.179 115.02 140.293 116.075C133.318 124.379 129.177 134.723 128.518 145.591C127.808 157.291 131.177 168.876 138.051 178.37C144.925 187.865 154.878 194.683 166.215 197.661C177.552 200.64 189.571 199.596 200.224 194.706C210.877 189.817 219.506 181.385 224.639 170.847C229.772 160.309 231.093 148.317 228.376 136.915C225.659 125.512 219.072 115.405 209.738 108.314C201.067 101.728 190.525 98.1234 179.681 97.9972C178.303 97.9812 177.145 96.9136 177.093 95.537Z" fill="#EF2A82"/>
<path d="M176.107 71.9947C176.03 70.008 177.578 68.3264 179.567 68.3381C195.14 68.4302 210.381 73.0497 223.413 81.672C237.447 90.9576 248.21 104.416 254.183 120.149C260.156 135.881 261.037 153.091 256.702 169.351C252.367 185.611 243.035 200.099 230.022 210.769C217.01 221.44 200.975 227.754 184.181 228.82C167.387 229.887 150.682 225.652 136.424 216.713C122.167 207.774 111.077 194.583 104.72 179.002C98.8172 164.534 97.2722 148.684 100.232 133.394C100.61 131.442 102.563 130.253 104.496 130.718C106.429 131.183 107.61 133.126 107.24 135.079C104.628 148.901 106.054 163.211 111.386 176.282C117.174 190.467 127.27 202.475 140.249 210.613C153.228 218.75 168.436 222.606 183.725 221.635C199.013 220.664 213.611 214.916 225.457 205.202C237.303 195.488 245.799 182.299 249.745 167.497C253.692 152.694 252.89 137.026 247.452 122.704C242.014 108.382 232.216 96.1298 219.44 87.6766C207.666 79.8868 193.912 75.6858 179.847 75.5405C177.859 75.52 176.185 73.9814 176.107 71.9947Z" fill="#0088F0"/>
<path d="M173.76 149.408V149.943H170.4V149.475L172.082 147.603C172.289 147.372 172.449 147.177 172.561 147.017C172.676 146.855 172.756 146.711 172.801 146.584C172.848 146.454 172.872 146.323 172.872 146.189C172.872 146.02 172.836 145.867 172.766 145.731C172.698 145.592 172.597 145.481 172.463 145.399C172.329 145.317 172.166 145.276 171.976 145.276C171.748 145.276 171.558 145.32 171.405 145.41C171.255 145.497 171.142 145.619 171.067 145.776C170.991 145.934 170.954 146.115 170.954 146.319H170.302C170.302 146.03 170.365 145.766 170.492 145.526C170.619 145.286 170.807 145.096 171.056 144.955C171.305 144.812 171.612 144.74 171.976 144.74C172.3 144.74 172.578 144.797 172.808 144.913C173.038 145.025 173.215 145.185 173.337 145.392C173.461 145.597 173.524 145.836 173.524 146.111C173.524 146.262 173.498 146.414 173.446 146.57C173.397 146.722 173.328 146.875 173.238 147.028C173.151 147.181 173.049 147.331 172.932 147.479C172.816 147.627 172.693 147.773 172.561 147.916L171.186 149.408H173.76ZM175.283 147.5L174.761 147.366L175.019 144.81H177.652V145.413H175.572L175.417 146.809C175.511 146.755 175.63 146.705 175.773 146.658C175.919 146.611 176.086 146.587 176.274 146.587C176.511 146.587 176.724 146.628 176.912 146.711C177.1 146.791 177.26 146.906 177.391 147.056C177.525 147.207 177.627 147.387 177.698 147.599C177.768 147.811 177.804 148.047 177.804 148.308C177.804 148.554 177.77 148.781 177.701 148.988C177.636 149.195 177.536 149.376 177.402 149.531C177.268 149.684 177.099 149.802 176.894 149.887C176.692 149.972 176.453 150.014 176.178 150.014C175.972 150.014 175.775 149.986 175.59 149.929C175.406 149.871 175.242 149.782 175.096 149.665C174.953 149.545 174.835 149.397 174.744 149.221C174.654 149.042 174.598 148.833 174.574 148.593H175.195C175.223 148.786 175.279 148.948 175.364 149.08C175.449 149.211 175.559 149.311 175.695 149.379C175.834 149.445 175.995 149.478 176.178 149.478C176.334 149.478 176.471 149.451 176.591 149.397C176.711 149.343 176.812 149.265 176.894 149.164C176.976 149.063 177.039 148.941 177.081 148.798C177.126 148.654 177.148 148.493 177.148 148.315C177.148 148.152 177.126 148.002 177.081 147.863C177.036 147.725 176.969 147.604 176.88 147.5C176.793 147.397 176.686 147.317 176.559 147.261C176.432 147.202 176.286 147.172 176.122 147.172C175.903 147.172 175.738 147.202 175.625 147.261C175.514 147.319 175.4 147.399 175.283 147.5ZM179.947 147.493V148.029H178.227V147.493H179.947ZM183.984 148.216V148.752H180.275V148.368L182.573 144.81H183.106L182.535 145.84L181.015 148.216H183.984ZM183.268 144.81V149.943H182.616V144.81H183.268ZM185.401 147.5L184.879 147.366L185.136 144.81H187.77V145.413H185.69L185.535 146.809C185.629 146.755 185.747 146.705 185.891 146.658C186.037 146.611 186.203 146.587 186.391 146.587C186.629 146.587 186.842 146.628 187.03 146.711C187.218 146.791 187.377 146.906 187.509 147.056C187.643 147.207 187.745 147.387 187.816 147.599C187.886 147.811 187.921 148.047 187.921 148.308C187.921 148.554 187.887 148.781 187.819 148.988C187.753 149.195 187.654 149.376 187.52 149.531C187.386 149.684 187.216 149.802 187.012 149.887C186.81 149.972 186.571 150.014 186.296 150.014C186.089 150.014 185.893 149.986 185.708 149.929C185.524 149.871 185.36 149.782 185.214 149.665C185.071 149.545 184.953 149.397 184.861 149.221C184.772 149.042 184.716 148.833 184.692 148.593H185.313C185.341 148.786 185.397 148.948 185.482 149.08C185.567 149.211 185.677 149.311 185.813 149.379C185.952 149.445 186.113 149.478 186.296 149.478C186.451 149.478 186.589 149.451 186.709 149.397C186.829 149.343 186.93 149.265 187.012 149.164C187.094 149.063 187.156 148.941 187.199 148.798C187.243 148.654 187.266 148.493 187.266 148.315C187.266 148.152 187.243 148.002 187.199 147.863C187.154 147.725 187.087 147.604 186.998 147.5C186.911 147.397 186.804 147.317 186.677 147.261C186.55 147.202 186.404 147.172 186.24 147.172C186.021 147.172 185.856 147.202 185.743 147.261C185.632 147.319 185.518 147.399 185.401 147.5Z" fill="#8794BA"/>
<path d="M80.3878 51.799H78.6533L78.6439 51.0705H80.2185C80.4786 51.0705 80.7058 51.0266 80.9001 50.9388C81.0944 50.8511 81.2448 50.7258 81.3514 50.5628C81.461 50.3967 81.5159 50.1993 81.5159 49.9705C81.5159 49.7198 81.4673 49.5162 81.3702 49.3595C81.2762 49.1996 81.1304 49.0837 80.933 49.0116C80.7387 48.9364 80.4912 48.8988 80.1903 48.8988H78.8554V55.0001H77.9482V48.1561H80.1903C80.5413 48.1561 80.8547 48.1922 81.1304 48.2642C81.4062 48.3332 81.6397 48.4429 81.8308 48.5933C82.0251 48.7406 82.1724 48.9286 82.2727 49.1573C82.3729 49.3861 82.4231 49.6603 82.4231 49.9799C82.4231 50.262 82.351 50.5174 82.2069 50.7461C82.0627 50.9717 81.8622 51.1566 81.6052 51.3008C81.3514 51.4449 81.0537 51.5374 80.7121 51.5781L80.3878 51.799ZM80.3455 55.0001H78.296L78.8084 54.2621H80.3455C80.6338 54.2621 80.8782 54.212 81.0787 54.1117C81.2824 54.0114 81.4375 53.8704 81.5441 53.6886C81.6506 53.5038 81.7039 53.286 81.7039 53.0353C81.7039 52.7814 81.6585 52.5621 81.5676 52.3772C81.4767 52.1923 81.3341 52.0497 81.1398 51.9495C80.9456 51.8492 80.6949 51.799 80.3878 51.799H79.0951L79.1045 51.0705H80.8719L81.0646 51.3337C81.3937 51.3619 81.6726 51.4559 81.9013 51.6157C82.1301 51.7724 82.304 51.973 82.4231 52.2174C82.5453 52.4618 82.6064 52.7313 82.6064 53.0259C82.6064 53.4521 82.5124 53.8124 82.3244 54.107C82.1395 54.3984 81.8778 54.6209 81.5394 54.7745C81.201 54.9249 80.803 55.0001 80.3455 55.0001ZM83.5841 52.5135V52.4054C83.5841 52.0388 83.6374 51.6988 83.7439 51.3854C83.8505 51.0689 84.004 50.7947 84.2046 50.5628C84.4051 50.3278 84.648 50.146 84.9332 50.0175C85.2183 49.8859 85.538 49.8201 85.8921 49.8201C86.2493 49.8201 86.5705 49.8859 86.8557 50.0175C87.144 50.146 87.3884 50.3278 87.589 50.5628C87.7927 50.7947 87.9478 51.0689 88.0543 51.3854C88.1609 51.6988 88.2141 52.0388 88.2141 52.4054V52.5135C88.2141 52.8802 88.1609 53.2202 88.0543 53.5335C87.9478 53.8469 87.7927 54.1211 87.589 54.3561C87.3884 54.588 87.1455 54.7698 86.8604 54.9014C86.5783 55.0299 86.2587 55.0941 85.9015 55.0941C85.5442 55.0941 85.223 55.0299 84.9379 54.9014C84.6527 54.7698 84.4083 54.588 84.2046 54.3561C84.004 54.1211 83.8505 53.8469 83.7439 53.5335C83.6374 53.2202 83.5841 52.8802 83.5841 52.5135ZM84.4537 52.4054V52.5135C84.4537 52.7673 84.4835 53.0071 84.543 53.2327C84.6026 53.4552 84.6919 53.6526 84.811 53.825C84.9332 53.9973 85.0852 54.1336 85.2669 54.2339C85.4487 54.3311 85.6602 54.3796 85.9015 54.3796C86.1396 54.3796 86.348 54.3311 86.5266 54.2339C86.7084 54.1336 86.8588 53.9973 86.9779 53.825C87.097 53.6526 87.1863 53.4552 87.2458 53.2327C87.3085 53.0071 87.3398 52.7673 87.3398 52.5135V52.4054C87.3398 52.1547 87.3085 51.9181 87.2458 51.6956C87.1863 51.47 87.0954 51.271 86.9732 51.0987C86.8541 50.9232 86.7037 50.7853 86.5219 50.685C86.3433 50.5847 86.1334 50.5346 85.8921 50.5346C85.6539 50.5346 85.444 50.5847 85.2622 50.685C85.0836 50.7853 84.9332 50.9232 84.811 51.0987C84.6919 51.271 84.6026 51.47 84.543 51.6956C84.4835 51.9181 84.4537 52.1547 84.4537 52.4054ZM91.2037 52.5699H90.2683V52.0341H91.1332C91.3744 52.0341 91.5656 52.0043 91.7066 51.9448C91.8476 51.8821 91.9479 51.7959 92.0075 51.6862C92.067 51.5765 92.0968 51.4481 92.0968 51.3008C92.0968 51.1692 92.0623 51.0454 91.9933 50.9294C91.9275 50.8104 91.821 50.7148 91.6737 50.6427C91.5264 50.5675 91.329 50.5299 91.0814 50.5299C90.8809 50.5299 90.6991 50.5659 90.5362 50.638C90.3732 50.7069 90.2432 50.8025 90.146 50.9247C90.052 51.0438 90.005 51.1786 90.005 51.329H89.1354C89.1354 51.0188 89.2232 50.7524 89.3987 50.5299C89.5773 50.3043 89.8139 50.1304 90.1084 50.0081C90.4061 49.8859 90.7305 49.8248 91.0814 49.8248C91.376 49.8248 91.6392 49.8577 91.8711 49.9235C92.1062 49.9862 92.3052 50.0802 92.4681 50.2056C92.6311 50.3278 92.7548 50.4813 92.8394 50.6662C92.9272 50.848 92.9711 51.0595 92.9711 51.3008C92.9711 51.4731 92.9303 51.6361 92.8488 51.7896C92.7674 51.9432 92.6499 52.0795 92.4963 52.1986C92.3428 52.3145 92.1563 52.4054 91.9369 52.4712C91.7207 52.537 91.4763 52.5699 91.2037 52.5699ZM90.2683 52.2409H91.2037C91.5076 52.2409 91.7756 52.2707 92.0075 52.3302C92.2393 52.3866 92.4336 52.4712 92.5903 52.584C92.747 52.6968 92.8645 52.8363 92.9429 53.0024C93.0243 53.1653 93.0651 53.3533 93.0651 53.5664C93.0651 53.8046 93.0165 54.0192 92.9194 54.2104C92.8253 54.3984 92.6906 54.5582 92.5151 54.6899C92.3396 54.8215 92.1297 54.9217 91.8852 54.9907C91.6439 55.0596 91.376 55.0941 91.0814 55.0941C90.7524 55.0941 90.4328 55.0377 90.1225 54.9249C89.8123 54.8121 89.5569 54.6382 89.3564 54.4031C89.1558 54.165 89.0555 53.8626 89.0555 53.4959H89.9251C89.9251 53.6495 89.9737 53.7952 90.0708 53.9331C90.168 54.071 90.3027 54.1822 90.4751 54.2668C90.6506 54.3514 90.8527 54.3937 91.0814 54.3937C91.3259 54.3937 91.5296 54.3561 91.6925 54.2809C91.8555 54.2057 91.9777 54.1054 92.0592 53.9801C92.1438 53.8547 92.1861 53.7184 92.1861 53.5711C92.1861 53.38 92.1485 53.2264 92.0733 53.1105C91.9981 52.9945 91.8821 52.9099 91.7254 52.8567C91.5719 52.8002 91.3744 52.772 91.1332 52.772H90.2683V52.2409ZM95.0628 50.8918V56.9555H94.1885V49.9141H94.9876L95.0628 50.8918ZM98.4895 52.4148V52.5135C98.4895 52.8833 98.4456 53.2264 98.3579 53.5429C98.2701 53.8563 98.1416 54.1289 97.9724 54.3608C97.8063 54.5927 97.6011 54.7729 97.3566 54.9014C97.1122 55.0299 96.8318 55.0941 96.5153 55.0941C96.1925 55.0941 95.9073 55.0408 95.6598 54.9343C95.4122 54.8277 95.2022 54.6726 95.0299 54.4689C94.8575 54.2652 94.7197 54.0208 94.6162 53.7357C94.516 53.4505 94.447 53.1293 94.4094 52.772V52.2456C94.447 51.8695 94.5175 51.5327 94.6209 51.235C94.7244 50.9373 94.8607 50.6834 95.0299 50.4735C95.2022 50.2604 95.4106 50.099 95.6551 49.9893C95.8995 49.8765 96.1815 49.8201 96.5011 49.8201C96.8208 49.8201 97.1044 49.8828 97.3519 50.0081C97.5995 50.1304 97.8079 50.3058 97.9771 50.5346C98.1463 50.7634 98.2732 51.0376 98.3579 51.3572C98.4456 51.6737 98.4895 52.0262 98.4895 52.4148ZM97.6152 52.5135V52.4148C97.6152 52.161 97.5885 51.9228 97.5353 51.7003C97.482 51.4747 97.3989 51.2773 97.2861 51.1081C97.1765 50.9357 97.0354 50.801 96.8631 50.7038C96.6907 50.6035 96.4855 50.5534 96.2473 50.5534C96.028 50.5534 95.8368 50.591 95.6739 50.6662C95.514 50.7414 95.3777 50.8433 95.2649 50.9717C95.1521 51.0971 95.0597 51.2412 94.9876 51.4042C94.9186 51.564 94.8669 51.7301 94.8325 51.9024V53.1199C94.8951 53.3392 94.9829 53.5461 95.0957 53.7404C95.2085 53.9315 95.3589 54.0866 95.5469 54.2057C95.735 54.3216 95.9716 54.3796 96.2567 54.3796C96.4917 54.3796 96.6939 54.3311 96.8631 54.2339C97.0354 54.1336 97.1765 53.9973 97.2861 53.825C97.3989 53.6526 97.482 53.4552 97.5353 53.2327C97.5885 53.0071 97.6152 52.7673 97.6152 52.5135ZM102.598 54.1305V51.5123C102.598 51.3117 102.557 51.1378 102.476 50.9905C102.397 50.8401 102.278 50.7242 102.118 50.6427C101.958 50.5612 101.761 50.5205 101.526 50.5205C101.307 50.5205 101.114 50.5581 100.948 50.6333C100.785 50.7085 100.656 50.8072 100.562 50.9294C100.472 51.0517 100.426 51.1833 100.426 51.3243H99.5565C99.5565 51.1425 99.6035 50.9623 99.6975 50.7837C99.7915 50.6051 99.9263 50.4437 100.102 50.2996C100.28 50.1523 100.493 50.0363 100.741 49.9517C100.992 49.864 101.271 49.8201 101.578 49.8201C101.947 49.8201 102.273 49.8828 102.555 50.0081C102.841 50.1335 103.063 50.3231 103.223 50.5769C103.386 50.8276 103.467 51.1425 103.467 51.5217V53.8908C103.467 54.06 103.481 54.2402 103.51 54.4313C103.541 54.6225 103.586 54.787 103.646 54.9249V55.0001H102.739C102.695 54.8998 102.66 54.7666 102.635 54.6005C102.61 54.4313 102.598 54.2746 102.598 54.1305ZM102.748 51.9165L102.758 52.5276H101.879C101.631 52.5276 101.41 52.548 101.216 52.5887C101.021 52.6263 100.859 52.6843 100.727 52.7626C100.595 52.841 100.495 52.9397 100.426 53.0588C100.357 53.1747 100.323 53.311 100.323 53.4677C100.323 53.6275 100.359 53.7733 100.431 53.9049C100.503 54.0365 100.611 54.1415 100.755 54.2198C100.902 54.295 101.083 54.3326 101.296 54.3326C101.562 54.3326 101.797 54.2762 102.001 54.1634C102.204 54.0506 102.366 53.9127 102.485 53.7498C102.607 53.5868 102.673 53.4286 102.682 53.275L103.054 53.6933C103.032 53.825 102.972 53.9707 102.875 54.1305C102.778 54.2903 102.648 54.4439 102.485 54.5911C102.325 54.7353 102.134 54.8559 101.911 54.9531C101.692 55.0471 101.445 55.0941 101.169 55.0941C100.824 55.0941 100.522 55.0267 100.262 54.892C100.005 54.7572 99.804 54.577 99.6599 54.3514C99.5189 54.1227 99.4484 53.8673 99.4484 53.5852C99.4484 53.3126 99.5016 53.0729 99.6082 52.8661C99.7147 52.6561 99.8683 52.4822 100.069 52.3443C100.269 52.2033 100.511 52.0967 100.793 52.0247C101.075 51.9526 101.39 51.9165 101.738 51.9165H102.748ZM106.871 54.3796C107.077 54.3796 107.268 54.3373 107.444 54.2527C107.619 54.1681 107.764 54.0522 107.876 53.9049C107.989 53.7545 108.053 53.5837 108.069 53.3925H108.896C108.881 53.6933 108.779 53.9738 108.591 54.2339C108.406 54.4909 108.163 54.6993 107.862 54.8591C107.561 55.0158 107.231 55.0941 106.871 55.0941C106.488 55.0941 106.154 55.0267 105.869 54.892C105.587 54.7572 105.352 54.5723 105.164 54.3373C104.979 54.1023 104.84 53.8328 104.746 53.5288C104.655 53.2217 104.61 52.8974 104.61 52.5558V52.3584C104.61 52.0168 104.655 51.6941 104.746 51.3901C104.84 51.083 104.979 50.8119 105.164 50.5769C105.352 50.3419 105.587 50.157 105.869 50.0222C106.154 49.8875 106.488 49.8201 106.871 49.8201C107.268 49.8201 107.616 49.9016 107.914 50.0645C108.212 50.2244 108.445 50.4437 108.614 50.7226C108.787 50.9984 108.881 51.3117 108.896 51.6627H108.069C108.053 51.4528 107.994 51.2632 107.891 51.094C107.79 50.9247 107.652 50.79 107.477 50.6897C107.305 50.5863 107.102 50.5346 106.871 50.5346C106.604 50.5346 106.38 50.5879 106.198 50.6944C106.02 50.7978 105.877 50.9388 105.771 51.1175C105.667 51.2929 105.592 51.4888 105.545 51.705C105.501 51.9181 105.479 52.1359 105.479 52.3584V52.5558C105.479 52.7783 105.501 52.9977 105.545 53.2139C105.589 53.4301 105.662 53.626 105.766 53.8015C105.872 53.9769 106.015 54.118 106.194 54.2245C106.375 54.3279 106.601 54.3796 106.871 54.3796ZM111.947 49.9141V55.0001H111.073V49.9141H111.947ZM113.653 49.9141V50.6192H109.399V49.9141H113.653Z" fill="#8794BA"/>
<defs>
<filter id="filter0_d_1_110" x="0.618341" y="0.843195" width="435.763" height="321.447" filterUnits="userSpaceOnUse" color-interpolation-filters="sRGB">
<feFlood flood-opacity="0" result="BackgroundImageFix"/>
<feColorMatrix in="SourceAlpha" type="matrix" values="0 0 0 0 0 0 0 0 0 0 0 0 0 0 0 0 0 0 127 0" result="hardAlpha"/>
<feMorphology radius="16.0207" operator="erode" in="SourceAlpha" result="effect1_dropShadow_1_110"/>
<feOffset dy="19.2249"/>
<feGaussianBlur stdDeviation="26.7012"/>
<feColorMatrix type="matrix" values="0 0 0 0 0.0996452 0 0 0 0 0.164326 0 0 0 0 0.350284 0 0 0 0.2 0"/>
<feBlend mode="normal" in2="BackgroundImageFix" result="effect1_dropShadow_1_110"/>
<feBlend mode="normal" in="SourceGraphic" in2="effect1_dropShadow_1_110" result="shape"/>
</filter>
</defs>
</svg>
