<svg width="164" height="18" viewBox="0 0 164 18" fill="none" xmlns="http://www.w3.org/2000/svg">
<path d="M9.336 17.288C4.584 17.288 0.912 13.688 0.912 9.08C0.912 4.472 4.608 0.871999 9.36 0.871999C11.784 0.871999 14.064 1.904 15.48 3.608C15.816 3.992 15.984 4.376 15.984 4.808C15.984 5.6 15.312 6.272 14.472 6.272C14.016 6.272 13.584 6.056 13.224 5.648C12.192 4.448 10.896 3.872 9.36 3.872C6.384 3.872 4.248 6.056 4.248 9.104C4.248 12.128 6.384 14.288 9.36 14.288C10.872 14.288 12.144 13.712 13.2 12.512C13.584 12.104 13.992 11.888 14.472 11.888C15.312 11.888 15.96 12.56 15.96 13.352C15.96 13.736 15.816 14.12 15.456 14.552C14.064 16.256 11.784 17.288 9.336 17.288ZM21.2294 17C20.2694 17 19.5734 16.304 19.5734 15.344V2.528C19.5734 1.664 20.2454 0.871999 21.2054 0.871999C22.1414 0.871999 22.8134 1.592 22.8134 2.528V14.072H28.4534C29.3174 14.072 29.9414 14.72 29.9414 15.536C29.9414 16.376 29.3174 17 28.4534 17H21.2294ZM34.2679 17.288C33.3079 17.288 32.6359 16.568 32.6359 15.632V2.528C32.6359 1.592 33.3079 0.871999 34.2679 0.871999C35.2039 0.871999 35.8759 1.592 35.8759 2.528V15.632C35.8759 16.568 35.2039 17.288 34.2679 17.288ZM41.5877 17C40.6757 17 39.9797 16.304 39.9797 15.392V2.768C39.9797 1.856 40.6757 1.16 41.5877 1.16H49.3397C50.2037 1.16 50.8277 1.784 50.8277 2.624C50.8277 3.44 50.1797 4.088 49.3397 4.088H43.2197V7.304H47.4197C48.2357 7.304 48.8357 7.904 48.8357 8.696C48.8357 9.464 48.2357 10.064 47.4197 10.064H43.2197V14.072H49.6277C50.4917 14.072 51.1157 14.72 51.1157 15.536C51.1157 16.376 50.4677 17 49.6277 17H41.5877ZM66.0941 0.871999C67.0061 0.871999 67.7021 1.592 67.7021 2.528V15.656C67.7021 16.568 67.0301 17.288 66.1181 17.288C65.3261 17.288 64.9421 16.832 64.5101 16.304L57.4541 7.232V15.632C57.4541 16.568 56.7581 17.288 55.8461 17.288C54.9101 17.288 54.2141 16.568 54.2141 15.632V2.504C54.2141 1.592 54.9101 0.871999 55.7981 0.871999C56.6141 0.871999 56.9741 1.328 57.4541 1.928L64.4861 10.928L64.4621 2.528C64.4621 1.592 65.1581 0.871999 66.0941 0.871999ZM77.008 17.288C76.096 17.288 75.4 16.568 75.4 15.632V4.088H71.632C70.792 4.088 70.144 3.44 70.144 2.624C70.144 1.784 70.792 1.16 71.632 1.16H82.408C83.272 1.16 83.896 1.784 83.896 2.624C83.896 3.44 83.248 4.088 82.408 4.088H78.64V15.632C78.64 16.568 77.944 17.288 77.008 17.288ZM97.4103 17.288C95.5383 17.288 93.4743 16.448 92.2983 15.152C91.9143 14.768 91.6983 14.36 91.6983 13.904C91.7223 13.04 92.4183 12.464 93.1863 12.464C93.4743 12.464 93.7863 12.56 94.0263 12.776C94.6743 13.448 95.8023 14.408 97.4103 14.408C98.8263 14.408 99.6663 13.736 99.6663 12.656C99.6663 11.744 99.1143 11.36 97.6503 10.688L95.9463 9.92C93.4263 8.768 92.1063 7.4 92.1063 5.36C92.1063 2.696 94.3623 0.871999 97.3623 0.871999C99.7383 0.871999 101.13 1.976 101.802 2.744C102.138 3.104 102.234 3.464 102.234 3.776C102.234 4.592 101.49 5.216 100.746 5.216C100.458 5.216 100.146 5.12 99.8583 4.88C99.2103 4.304 98.4903 3.752 97.3623 3.752C96.2103 3.752 95.3943 4.304 95.3943 5.288C95.3943 6.08 95.8263 6.464 97.2423 7.112L99.0423 7.904C101.682 9.08 102.954 10.376 102.954 12.536C102.954 15.464 100.578 17.288 97.4103 17.288ZM107.909 17.288C106.973 17.288 106.277 16.568 106.277 15.632V2.816C106.277 1.856 106.973 1.16 107.933 1.16H112.253C115.637 1.16 117.941 3.224 117.941 6.272C117.941 9.296 115.589 11.408 112.253 11.408H109.517V15.632C109.517 16.568 108.821 17.288 107.909 17.288ZM109.517 8.576H112.229C113.717 8.576 114.629 7.688 114.629 6.272C114.629 4.904 113.717 4.016 112.229 4.016H109.517V8.576ZM132.161 14.864C132.305 15.2 132.353 15.488 132.353 15.728C132.353 16.592 131.681 17.288 130.769 17.288C130.073 17.288 129.545 16.88 129.233 16.136L128.561 14.504H121.865L121.193 16.136C120.905 16.88 120.377 17.288 119.681 17.288C118.769 17.288 118.073 16.592 118.073 15.728C118.073 15.488 118.145 15.2 118.265 14.864L123.689 1.976C123.977 1.256 124.505 0.871999 125.225 0.871999C125.945 0.871999 126.473 1.256 126.761 1.976L132.161 14.864ZM125.225 5.648L122.921 11.84H127.481L125.225 5.648ZM142.633 17.288C137.881 17.288 134.209 13.688 134.209 9.08C134.209 4.472 137.905 0.871999 142.657 0.871999C145.081 0.871999 147.361 1.904 148.777 3.608C149.113 3.992 149.281 4.376 149.281 4.808C149.281 5.6 148.609 6.272 147.769 6.272C147.313 6.272 146.881 6.056 146.521 5.648C145.489 4.448 144.193 3.872 142.657 3.872C139.681 3.872 137.545 6.056 137.545 9.104C137.545 12.128 139.681 14.288 142.657 14.288C144.169 14.288 145.441 13.712 146.497 12.512C146.881 12.104 147.289 11.888 147.769 11.888C148.609 11.888 149.257 12.56 149.257 13.352C149.257 13.736 149.113 14.12 148.753 14.552C147.361 16.256 145.081 17.288 142.633 17.288ZM154.478 17C153.566 17 152.87 16.304 152.87 15.392V2.768C152.87 1.856 153.566 1.16 154.478 1.16H162.23C163.094 1.16 163.718 1.784 163.718 2.624C163.718 3.44 163.07 4.088 162.23 4.088H156.11V7.304H160.31C161.126 7.304 161.726 7.904 161.726 8.696C161.726 9.464 161.126 10.064 160.31 10.064H156.11V14.072H162.518C163.382 14.072 164.006 14.72 164.006 15.536C164.006 16.376 163.358 17 162.518 17H154.478Z" fill="white"/>
</svg>
