<svg width="30" height="30" viewBox="0 0 30 30" fill="none" xmlns="http://www.w3.org/2000/svg">
<g clip-path="url(#clip0_278_5405)">
<path d="M21.265 10.5439C20.9081 10.5439 20.6531 10.7568 20.4287 10.9444C20.3981 10.9698 20.3679 10.9954 20.3372 11.0202L19.4185 11.7659C19.2974 11.8636 19.2558 12.0125 19.3081 12.1536C19.3626 12.2987 19.5064 12.4002 19.6584 12.4002C19.7418 12.4002 19.8217 12.3705 19.8903 12.3151L20.5619 11.7696C20.6092 11.7314 20.6606 11.6845 20.7151 11.6346C20.7574 11.5957 20.8017 11.5549 20.8474 11.5159C20.763 12.4881 20.4056 14.4469 18.9122 15.1921C18.7593 14.967 18.5512 14.7823 18.3066 14.6546C18.0621 14.5269 17.7887 14.4601 17.511 14.4603C16.9626 14.4603 16.4637 14.7132 16.1511 15.1351C14.875 13.3228 13.5007 12.6683 12.843 12.4464V12.4325C12.843 11.5317 12.089 10.7994 11.1619 10.7994C10.2354 10.7994 9.48158 11.5319 9.48158 12.4325C9.48158 12.4996 9.48599 12.5668 9.4944 12.6336C9.20835 12.7889 8.94608 12.9823 8.71531 13.2082C7.99331 13.9112 7.48072 14.9543 7.1919 16.3079C6.98722 17.2634 6.9669 18.0685 6.96508 18.2564L6.95117 18.2906L6.9649 18.3236V18.4611L7.00804 18.464C6.97699 18.5241 6.96222 18.5909 6.96508 18.658C6.96794 18.7252 6.9884 18.7905 7.02444 18.8479C7.06054 18.9053 7.11108 18.9528 7.17126 18.9859C7.23149 19.0191 7.2994 19.0368 7.36863 19.0374C7.43785 19.038 7.50608 19.0215 7.5669 18.9894C7.62772 18.9573 7.67908 18.9107 7.71622 18.8539C7.75335 18.7972 7.77504 18.7322 7.77913 18.6651C7.78326 18.598 7.76967 18.531 7.73976 18.4704H7.78404L7.78658 18.2987C7.78658 18.2682 7.80399 15.2266 9.29758 13.7715C9.44913 13.6244 9.61963 13.4969 9.80481 13.3922C9.96085 13.5999 10.1651 13.7689 10.4009 13.8857C10.6367 14.0025 10.8974 14.0637 11.1621 14.0645C11.4714 14.0656 11.7749 13.9833 12.0387 13.8268C12.3026 13.6703 12.5166 13.4456 12.6569 13.1779C13.3077 13.4171 14.6474 14.1157 15.8323 16.0332C15.831 16.0545 15.8301 16.0737 15.8301 16.093C15.8301 16.9931 16.5837 17.7254 17.5112 17.7254C18.4377 17.7254 19.1919 16.9931 19.1919 16.093C19.1919 16.047 19.1894 16.0001 19.1846 15.9518C19.9454 15.5983 21.4134 14.549 21.6633 11.6693C21.6799 11.6964 21.6965 11.7236 21.7123 11.7499C21.7593 11.8281 21.8043 11.902 21.8476 11.9631L22.3617 12.6823C22.4283 12.7759 22.5307 12.8298 22.6412 12.8298C22.7784 12.8298 22.9108 12.7488 22.9783 12.6237C23.0057 12.5725 23.02 12.5179 23.0211 12.4638V12.4503C23.0194 12.3789 22.996 12.3097 22.9538 12.2513L22.3167 11.3596C22.2841 11.3137 22.2524 11.2671 22.2215 11.2201C22.0412 10.9506 21.8167 10.6154 21.4002 10.5543C21.3554 10.5474 21.3104 10.5439 21.265 10.5439ZM10.3291 12.4325C10.3292 12.2179 10.417 12.0121 10.5732 11.8604C10.7294 11.7086 10.9412 11.6232 11.1621 11.6229C11.3832 11.6231 11.5951 11.7085 11.7514 11.8603C11.9077 12.012 11.9956 12.2178 11.9959 12.4325C11.9955 12.647 11.9075 12.8527 11.7512 13.0043C11.5949 13.1559 11.383 13.2412 11.1621 13.2414C10.9413 13.2412 10.7295 13.1559 10.5734 13.0043C10.4172 12.8526 10.3294 12.647 10.3291 12.4325ZM16.6776 16.093C16.6779 15.8784 16.7659 15.6728 16.9221 15.5211C17.0784 15.3694 17.2902 15.284 17.5112 15.2838C17.7321 15.2841 17.9439 15.3694 18.1 15.5211C18.2562 15.6729 18.3441 15.8785 18.3444 16.093C18.3442 16.3076 18.2563 16.5133 18.1001 16.665C17.9439 16.8167 17.7321 16.9021 17.5112 16.9023C17.2902 16.9022 17.0783 16.8169 16.922 16.6652C16.7657 16.5134 16.6778 16.3077 16.6776 16.093Z" fill="url(#paint0_linear_278_5405)" fill-opacity="0.8"/>
<path d="M14.9993 28.273C22.3296 28.273 28.272 22.3306 28.272 15.0003C28.272 7.66994 22.3296 1.72754 14.9993 1.72754C7.66896 1.72754 1.72656 7.66994 1.72656 15.0003C1.72656 22.3306 7.66896 28.273 14.9993 28.273Z" stroke="#EF2A82" stroke-width="2"/>
</g>
<defs>
<linearGradient id="paint0_linear_278_5405" x1="3000" y1="1456.9" x2="-4.05971e-05" y2="1456.9" gradientUnits="userSpaceOnUse">
<stop stop-color="#95C11F"/>
<stop offset="1" stop-color="#006633"/>
</linearGradient>
<clipPath id="clip0_278_5405">
<rect width="30" height="30" fill="white"/>
</clipPath>
</defs>
</svg>
