<svg width="802" height="90" viewBox="0 0 802 90" fill="none" xmlns="http://www.w3.org/2000/svg">
<rect x="0.5" y="0.5" width="801" height="89" rx="4.5" stroke="#7B61FF" stroke-dasharray="10 5"/>
<rect x="20" y="20" width="255" height="50" rx="25" fill="#EF2A82"/>
<path d="M105.625 39.125V50.5H104.141V39.125H105.625ZM109.281 39.125V40.3594H100.492V39.125H109.281ZM113.477 50.6562C112.888 50.6562 112.354 50.5573 111.875 50.3594C111.401 50.1562 110.992 49.8724 110.648 49.5078C110.31 49.1432 110.049 48.7109 109.867 48.2109C109.685 47.7109 109.594 47.1641 109.594 46.5703V46.2422C109.594 45.5547 109.695 44.9427 109.898 44.4062C110.102 43.8646 110.378 43.4062 110.727 43.0312C111.076 42.6562 111.471 42.3724 111.914 42.1797C112.357 41.987 112.815 41.8906 113.289 41.8906C113.893 41.8906 114.414 41.9948 114.852 42.2031C115.294 42.4115 115.656 42.7031 115.938 43.0781C116.219 43.4479 116.427 43.8854 116.562 44.3906C116.698 44.8906 116.766 45.4375 116.766 46.0312V46.6797H110.453V45.5H115.32V45.3906C115.299 45.0156 115.221 44.651 115.086 44.2969C114.956 43.9427 114.747 43.651 114.461 43.4219C114.174 43.1927 113.784 43.0781 113.289 43.0781C112.961 43.0781 112.659 43.1484 112.383 43.2891C112.107 43.4245 111.87 43.6276 111.672 43.8984C111.474 44.1693 111.32 44.5 111.211 44.8906C111.102 45.2812 111.047 45.7318 111.047 46.2422V46.5703C111.047 46.9714 111.102 47.349 111.211 47.7031C111.326 48.0521 111.49 48.3594 111.703 48.625C111.922 48.8906 112.185 49.099 112.492 49.25C112.805 49.401 113.159 49.4766 113.555 49.4766C114.065 49.4766 114.497 49.3724 114.852 49.1641C115.206 48.9557 115.516 48.6771 115.781 48.3281L116.656 49.0234C116.474 49.2995 116.242 49.5625 115.961 49.8125C115.68 50.0625 115.333 50.2656 114.922 50.4219C114.516 50.5781 114.034 50.6562 113.477 50.6562ZM121.836 49.4688C122.18 49.4688 122.497 49.3984 122.789 49.2578C123.081 49.1172 123.32 48.9245 123.508 48.6797C123.695 48.4297 123.802 48.1458 123.828 47.8281H125.203C125.177 48.3281 125.008 48.7943 124.695 49.2266C124.388 49.6536 123.984 50 123.484 50.2656C122.984 50.526 122.435 50.6562 121.836 50.6562C121.201 50.6562 120.646 50.5443 120.172 50.3203C119.703 50.0964 119.312 49.7891 119 49.3984C118.693 49.0078 118.461 48.5599 118.305 48.0547C118.154 47.5443 118.078 47.0052 118.078 46.4375V46.1094C118.078 45.5417 118.154 45.0052 118.305 44.5C118.461 43.9896 118.693 43.5391 119 43.1484C119.312 42.7578 119.703 42.4505 120.172 42.2266C120.646 42.0026 121.201 41.8906 121.836 41.8906C122.497 41.8906 123.076 42.026 123.57 42.2969C124.065 42.5625 124.453 42.9271 124.734 43.3906C125.021 43.849 125.177 44.3698 125.203 44.9531H123.828C123.802 44.6042 123.703 44.2891 123.531 44.0078C123.365 43.7266 123.135 43.5026 122.844 43.3359C122.557 43.1641 122.221 43.0781 121.836 43.0781C121.393 43.0781 121.021 43.1667 120.719 43.3438C120.422 43.5156 120.185 43.75 120.008 44.0469C119.836 44.3385 119.711 44.6641 119.633 45.0234C119.56 45.3776 119.523 45.7396 119.523 46.1094V46.4375C119.523 46.8073 119.56 47.1719 119.633 47.5312C119.706 47.8906 119.828 48.2161 120 48.5078C120.177 48.7995 120.414 49.0339 120.711 49.2109C121.013 49.3828 121.388 49.4688 121.836 49.4688ZM130.273 42.0469V50.5H128.82V42.0469H130.273ZM133.109 42.0469V43.2188H126.039V42.0469H133.109ZM136.094 48.2109L139.992 42.0469H141.445V50.5H139.992V44.3359L136.094 50.5H134.656V42.0469H136.094V48.2109ZM145.211 43.6719V53.75H143.758V42.0469H145.086L145.211 43.6719ZM150.906 46.2031V46.3672C150.906 46.9818 150.833 47.5521 150.688 48.0781C150.542 48.599 150.328 49.0521 150.047 49.4375C149.771 49.8229 149.43 50.1224 149.023 50.3359C148.617 50.5495 148.151 50.6562 147.625 50.6562C147.089 50.6562 146.615 50.5677 146.203 50.3906C145.792 50.2135 145.443 49.9557 145.156 49.6172C144.87 49.2786 144.641 48.8724 144.469 48.3984C144.302 47.9245 144.188 47.3906 144.125 46.7969V45.9219C144.188 45.2969 144.305 44.737 144.477 44.2422C144.648 43.7474 144.875 43.3255 145.156 42.9766C145.443 42.6224 145.789 42.3542 146.195 42.1719C146.602 41.9844 147.07 41.8906 147.602 41.8906C148.133 41.8906 148.604 41.9948 149.016 42.2031C149.427 42.4062 149.773 42.6979 150.055 43.0781C150.336 43.4583 150.547 43.9141 150.688 44.4453C150.833 44.9714 150.906 45.5573 150.906 46.2031ZM149.453 46.3672V46.2031C149.453 45.7812 149.409 45.3854 149.32 45.0156C149.232 44.6406 149.094 44.3125 148.906 44.0312C148.724 43.7448 148.49 43.5208 148.203 43.3594C147.917 43.1927 147.576 43.1094 147.18 43.1094C146.815 43.1094 146.497 43.1719 146.227 43.2969C145.961 43.4219 145.734 43.5911 145.547 43.8047C145.359 44.013 145.206 44.2526 145.086 44.5234C144.971 44.7891 144.885 45.0651 144.828 45.3516V47.375C144.932 47.7396 145.078 48.0833 145.266 48.4062C145.453 48.724 145.703 48.9818 146.016 49.1797C146.328 49.3724 146.721 49.4688 147.195 49.4688C147.586 49.4688 147.922 49.388 148.203 49.2266C148.49 49.0599 148.724 48.8333 148.906 48.5469C149.094 48.2604 149.232 47.9323 149.32 47.5625C149.409 47.1875 149.453 46.7891 149.453 46.3672ZM152.367 46.3672V46.1875C152.367 45.5781 152.456 45.013 152.633 44.4922C152.81 43.9661 153.065 43.5104 153.398 43.125C153.732 42.7344 154.135 42.4323 154.609 42.2188C155.083 42 155.615 41.8906 156.203 41.8906C156.797 41.8906 157.331 42 157.805 42.2188C158.284 42.4323 158.69 42.7344 159.023 43.125C159.362 43.5104 159.62 43.9661 159.797 44.4922C159.974 45.013 160.062 45.5781 160.062 46.1875V46.3672C160.062 46.9766 159.974 47.5417 159.797 48.0625C159.62 48.5833 159.362 49.0391 159.023 49.4297C158.69 49.8151 158.286 50.1172 157.812 50.3359C157.344 50.5495 156.812 50.6562 156.219 50.6562C155.625 50.6562 155.091 50.5495 154.617 50.3359C154.143 50.1172 153.737 49.8151 153.398 49.4297C153.065 49.0391 152.81 48.5833 152.633 48.0625C152.456 47.5417 152.367 46.9766 152.367 46.3672ZM153.812 46.1875V46.3672C153.812 46.7891 153.862 47.1875 153.961 47.5625C154.06 47.9323 154.208 48.2604 154.406 48.5469C154.609 48.8333 154.862 49.0599 155.164 49.2266C155.466 49.388 155.818 49.4688 156.219 49.4688C156.615 49.4688 156.961 49.388 157.258 49.2266C157.56 49.0599 157.81 48.8333 158.008 48.5469C158.206 48.2604 158.354 47.9323 158.453 47.5625C158.557 47.1875 158.609 46.7891 158.609 46.3672V46.1875C158.609 45.7708 158.557 45.3776 158.453 45.0078C158.354 44.6328 158.203 44.3021 158 44.0156C157.802 43.724 157.552 43.4948 157.25 43.3281C156.953 43.1615 156.604 43.0781 156.203 43.0781C155.807 43.0781 155.458 43.1615 155.156 43.3281C154.859 43.4948 154.609 43.724 154.406 44.0156C154.208 44.3021 154.06 44.6328 153.961 45.0078C153.862 45.3776 153.812 45.7708 153.812 46.1875ZM165.844 46.7812H163.07L163.055 45.625H165.32C165.768 45.625 166.141 45.5807 166.438 45.4922C166.74 45.4036 166.966 45.2708 167.117 45.0938C167.268 44.9167 167.344 44.6979 167.344 44.4375C167.344 44.2344 167.299 44.0573 167.211 43.9062C167.128 43.75 167 43.6224 166.828 43.5234C166.656 43.4193 166.443 43.3438 166.188 43.2969C165.938 43.2448 165.643 43.2188 165.305 43.2188H163.453V50.5H162.008V42.0469H165.305C165.841 42.0469 166.323 42.0938 166.75 42.1875C167.182 42.2812 167.549 42.4245 167.852 42.6172C168.159 42.8047 168.393 43.0443 168.555 43.3359C168.716 43.6276 168.797 43.9714 168.797 44.3672C168.797 44.6224 168.745 44.8646 168.641 45.0938C168.536 45.3229 168.383 45.526 168.18 45.7031C167.977 45.8802 167.727 46.026 167.43 46.1406C167.133 46.25 166.792 46.3203 166.406 46.3516L165.844 46.7812ZM165.844 50.5H162.547L163.266 49.3281H165.844C166.245 49.3281 166.578 49.2786 166.844 49.1797C167.109 49.0755 167.307 48.9297 167.438 48.7422C167.573 48.5495 167.641 48.3203 167.641 48.0547C167.641 47.7891 167.573 47.5625 167.438 47.375C167.307 47.1823 167.109 47.0365 166.844 46.9375C166.578 46.8333 166.245 46.7812 165.844 46.7812H163.648L163.664 45.625H166.406L166.93 46.0625C167.393 46.099 167.786 46.2135 168.109 46.4062C168.432 46.599 168.677 46.8438 168.844 47.1406C169.01 47.4323 169.094 47.75 169.094 48.0938C169.094 48.4896 169.018 48.8385 168.867 49.1406C168.721 49.4427 168.508 49.6953 168.227 49.8984C167.945 50.0964 167.604 50.2474 167.203 50.3516C166.802 50.4505 166.349 50.5 165.844 50.5ZM176.016 49.0547V44.7031C176.016 44.3698 175.948 44.0807 175.812 43.8359C175.682 43.5859 175.484 43.3932 175.219 43.2578C174.953 43.1224 174.625 43.0547 174.234 43.0547C173.87 43.0547 173.549 43.1172 173.273 43.2422C173.003 43.3672 172.789 43.5312 172.633 43.7344C172.482 43.9375 172.406 44.1562 172.406 44.3906H170.961C170.961 44.0885 171.039 43.7891 171.195 43.4922C171.352 43.1953 171.576 42.9271 171.867 42.6875C172.164 42.4427 172.518 42.25 172.93 42.1094C173.346 41.9635 173.81 41.8906 174.32 41.8906C174.935 41.8906 175.477 41.9948 175.945 42.2031C176.419 42.4115 176.789 42.7266 177.055 43.1484C177.326 43.5651 177.461 44.0885 177.461 44.7188V48.6562C177.461 48.9375 177.484 49.237 177.531 49.5547C177.583 49.8724 177.659 50.1458 177.758 50.375V50.5H176.25C176.177 50.3333 176.12 50.112 176.078 49.8359C176.036 49.5547 176.016 49.2943 176.016 49.0547ZM176.266 45.375L176.281 46.3906H174.82C174.409 46.3906 174.042 46.4245 173.719 46.4922C173.396 46.5547 173.125 46.651 172.906 46.7812C172.688 46.9115 172.521 47.0755 172.406 47.2734C172.292 47.4661 172.234 47.6927 172.234 47.9531C172.234 48.2188 172.294 48.4609 172.414 48.6797C172.534 48.8984 172.714 49.0729 172.953 49.2031C173.198 49.3281 173.497 49.3906 173.852 49.3906C174.294 49.3906 174.685 49.2969 175.023 49.1094C175.362 48.9219 175.63 48.6927 175.828 48.4219C176.031 48.151 176.141 47.888 176.156 47.6328L176.773 48.3281C176.737 48.5469 176.638 48.7891 176.477 49.0547C176.315 49.3203 176.099 49.5755 175.828 49.8203C175.562 50.0599 175.245 50.2604 174.875 50.4219C174.51 50.5781 174.099 50.6562 173.641 50.6562C173.068 50.6562 172.565 50.5443 172.133 50.3203C171.706 50.0964 171.372 49.7969 171.133 49.4219C170.898 49.0417 170.781 48.6172 170.781 48.1484C170.781 47.6953 170.87 47.2969 171.047 46.9531C171.224 46.6042 171.479 46.3151 171.812 46.0859C172.146 45.8516 172.547 45.6745 173.016 45.5547C173.484 45.4349 174.008 45.375 174.586 45.375H176.266ZM183.055 42.0469V50.5H181.602V42.0469H183.055ZM185.891 42.0469V43.2188H178.82V42.0469H185.891ZM188.5 44.9531H191.039C191.721 44.9531 192.297 45.0729 192.766 45.3125C193.234 45.5469 193.589 45.8724 193.828 46.2891C194.073 46.7005 194.195 47.1693 194.195 47.6953C194.195 48.0859 194.128 48.4531 193.992 48.7969C193.857 49.1354 193.654 49.4323 193.383 49.6875C193.117 49.9427 192.786 50.1432 192.391 50.2891C192 50.4297 191.549 50.5 191.039 50.5H187.445V42.0469H188.891V49.3125H191.039C191.456 49.3125 191.789 49.237 192.039 49.0859C192.289 48.9349 192.469 48.7396 192.578 48.5C192.688 48.2604 192.742 48.0104 192.742 47.75C192.742 47.4948 192.688 47.2448 192.578 47C192.469 46.7552 192.289 46.5521 192.039 46.3906C191.789 46.224 191.456 46.1406 191.039 46.1406H188.5V44.9531Z" fill="white"/>
<rect x="316.5" y="20.5" width="254" height="49" rx="24.5" stroke="#2A407C"/>
<path d="M401.625 39.125V50.5H400.141V39.125H401.625ZM405.281 39.125V40.3594H396.492V39.125H405.281ZM409.477 50.6562C408.888 50.6562 408.354 50.5573 407.875 50.3594C407.401 50.1562 406.992 49.8724 406.648 49.5078C406.31 49.1432 406.049 48.7109 405.867 48.2109C405.685 47.7109 405.594 47.1641 405.594 46.5703V46.2422C405.594 45.5547 405.695 44.9427 405.898 44.4062C406.102 43.8646 406.378 43.4062 406.727 43.0312C407.076 42.6562 407.471 42.3724 407.914 42.1797C408.357 41.987 408.815 41.8906 409.289 41.8906C409.893 41.8906 410.414 41.9948 410.852 42.2031C411.294 42.4115 411.656 42.7031 411.938 43.0781C412.219 43.4479 412.427 43.8854 412.562 44.3906C412.698 44.8906 412.766 45.4375 412.766 46.0312V46.6797H406.453V45.5H411.32V45.3906C411.299 45.0156 411.221 44.651 411.086 44.2969C410.956 43.9427 410.747 43.651 410.461 43.4219C410.174 43.1927 409.784 43.0781 409.289 43.0781C408.961 43.0781 408.659 43.1484 408.383 43.2891C408.107 43.4245 407.87 43.6276 407.672 43.8984C407.474 44.1693 407.32 44.5 407.211 44.8906C407.102 45.2812 407.047 45.7318 407.047 46.2422V46.5703C407.047 46.9714 407.102 47.349 407.211 47.7031C407.326 48.0521 407.49 48.3594 407.703 48.625C407.922 48.8906 408.185 49.099 408.492 49.25C408.805 49.401 409.159 49.4766 409.555 49.4766C410.065 49.4766 410.497 49.3724 410.852 49.1641C411.206 48.9557 411.516 48.6771 411.781 48.3281L412.656 49.0234C412.474 49.2995 412.242 49.5625 411.961 49.8125C411.68 50.0625 411.333 50.2656 410.922 50.4219C410.516 50.5781 410.034 50.6562 409.477 50.6562ZM417.836 49.4688C418.18 49.4688 418.497 49.3984 418.789 49.2578C419.081 49.1172 419.32 48.9245 419.508 48.6797C419.695 48.4297 419.802 48.1458 419.828 47.8281H421.203C421.177 48.3281 421.008 48.7943 420.695 49.2266C420.388 49.6536 419.984 50 419.484 50.2656C418.984 50.526 418.435 50.6562 417.836 50.6562C417.201 50.6562 416.646 50.5443 416.172 50.3203C415.703 50.0964 415.312 49.7891 415 49.3984C414.693 49.0078 414.461 48.5599 414.305 48.0547C414.154 47.5443 414.078 47.0052 414.078 46.4375V46.1094C414.078 45.5417 414.154 45.0052 414.305 44.5C414.461 43.9896 414.693 43.5391 415 43.1484C415.312 42.7578 415.703 42.4505 416.172 42.2266C416.646 42.0026 417.201 41.8906 417.836 41.8906C418.497 41.8906 419.076 42.026 419.57 42.2969C420.065 42.5625 420.453 42.9271 420.734 43.3906C421.021 43.849 421.177 44.3698 421.203 44.9531H419.828C419.802 44.6042 419.703 44.2891 419.531 44.0078C419.365 43.7266 419.135 43.5026 418.844 43.3359C418.557 43.1641 418.221 43.0781 417.836 43.0781C417.393 43.0781 417.021 43.1667 416.719 43.3438C416.422 43.5156 416.185 43.75 416.008 44.0469C415.836 44.3385 415.711 44.6641 415.633 45.0234C415.56 45.3776 415.523 45.7396 415.523 46.1094V46.4375C415.523 46.8073 415.56 47.1719 415.633 47.5312C415.706 47.8906 415.828 48.2161 416 48.5078C416.177 48.7995 416.414 49.0339 416.711 49.2109C417.013 49.3828 417.388 49.4688 417.836 49.4688ZM426.273 42.0469V50.5H424.82V42.0469H426.273ZM429.109 42.0469V43.2188H422.039V42.0469H429.109ZM432.094 48.2109L435.992 42.0469H437.445V50.5H435.992V44.3359L432.094 50.5H430.656V42.0469H432.094V48.2109ZM441.211 43.6719V53.75H439.758V42.0469H441.086L441.211 43.6719ZM446.906 46.2031V46.3672C446.906 46.9818 446.833 47.5521 446.688 48.0781C446.542 48.599 446.328 49.0521 446.047 49.4375C445.771 49.8229 445.43 50.1224 445.023 50.3359C444.617 50.5495 444.151 50.6562 443.625 50.6562C443.089 50.6562 442.615 50.5677 442.203 50.3906C441.792 50.2135 441.443 49.9557 441.156 49.6172C440.87 49.2786 440.641 48.8724 440.469 48.3984C440.302 47.9245 440.188 47.3906 440.125 46.7969V45.9219C440.188 45.2969 440.305 44.737 440.477 44.2422C440.648 43.7474 440.875 43.3255 441.156 42.9766C441.443 42.6224 441.789 42.3542 442.195 42.1719C442.602 41.9844 443.07 41.8906 443.602 41.8906C444.133 41.8906 444.604 41.9948 445.016 42.2031C445.427 42.4062 445.773 42.6979 446.055 43.0781C446.336 43.4583 446.547 43.9141 446.688 44.4453C446.833 44.9714 446.906 45.5573 446.906 46.2031ZM445.453 46.3672V46.2031C445.453 45.7812 445.409 45.3854 445.32 45.0156C445.232 44.6406 445.094 44.3125 444.906 44.0312C444.724 43.7448 444.49 43.5208 444.203 43.3594C443.917 43.1927 443.576 43.1094 443.18 43.1094C442.815 43.1094 442.497 43.1719 442.227 43.2969C441.961 43.4219 441.734 43.5911 441.547 43.8047C441.359 44.013 441.206 44.2526 441.086 44.5234C440.971 44.7891 440.885 45.0651 440.828 45.3516V47.375C440.932 47.7396 441.078 48.0833 441.266 48.4062C441.453 48.724 441.703 48.9818 442.016 49.1797C442.328 49.3724 442.721 49.4688 443.195 49.4688C443.586 49.4688 443.922 49.388 444.203 49.2266C444.49 49.0599 444.724 48.8333 444.906 48.5469C445.094 48.2604 445.232 47.9323 445.32 47.5625C445.409 47.1875 445.453 46.7891 445.453 46.3672ZM448.367 46.3672V46.1875C448.367 45.5781 448.456 45.013 448.633 44.4922C448.81 43.9661 449.065 43.5104 449.398 43.125C449.732 42.7344 450.135 42.4323 450.609 42.2188C451.083 42 451.615 41.8906 452.203 41.8906C452.797 41.8906 453.331 42 453.805 42.2188C454.284 42.4323 454.69 42.7344 455.023 43.125C455.362 43.5104 455.62 43.9661 455.797 44.4922C455.974 45.013 456.062 45.5781 456.062 46.1875V46.3672C456.062 46.9766 455.974 47.5417 455.797 48.0625C455.62 48.5833 455.362 49.0391 455.023 49.4297C454.69 49.8151 454.286 50.1172 453.812 50.3359C453.344 50.5495 452.812 50.6562 452.219 50.6562C451.625 50.6562 451.091 50.5495 450.617 50.3359C450.143 50.1172 449.737 49.8151 449.398 49.4297C449.065 49.0391 448.81 48.5833 448.633 48.0625C448.456 47.5417 448.367 46.9766 448.367 46.3672ZM449.812 46.1875V46.3672C449.812 46.7891 449.862 47.1875 449.961 47.5625C450.06 47.9323 450.208 48.2604 450.406 48.5469C450.609 48.8333 450.862 49.0599 451.164 49.2266C451.466 49.388 451.818 49.4688 452.219 49.4688C452.615 49.4688 452.961 49.388 453.258 49.2266C453.56 49.0599 453.81 48.8333 454.008 48.5469C454.206 48.2604 454.354 47.9323 454.453 47.5625C454.557 47.1875 454.609 46.7891 454.609 46.3672V46.1875C454.609 45.7708 454.557 45.3776 454.453 45.0078C454.354 44.6328 454.203 44.3021 454 44.0156C453.802 43.724 453.552 43.4948 453.25 43.3281C452.953 43.1615 452.604 43.0781 452.203 43.0781C451.807 43.0781 451.458 43.1615 451.156 43.3281C450.859 43.4948 450.609 43.724 450.406 44.0156C450.208 44.3021 450.06 44.6328 449.961 45.0078C449.862 45.3776 449.812 45.7708 449.812 46.1875ZM461.844 46.7812H459.07L459.055 45.625H461.32C461.768 45.625 462.141 45.5807 462.438 45.4922C462.74 45.4036 462.966 45.2708 463.117 45.0938C463.268 44.9167 463.344 44.6979 463.344 44.4375C463.344 44.2344 463.299 44.0573 463.211 43.9062C463.128 43.75 463 43.6224 462.828 43.5234C462.656 43.4193 462.443 43.3438 462.188 43.2969C461.938 43.2448 461.643 43.2188 461.305 43.2188H459.453V50.5H458.008V42.0469H461.305C461.841 42.0469 462.323 42.0938 462.75 42.1875C463.182 42.2812 463.549 42.4245 463.852 42.6172C464.159 42.8047 464.393 43.0443 464.555 43.3359C464.716 43.6276 464.797 43.9714 464.797 44.3672C464.797 44.6224 464.745 44.8646 464.641 45.0938C464.536 45.3229 464.383 45.526 464.18 45.7031C463.977 45.8802 463.727 46.026 463.43 46.1406C463.133 46.25 462.792 46.3203 462.406 46.3516L461.844 46.7812ZM461.844 50.5H458.547L459.266 49.3281H461.844C462.245 49.3281 462.578 49.2786 462.844 49.1797C463.109 49.0755 463.307 48.9297 463.438 48.7422C463.573 48.5495 463.641 48.3203 463.641 48.0547C463.641 47.7891 463.573 47.5625 463.438 47.375C463.307 47.1823 463.109 47.0365 462.844 46.9375C462.578 46.8333 462.245 46.7812 461.844 46.7812H459.648L459.664 45.625H462.406L462.93 46.0625C463.393 46.099 463.786 46.2135 464.109 46.4062C464.432 46.599 464.677 46.8438 464.844 47.1406C465.01 47.4323 465.094 47.75 465.094 48.0938C465.094 48.4896 465.018 48.8385 464.867 49.1406C464.721 49.4427 464.508 49.6953 464.227 49.8984C463.945 50.0964 463.604 50.2474 463.203 50.3516C462.802 50.4505 462.349 50.5 461.844 50.5ZM472.016 49.0547V44.7031C472.016 44.3698 471.948 44.0807 471.812 43.8359C471.682 43.5859 471.484 43.3932 471.219 43.2578C470.953 43.1224 470.625 43.0547 470.234 43.0547C469.87 43.0547 469.549 43.1172 469.273 43.2422C469.003 43.3672 468.789 43.5312 468.633 43.7344C468.482 43.9375 468.406 44.1562 468.406 44.3906H466.961C466.961 44.0885 467.039 43.7891 467.195 43.4922C467.352 43.1953 467.576 42.9271 467.867 42.6875C468.164 42.4427 468.518 42.25 468.93 42.1094C469.346 41.9635 469.81 41.8906 470.32 41.8906C470.935 41.8906 471.477 41.9948 471.945 42.2031C472.419 42.4115 472.789 42.7266 473.055 43.1484C473.326 43.5651 473.461 44.0885 473.461 44.7188V48.6562C473.461 48.9375 473.484 49.237 473.531 49.5547C473.583 49.8724 473.659 50.1458 473.758 50.375V50.5H472.25C472.177 50.3333 472.12 50.112 472.078 49.8359C472.036 49.5547 472.016 49.2943 472.016 49.0547ZM472.266 45.375L472.281 46.3906H470.82C470.409 46.3906 470.042 46.4245 469.719 46.4922C469.396 46.5547 469.125 46.651 468.906 46.7812C468.688 46.9115 468.521 47.0755 468.406 47.2734C468.292 47.4661 468.234 47.6927 468.234 47.9531C468.234 48.2188 468.294 48.4609 468.414 48.6797C468.534 48.8984 468.714 49.0729 468.953 49.2031C469.198 49.3281 469.497 49.3906 469.852 49.3906C470.294 49.3906 470.685 49.2969 471.023 49.1094C471.362 48.9219 471.63 48.6927 471.828 48.4219C472.031 48.151 472.141 47.888 472.156 47.6328L472.773 48.3281C472.737 48.5469 472.638 48.7891 472.477 49.0547C472.315 49.3203 472.099 49.5755 471.828 49.8203C471.562 50.0599 471.245 50.2604 470.875 50.4219C470.51 50.5781 470.099 50.6562 469.641 50.6562C469.068 50.6562 468.565 50.5443 468.133 50.3203C467.706 50.0964 467.372 49.7969 467.133 49.4219C466.898 49.0417 466.781 48.6172 466.781 48.1484C466.781 47.6953 466.87 47.2969 467.047 46.9531C467.224 46.6042 467.479 46.3151 467.812 46.0859C468.146 45.8516 468.547 45.6745 469.016 45.5547C469.484 45.4349 470.008 45.375 470.586 45.375H472.266ZM479.055 42.0469V50.5H477.602V42.0469H479.055ZM481.891 42.0469V43.2188H474.82V42.0469H481.891ZM484.5 44.9531H487.039C487.721 44.9531 488.297 45.0729 488.766 45.3125C489.234 45.5469 489.589 45.8724 489.828 46.2891C490.073 46.7005 490.195 47.1693 490.195 47.6953C490.195 48.0859 490.128 48.4531 489.992 48.7969C489.857 49.1354 489.654 49.4323 489.383 49.6875C489.117 49.9427 488.786 50.1432 488.391 50.2891C488 50.4297 487.549 50.5 487.039 50.5H483.445V42.0469H484.891V49.3125H487.039C487.456 49.3125 487.789 49.237 488.039 49.0859C488.289 48.9349 488.469 48.7396 488.578 48.5C488.688 48.2604 488.742 48.0104 488.742 47.75C488.742 47.4948 488.688 47.2448 488.578 47C488.469 46.7552 488.289 46.5521 488.039 46.3906C487.789 46.224 487.456 46.1406 487.039 46.1406H484.5V44.9531Z" fill="white"/>
<rect x="596.5" y="25.5" width="159" height="39" rx="19.5" stroke="#465B95"/>
<path d="M653.805 45.0391H652.453V44.0781H653.75C654.323 44.0781 654.786 43.9974 655.141 43.8359C655.495 43.6745 655.753 43.4505 655.914 43.1641C656.076 42.8776 656.156 42.5469 656.156 42.1719C656.156 41.8125 656.068 41.4844 655.891 41.1875C655.714 40.8854 655.44 40.6458 655.07 40.4688C654.701 40.2865 654.224 40.1953 653.641 40.1953C653.203 40.1953 652.807 40.2786 652.453 40.4453C652.099 40.6068 651.818 40.8333 651.609 41.125C651.401 41.4115 651.297 41.7422 651.297 42.1172H649.789C649.789 41.6328 649.891 41.1979 650.094 40.8125C650.297 40.4219 650.576 40.0911 650.93 39.8203C651.284 39.5443 651.693 39.3333 652.156 39.1875C652.625 39.0417 653.12 38.9688 653.641 38.9688C654.25 38.9688 654.802 39.0391 655.297 39.1797C655.792 39.3151 656.216 39.5182 656.57 39.7891C656.924 40.0599 657.195 40.3958 657.383 40.7969C657.57 41.1979 657.664 41.6641 657.664 42.1953C657.664 42.5859 657.573 42.9531 657.391 43.2969C657.208 43.6406 656.948 43.9427 656.609 44.2031C656.271 44.4635 655.865 44.6693 655.391 44.8203C654.917 44.9661 654.388 45.0391 653.805 45.0391ZM652.453 44.375H653.805C654.445 44.375 655.016 44.4401 655.516 44.5703C656.016 44.7005 656.438 44.8906 656.781 45.1406C657.125 45.3906 657.385 45.7005 657.562 46.0703C657.745 46.4349 657.836 46.8542 657.836 47.3281C657.836 47.8594 657.732 48.3307 657.523 48.7422C657.32 49.1536 657.031 49.5026 656.656 49.7891C656.281 50.0755 655.836 50.2917 655.32 50.4375C654.81 50.5833 654.25 50.6562 653.641 50.6562C653.151 50.6562 652.667 50.5938 652.188 50.4688C651.714 50.3385 651.284 50.1406 650.898 49.875C650.513 49.6042 650.203 49.2604 649.969 48.8438C649.74 48.4271 649.625 47.9271 649.625 47.3438H651.133C651.133 47.724 651.237 48.0729 651.445 48.3906C651.659 48.7083 651.953 48.9635 652.328 49.1562C652.703 49.3438 653.141 49.4375 653.641 49.4375C654.214 49.4375 654.698 49.349 655.094 49.1719C655.495 48.9896 655.799 48.7422 656.008 48.4297C656.221 48.112 656.328 47.7552 656.328 47.3594C656.328 47.0104 656.271 46.7083 656.156 46.4531C656.047 46.1927 655.883 45.9792 655.664 45.8125C655.451 45.6458 655.182 45.5234 654.859 45.4453C654.542 45.362 654.172 45.3203 653.75 45.3203H652.453V44.375ZM664.586 49.0547V44.7031C664.586 44.3698 664.518 44.0807 664.383 43.8359C664.253 43.5859 664.055 43.3932 663.789 43.2578C663.523 43.1224 663.195 43.0547 662.805 43.0547C662.44 43.0547 662.12 43.1172 661.844 43.2422C661.573 43.3672 661.359 43.5312 661.203 43.7344C661.052 43.9375 660.977 44.1562 660.977 44.3906H659.531C659.531 44.0885 659.609 43.7891 659.766 43.4922C659.922 43.1953 660.146 42.9271 660.438 42.6875C660.734 42.4427 661.089 42.25 661.5 42.1094C661.917 41.9635 662.38 41.8906 662.891 41.8906C663.505 41.8906 664.047 41.9948 664.516 42.2031C664.99 42.4115 665.359 42.7266 665.625 43.1484C665.896 43.5651 666.031 44.0885 666.031 44.7188V48.6562C666.031 48.9375 666.055 49.237 666.102 49.5547C666.154 49.8724 666.229 50.1458 666.328 50.375V50.5H664.82C664.747 50.3333 664.69 50.112 664.648 49.8359C664.607 49.5547 664.586 49.2943 664.586 49.0547ZM664.836 45.375L664.852 46.3906H663.391C662.979 46.3906 662.612 46.4245 662.289 46.4922C661.966 46.5547 661.695 46.651 661.477 46.7812C661.258 46.9115 661.091 47.0755 660.977 47.2734C660.862 47.4661 660.805 47.6927 660.805 47.9531C660.805 48.2188 660.865 48.4609 660.984 48.6797C661.104 48.8984 661.284 49.0729 661.523 49.2031C661.768 49.3281 662.068 49.3906 662.422 49.3906C662.865 49.3906 663.255 49.2969 663.594 49.1094C663.932 48.9219 664.201 48.6927 664.398 48.4219C664.602 48.151 664.711 47.888 664.727 47.6328L665.344 48.3281C665.307 48.5469 665.208 48.7891 665.047 49.0547C664.885 49.3203 664.669 49.5755 664.398 49.8203C664.133 50.0599 663.815 50.2604 663.445 50.4219C663.081 50.5781 662.669 50.6562 662.211 50.6562C661.638 50.6562 661.135 50.5443 660.703 50.3203C660.276 50.0964 659.943 49.7969 659.703 49.4219C659.469 49.0417 659.352 48.6172 659.352 48.1484C659.352 47.6953 659.44 47.2969 659.617 46.9531C659.794 46.6042 660.049 46.3151 660.383 46.0859C660.716 45.8516 661.117 45.6745 661.586 45.5547C662.055 45.4349 662.578 45.375 663.156 45.375H664.836ZM670.016 46.4688H671.578L669.133 50.5H667.57L670.016 46.4688ZM671.227 42.0469H674.758V50.5H673.312V43.2188H671.227C670.815 43.2188 670.479 43.2891 670.219 43.4297C669.958 43.5651 669.768 43.7422 669.648 43.9609C669.529 44.1797 669.469 44.4062 669.469 44.6406C669.469 44.8698 669.523 45.0911 669.633 45.3047C669.742 45.513 669.914 45.6849 670.148 45.8203C670.383 45.9557 670.685 46.0234 671.055 46.0234H673.703V47.2109H671.055C670.57 47.2109 670.141 47.1458 669.766 47.0156C669.391 46.8854 669.073 46.7057 668.812 46.4766C668.552 46.2422 668.354 45.9688 668.219 45.6562C668.083 45.3385 668.016 44.9948 668.016 44.625C668.016 44.2552 668.086 43.9141 668.227 43.6016C668.372 43.2891 668.581 43.0156 668.852 42.7812C669.128 42.5469 669.464 42.3672 669.859 42.2422C670.26 42.112 670.716 42.0469 671.227 42.0469ZM681.055 46.7812H678.281L678.266 45.625H680.531C680.979 45.625 681.352 45.5807 681.648 45.4922C681.951 45.4036 682.177 45.2708 682.328 45.0938C682.479 44.9167 682.555 44.6979 682.555 44.4375C682.555 44.2344 682.51 44.0573 682.422 43.9062C682.339 43.75 682.211 43.6224 682.039 43.5234C681.867 43.4193 681.654 43.3438 681.398 43.2969C681.148 43.2448 680.854 43.2188 680.516 43.2188H678.664V50.5H677.219V42.0469H680.516C681.052 42.0469 681.534 42.0938 681.961 42.1875C682.393 42.2812 682.76 42.4245 683.062 42.6172C683.37 42.8047 683.604 43.0443 683.766 43.3359C683.927 43.6276 684.008 43.9714 684.008 44.3672C684.008 44.6224 683.956 44.8646 683.852 45.0938C683.747 45.3229 683.594 45.526 683.391 45.7031C683.188 45.8802 682.938 46.026 682.641 46.1406C682.344 46.25 682.003 46.3203 681.617 46.3516L681.055 46.7812ZM681.055 50.5H677.758L678.477 49.3281H681.055C681.456 49.3281 681.789 49.2786 682.055 49.1797C682.32 49.0755 682.518 48.9297 682.648 48.7422C682.784 48.5495 682.852 48.3203 682.852 48.0547C682.852 47.7891 682.784 47.5625 682.648 47.375C682.518 47.1823 682.32 47.0365 682.055 46.9375C681.789 46.8333 681.456 46.7812 681.055 46.7812H678.859L678.875 45.625H681.617L682.141 46.0625C682.604 46.099 682.997 46.2135 683.32 46.4062C683.643 46.599 683.888 46.8438 684.055 47.1406C684.221 47.4323 684.305 47.75 684.305 48.0938C684.305 48.4896 684.229 48.8385 684.078 49.1406C683.932 49.4427 683.719 49.6953 683.438 49.8984C683.156 50.0964 682.815 50.2474 682.414 50.3516C682.013 50.4505 681.56 50.5 681.055 50.5ZM687.812 42.0469V50.5H686.367V42.0469H687.812ZM693.359 42.0469L689.352 46.8906H687.328L687.109 45.625H688.766L691.602 42.0469H693.359ZM691.805 50.5L688.695 46.6719L689.625 45.625L693.641 50.5H691.805ZM699.883 49.0547V44.7031C699.883 44.3698 699.815 44.0807 699.68 43.8359C699.549 43.5859 699.352 43.3932 699.086 43.2578C698.82 43.1224 698.492 43.0547 698.102 43.0547C697.737 43.0547 697.417 43.1172 697.141 43.2422C696.87 43.3672 696.656 43.5312 696.5 43.7344C696.349 43.9375 696.273 44.1562 696.273 44.3906H694.828C694.828 44.0885 694.906 43.7891 695.062 43.4922C695.219 43.1953 695.443 42.9271 695.734 42.6875C696.031 42.4427 696.385 42.25 696.797 42.1094C697.214 41.9635 697.677 41.8906 698.188 41.8906C698.802 41.8906 699.344 41.9948 699.812 42.2031C700.286 42.4115 700.656 42.7266 700.922 43.1484C701.193 43.5651 701.328 44.0885 701.328 44.7188V48.6562C701.328 48.9375 701.352 49.237 701.398 49.5547C701.451 49.8724 701.526 50.1458 701.625 50.375V50.5H700.117C700.044 50.3333 699.987 50.112 699.945 49.8359C699.904 49.5547 699.883 49.2943 699.883 49.0547ZM700.133 45.375L700.148 46.3906H698.688C698.276 46.3906 697.909 46.4245 697.586 46.4922C697.263 46.5547 696.992 46.651 696.773 46.7812C696.555 46.9115 696.388 47.0755 696.273 47.2734C696.159 47.4661 696.102 47.6927 696.102 47.9531C696.102 48.2188 696.161 48.4609 696.281 48.6797C696.401 48.8984 696.581 49.0729 696.82 49.2031C697.065 49.3281 697.365 49.3906 697.719 49.3906C698.161 49.3906 698.552 49.2969 698.891 49.1094C699.229 48.9219 699.497 48.6927 699.695 48.4219C699.898 48.151 700.008 47.888 700.023 47.6328L700.641 48.3281C700.604 48.5469 700.505 48.7891 700.344 49.0547C700.182 49.3203 699.966 49.5755 699.695 49.8203C699.43 50.0599 699.112 50.2604 698.742 50.4219C698.378 50.5781 697.966 50.6562 697.508 50.6562C696.935 50.6562 696.432 50.5443 696 50.3203C695.573 50.0964 695.24 49.7969 695 49.4219C694.766 49.0417 694.648 48.6172 694.648 48.1484C694.648 47.6953 694.737 47.2969 694.914 46.9531C695.091 46.6042 695.346 46.3151 695.68 46.0859C696.013 45.8516 696.414 45.6745 696.883 45.5547C697.352 45.4349 697.875 45.375 698.453 45.375H700.133Z" fill="#8794BA"/>
</svg>
