<svg width="670" height="480" viewBox="0 0 670 480" fill="none" xmlns="http://www.w3.org/2000/svg">
<g filter="url(#filter0_d_1_370)">
<rect x="35" y="17" width="600" height="410" rx="30" fill="white"/>
</g>
<rect x="105" y="119" width="66" height="52" fill="white"/>
<rect x="171" y="119" width="66" height="52" fill="white"/>
<path d="M204.111 140.422V149H203.027V141.775L200.841 142.572V141.594L203.941 140.422H204.111Z" fill="#172755"/>
<rect x="237" y="119" width="66" height="52" fill="white"/>
<path d="M272.138 148.109V149H266.554V148.221L269.349 145.109C269.693 144.727 269.958 144.402 270.146 144.137C270.337 143.867 270.47 143.627 270.544 143.416C270.622 143.201 270.662 142.982 270.662 142.76C270.662 142.479 270.603 142.225 270.486 141.998C270.372 141.768 270.205 141.584 269.982 141.447C269.759 141.311 269.49 141.242 269.173 141.242C268.794 141.242 268.478 141.316 268.224 141.465C267.974 141.609 267.787 141.812 267.662 142.074C267.537 142.336 267.474 142.637 267.474 142.977H266.39C266.39 142.496 266.496 142.057 266.706 141.658C266.917 141.26 267.23 140.943 267.644 140.709C268.058 140.471 268.568 140.352 269.173 140.352C269.712 140.352 270.173 140.447 270.556 140.639C270.939 140.826 271.232 141.092 271.435 141.436C271.642 141.775 271.746 142.174 271.746 142.631C271.746 142.881 271.703 143.135 271.617 143.393C271.535 143.646 271.419 143.9 271.271 144.154C271.126 144.408 270.956 144.658 270.761 144.904C270.57 145.15 270.365 145.393 270.146 145.631L267.861 148.109H272.138Z" fill="#172755"/>
<rect x="303" y="119" width="66" height="52" fill="white"/>
<path d="M334.13 144.201H334.904C335.283 144.201 335.595 144.139 335.841 144.014C336.091 143.885 336.277 143.711 336.398 143.492C336.523 143.27 336.585 143.02 336.585 142.742C336.585 142.414 336.531 142.139 336.421 141.916C336.312 141.693 336.148 141.525 335.929 141.412C335.71 141.299 335.433 141.242 335.097 141.242C334.792 141.242 334.523 141.303 334.289 141.424C334.058 141.541 333.876 141.709 333.744 141.928C333.615 142.146 333.55 142.404 333.55 142.701H332.466C332.466 142.268 332.576 141.873 332.794 141.518C333.013 141.162 333.32 140.879 333.714 140.668C334.113 140.457 334.574 140.352 335.097 140.352C335.613 140.352 336.064 140.443 336.451 140.627C336.837 140.807 337.138 141.076 337.353 141.436C337.568 141.791 337.675 142.234 337.675 142.766C337.675 142.98 337.624 143.211 337.523 143.457C337.425 143.699 337.271 143.926 337.06 144.137C336.853 144.348 336.583 144.521 336.251 144.658C335.919 144.791 335.521 144.857 335.056 144.857H334.13V144.201ZM334.13 145.092V144.441H335.056C335.599 144.441 336.048 144.506 336.404 144.635C336.759 144.764 337.039 144.936 337.242 145.15C337.449 145.365 337.593 145.602 337.675 145.859C337.761 146.113 337.804 146.367 337.804 146.621C337.804 147.02 337.736 147.373 337.599 147.682C337.466 147.99 337.277 148.252 337.031 148.467C336.789 148.682 336.503 148.844 336.175 148.953C335.847 149.062 335.49 149.117 335.103 149.117C334.732 149.117 334.382 149.064 334.054 148.959C333.73 148.854 333.443 148.701 333.193 148.502C332.943 148.299 332.747 148.051 332.607 147.758C332.466 147.461 332.396 147.123 332.396 146.744H333.48C333.48 147.041 333.544 147.301 333.673 147.523C333.806 147.746 333.994 147.92 334.236 148.045C334.482 148.166 334.771 148.227 335.103 148.227C335.435 148.227 335.72 148.17 335.958 148.057C336.201 147.939 336.386 147.764 336.515 147.529C336.648 147.295 336.714 147 336.714 146.645C336.714 146.289 336.64 145.998 336.492 145.771C336.343 145.541 336.132 145.371 335.859 145.262C335.589 145.148 335.271 145.092 334.904 145.092H334.13Z" fill="#172755"/>
<rect x="369" y="119" width="66" height="52" fill="white"/>
<path d="M404.314 146.129V147.02H398.15V146.381L401.97 140.469H402.855L401.906 142.18L399.38 146.129H404.314ZM403.124 140.469V149H402.04V140.469H403.124Z" fill="#172755"/>
<rect x="435" y="119" width="66" height="52" fill="white"/>
<path d="M465.919 144.939L465.052 144.717L465.48 140.469H469.857V141.471H466.4L466.142 143.791C466.298 143.701 466.496 143.617 466.734 143.539C466.976 143.461 467.253 143.422 467.566 143.422C467.96 143.422 468.314 143.49 468.626 143.627C468.939 143.76 469.205 143.951 469.423 144.201C469.646 144.451 469.816 144.752 469.933 145.104C470.05 145.455 470.109 145.848 470.109 146.281C470.109 146.691 470.052 147.068 469.939 147.412C469.83 147.756 469.664 148.057 469.441 148.314C469.218 148.568 468.937 148.766 468.597 148.906C468.261 149.047 467.865 149.117 467.408 149.117C467.064 149.117 466.738 149.07 466.429 148.977C466.124 148.879 465.851 148.732 465.609 148.537C465.371 148.338 465.175 148.092 465.023 147.799C464.874 147.502 464.781 147.154 464.742 146.756H465.773C465.82 147.076 465.914 147.346 466.054 147.564C466.195 147.783 466.378 147.949 466.605 148.062C466.835 148.172 467.103 148.227 467.408 148.227C467.665 148.227 467.894 148.182 468.093 148.092C468.292 148.002 468.46 147.873 468.597 147.705C468.734 147.537 468.837 147.334 468.908 147.096C468.982 146.857 469.019 146.59 469.019 146.293C469.019 146.023 468.982 145.773 468.908 145.543C468.833 145.312 468.722 145.111 468.574 144.939C468.429 144.768 468.251 144.635 468.04 144.541C467.83 144.443 467.587 144.395 467.314 144.395C466.951 144.395 466.675 144.443 466.488 144.541C466.304 144.639 466.115 144.771 465.919 144.939Z" fill="#172755"/>
<rect x="501" y="119" width="66" height="52" fill="white"/>
<path d="M534.708 140.457H534.802V141.377H534.708C534.134 141.377 533.654 141.471 533.267 141.658C532.88 141.842 532.574 142.09 532.347 142.402C532.121 142.711 531.956 143.059 531.855 143.445C531.757 143.832 531.708 144.225 531.708 144.623V145.877C531.708 146.256 531.753 146.592 531.843 146.885C531.933 147.174 532.056 147.418 532.212 147.617C532.369 147.816 532.544 147.967 532.74 148.068C532.939 148.17 533.146 148.221 533.361 148.221C533.611 148.221 533.833 148.174 534.029 148.08C534.224 147.982 534.388 147.848 534.521 147.676C534.658 147.5 534.761 147.293 534.831 147.055C534.902 146.816 534.937 146.555 534.937 146.27C534.937 146.016 534.906 145.771 534.843 145.537C534.781 145.299 534.685 145.088 534.556 144.904C534.427 144.717 534.265 144.57 534.07 144.465C533.878 144.355 533.65 144.301 533.384 144.301C533.083 144.301 532.802 144.375 532.54 144.523C532.283 144.668 532.07 144.859 531.902 145.098C531.738 145.332 531.644 145.588 531.621 145.865L531.046 145.859C531.101 145.422 531.203 145.049 531.351 144.74C531.503 144.428 531.691 144.174 531.914 143.979C532.14 143.779 532.392 143.635 532.669 143.545C532.951 143.451 533.247 143.404 533.56 143.404C533.986 143.404 534.353 143.484 534.662 143.645C534.97 143.805 535.224 144.02 535.423 144.289C535.622 144.555 535.769 144.855 535.863 145.191C535.96 145.523 536.009 145.865 536.009 146.217C536.009 146.619 535.953 146.996 535.839 147.348C535.726 147.699 535.556 148.008 535.33 148.273C535.107 148.539 534.831 148.746 534.503 148.895C534.175 149.043 533.794 149.117 533.361 149.117C532.9 149.117 532.497 149.023 532.154 148.836C531.81 148.645 531.525 148.391 531.298 148.074C531.072 147.758 530.902 147.406 530.789 147.02C530.675 146.633 530.619 146.24 530.619 145.842V145.332C530.619 144.73 530.679 144.141 530.8 143.562C530.921 142.984 531.13 142.461 531.427 141.992C531.728 141.523 532.144 141.15 532.675 140.873C533.206 140.596 533.884 140.457 534.708 140.457Z" fill="#172755"/>
<rect x="105" y="171" width="66" height="52" fill="white"/>
<path d="M140.062 192.469V193.078L136.529 201H135.386L138.914 193.359H134.296V192.469H140.062Z" fill="#172755"/>
<rect x="171" y="171" width="66" height="52" fill="white"/>
<circle cx="203.5" cy="196.5" r="19.5" fill="#0088F0"/>
<path d="M205.927 198.691C205.927 199.211 205.806 199.652 205.564 200.016C205.326 200.375 205.001 200.648 204.591 200.836C204.185 201.023 203.726 201.117 203.214 201.117C202.703 201.117 202.242 201.023 201.831 200.836C201.421 200.648 201.097 200.375 200.859 200.016C200.621 199.652 200.501 199.211 200.501 198.691C200.501 198.352 200.566 198.041 200.695 197.76C200.828 197.475 201.013 197.227 201.251 197.016C201.494 196.805 201.779 196.643 202.107 196.529C202.439 196.412 202.804 196.354 203.203 196.354C203.726 196.354 204.193 196.455 204.603 196.658C205.013 196.857 205.335 197.133 205.57 197.484C205.808 197.836 205.927 198.238 205.927 198.691ZM204.837 198.668C204.837 198.352 204.769 198.072 204.632 197.83C204.496 197.584 204.304 197.393 204.058 197.256C203.812 197.119 203.527 197.051 203.203 197.051C202.871 197.051 202.583 197.119 202.341 197.256C202.103 197.393 201.917 197.584 201.785 197.83C201.652 198.072 201.585 198.352 201.585 198.668C201.585 198.996 201.65 199.277 201.779 199.512C201.912 199.742 202.099 199.92 202.341 200.045C202.587 200.166 202.878 200.227 203.214 200.227C203.55 200.227 203.839 200.166 204.081 200.045C204.324 199.92 204.509 199.742 204.638 199.512C204.771 199.277 204.837 198.996 204.837 198.668ZM205.728 194.689C205.728 195.104 205.619 195.477 205.4 195.809C205.181 196.141 204.882 196.402 204.503 196.594C204.124 196.785 203.695 196.881 203.214 196.881C202.726 196.881 202.29 196.785 201.908 196.594C201.529 196.402 201.232 196.141 201.017 195.809C200.802 195.477 200.695 195.104 200.695 194.689C200.695 194.193 200.802 193.771 201.017 193.424C201.236 193.076 201.535 192.811 201.914 192.627C202.292 192.443 202.724 192.352 203.208 192.352C203.697 192.352 204.13 192.443 204.509 192.627C204.888 192.811 205.185 193.076 205.4 193.424C205.619 193.771 205.728 194.193 205.728 194.689ZM204.644 194.707C204.644 194.422 204.583 194.17 204.462 193.951C204.341 193.732 204.173 193.561 203.958 193.436C203.744 193.307 203.494 193.242 203.208 193.242C202.923 193.242 202.673 193.303 202.458 193.424C202.247 193.541 202.081 193.709 201.96 193.928C201.843 194.146 201.785 194.406 201.785 194.707C201.785 195 201.843 195.256 201.96 195.475C202.081 195.693 202.249 195.863 202.464 195.984C202.679 196.105 202.929 196.166 203.214 196.166C203.499 196.166 203.747 196.105 203.958 195.984C204.173 195.863 204.341 195.693 204.462 195.475C204.583 195.256 204.644 195 204.644 194.707Z" fill="#EEEEF7"/>
<rect x="237" y="171" width="66" height="52" fill="white"/>
<circle cx="269.5" cy="196.5" r="19.5" fill="#0088F0"/>
<path d="M267.626 200.092H267.738C268.363 200.092 268.871 200.004 269.261 199.828C269.652 199.652 269.953 199.416 270.164 199.119C270.374 198.822 270.519 198.488 270.597 198.117C270.675 197.742 270.714 197.357 270.714 196.963V195.656C270.714 195.27 270.669 194.926 270.58 194.625C270.494 194.324 270.372 194.072 270.216 193.869C270.064 193.666 269.89 193.512 269.695 193.406C269.499 193.301 269.292 193.248 269.074 193.248C268.824 193.248 268.599 193.299 268.4 193.4C268.205 193.498 268.039 193.637 267.902 193.816C267.769 193.996 267.667 194.207 267.597 194.449C267.527 194.691 267.492 194.955 267.492 195.24C267.492 195.494 267.523 195.74 267.585 195.979C267.648 196.217 267.744 196.432 267.872 196.623C268.001 196.814 268.162 196.967 268.353 197.08C268.548 197.189 268.777 197.244 269.039 197.244C269.281 197.244 269.507 197.197 269.718 197.104C269.933 197.006 270.122 196.875 270.287 196.711C270.455 196.543 270.587 196.354 270.685 196.143C270.787 195.932 270.845 195.711 270.861 195.48H271.376C271.376 195.805 271.312 196.125 271.183 196.441C271.058 196.754 270.882 197.039 270.656 197.297C270.429 197.555 270.164 197.762 269.859 197.918C269.554 198.07 269.222 198.146 268.863 198.146C268.441 198.146 268.076 198.064 267.767 197.9C267.458 197.736 267.205 197.518 267.005 197.244C266.81 196.971 266.664 196.666 266.566 196.33C266.472 195.99 266.425 195.646 266.425 195.299C266.425 194.893 266.482 194.512 266.595 194.156C266.708 193.801 266.876 193.488 267.099 193.219C267.322 192.945 267.597 192.732 267.925 192.58C268.257 192.428 268.64 192.352 269.074 192.352C269.562 192.352 269.978 192.449 270.322 192.645C270.665 192.84 270.945 193.102 271.16 193.43C271.378 193.758 271.539 194.127 271.64 194.537C271.742 194.947 271.792 195.369 271.792 195.803V196.195C271.792 196.637 271.763 197.086 271.705 197.543C271.65 197.996 271.542 198.43 271.382 198.844C271.226 199.258 270.997 199.629 270.697 199.957C270.396 200.281 270.003 200.539 269.519 200.73C269.039 200.918 268.445 201.012 267.738 201.012H267.626V200.092Z" fill="#EEEEF7"/>
<rect x="303" y="171" width="66" height="52" fill="white"/>
<circle cx="335.5" cy="196.5" r="19.5" fill="#0088F0"/>
<path d="M332.236 192.422V201H331.152V193.775L328.966 194.572V193.594L332.066 192.422H332.236ZM340.779 196.055V197.355C340.779 198.055 340.716 198.645 340.591 199.125C340.466 199.605 340.287 199.992 340.052 200.285C339.818 200.578 339.535 200.791 339.203 200.924C338.874 201.053 338.503 201.117 338.089 201.117C337.761 201.117 337.458 201.076 337.181 200.994C336.904 200.912 336.654 200.781 336.431 200.602C336.212 200.418 336.025 200.18 335.869 199.887C335.712 199.594 335.593 199.238 335.511 198.82C335.429 198.402 335.388 197.914 335.388 197.355V196.055C335.388 195.355 335.451 194.77 335.576 194.297C335.705 193.824 335.886 193.445 336.121 193.16C336.355 192.871 336.636 192.664 336.964 192.539C337.296 192.414 337.667 192.352 338.078 192.352C338.41 192.352 338.714 192.393 338.992 192.475C339.273 192.553 339.523 192.68 339.742 192.855C339.96 193.027 340.146 193.258 340.298 193.547C340.455 193.832 340.574 194.182 340.656 194.596C340.738 195.01 340.779 195.496 340.779 196.055ZM339.689 197.531V195.873C339.689 195.49 339.665 195.154 339.619 194.865C339.576 194.572 339.511 194.322 339.425 194.115C339.339 193.908 339.23 193.74 339.097 193.611C338.968 193.482 338.818 193.389 338.646 193.33C338.478 193.268 338.289 193.236 338.078 193.236C337.82 193.236 337.591 193.285 337.392 193.383C337.193 193.477 337.025 193.627 336.888 193.834C336.755 194.041 336.654 194.312 336.583 194.648C336.513 194.984 336.478 195.393 336.478 195.873V197.531C336.478 197.914 336.499 198.252 336.542 198.545C336.589 198.838 336.658 199.092 336.747 199.307C336.837 199.518 336.947 199.691 337.076 199.828C337.205 199.965 337.353 200.066 337.521 200.133C337.693 200.195 337.882 200.227 338.089 200.227C338.355 200.227 338.587 200.176 338.787 200.074C338.986 199.973 339.152 199.814 339.285 199.6C339.421 199.381 339.523 199.102 339.589 198.762C339.656 198.418 339.689 198.008 339.689 197.531Z" fill="#EEEEF7"/>
<rect x="369" y="171" width="66" height="52" fill="white"/>
<path d="M398.236 192.422V201H397.152V193.775L394.966 194.572V193.594L398.066 192.422H398.236ZM404.986 192.422V201H403.902V193.775L401.716 194.572V193.594L404.816 192.422H404.986Z" fill="#172755"/>
<rect x="435" y="171" width="66" height="52" fill="white"/>
<path d="M464.236 192.422V201H463.152V193.775L460.966 194.572V193.594L464.066 192.422H464.236ZM473.013 200.109V201H467.429V200.221L470.224 197.109C470.568 196.727 470.833 196.402 471.021 196.137C471.212 195.867 471.345 195.627 471.419 195.416C471.497 195.201 471.537 194.982 471.537 194.76C471.537 194.479 471.478 194.225 471.361 193.998C471.247 193.768 471.08 193.584 470.857 193.447C470.634 193.311 470.365 193.242 470.048 193.242C469.669 193.242 469.353 193.316 469.099 193.465C468.849 193.609 468.662 193.812 468.537 194.074C468.412 194.336 468.349 194.637 468.349 194.977H467.265C467.265 194.496 467.371 194.057 467.581 193.658C467.792 193.26 468.105 192.943 468.519 192.709C468.933 192.471 469.443 192.352 470.048 192.352C470.587 192.352 471.048 192.447 471.431 192.639C471.814 192.826 472.107 193.092 472.31 193.436C472.517 193.775 472.621 194.174 472.621 194.631C472.621 194.881 472.578 195.135 472.492 195.393C472.41 195.646 472.294 195.9 472.146 196.154C472.001 196.408 471.831 196.658 471.636 196.904C471.445 197.15 471.24 197.393 471.021 197.631L468.736 200.109H473.013Z" fill="#172755"/>
<rect x="501" y="171" width="66" height="52" fill="white"/>
<path d="M530.236 192.422V201H529.152V193.775L526.966 194.572V193.594L530.066 192.422H530.236ZM535.005 196.201H535.779C536.158 196.201 536.47 196.139 536.716 196.014C536.966 195.885 537.152 195.711 537.273 195.492C537.398 195.27 537.46 195.02 537.46 194.742C537.46 194.414 537.406 194.139 537.296 193.916C537.187 193.693 537.023 193.525 536.804 193.412C536.585 193.299 536.308 193.242 535.972 193.242C535.667 193.242 535.398 193.303 535.164 193.424C534.933 193.541 534.751 193.709 534.619 193.928C534.49 194.146 534.425 194.404 534.425 194.701H533.341C533.341 194.268 533.451 193.873 533.669 193.518C533.888 193.162 534.195 192.879 534.589 192.668C534.988 192.457 535.449 192.352 535.972 192.352C536.488 192.352 536.939 192.443 537.326 192.627C537.712 192.807 538.013 193.076 538.228 193.436C538.443 193.791 538.55 194.234 538.55 194.766C538.55 194.98 538.499 195.211 538.398 195.457C538.3 195.699 538.146 195.926 537.935 196.137C537.728 196.348 537.458 196.521 537.126 196.658C536.794 196.791 536.396 196.857 535.931 196.857H535.005V196.201ZM535.005 197.092V196.441H535.931C536.474 196.441 536.923 196.506 537.279 196.635C537.634 196.764 537.914 196.936 538.117 197.15C538.324 197.365 538.468 197.602 538.55 197.859C538.636 198.113 538.679 198.367 538.679 198.621C538.679 199.02 538.611 199.373 538.474 199.682C538.341 199.99 538.152 200.252 537.906 200.467C537.664 200.682 537.378 200.844 537.05 200.953C536.722 201.062 536.365 201.117 535.978 201.117C535.607 201.117 535.257 201.064 534.929 200.959C534.605 200.854 534.318 200.701 534.068 200.502C533.818 200.299 533.622 200.051 533.482 199.758C533.341 199.461 533.271 199.123 533.271 198.744H534.355C534.355 199.041 534.419 199.301 534.548 199.523C534.681 199.746 534.869 199.92 535.111 200.045C535.357 200.166 535.646 200.227 535.978 200.227C536.31 200.227 536.595 200.17 536.833 200.057C537.076 199.939 537.261 199.764 537.39 199.529C537.523 199.295 537.589 199 537.589 198.645C537.589 198.289 537.515 197.998 537.367 197.771C537.218 197.541 537.007 197.371 536.734 197.262C536.464 197.148 536.146 197.092 535.779 197.092H535.005Z" fill="#172755"/>
<rect x="105" y="223" width="66" height="52" fill="white"/>
<path d="M134.236 244.422V253H133.152V245.775L130.966 246.572V245.594L134.066 244.422H134.236ZM143.189 250.129V251.02H137.025V250.381L140.845 244.469H141.73L140.781 246.18L138.255 250.129H143.189ZM141.999 244.469V253H140.915V244.469H141.999Z" fill="#172755"/>
<rect x="171" y="223" width="66" height="52" fill="white"/>
<path d="M200.236 244.422V253H199.152V245.775L196.966 246.572V245.594L200.066 244.422H200.236ZM204.794 248.939L203.927 248.717L204.355 244.469H208.732V245.471H205.275L205.017 247.791C205.173 247.701 205.371 247.617 205.609 247.539C205.851 247.461 206.128 247.422 206.441 247.422C206.835 247.422 207.189 247.49 207.501 247.627C207.814 247.76 208.08 247.951 208.298 248.201C208.521 248.451 208.691 248.752 208.808 249.104C208.925 249.455 208.984 249.848 208.984 250.281C208.984 250.691 208.927 251.068 208.814 251.412C208.705 251.756 208.539 252.057 208.316 252.314C208.093 252.568 207.812 252.766 207.472 252.906C207.136 253.047 206.74 253.117 206.283 253.117C205.939 253.117 205.613 253.07 205.304 252.977C204.999 252.879 204.726 252.732 204.484 252.537C204.246 252.338 204.05 252.092 203.898 251.799C203.749 251.502 203.656 251.154 203.617 250.756H204.648C204.695 251.076 204.789 251.346 204.929 251.564C205.07 251.783 205.253 251.949 205.48 252.062C205.71 252.172 205.978 252.227 206.283 252.227C206.54 252.227 206.769 252.182 206.968 252.092C207.167 252.002 207.335 251.873 207.472 251.705C207.609 251.537 207.712 251.334 207.783 251.096C207.857 250.857 207.894 250.59 207.894 250.293C207.894 250.023 207.857 249.773 207.783 249.543C207.708 249.312 207.597 249.111 207.449 248.939C207.304 248.768 207.126 248.635 206.915 248.541C206.705 248.443 206.462 248.395 206.189 248.395C205.826 248.395 205.55 248.443 205.363 248.541C205.179 248.639 204.99 248.771 204.794 248.939Z" fill="#172755"/>
<rect x="237" y="223" width="66" height="52" fill="white"/>
<path d="M266.236 244.422V253H265.152V245.775L262.966 246.572V245.594L266.066 244.422H266.236ZM273.583 244.457H273.677V245.377H273.583C273.009 245.377 272.529 245.471 272.142 245.658C271.755 245.842 271.449 246.09 271.222 246.402C270.996 246.711 270.831 247.059 270.73 247.445C270.632 247.832 270.583 248.225 270.583 248.623V249.877C270.583 250.256 270.628 250.592 270.718 250.885C270.808 251.174 270.931 251.418 271.087 251.617C271.244 251.816 271.419 251.967 271.615 252.068C271.814 252.17 272.021 252.221 272.236 252.221C272.486 252.221 272.708 252.174 272.904 252.08C273.099 251.982 273.263 251.848 273.396 251.676C273.533 251.5 273.636 251.293 273.706 251.055C273.777 250.816 273.812 250.555 273.812 250.27C273.812 250.016 273.781 249.771 273.718 249.537C273.656 249.299 273.56 249.088 273.431 248.904C273.302 248.717 273.14 248.57 272.945 248.465C272.753 248.355 272.525 248.301 272.259 248.301C271.958 248.301 271.677 248.375 271.415 248.523C271.158 248.668 270.945 248.859 270.777 249.098C270.613 249.332 270.519 249.588 270.496 249.865L269.921 249.859C269.976 249.422 270.078 249.049 270.226 248.74C270.378 248.428 270.566 248.174 270.789 247.979C271.015 247.779 271.267 247.635 271.544 247.545C271.826 247.451 272.122 247.404 272.435 247.404C272.861 247.404 273.228 247.484 273.537 247.645C273.845 247.805 274.099 248.02 274.298 248.289C274.497 248.555 274.644 248.855 274.738 249.191C274.835 249.523 274.884 249.865 274.884 250.217C274.884 250.619 274.828 250.996 274.714 251.348C274.601 251.699 274.431 252.008 274.205 252.273C273.982 252.539 273.706 252.746 273.378 252.895C273.05 253.043 272.669 253.117 272.236 253.117C271.775 253.117 271.372 253.023 271.029 252.836C270.685 252.645 270.4 252.391 270.173 252.074C269.947 251.758 269.777 251.406 269.664 251.02C269.55 250.633 269.494 250.24 269.494 249.842V249.332C269.494 248.73 269.554 248.141 269.675 247.562C269.796 246.984 270.005 246.461 270.302 245.992C270.603 245.523 271.019 245.15 271.55 244.873C272.081 244.596 272.759 244.457 273.583 244.457Z" fill="#172755"/>
<rect x="303" y="223" width="66" height="52" fill="white"/>
<path d="M332.236 244.422V253H331.152V245.775L328.966 246.572V245.594L332.066 244.422H332.236ZM340.937 244.469V245.078L337.404 253H336.261L339.789 245.359H335.171V244.469H340.937Z" fill="#172755"/>
<rect x="369" y="223" width="66" height="52" fill="white"/>
<circle cx="401.5" cy="248.5" r="19.5" fill="#EF2A82"/>
<path d="M398.236 244.422V253H397.152V245.775L394.966 246.572V245.594L398.066 244.422H398.236ZM406.802 250.691C406.802 251.211 406.681 251.652 406.439 252.016C406.201 252.375 405.876 252.648 405.466 252.836C405.06 253.023 404.601 253.117 404.089 253.117C403.578 253.117 403.117 253.023 402.706 252.836C402.296 252.648 401.972 252.375 401.734 252.016C401.496 251.652 401.376 251.211 401.376 250.691C401.376 250.352 401.441 250.041 401.57 249.76C401.703 249.475 401.888 249.227 402.126 249.016C402.369 248.805 402.654 248.643 402.982 248.529C403.314 248.412 403.679 248.354 404.078 248.354C404.601 248.354 405.068 248.455 405.478 248.658C405.888 248.857 406.21 249.133 406.445 249.484C406.683 249.836 406.802 250.238 406.802 250.691ZM405.712 250.668C405.712 250.352 405.644 250.072 405.507 249.83C405.371 249.584 405.179 249.393 404.933 249.256C404.687 249.119 404.402 249.051 404.078 249.051C403.746 249.051 403.458 249.119 403.216 249.256C402.978 249.393 402.792 249.584 402.66 249.83C402.527 250.072 402.46 250.352 402.46 250.668C402.46 250.996 402.525 251.277 402.654 251.512C402.787 251.742 402.974 251.92 403.216 252.045C403.462 252.166 403.753 252.227 404.089 252.227C404.425 252.227 404.714 252.166 404.956 252.045C405.199 251.92 405.384 251.742 405.513 251.512C405.646 251.277 405.712 250.996 405.712 250.668ZM406.603 246.689C406.603 247.104 406.494 247.477 406.275 247.809C406.056 248.141 405.757 248.402 405.378 248.594C404.999 248.785 404.57 248.881 404.089 248.881C403.601 248.881 403.165 248.785 402.783 248.594C402.404 248.402 402.107 248.141 401.892 247.809C401.677 247.477 401.57 247.104 401.57 246.689C401.57 246.193 401.677 245.771 401.892 245.424C402.111 245.076 402.41 244.811 402.789 244.627C403.167 244.443 403.599 244.352 404.083 244.352C404.572 244.352 405.005 244.443 405.384 244.627C405.763 244.811 406.06 245.076 406.275 245.424C406.494 245.771 406.603 246.193 406.603 246.689ZM405.519 246.707C405.519 246.422 405.458 246.17 405.337 245.951C405.216 245.732 405.048 245.561 404.833 245.436C404.619 245.307 404.369 245.242 404.083 245.242C403.798 245.242 403.548 245.303 403.333 245.424C403.122 245.541 402.956 245.709 402.835 245.928C402.718 246.146 402.66 246.406 402.66 246.707C402.66 247 402.718 247.256 402.835 247.475C402.956 247.693 403.124 247.863 403.339 247.984C403.554 248.105 403.804 248.166 404.089 248.166C404.374 248.166 404.622 248.105 404.833 247.984C405.048 247.863 405.216 247.693 405.337 247.475C405.458 247.256 405.519 247 405.519 246.707Z" fill="#EEEEF7"/>
<rect x="435" y="223" width="66" height="52" fill="white"/>
<path d="M464.236 244.422V253H463.152V245.775L460.966 246.572V245.594L464.066 244.422H464.236ZM468.501 252.092H468.613C469.238 252.092 469.746 252.004 470.136 251.828C470.527 251.652 470.828 251.416 471.039 251.119C471.249 250.822 471.394 250.488 471.472 250.117C471.55 249.742 471.589 249.357 471.589 248.963V247.656C471.589 247.27 471.544 246.926 471.455 246.625C471.369 246.324 471.247 246.072 471.091 245.869C470.939 245.666 470.765 245.512 470.57 245.406C470.374 245.301 470.167 245.248 469.949 245.248C469.699 245.248 469.474 245.299 469.275 245.4C469.08 245.498 468.914 245.637 468.777 245.816C468.644 245.996 468.542 246.207 468.472 246.449C468.402 246.691 468.367 246.955 468.367 247.24C468.367 247.494 468.398 247.74 468.46 247.979C468.523 248.217 468.619 248.432 468.747 248.623C468.876 248.814 469.037 248.967 469.228 249.08C469.423 249.189 469.652 249.244 469.914 249.244C470.156 249.244 470.382 249.197 470.593 249.104C470.808 249.006 470.997 248.875 471.162 248.711C471.33 248.543 471.462 248.354 471.56 248.143C471.662 247.932 471.72 247.711 471.736 247.48H472.251C472.251 247.805 472.187 248.125 472.058 248.441C471.933 248.754 471.757 249.039 471.531 249.297C471.304 249.555 471.039 249.762 470.734 249.918C470.429 250.07 470.097 250.146 469.738 250.146C469.316 250.146 468.951 250.064 468.642 249.9C468.333 249.736 468.08 249.518 467.88 249.244C467.685 248.971 467.539 248.666 467.441 248.33C467.347 247.99 467.3 247.646 467.3 247.299C467.3 246.893 467.357 246.512 467.47 246.156C467.583 245.801 467.751 245.488 467.974 245.219C468.197 244.945 468.472 244.732 468.8 244.58C469.132 244.428 469.515 244.352 469.949 244.352C470.437 244.352 470.853 244.449 471.197 244.645C471.54 244.84 471.82 245.102 472.035 245.43C472.253 245.758 472.414 246.127 472.515 246.537C472.617 246.947 472.667 247.369 472.667 247.803V248.195C472.667 248.637 472.638 249.086 472.58 249.543C472.525 249.996 472.417 250.43 472.257 250.844C472.101 251.258 471.872 251.629 471.572 251.957C471.271 252.281 470.878 252.539 470.394 252.73C469.914 252.918 469.32 253.012 468.613 253.012H468.501V252.092Z" fill="#172755"/>
<rect x="501" y="223" width="66" height="52" fill="white"/>
<path d="M532.263 252.109V253H526.679V252.221L529.474 249.109C529.818 248.727 530.083 248.402 530.271 248.137C530.462 247.867 530.595 247.627 530.669 247.416C530.747 247.201 530.787 246.982 530.787 246.76C530.787 246.479 530.728 246.225 530.611 245.998C530.497 245.768 530.33 245.584 530.107 245.447C529.884 245.311 529.615 245.242 529.298 245.242C528.919 245.242 528.603 245.316 528.349 245.465C528.099 245.609 527.912 245.812 527.787 246.074C527.662 246.336 527.599 246.637 527.599 246.977H526.515C526.515 246.496 526.621 246.057 526.831 245.658C527.042 245.26 527.355 244.943 527.769 244.709C528.183 244.471 528.693 244.352 529.298 244.352C529.837 244.352 530.298 244.447 530.681 244.639C531.064 244.826 531.357 245.092 531.56 245.436C531.767 245.775 531.871 246.174 531.871 246.631C531.871 246.881 531.828 247.135 531.742 247.393C531.66 247.646 531.544 247.9 531.396 248.154C531.251 248.408 531.081 248.658 530.886 248.904C530.695 249.15 530.49 249.393 530.271 249.631L527.986 252.109H532.263ZM538.779 248.055V249.355C538.779 250.055 538.716 250.645 538.591 251.125C538.466 251.605 538.287 251.992 538.052 252.285C537.818 252.578 537.535 252.791 537.203 252.924C536.874 253.053 536.503 253.117 536.089 253.117C535.761 253.117 535.458 253.076 535.181 252.994C534.904 252.912 534.654 252.781 534.431 252.602C534.212 252.418 534.025 252.18 533.869 251.887C533.712 251.594 533.593 251.238 533.511 250.82C533.429 250.402 533.388 249.914 533.388 249.355V248.055C533.388 247.355 533.451 246.77 533.576 246.297C533.705 245.824 533.886 245.445 534.121 245.16C534.355 244.871 534.636 244.664 534.964 244.539C535.296 244.414 535.667 244.352 536.078 244.352C536.41 244.352 536.714 244.393 536.992 244.475C537.273 244.553 537.523 244.68 537.742 244.855C537.96 245.027 538.146 245.258 538.298 245.547C538.455 245.832 538.574 246.182 538.656 246.596C538.738 247.01 538.779 247.496 538.779 248.055ZM537.689 249.531V247.873C537.689 247.49 537.665 247.154 537.619 246.865C537.576 246.572 537.511 246.322 537.425 246.115C537.339 245.908 537.23 245.74 537.097 245.611C536.968 245.482 536.818 245.389 536.646 245.33C536.478 245.268 536.289 245.236 536.078 245.236C535.82 245.236 535.591 245.285 535.392 245.383C535.193 245.477 535.025 245.627 534.888 245.834C534.755 246.041 534.654 246.312 534.583 246.648C534.513 246.984 534.478 247.393 534.478 247.873V249.531C534.478 249.914 534.499 250.252 534.542 250.545C534.589 250.838 534.658 251.092 534.747 251.307C534.837 251.518 534.947 251.691 535.076 251.828C535.205 251.965 535.353 252.066 535.521 252.133C535.693 252.195 535.882 252.227 536.089 252.227C536.355 252.227 536.587 252.176 536.787 252.074C536.986 251.973 537.152 251.814 537.285 251.6C537.421 251.381 537.523 251.102 537.589 250.762C537.656 250.418 537.689 250.008 537.689 249.531Z" fill="#172755"/>
<rect x="105" y="275" width="66" height="52" fill="white"/>
<path d="M136.263 304.109V305H130.679V304.221L133.474 301.109C133.818 300.727 134.083 300.402 134.271 300.137C134.462 299.867 134.595 299.627 134.669 299.416C134.747 299.201 134.787 298.982 134.787 298.76C134.787 298.479 134.728 298.225 134.611 297.998C134.497 297.768 134.33 297.584 134.107 297.447C133.884 297.311 133.615 297.242 133.298 297.242C132.919 297.242 132.603 297.316 132.349 297.465C132.099 297.609 131.912 297.812 131.787 298.074C131.662 298.336 131.599 298.637 131.599 298.977H130.515C130.515 298.496 130.621 298.057 130.831 297.658C131.042 297.26 131.355 296.943 131.769 296.709C132.183 296.471 132.693 296.352 133.298 296.352C133.837 296.352 134.298 296.447 134.681 296.639C135.064 296.826 135.357 297.092 135.56 297.436C135.767 297.775 135.871 298.174 135.871 298.631C135.871 298.881 135.828 299.135 135.742 299.393C135.66 299.646 135.544 299.9 135.396 300.154C135.251 300.408 135.081 300.658 134.886 300.904C134.695 301.15 134.49 301.393 134.271 301.631L131.986 304.109H136.263ZM140.986 296.422V305H139.902V297.775L137.716 298.572V297.594L140.816 296.422H140.986Z" fill="#172755"/>
<rect x="171" y="275" width="66" height="52" fill="white"/>
<path d="M202.263 304.109V305H196.679V304.221L199.474 301.109C199.818 300.727 200.083 300.402 200.271 300.137C200.462 299.867 200.595 299.627 200.669 299.416C200.747 299.201 200.787 298.982 200.787 298.76C200.787 298.479 200.728 298.225 200.611 297.998C200.497 297.768 200.33 297.584 200.107 297.447C199.884 297.311 199.615 297.242 199.298 297.242C198.919 297.242 198.603 297.316 198.349 297.465C198.099 297.609 197.912 297.812 197.787 298.074C197.662 298.336 197.599 298.637 197.599 298.977H196.515C196.515 298.496 196.621 298.057 196.831 297.658C197.042 297.26 197.355 296.943 197.769 296.709C198.183 296.471 198.693 296.352 199.298 296.352C199.837 296.352 200.298 296.447 200.681 296.639C201.064 296.826 201.357 297.092 201.56 297.436C201.767 297.775 201.871 298.174 201.871 298.631C201.871 298.881 201.828 299.135 201.742 299.393C201.66 299.646 201.544 299.9 201.396 300.154C201.251 300.408 201.081 300.658 200.886 300.904C200.695 301.15 200.49 301.393 200.271 301.631L197.986 304.109H202.263ZM209.013 304.109V305H203.429V304.221L206.224 301.109C206.568 300.727 206.833 300.402 207.021 300.137C207.212 299.867 207.345 299.627 207.419 299.416C207.497 299.201 207.537 298.982 207.537 298.76C207.537 298.479 207.478 298.225 207.361 297.998C207.247 297.768 207.08 297.584 206.857 297.447C206.634 297.311 206.365 297.242 206.048 297.242C205.669 297.242 205.353 297.316 205.099 297.465C204.849 297.609 204.662 297.812 204.537 298.074C204.412 298.336 204.349 298.637 204.349 298.977H203.265C203.265 298.496 203.371 298.057 203.581 297.658C203.792 297.26 204.105 296.943 204.519 296.709C204.933 296.471 205.443 296.352 206.048 296.352C206.587 296.352 207.048 296.447 207.431 296.639C207.814 296.826 208.107 297.092 208.31 297.436C208.517 297.775 208.621 298.174 208.621 298.631C208.621 298.881 208.578 299.135 208.492 299.393C208.41 299.646 208.294 299.9 208.146 300.154C208.001 300.408 207.831 300.658 207.636 300.904C207.445 301.15 207.24 301.393 207.021 301.631L204.736 304.109H209.013Z" fill="#172755"/>
<rect x="237" y="275" width="66" height="52" fill="white"/>
<path d="M268.263 304.109V305H262.679V304.221L265.474 301.109C265.818 300.727 266.083 300.402 266.271 300.137C266.462 299.867 266.595 299.627 266.669 299.416C266.747 299.201 266.787 298.982 266.787 298.76C266.787 298.479 266.728 298.225 266.611 297.998C266.497 297.768 266.33 297.584 266.107 297.447C265.884 297.311 265.615 297.242 265.298 297.242C264.919 297.242 264.603 297.316 264.349 297.465C264.099 297.609 263.912 297.812 263.787 298.074C263.662 298.336 263.599 298.637 263.599 298.977H262.515C262.515 298.496 262.621 298.057 262.831 297.658C263.042 297.26 263.355 296.943 263.769 296.709C264.183 296.471 264.693 296.352 265.298 296.352C265.837 296.352 266.298 296.447 266.681 296.639C267.064 296.826 267.357 297.092 267.56 297.436C267.767 297.775 267.871 298.174 267.871 298.631C267.871 298.881 267.828 299.135 267.742 299.393C267.66 299.646 267.544 299.9 267.396 300.154C267.251 300.408 267.081 300.658 266.886 300.904C266.695 301.15 266.49 301.393 266.271 301.631L263.986 304.109H268.263ZM271.005 300.201H271.779C272.158 300.201 272.47 300.139 272.716 300.014C272.966 299.885 273.152 299.711 273.273 299.492C273.398 299.27 273.46 299.02 273.46 298.742C273.46 298.414 273.406 298.139 273.296 297.916C273.187 297.693 273.023 297.525 272.804 297.412C272.585 297.299 272.308 297.242 271.972 297.242C271.667 297.242 271.398 297.303 271.164 297.424C270.933 297.541 270.751 297.709 270.619 297.928C270.49 298.146 270.425 298.404 270.425 298.701H269.341C269.341 298.268 269.451 297.873 269.669 297.518C269.888 297.162 270.195 296.879 270.589 296.668C270.988 296.457 271.449 296.352 271.972 296.352C272.488 296.352 272.939 296.443 273.326 296.627C273.712 296.807 274.013 297.076 274.228 297.436C274.443 297.791 274.55 298.234 274.55 298.766C274.55 298.98 274.499 299.211 274.398 299.457C274.3 299.699 274.146 299.926 273.935 300.137C273.728 300.348 273.458 300.521 273.126 300.658C272.794 300.791 272.396 300.857 271.931 300.857H271.005V300.201ZM271.005 301.092V300.441H271.931C272.474 300.441 272.923 300.506 273.279 300.635C273.634 300.764 273.914 300.936 274.117 301.15C274.324 301.365 274.468 301.602 274.55 301.859C274.636 302.113 274.679 302.367 274.679 302.621C274.679 303.02 274.611 303.373 274.474 303.682C274.341 303.99 274.152 304.252 273.906 304.467C273.664 304.682 273.378 304.844 273.05 304.953C272.722 305.062 272.365 305.117 271.978 305.117C271.607 305.117 271.257 305.064 270.929 304.959C270.605 304.854 270.318 304.701 270.068 304.502C269.818 304.299 269.622 304.051 269.482 303.758C269.341 303.461 269.271 303.123 269.271 302.744H270.355C270.355 303.041 270.419 303.301 270.548 303.523C270.681 303.746 270.869 303.92 271.111 304.045C271.357 304.166 271.646 304.227 271.978 304.227C272.31 304.227 272.595 304.17 272.833 304.057C273.076 303.939 273.261 303.764 273.39 303.529C273.523 303.295 273.589 303 273.589 302.645C273.589 302.289 273.515 301.998 273.367 301.771C273.218 301.541 273.007 301.371 272.734 301.262C272.464 301.148 272.146 301.092 271.779 301.092H271.005Z" fill="#172755"/>
<rect x="303" y="275" width="66" height="52" fill="white"/>
<path d="M334.263 304.109V305H328.679V304.221L331.474 301.109C331.818 300.727 332.083 300.402 332.271 300.137C332.462 299.867 332.595 299.627 332.669 299.416C332.747 299.201 332.787 298.982 332.787 298.76C332.787 298.479 332.728 298.225 332.611 297.998C332.497 297.768 332.33 297.584 332.107 297.447C331.884 297.311 331.615 297.242 331.298 297.242C330.919 297.242 330.603 297.316 330.349 297.465C330.099 297.609 329.912 297.812 329.787 298.074C329.662 298.336 329.599 298.637 329.599 298.977H328.515C328.515 298.496 328.621 298.057 328.831 297.658C329.042 297.26 329.355 296.943 329.769 296.709C330.183 296.471 330.693 296.352 331.298 296.352C331.837 296.352 332.298 296.447 332.681 296.639C333.064 296.826 333.357 297.092 333.56 297.436C333.767 297.775 333.871 298.174 333.871 298.631C333.871 298.881 333.828 299.135 333.742 299.393C333.66 299.646 333.544 299.9 333.396 300.154C333.251 300.408 333.081 300.658 332.886 300.904C332.695 301.15 332.49 301.393 332.271 301.631L329.986 304.109H334.263ZM341.189 302.129V303.02H335.025V302.381L338.845 296.469H339.73L338.781 298.18L336.255 302.129H341.189ZM339.999 296.469V305H338.915V296.469H339.999Z" fill="#172755"/>
<rect x="369" y="275" width="66" height="52" fill="white"/>
<path d="M400.263 304.109V305H394.679V304.221L397.474 301.109C397.818 300.727 398.083 300.402 398.271 300.137C398.462 299.867 398.595 299.627 398.669 299.416C398.747 299.201 398.787 298.982 398.787 298.76C398.787 298.479 398.728 298.225 398.611 297.998C398.497 297.768 398.33 297.584 398.107 297.447C397.884 297.311 397.615 297.242 397.298 297.242C396.919 297.242 396.603 297.316 396.349 297.465C396.099 297.609 395.912 297.812 395.787 298.074C395.662 298.336 395.599 298.637 395.599 298.977H394.515C394.515 298.496 394.621 298.057 394.831 297.658C395.042 297.26 395.355 296.943 395.769 296.709C396.183 296.471 396.693 296.352 397.298 296.352C397.837 296.352 398.298 296.447 398.681 296.639C399.064 296.826 399.357 297.092 399.56 297.436C399.767 297.775 399.871 298.174 399.871 298.631C399.871 298.881 399.828 299.135 399.742 299.393C399.66 299.646 399.544 299.9 399.396 300.154C399.251 300.408 399.081 300.658 398.886 300.904C398.695 301.15 398.49 301.393 398.271 301.631L395.986 304.109H400.263ZM402.794 300.939L401.927 300.717L402.355 296.469H406.732V297.471H403.275L403.017 299.791C403.173 299.701 403.371 299.617 403.609 299.539C403.851 299.461 404.128 299.422 404.441 299.422C404.835 299.422 405.189 299.49 405.501 299.627C405.814 299.76 406.08 299.951 406.298 300.201C406.521 300.451 406.691 300.752 406.808 301.104C406.925 301.455 406.984 301.848 406.984 302.281C406.984 302.691 406.927 303.068 406.814 303.412C406.705 303.756 406.539 304.057 406.316 304.314C406.093 304.568 405.812 304.766 405.472 304.906C405.136 305.047 404.74 305.117 404.283 305.117C403.939 305.117 403.613 305.07 403.304 304.977C402.999 304.879 402.726 304.732 402.484 304.537C402.246 304.338 402.05 304.092 401.898 303.799C401.749 303.502 401.656 303.154 401.617 302.756H402.648C402.695 303.076 402.789 303.346 402.929 303.564C403.07 303.783 403.253 303.949 403.48 304.062C403.71 304.172 403.978 304.227 404.283 304.227C404.54 304.227 404.769 304.182 404.968 304.092C405.167 304.002 405.335 303.873 405.472 303.705C405.609 303.537 405.712 303.334 405.783 303.096C405.857 302.857 405.894 302.59 405.894 302.293C405.894 302.023 405.857 301.773 405.783 301.543C405.708 301.312 405.597 301.111 405.449 300.939C405.304 300.768 405.126 300.635 404.915 300.541C404.705 300.443 404.462 300.395 404.189 300.395C403.826 300.395 403.55 300.443 403.363 300.541C403.179 300.639 402.99 300.771 402.794 300.939Z" fill="#172755"/>
<rect x="435" y="275" width="66" height="52" fill="white"/>
<path d="M466.263 304.109V305H460.679V304.221L463.474 301.109C463.818 300.727 464.083 300.402 464.271 300.137C464.462 299.867 464.595 299.627 464.669 299.416C464.747 299.201 464.787 298.982 464.787 298.76C464.787 298.479 464.728 298.225 464.611 297.998C464.497 297.768 464.33 297.584 464.107 297.447C463.884 297.311 463.615 297.242 463.298 297.242C462.919 297.242 462.603 297.316 462.349 297.465C462.099 297.609 461.912 297.812 461.787 298.074C461.662 298.336 461.599 298.637 461.599 298.977H460.515C460.515 298.496 460.621 298.057 460.831 297.658C461.042 297.26 461.355 296.943 461.769 296.709C462.183 296.471 462.693 296.352 463.298 296.352C463.837 296.352 464.298 296.447 464.681 296.639C465.064 296.826 465.357 297.092 465.56 297.436C465.767 297.775 465.871 298.174 465.871 298.631C465.871 298.881 465.828 299.135 465.742 299.393C465.66 299.646 465.544 299.9 465.396 300.154C465.251 300.408 465.081 300.658 464.886 300.904C464.695 301.15 464.49 301.393 464.271 301.631L461.986 304.109H466.263ZM471.583 296.457H471.677V297.377H471.583C471.009 297.377 470.529 297.471 470.142 297.658C469.755 297.842 469.449 298.09 469.222 298.402C468.996 298.711 468.831 299.059 468.73 299.445C468.632 299.832 468.583 300.225 468.583 300.623V301.877C468.583 302.256 468.628 302.592 468.718 302.885C468.808 303.174 468.931 303.418 469.087 303.617C469.244 303.816 469.419 303.967 469.615 304.068C469.814 304.17 470.021 304.221 470.236 304.221C470.486 304.221 470.708 304.174 470.904 304.08C471.099 303.982 471.263 303.848 471.396 303.676C471.533 303.5 471.636 303.293 471.706 303.055C471.777 302.816 471.812 302.555 471.812 302.27C471.812 302.016 471.781 301.771 471.718 301.537C471.656 301.299 471.56 301.088 471.431 300.904C471.302 300.717 471.14 300.57 470.945 300.465C470.753 300.355 470.525 300.301 470.259 300.301C469.958 300.301 469.677 300.375 469.415 300.523C469.158 300.668 468.945 300.859 468.777 301.098C468.613 301.332 468.519 301.588 468.496 301.865L467.921 301.859C467.976 301.422 468.078 301.049 468.226 300.74C468.378 300.428 468.566 300.174 468.789 299.979C469.015 299.779 469.267 299.635 469.544 299.545C469.826 299.451 470.122 299.404 470.435 299.404C470.861 299.404 471.228 299.484 471.537 299.645C471.845 299.805 472.099 300.02 472.298 300.289C472.497 300.555 472.644 300.855 472.738 301.191C472.835 301.523 472.884 301.865 472.884 302.217C472.884 302.619 472.828 302.996 472.714 303.348C472.601 303.699 472.431 304.008 472.205 304.273C471.982 304.539 471.706 304.746 471.378 304.895C471.05 305.043 470.669 305.117 470.236 305.117C469.775 305.117 469.372 305.023 469.029 304.836C468.685 304.645 468.4 304.391 468.173 304.074C467.947 303.758 467.777 303.406 467.664 303.02C467.55 302.633 467.494 302.24 467.494 301.842V301.332C467.494 300.73 467.554 300.141 467.675 299.562C467.796 298.984 468.005 298.461 468.302 297.992C468.603 297.523 469.019 297.15 469.55 296.873C470.081 296.596 470.759 296.457 471.583 296.457Z" fill="#172755"/>
<rect x="501" y="275" width="66" height="52" fill="white"/>
<path d="M532.263 304.109V305H526.679V304.221L529.474 301.109C529.818 300.727 530.083 300.402 530.271 300.137C530.462 299.867 530.595 299.627 530.669 299.416C530.747 299.201 530.787 298.982 530.787 298.76C530.787 298.479 530.728 298.225 530.611 297.998C530.497 297.768 530.33 297.584 530.107 297.447C529.884 297.311 529.615 297.242 529.298 297.242C528.919 297.242 528.603 297.316 528.349 297.465C528.099 297.609 527.912 297.812 527.787 298.074C527.662 298.336 527.599 298.637 527.599 298.977H526.515C526.515 298.496 526.621 298.057 526.831 297.658C527.042 297.26 527.355 296.943 527.769 296.709C528.183 296.471 528.693 296.352 529.298 296.352C529.837 296.352 530.298 296.447 530.681 296.639C531.064 296.826 531.357 297.092 531.56 297.436C531.767 297.775 531.871 298.174 531.871 298.631C531.871 298.881 531.828 299.135 531.742 299.393C531.66 299.646 531.544 299.9 531.396 300.154C531.251 300.408 531.081 300.658 530.886 300.904C530.695 301.15 530.49 301.393 530.271 301.631L527.986 304.109H532.263ZM538.937 296.469V297.078L535.404 305H534.261L537.789 297.359H533.171V296.469H538.937Z" fill="#172755"/>
<rect x="105" y="327" width="66" height="52" fill="white"/>
<path d="M136.263 356.109V357H130.679V356.221L133.474 353.109C133.818 352.727 134.083 352.402 134.271 352.137C134.462 351.867 134.595 351.627 134.669 351.416C134.747 351.201 134.787 350.982 134.787 350.76C134.787 350.479 134.728 350.225 134.611 349.998C134.497 349.768 134.33 349.584 134.107 349.447C133.884 349.311 133.615 349.242 133.298 349.242C132.919 349.242 132.603 349.316 132.349 349.465C132.099 349.609 131.912 349.812 131.787 350.074C131.662 350.336 131.599 350.637 131.599 350.977H130.515C130.515 350.496 130.621 350.057 130.831 349.658C131.042 349.26 131.355 348.943 131.769 348.709C132.183 348.471 132.693 348.352 133.298 348.352C133.837 348.352 134.298 348.447 134.681 348.639C135.064 348.826 135.357 349.092 135.56 349.436C135.767 349.775 135.871 350.174 135.871 350.631C135.871 350.881 135.828 351.135 135.742 351.393C135.66 351.646 135.544 351.9 135.396 352.154C135.251 352.408 135.081 352.658 134.886 352.904C134.695 353.15 134.49 353.393 134.271 353.631L131.986 356.109H136.263ZM142.802 354.691C142.802 355.211 142.681 355.652 142.439 356.016C142.201 356.375 141.876 356.648 141.466 356.836C141.06 357.023 140.601 357.117 140.089 357.117C139.578 357.117 139.117 357.023 138.706 356.836C138.296 356.648 137.972 356.375 137.734 356.016C137.496 355.652 137.376 355.211 137.376 354.691C137.376 354.352 137.441 354.041 137.57 353.76C137.703 353.475 137.888 353.227 138.126 353.016C138.369 352.805 138.654 352.643 138.982 352.529C139.314 352.412 139.679 352.354 140.078 352.354C140.601 352.354 141.068 352.455 141.478 352.658C141.888 352.857 142.21 353.133 142.445 353.484C142.683 353.836 142.802 354.238 142.802 354.691ZM141.712 354.668C141.712 354.352 141.644 354.072 141.507 353.83C141.371 353.584 141.179 353.393 140.933 353.256C140.687 353.119 140.402 353.051 140.078 353.051C139.746 353.051 139.458 353.119 139.216 353.256C138.978 353.393 138.792 353.584 138.66 353.83C138.527 354.072 138.46 354.352 138.46 354.668C138.46 354.996 138.525 355.277 138.654 355.512C138.787 355.742 138.974 355.92 139.216 356.045C139.462 356.166 139.753 356.227 140.089 356.227C140.425 356.227 140.714 356.166 140.956 356.045C141.199 355.92 141.384 355.742 141.513 355.512C141.646 355.277 141.712 354.996 141.712 354.668ZM142.603 350.689C142.603 351.104 142.494 351.477 142.275 351.809C142.056 352.141 141.757 352.402 141.378 352.594C140.999 352.785 140.57 352.881 140.089 352.881C139.601 352.881 139.165 352.785 138.783 352.594C138.404 352.402 138.107 352.141 137.892 351.809C137.677 351.477 137.57 351.104 137.57 350.689C137.57 350.193 137.677 349.771 137.892 349.424C138.111 349.076 138.41 348.811 138.789 348.627C139.167 348.443 139.599 348.352 140.083 348.352C140.572 348.352 141.005 348.443 141.384 348.627C141.763 348.811 142.06 349.076 142.275 349.424C142.494 349.771 142.603 350.193 142.603 350.689ZM141.519 350.707C141.519 350.422 141.458 350.17 141.337 349.951C141.216 349.732 141.048 349.561 140.833 349.436C140.619 349.307 140.369 349.242 140.083 349.242C139.798 349.242 139.548 349.303 139.333 349.424C139.122 349.541 138.956 349.709 138.835 349.928C138.718 350.146 138.66 350.406 138.66 350.707C138.66 351 138.718 351.256 138.835 351.475C138.956 351.693 139.124 351.863 139.339 351.984C139.554 352.105 139.804 352.166 140.089 352.166C140.374 352.166 140.622 352.105 140.833 351.984C141.048 351.863 141.216 351.693 141.337 351.475C141.458 351.256 141.519 351 141.519 350.707Z" fill="#172755"/>
<rect x="171" y="327" width="66" height="52" fill="white"/>
<path d="M202.263 356.109V357H196.679V356.221L199.474 353.109C199.818 352.727 200.083 352.402 200.271 352.137C200.462 351.867 200.595 351.627 200.669 351.416C200.747 351.201 200.787 350.982 200.787 350.76C200.787 350.479 200.728 350.225 200.611 349.998C200.497 349.768 200.33 349.584 200.107 349.447C199.884 349.311 199.615 349.242 199.298 349.242C198.919 349.242 198.603 349.316 198.349 349.465C198.099 349.609 197.912 349.812 197.787 350.074C197.662 350.336 197.599 350.637 197.599 350.977H196.515C196.515 350.496 196.621 350.057 196.831 349.658C197.042 349.26 197.355 348.943 197.769 348.709C198.183 348.471 198.693 348.352 199.298 348.352C199.837 348.352 200.298 348.447 200.681 348.639C201.064 348.826 201.357 349.092 201.56 349.436C201.767 349.775 201.871 350.174 201.871 350.631C201.871 350.881 201.828 351.135 201.742 351.393C201.66 351.646 201.544 351.9 201.396 352.154C201.251 352.408 201.081 352.658 200.886 352.904C200.695 353.15 200.49 353.393 200.271 353.631L197.986 356.109H202.263ZM204.501 356.092H204.613C205.238 356.092 205.746 356.004 206.136 355.828C206.527 355.652 206.828 355.416 207.039 355.119C207.249 354.822 207.394 354.488 207.472 354.117C207.55 353.742 207.589 353.357 207.589 352.963V351.656C207.589 351.27 207.544 350.926 207.455 350.625C207.369 350.324 207.247 350.072 207.091 349.869C206.939 349.666 206.765 349.512 206.57 349.406C206.374 349.301 206.167 349.248 205.949 349.248C205.699 349.248 205.474 349.299 205.275 349.4C205.08 349.498 204.914 349.637 204.777 349.816C204.644 349.996 204.542 350.207 204.472 350.449C204.402 350.691 204.367 350.955 204.367 351.24C204.367 351.494 204.398 351.74 204.46 351.979C204.523 352.217 204.619 352.432 204.747 352.623C204.876 352.814 205.037 352.967 205.228 353.08C205.423 353.189 205.652 353.244 205.914 353.244C206.156 353.244 206.382 353.197 206.593 353.104C206.808 353.006 206.997 352.875 207.162 352.711C207.33 352.543 207.462 352.354 207.56 352.143C207.662 351.932 207.72 351.711 207.736 351.48H208.251C208.251 351.805 208.187 352.125 208.058 352.441C207.933 352.754 207.757 353.039 207.531 353.297C207.304 353.555 207.039 353.762 206.734 353.918C206.429 354.07 206.097 354.146 205.738 354.146C205.316 354.146 204.951 354.064 204.642 353.9C204.333 353.736 204.08 353.518 203.88 353.244C203.685 352.971 203.539 352.666 203.441 352.33C203.347 351.99 203.3 351.646 203.3 351.299C203.3 350.893 203.357 350.512 203.47 350.156C203.583 349.801 203.751 349.488 203.974 349.219C204.197 348.945 204.472 348.732 204.8 348.58C205.132 348.428 205.515 348.352 205.949 348.352C206.437 348.352 206.853 348.449 207.197 348.645C207.54 348.84 207.82 349.102 208.035 349.43C208.253 349.758 208.414 350.127 208.515 350.537C208.617 350.947 208.667 351.369 208.667 351.803V352.195C208.667 352.637 208.638 353.086 208.58 353.543C208.525 353.996 208.417 354.43 208.257 354.844C208.101 355.258 207.872 355.629 207.572 355.957C207.271 356.281 206.878 356.539 206.394 356.73C205.914 356.918 205.32 357.012 204.613 357.012H204.501V356.092Z" fill="#172755"/>
<rect x="237" y="327" width="66" height="52" fill="white"/>
<path d="M264.255 352.201H265.029C265.408 352.201 265.72 352.139 265.966 352.014C266.216 351.885 266.402 351.711 266.523 351.492C266.648 351.27 266.71 351.02 266.71 350.742C266.71 350.414 266.656 350.139 266.546 349.916C266.437 349.693 266.273 349.525 266.054 349.412C265.835 349.299 265.558 349.242 265.222 349.242C264.917 349.242 264.648 349.303 264.414 349.424C264.183 349.541 264.001 349.709 263.869 349.928C263.74 350.146 263.675 350.404 263.675 350.701H262.591C262.591 350.268 262.701 349.873 262.919 349.518C263.138 349.162 263.445 348.879 263.839 348.668C264.238 348.457 264.699 348.352 265.222 348.352C265.738 348.352 266.189 348.443 266.576 348.627C266.962 348.807 267.263 349.076 267.478 349.436C267.693 349.791 267.8 350.234 267.8 350.766C267.8 350.98 267.749 351.211 267.648 351.457C267.55 351.699 267.396 351.926 267.185 352.137C266.978 352.348 266.708 352.521 266.376 352.658C266.044 352.791 265.646 352.857 265.181 352.857H264.255V352.201ZM264.255 353.092V352.441H265.181C265.724 352.441 266.173 352.506 266.529 352.635C266.884 352.764 267.164 352.936 267.367 353.15C267.574 353.365 267.718 353.602 267.8 353.859C267.886 354.113 267.929 354.367 267.929 354.621C267.929 355.02 267.861 355.373 267.724 355.682C267.591 355.99 267.402 356.252 267.156 356.467C266.914 356.682 266.628 356.844 266.3 356.953C265.972 357.062 265.615 357.117 265.228 357.117C264.857 357.117 264.507 357.064 264.179 356.959C263.855 356.854 263.568 356.701 263.318 356.502C263.068 356.299 262.872 356.051 262.732 355.758C262.591 355.461 262.521 355.123 262.521 354.744H263.605C263.605 355.041 263.669 355.301 263.798 355.523C263.931 355.746 264.119 355.92 264.361 356.045C264.607 356.166 264.896 356.227 265.228 356.227C265.56 356.227 265.845 356.17 266.083 356.057C266.326 355.939 266.511 355.764 266.64 355.529C266.773 355.295 266.839 355 266.839 354.645C266.839 354.289 266.765 353.998 266.617 353.771C266.468 353.541 266.257 353.371 265.984 353.262C265.714 353.148 265.396 353.092 265.029 353.092H264.255ZM274.779 352.055V353.355C274.779 354.055 274.716 354.645 274.591 355.125C274.466 355.605 274.287 355.992 274.052 356.285C273.818 356.578 273.535 356.791 273.203 356.924C272.874 357.053 272.503 357.117 272.089 357.117C271.761 357.117 271.458 357.076 271.181 356.994C270.904 356.912 270.654 356.781 270.431 356.602C270.212 356.418 270.025 356.18 269.869 355.887C269.712 355.594 269.593 355.238 269.511 354.82C269.429 354.402 269.388 353.914 269.388 353.355V352.055C269.388 351.355 269.451 350.77 269.576 350.297C269.705 349.824 269.886 349.445 270.121 349.16C270.355 348.871 270.636 348.664 270.964 348.539C271.296 348.414 271.667 348.352 272.078 348.352C272.41 348.352 272.714 348.393 272.992 348.475C273.273 348.553 273.523 348.68 273.742 348.855C273.96 349.027 274.146 349.258 274.298 349.547C274.455 349.832 274.574 350.182 274.656 350.596C274.738 351.01 274.779 351.496 274.779 352.055ZM273.689 353.531V351.873C273.689 351.49 273.665 351.154 273.619 350.865C273.576 350.572 273.511 350.322 273.425 350.115C273.339 349.908 273.23 349.74 273.097 349.611C272.968 349.482 272.818 349.389 272.646 349.33C272.478 349.268 272.289 349.236 272.078 349.236C271.82 349.236 271.591 349.285 271.392 349.383C271.193 349.477 271.025 349.627 270.888 349.834C270.755 350.041 270.654 350.312 270.583 350.648C270.513 350.984 270.478 351.393 270.478 351.873V353.531C270.478 353.914 270.499 354.252 270.542 354.545C270.589 354.838 270.658 355.092 270.747 355.307C270.837 355.518 270.947 355.691 271.076 355.828C271.205 355.965 271.353 356.066 271.521 356.133C271.693 356.195 271.882 356.227 272.089 356.227C272.355 356.227 272.587 356.176 272.787 356.074C272.986 355.973 273.152 355.814 273.285 355.6C273.421 355.381 273.523 355.102 273.589 354.762C273.656 354.418 273.689 354.008 273.689 353.531Z" fill="#172755"/>
<rect x="303" y="327" width="66" height="52" fill="white"/>
<path d="M330.255 352.201H331.029C331.408 352.201 331.72 352.139 331.966 352.014C332.216 351.885 332.402 351.711 332.523 351.492C332.648 351.27 332.71 351.02 332.71 350.742C332.71 350.414 332.656 350.139 332.546 349.916C332.437 349.693 332.273 349.525 332.054 349.412C331.835 349.299 331.558 349.242 331.222 349.242C330.917 349.242 330.648 349.303 330.414 349.424C330.183 349.541 330.001 349.709 329.869 349.928C329.74 350.146 329.675 350.404 329.675 350.701H328.591C328.591 350.268 328.701 349.873 328.919 349.518C329.138 349.162 329.445 348.879 329.839 348.668C330.238 348.457 330.699 348.352 331.222 348.352C331.738 348.352 332.189 348.443 332.576 348.627C332.962 348.807 333.263 349.076 333.478 349.436C333.693 349.791 333.8 350.234 333.8 350.766C333.8 350.98 333.749 351.211 333.648 351.457C333.55 351.699 333.396 351.926 333.185 352.137C332.978 352.348 332.708 352.521 332.376 352.658C332.044 352.791 331.646 352.857 331.181 352.857H330.255V352.201ZM330.255 353.092V352.441H331.181C331.724 352.441 332.173 352.506 332.529 352.635C332.884 352.764 333.164 352.936 333.367 353.15C333.574 353.365 333.718 353.602 333.8 353.859C333.886 354.113 333.929 354.367 333.929 354.621C333.929 355.02 333.861 355.373 333.724 355.682C333.591 355.99 333.402 356.252 333.156 356.467C332.914 356.682 332.628 356.844 332.3 356.953C331.972 357.062 331.615 357.117 331.228 357.117C330.857 357.117 330.507 357.064 330.179 356.959C329.855 356.854 329.568 356.701 329.318 356.502C329.068 356.299 328.872 356.051 328.732 355.758C328.591 355.461 328.521 355.123 328.521 354.744H329.605C329.605 355.041 329.669 355.301 329.798 355.523C329.931 355.746 330.119 355.92 330.361 356.045C330.607 356.166 330.896 356.227 331.228 356.227C331.56 356.227 331.845 356.17 332.083 356.057C332.326 355.939 332.511 355.764 332.64 355.529C332.773 355.295 332.839 355 332.839 354.645C332.839 354.289 332.765 353.998 332.617 353.771C332.468 353.541 332.257 353.371 331.984 353.262C331.714 353.148 331.396 353.092 331.029 353.092H330.255ZM338.986 348.422V357H337.902V349.775L335.716 350.572V349.594L338.816 348.422H338.986Z" fill="#172755"/>
<rect x="369" y="327" width="66" height="52" fill="white"/>
<rect x="435" y="327" width="66" height="52" fill="white"/>
<rect x="501" y="327" width="66" height="52" fill="white"/>
<path d="M135.76 78.4688V87H134.635V79.3945H130.428V87H129.297V78.4688H135.76ZM141.947 83.4082V84.2871H138.596V83.4082H141.947ZM138.824 80.6602V87H137.74V80.6602H138.824ZM142.826 80.6602V87H141.736V80.6602H142.826Z" fill="#8794BA"/>
<path d="M199.404 83.0098H197.242L197.23 82.1016H199.193C199.518 82.1016 199.801 82.0469 200.043 81.9375C200.285 81.8281 200.473 81.6719 200.605 81.4688C200.742 81.2617 200.811 81.0156 200.811 80.7305C200.811 80.418 200.75 80.1641 200.629 79.9688C200.512 79.7695 200.33 79.625 200.084 79.5352C199.842 79.4414 199.533 79.3945 199.158 79.3945H197.494V87H196.363V78.4688H199.158C199.596 78.4688 199.986 78.5137 200.33 78.6035C200.674 78.6895 200.965 78.8262 201.203 79.0137C201.445 79.1973 201.629 79.4316 201.754 79.7168C201.879 80.002 201.941 80.3438 201.941 80.7422C201.941 81.0938 201.852 81.4121 201.672 81.6973C201.492 81.9785 201.242 82.209 200.922 82.3887C200.605 82.5684 200.234 82.6836 199.809 82.7344L199.404 83.0098ZM199.352 87H196.797L197.436 86.0801H199.352C199.711 86.0801 200.016 86.0176 200.266 85.8926C200.52 85.7676 200.713 85.5918 200.846 85.3652C200.979 85.1348 201.045 84.8633 201.045 84.5508C201.045 84.2344 200.988 83.9609 200.875 83.7305C200.762 83.5 200.584 83.3223 200.342 83.1973C200.1 83.0723 199.787 83.0098 199.404 83.0098H197.793L197.805 82.1016H200.008L200.248 82.4297C200.658 82.4648 201.006 82.582 201.291 82.7812C201.576 82.9766 201.793 83.2266 201.941 83.5312C202.094 83.8359 202.17 84.1719 202.17 84.5391C202.17 85.0703 202.053 85.5195 201.818 85.8867C201.588 86.25 201.262 86.5273 200.84 86.7188C200.418 86.9062 199.922 87 199.352 87ZM206.26 80.6602V87H205.17V80.6602H206.26ZM208.387 80.6602V81.5391H203.084V80.6602H208.387Z" fill="#8794BA"/>
<path d="M267.363 84.2871H268.488C268.43 84.8262 268.275 85.3086 268.025 85.7344C267.775 86.1602 267.422 86.498 266.965 86.748C266.508 86.9941 265.938 87.1172 265.254 87.1172C264.754 87.1172 264.299 87.0234 263.889 86.8359C263.482 86.6484 263.133 86.3828 262.84 86.0391C262.547 85.6914 262.32 85.2754 262.16 84.791C262.004 84.3027 261.926 83.7598 261.926 83.1621V82.3125C261.926 81.7148 262.004 81.1738 262.16 80.6895C262.32 80.2012 262.549 79.7832 262.846 79.4355C263.146 79.0879 263.508 78.8203 263.93 78.6328C264.352 78.4453 264.826 78.3516 265.354 78.3516C265.998 78.3516 266.543 78.4727 266.988 78.7148C267.434 78.957 267.779 79.293 268.025 79.7227C268.275 80.1484 268.43 80.6426 268.488 81.2051H267.363C267.309 80.8066 267.207 80.4648 267.059 80.1797C266.91 79.8906 266.699 79.668 266.426 79.5117C266.152 79.3555 265.795 79.2773 265.354 79.2773C264.975 79.2773 264.641 79.3496 264.352 79.4941C264.066 79.6387 263.826 79.8438 263.631 80.1094C263.439 80.375 263.295 80.6934 263.197 81.0645C263.1 81.4355 263.051 81.8477 263.051 82.3008V83.1621C263.051 83.5801 263.094 83.9727 263.18 84.3398C263.27 84.707 263.404 85.0293 263.584 85.3066C263.764 85.584 263.992 85.8027 264.27 85.9629C264.547 86.1191 264.875 86.1973 265.254 86.1973C265.734 86.1973 266.117 86.1211 266.402 85.9688C266.688 85.8164 266.902 85.5977 267.047 85.3125C267.195 85.0273 267.301 84.6855 267.363 84.2871ZM270.949 81.8789V89.4375H269.859V80.6602H270.855L270.949 81.8789ZM275.221 83.7773V83.9004C275.221 84.3613 275.166 84.7891 275.057 85.1836C274.947 85.5742 274.787 85.9141 274.576 86.2031C274.369 86.4922 274.113 86.7168 273.809 86.877C273.504 87.0371 273.154 87.1172 272.76 87.1172C272.357 87.1172 272.002 87.0508 271.693 86.918C271.385 86.7852 271.123 86.5918 270.908 86.3379C270.693 86.084 270.521 85.7793 270.393 85.4238C270.268 85.0684 270.182 84.668 270.135 84.2227V83.5664C270.182 83.0977 270.27 82.6777 270.398 82.3066C270.527 81.9355 270.697 81.6191 270.908 81.3574C271.123 81.0918 271.383 80.8906 271.688 80.7539C271.992 80.6133 272.344 80.543 272.742 80.543C273.141 80.543 273.494 80.6211 273.803 80.7773C274.111 80.9297 274.371 81.1484 274.582 81.4336C274.793 81.7188 274.951 82.0605 275.057 82.459C275.166 82.8535 275.221 83.293 275.221 83.7773ZM274.131 83.9004V83.7773C274.131 83.4609 274.098 83.1641 274.031 82.8867C273.965 82.6055 273.861 82.3594 273.721 82.1484C273.584 81.9336 273.408 81.7656 273.193 81.6445C272.979 81.5195 272.723 81.457 272.426 81.457C272.152 81.457 271.914 81.5039 271.711 81.5977C271.512 81.6914 271.342 81.8184 271.201 81.9785C271.061 82.1348 270.945 82.3145 270.855 82.5176C270.77 82.7168 270.705 82.9238 270.662 83.1387V84.6562C270.74 84.9297 270.85 85.1875 270.99 85.4297C271.131 85.668 271.318 85.8613 271.553 86.0098C271.787 86.1543 272.082 86.2266 272.438 86.2266C272.73 86.2266 272.982 86.166 273.193 86.0449C273.408 85.9199 273.584 85.75 273.721 85.5352C273.861 85.3203 273.965 85.0742 274.031 84.7969C274.098 84.5156 274.131 84.2168 274.131 83.9004Z" fill="#8794BA"/>
<path d="M327.889 78.4688H329.02V81.1348C329.02 81.5762 329.084 81.9219 329.213 82.1719C329.342 82.4219 329.537 82.5977 329.799 82.6992C330.061 82.8008 330.387 82.8516 330.777 82.8516C331.012 82.8516 331.238 82.8418 331.457 82.8223C331.68 82.8027 331.896 82.7754 332.107 82.7402C332.318 82.7051 332.525 82.6621 332.729 82.6113C332.936 82.5605 333.139 82.5059 333.338 82.4473V83.373C333.146 83.4316 332.955 83.4863 332.764 83.5371C332.576 83.5879 332.381 83.6309 332.178 83.666C331.979 83.7012 331.764 83.7285 331.533 83.748C331.307 83.7676 331.055 83.7773 330.777 83.7773C330.176 83.7773 329.658 83.6914 329.225 83.5195C328.795 83.3438 328.465 83.0625 328.234 82.6758C328.004 82.2891 327.889 81.7754 327.889 81.1348V78.4688ZM333.051 78.4688H334.182V87H333.051V78.4688ZM338.629 80.6602V87H337.539V80.6602H338.629ZM340.756 80.6602V81.5391H335.453V80.6602H340.756Z" fill="#8794BA"/>
<path d="M400.834 78.4688V87H399.709V79.3945H395.502V87H394.371V78.4688H400.834ZM405.305 80.6602V87H404.215V80.6602H405.305ZM407.432 80.6602V81.5391H402.129V80.6602H407.432Z" fill="#8794BA"/>
<path d="M465.41 84.2871H466.535C466.477 84.8262 466.322 85.3086 466.072 85.7344C465.822 86.1602 465.469 86.498 465.012 86.748C464.555 86.9941 463.984 87.1172 463.301 87.1172C462.801 87.1172 462.346 87.0234 461.936 86.8359C461.529 86.6484 461.18 86.3828 460.887 86.0391C460.594 85.6914 460.367 85.2754 460.207 84.791C460.051 84.3027 459.973 83.7598 459.973 83.1621V82.3125C459.973 81.7148 460.051 81.1738 460.207 80.6895C460.367 80.2012 460.596 79.7832 460.893 79.4355C461.193 79.0879 461.555 78.8203 461.977 78.6328C462.398 78.4453 462.873 78.3516 463.4 78.3516C464.045 78.3516 464.59 78.4727 465.035 78.7148C465.48 78.957 465.826 79.293 466.072 79.7227C466.322 80.1484 466.477 80.6426 466.535 81.2051H465.41C465.355 80.8066 465.254 80.4648 465.105 80.1797C464.957 79.8906 464.746 79.668 464.473 79.5117C464.199 79.3555 463.842 79.2773 463.4 79.2773C463.021 79.2773 462.688 79.3496 462.398 79.4941C462.113 79.6387 461.873 79.8438 461.678 80.1094C461.486 80.375 461.342 80.6934 461.244 81.0645C461.146 81.4355 461.098 81.8477 461.098 82.3008V83.1621C461.098 83.5801 461.141 83.9727 461.227 84.3398C461.316 84.707 461.451 85.0293 461.631 85.3066C461.811 85.584 462.039 85.8027 462.316 85.9629C462.594 86.1191 462.922 86.1973 463.301 86.1973C463.781 86.1973 464.164 86.1211 464.449 85.9688C464.734 85.8164 464.949 85.5977 465.094 85.3125C465.242 85.0273 465.348 84.6855 465.41 84.2871ZM471.979 77.9004H472.869C472.869 78.2832 472.811 78.5879 472.693 78.8145C472.576 79.0371 472.416 79.209 472.213 79.3301C472.014 79.4512 471.787 79.543 471.533 79.6055C471.283 79.668 471.023 79.7285 470.754 79.7871C470.418 79.8574 470.105 79.9688 469.816 80.1211C469.531 80.2695 469.285 80.4805 469.078 80.7539C468.875 81.0273 468.725 81.3828 468.627 81.8203C468.533 82.2578 468.508 82.7988 468.551 83.4434V83.9824H467.66V83.4434C467.66 82.7207 467.729 82.0898 467.865 81.5508C468.006 81.0117 468.203 80.5566 468.457 80.1855C468.711 79.8145 469.012 79.5195 469.359 79.3008C469.711 79.082 470.098 78.9316 470.52 78.8496C470.824 78.791 471.086 78.7285 471.305 78.6621C471.523 78.5918 471.689 78.498 471.803 78.3809C471.92 78.2637 471.979 78.1035 471.979 77.9004ZM470.695 81.0234C471.109 81.0234 471.479 81.0957 471.803 81.2402C472.127 81.3848 472.402 81.5859 472.629 81.8438C472.855 82.1016 473.027 82.4062 473.145 82.7578C473.266 83.1055 473.326 83.4844 473.326 83.8945V84.0234C473.326 84.4648 473.262 84.875 473.133 85.2539C473.008 85.6289 472.822 85.957 472.576 86.2383C472.334 86.5156 472.037 86.7324 471.686 86.8887C471.338 87.0449 470.941 87.123 470.496 87.123C470.051 87.123 469.652 87.0449 469.301 86.8887C468.953 86.7324 468.656 86.5156 468.41 86.2383C468.164 85.957 467.977 85.6289 467.848 85.2539C467.723 84.875 467.66 84.4648 467.66 84.0234V83.8945C467.66 83.7969 467.678 83.7012 467.713 83.6074C467.748 83.5137 467.791 83.418 467.842 83.3203C467.896 83.2227 467.945 83.1191 467.988 83.0098C468.133 82.6582 468.33 82.332 468.58 82.0312C468.834 81.7305 469.137 81.4883 469.488 81.3047C469.844 81.1172 470.246 81.0234 470.695 81.0234ZM470.484 81.9082C470.086 81.9082 469.758 82 469.5 82.1836C469.246 82.3672 469.057 82.6113 468.932 82.916C468.807 83.2168 468.744 83.543 468.744 83.8945V84.0234C468.744 84.3203 468.779 84.6016 468.85 84.8672C468.92 85.1328 469.025 85.3691 469.166 85.5762C469.311 85.7793 469.492 85.9395 469.711 86.0566C469.934 86.1738 470.195 86.2324 470.496 86.2324C470.797 86.2324 471.057 86.1738 471.275 86.0566C471.494 85.9395 471.674 85.7793 471.814 85.5762C471.955 85.3691 472.061 85.1328 472.131 84.8672C472.201 84.6016 472.236 84.3203 472.236 84.0234V83.8945C472.236 83.6289 472.201 83.377 472.131 83.1387C472.061 82.9004 471.953 82.6895 471.809 82.5059C471.668 82.3223 471.486 82.1777 471.264 82.0723C471.045 81.9629 470.785 81.9082 470.484 81.9082Z" fill="#8794BA"/>
<path d="M529.152 83.0098H526.99L526.979 82.1016H528.941C529.266 82.1016 529.549 82.0469 529.791 81.9375C530.033 81.8281 530.221 81.6719 530.354 81.4688C530.49 81.2617 530.559 81.0156 530.559 80.7305C530.559 80.418 530.498 80.1641 530.377 79.9688C530.26 79.7695 530.078 79.625 529.832 79.5352C529.59 79.4414 529.281 79.3945 528.906 79.3945H527.242V87H526.111V78.4688H528.906C529.344 78.4688 529.734 78.5137 530.078 78.6035C530.422 78.6895 530.713 78.8262 530.951 79.0137C531.193 79.1973 531.377 79.4316 531.502 79.7168C531.627 80.002 531.689 80.3438 531.689 80.7422C531.689 81.0938 531.6 81.4121 531.42 81.6973C531.24 81.9785 530.99 82.209 530.67 82.3887C530.354 82.5684 529.982 82.6836 529.557 82.7344L529.152 83.0098ZM529.1 87H526.545L527.184 86.0801H529.1C529.459 86.0801 529.764 86.0176 530.014 85.8926C530.268 85.7676 530.461 85.5918 530.594 85.3652C530.727 85.1348 530.793 84.8633 530.793 84.5508C530.793 84.2344 530.736 83.9609 530.623 83.7305C530.51 83.5 530.332 83.3223 530.09 83.1973C529.848 83.0723 529.535 83.0098 529.152 83.0098H527.541L527.553 82.1016H529.756L529.996 82.4297C530.406 82.4648 530.754 82.582 531.039 82.7812C531.324 82.9766 531.541 83.2266 531.689 83.5312C531.842 83.8359 531.918 84.1719 531.918 84.5391C531.918 85.0703 531.801 85.5195 531.566 85.8867C531.336 86.25 531.01 86.5273 530.588 86.7188C530.166 86.9062 529.67 87 529.1 87ZM535.961 86.2266C536.219 86.2266 536.457 86.1738 536.676 86.0684C536.895 85.9629 537.074 85.8184 537.215 85.6348C537.355 85.4473 537.436 85.2344 537.455 84.9961H538.486C538.467 85.3711 538.34 85.7207 538.105 86.0449C537.875 86.3652 537.572 86.625 537.197 86.8242C536.822 87.0195 536.41 87.1172 535.961 87.1172C535.484 87.1172 535.068 87.0332 534.713 86.8652C534.361 86.6973 534.068 86.4668 533.834 86.1738C533.604 85.8809 533.43 85.5449 533.312 85.166C533.199 84.7832 533.143 84.3789 533.143 83.9531V83.707C533.143 83.2812 533.199 82.8789 533.312 82.5C533.43 82.1172 533.604 81.7793 533.834 81.4863C534.068 81.1934 534.361 80.9629 534.713 80.7949C535.068 80.627 535.484 80.543 535.961 80.543C536.457 80.543 536.891 80.6445 537.262 80.8477C537.633 81.0469 537.924 81.3203 538.135 81.668C538.35 82.0117 538.467 82.4023 538.486 82.8398H537.455C537.436 82.5781 537.361 82.3418 537.232 82.1309C537.107 81.9199 536.936 81.752 536.717 81.627C536.502 81.498 536.25 81.4336 535.961 81.4336C535.629 81.4336 535.35 81.5 535.123 81.6328C534.9 81.7617 534.723 81.9375 534.59 82.1602C534.461 82.3789 534.367 82.623 534.309 82.8926C534.254 83.1582 534.227 83.4297 534.227 83.707V83.9531C534.227 84.2305 534.254 84.5039 534.309 84.7734C534.363 85.043 534.455 85.2871 534.584 85.5059C534.717 85.7246 534.895 85.9004 535.117 86.0332C535.344 86.1621 535.625 86.2266 535.961 86.2266Z" fill="#8794BA"/>
<defs>
<filter id="filter0_d_1_370" x="0" y="0" width="670" height="480" filterUnits="userSpaceOnUse" color-interpolation-filters="sRGB">
<feFlood flood-opacity="0" result="BackgroundImageFix"/>
<feColorMatrix in="SourceAlpha" type="matrix" values="0 0 0 0 0 0 0 0 0 0 0 0 0 0 0 0 0 0 127 0" result="hardAlpha"/>
<feMorphology radius="15" operator="erode" in="SourceAlpha" result="effect1_dropShadow_1_370"/>
<feOffset dy="18"/>
<feGaussianBlur stdDeviation="25"/>
<feColorMatrix type="matrix" values="0 0 0 0 0.0996452 0 0 0 0 0.164326 0 0 0 0 0.350284 0 0 0 0.2 0"/>
<feBlend mode="normal" in2="BackgroundImageFix" result="effect1_dropShadow_1_370"/>
<feBlend mode="normal" in="SourceGraphic" in2="effect1_dropShadow_1_370" result="shape"/>
</filter>
</defs>
</svg>
