<svg width="60" height="60" viewBox="0 0 60 60" fill="none" xmlns="http://www.w3.org/2000/svg">
<g clip-path="url(#clip0_1_78)">
<path d="M19.0635 23.3911C18.9035 23.0772 18.5905 22.8711 18.2396 22.8482L9.82723 22.2872C9.3913 22.2442 8.98829 22.5142 8.82927 22.9201L2.76476 38.419C2.60175 38.835 2.73476 39.3079 3.09077 39.5789C3.26878 39.7148 3.48276 39.7829 3.69569 39.7829C3.90662 39.7829 4.11768 39.7169 4.29568 39.583L9.32931 35.8083L12.2601 36.3942C12.7381 36.4893 13.216 36.2272 13.39 35.7703C14.964 31.6476 16.8588 27.8139 19.0196 24.3772C19.2066 24.079 19.2236 23.704 19.0635 23.3911ZM11.8281 34.2682L9.28231 33.7593C9.00435 33.7043 8.71431 33.7703 8.48638 33.9402L5.90758 35.874L10.4242 24.3309L16.4617 24.7329C14.7219 27.6778 13.168 30.8754 11.8281 34.2682Z" fill="white"/>
<path d="M37.7131 50.174L37.1522 41.7606C37.1281 41.4086 36.9221 41.0957 36.6082 40.9356C36.2952 40.7757 35.9202 40.7916 35.6223 40.9796C32.1845 43.1404 28.3518 45.0353 24.2292 46.6091C23.7732 46.7821 23.5092 47.2601 23.6053 47.739L24.1912 50.6698L20.4165 55.7024C20.1485 56.0604 20.1496 56.5524 20.4205 56.9084C20.6135 57.1623 20.9105 57.3033 21.2165 57.3033C21.3384 57.3033 21.4615 57.2803 21.5814 57.2363L37.0802 51.1717C37.4861 51.013 37.7421 50.6089 37.7131 50.174ZM24.1251 54.0907L26.0589 51.5119C26.229 51.2849 26.295 50.995 26.2389 50.716L25.73 48.1712C29.1237 46.8313 32.3205 45.2774 35.2652 43.5375L35.6682 49.574L24.1251 54.0907Z" fill="white"/>
<path d="M28.9978 30.0005H22.2603C21.8973 30.0005 21.5634 30.1975 21.3863 30.5145L12.9299 45.7094C12.7099 46.1054 12.7839 46.6013 13.1099 46.9153C13.3009 47.0993 13.5518 47.1953 13.8039 47.1953C13.9819 47.1953 14.1608 47.1483 14.3208 47.0503L29.5156 37.8551C29.8146 37.6741 29.9976 37.3501 29.9976 37.0002V31.0005C29.9977 30.4486 29.5497 30.0005 28.9978 30.0005ZM27.9979 36.4371L16.5098 43.3896L22.8474 32.0014V32.0003H27.9979V36.4371Z" fill="white"/>
<path d="M59.9495 0.963709C59.9085 0.4768 59.5226 0.0907879 59.0356 0.0497726C58.7036 0.0237573 25.7751 -2.27509 11.5222 35.0561C11.3813 35.4252 11.4702 35.8411 11.7492 36.1201L16.5038 40.8747C16.7268 41.0977 17.0388 41.1996 17.3518 41.1577C17.6628 41.1127 17.9348 40.9247 18.0868 40.6497L22.8504 32.0004H27.9981V36.449L19.2967 41.9426C19.0397 42.1056 18.8708 42.3756 18.8368 42.6776C18.8028 42.9796 18.9087 43.2805 19.1238 43.4956L23.8784 48.2502C24.0694 48.4412 24.3244 48.5431 24.5853 48.5431C24.7053 48.5431 24.8263 48.5221 24.9423 48.4771C62.2753 34.2232 59.9775 1.29476 59.9495 0.963709ZM54.7039 18.7044C51.1951 27.3857 43.1657 39.1879 24.8321 46.3763L21.4224 42.9666L29.5318 37.8469C29.8217 37.663 29.9977 37.344 29.9977 37.001V31.0014C29.9977 30.4494 29.5497 30.0014 28.9978 30.0014H22.2583C21.8933 30.0014 21.5583 30.2004 21.3823 30.5194L16.9756 38.5208L13.6229 35.167C26.135 3.24755 52.805 1.94163 57.9896 2.01464C58.0266 4.34653 57.8126 11.012 54.7039 18.7044Z" fill="white"/>
<path d="M17.1286 44.1645C16.9116 43.8765 16.5656 43.7365 16.2266 43.7725C16.2617 43.4325 16.1216 43.0875 15.8346 42.8705C14.3268 41.7306 12.3809 41.3516 10.4941 41.8295C8.49127 42.3385 6.85336 43.7044 6.00141 45.5793L0.0899437 58.5853C-0.0830233 58.9652 -0.00204756 59.4123 0.292911 59.7062C0.483924 59.8981 0.739859 59.9991 0.999896 59.9991C1.13993 59.9991 1.28091 59.9691 1.41392 59.9091L14.42 53.9966C16.2938 53.1457 17.6597 51.5078 18.1686 49.505C18.6476 47.6202 18.2686 45.6734 17.1286 44.1645ZM16.2307 49.013C15.8727 50.424 14.9109 51.5768 13.593 52.1768L3.01374 56.9855L7.82237 46.4053C8.42131 45.0874 9.57524 44.1254 10.9862 43.7676C11.3572 43.6736 11.7301 43.6275 12.098 43.6275C12.721 43.6275 13.3299 43.7605 13.8849 44.0195L12.933 45.7044C12.712 46.0953 12.779 46.5864 13.0969 46.9033C13.4149 47.2223 13.9059 47.2883 14.2959 47.0673L15.9808 46.1143C16.3907 46.9963 16.4837 48.0151 16.2307 49.013Z" fill="white"/>
<path d="M59.9495 0.964828C59.9085 0.477918 59.5225 0.0919066 59.0355 0.0508914C58.6455 0.019837 49.3762 -0.682109 38.4751 4.33956C38.1781 4.4755 37.9671 4.74948 37.9091 5.07151C37.8511 5.39353 37.9551 5.72341 38.1861 5.95439L54.0449 21.8132C54.2339 22.0022 54.4889 22.1062 54.7519 22.1062C54.8109 22.1062 54.8699 22.1011 54.9289 22.0912C55.2509 22.0332 55.5238 21.8222 55.6608 21.5252C60.6834 10.624 59.9815 1.35377 59.9495 0.964828ZM54.4279 19.3664L40.6329 5.57142C48.6133 2.20267 55.6018 1.97064 57.9906 2.01072C58.0306 4.40155 57.8056 11.368 54.4279 19.3664Z" fill="white"/>
<path d="M44.1606 15.8387C40.7978 12.4759 35.3273 12.4759 31.9646 15.8387C28.6018 19.2014 28.6018 24.6719 31.9646 28.0347C33.6455 29.7166 35.8543 30.5566 38.0621 30.5566C40.271 30.5566 42.4788 29.7156 44.1606 28.0347C47.5234 24.6719 47.5234 19.2013 44.1606 15.8387ZM42.7468 26.6207C40.164 29.2035 35.9613 29.2035 33.3785 26.6207C30.7957 24.038 30.7957 19.8353 33.3785 17.2525C34.6695 15.9616 36.3663 15.3157 38.0622 15.3157C39.7582 15.3157 41.455 15.9616 42.7469 17.2525C45.3295 19.8353 45.3295 24.038 42.7468 26.6207Z" fill="white"/>
<path d="M40.05 23.925C38.9541 25.0229 37.1703 25.0219 36.0733 23.925C34.9773 22.8281 34.9773 21.0453 36.0733 19.9483C37.1692 18.8523 38.953 18.8514 40.05 19.9483C40.44 20.3392 41.074 20.3392 41.4638 19.9483C41.8548 19.5573 41.8548 18.9253 41.4638 18.5344C39.589 16.6586 36.5352 16.6586 34.6594 18.5344C32.7835 20.4102 32.7835 23.463 34.6594 25.3388C35.5974 26.2768 36.8303 26.7458 38.0622 26.7458C39.2951 26.7458 40.5269 26.2768 41.4638 25.3388C41.8548 24.9479 41.8548 24.3159 41.4638 23.925C41.0738 23.5341 40.44 23.5341 40.05 23.925Z" fill="white"/>
</g>
<defs>
<clipPath id="clip0_1_78">
<rect width="60" height="60" fill="white"/>
</clipPath>
</defs>
</svg>
