<svg width="340" height="101" viewBox="0 0 340 101" fill="none" xmlns="http://www.w3.org/2000/svg">
<rect x="0.5" y="0.5" width="339" height="100" rx="4.5" stroke="#7B61FF" stroke-dasharray="10 5"/>
<path d="M53.0001 62.0001H47.0001C46.4481 62.0001 46.0001 62.4481 46.0001 63C46.0001 63.552 46.4481 64 47.0001 64H53.0001C53.552 64 54 63.552 54 63C54 62.4481 53.552 62.0001 53.0001 62.0001Z" fill="white"/>
<path d="M75.999 22H24.001C21.795 22 20 23.7951 20 26.001V59C20 59.5519 20.448 59.9999 21 59.9999H78.9999C79.5519 59.9999 79.9999 59.5519 79.9999 59V26.001C80 23.7951 78.205 22 75.999 22ZM78 58H22V26.001C22 24.897 22.898 24 24.001 24H75.999C77.102 24 78 24.897 78 26.001V58Z" fill="white"/>
<path d="M79 57.9999H21C20.448 57.9999 20 58.448 20 59V63.9989C20 66.2049 21.795 67.9999 24.001 67.9999H75.999C78.205 67.9999 80 66.2049 80 63.9989L79.9999 59C79.9999 58.448 79.552 57.9999 79 57.9999ZM78 63.999C78 65.103 77.102 66 75.999 66H24.001C22.898 66 22 65.103 22 63.999V60H78.0001L78 63.999Z" fill="white"/>
<path d="M74.9999 26H25C24.4481 26 24 26.4481 24 27V59C24 59.552 24.4481 60 25 60H75C75.552 60 76 59.552 76 59V27C76 26.4481 75.552 26 74.9999 26ZM74 58H26V28H74V58Z" fill="white"/>
<path d="M62.9999 74.0001H37C35.346 74.0001 34 75.3461 34 77.0001C34 78.6541 35.346 80.0001 37 80.0001H63C64.654 80.0001 66 78.6541 66 77.0001C66 75.3461 64.6539 74.0001 62.9999 74.0001ZM62.9999 78H37C36.4481 78 36 77.5511 36 77.0001C36 76.4491 36.4481 76.0001 37 76.0001H63C63.552 76.0001 64 76.4491 64 77.0001C64 77.5511 63.552 78 62.9999 78Z" fill="white"/>
<path d="M61 74.0001C57.6819 74.0001 55.9999 71.6451 55.9999 67.0001C55.9999 66.4482 55.5519 66.0001 55 66.0001H45C44.4481 66.0001 44 66.4482 44 67.0001C44 71.6451 42.3181 74.0001 39 74.0001C38.4481 74.0001 38 74.4481 38 75C38 75.552 38.4481 76 39 76H61C61.5519 76 61.9999 75.552 61.9999 75C61.9999 74.4481 61.5519 74.0001 61 74.0001ZM43.8709 74.0001C45.102 72.6361 45.8269 70.605 45.9729 68.0001H54.0279C54.1729 70.605 54.8979 72.6361 56.1299 74.0001H43.8709Z" fill="white"/>
<path d="M67.784 51.464L65.37 49.05L66.713 47.707C66.962 47.458 67.062 47.096 66.976 46.755C66.89 46.414 66.631 46.144 66.294 46.042L56.294 43.042C55.941 42.936 55.5601 43.033 55.3 43.2931C55.039 43.5531 54.9431 43.935 55.049 44.287L58.049 54.287C58.15 54.625 58.421 54.884 58.762 54.97C59.1019 55.054 59.465 54.9559 59.714 54.707L61.128 53.292L63.5419 55.707C63.729 55.8949 63.984 55.9999 64.2489 55.9999C64.5139 55.9999 64.7689 55.8949 64.9559 55.707L67.7839 52.8779C68.1749 52.487 68.1749 51.855 67.784 51.464ZM64.2489 53.586L62.0509 51.387C61.7959 51.132 61.462 51.0049 61.128 51.0049C60.7929 51.0049 60.459 51.1329 60.205 51.3859L59.483 52.1079L57.498 45.4909L64.115 47.4759L63.3409 48.25C63.1279 48.464 63.0109 48.748 63.0109 49.05C63.0109 49.3531 63.129 49.639 63.3429 49.851L65.6629 52.1709L64.2489 53.586Z" fill="white"/>
<path d="M61.9999 30H34C33.448 30 33 30.448 33 31V36C33 36.552 33.448 37 34 37H61.9999C62.5519 37 62.9999 36.552 62.9999 36V31C62.9999 30.448 62.5519 30 61.9999 30ZM61 35H34.9999V32H61V35Z" fill="white"/>
<path d="M46.0001 41.0001H38.0001C37.4481 41.0001 37.0001 41.4481 37.0001 42.0001V46C37.0001 46.552 37.4481 47 38.0001 47H46.0001C46.5521 47 47.0001 46.552 47.0001 46V42.0001C47.0001 41.4481 46.5521 41.0001 46.0001 41.0001ZM45.0001 45.0001H39.0001V43H45.0001V45.0001Z" fill="white"/>
<path d="M61.9999 30H34C33.448 30 33 30.448 33 31V49.9999C33 50.5519 33.448 50.9999 34 50.9999H57.806C58.123 50.9999 58.42 50.8509 58.608 50.5969C58.7971 50.3429 58.8551 50.0149 58.764 49.7119L57.498 45.4909L61.713 46.7559C62.0161 46.847 62.3441 46.789 62.597 46.6C62.8509 46.412 63 46.114 63 45.7979L62.9999 31C62.9999 30.448 62.5519 30 61.9999 30ZM61 44.454L56.2929 43.042C55.9399 42.936 55.5589 43.033 55.2989 43.293C55.0379 43.554 54.942 43.935 55.0479 44.2881L56.4619 49.0001H34.9999V32H61V44.454Z" fill="white"/>
<g clip-path="url(#clip0_1_24)">
<path d="M187.248 27.7107C182.234 23.9968 176.283 22.0345 170.04 22.0345C164.348 22.0345 158.692 23.6732 154.483 26.4848V22.0345C154.483 21.4635 154.019 21 153.448 21C152.877 21 152.414 21.4635 152.414 22.0345V28.5424C152.414 28.9438 152.645 29.3089 153.008 29.4786C153.372 29.6494 153.801 29.5945 154.109 29.3379C158.055 26.0606 164.01 24.1034 170.04 24.1034C175.836 24.1034 181.361 25.9261 186.017 29.3741C186.202 29.5106 186.417 29.5768 186.631 29.5768C186.948 29.5768 187.26 29.432 187.463 29.1579C187.803 28.6986 187.707 28.0511 187.248 27.7107Z" fill="white"/>
<path d="M198.965 33.4138H192.458C192.056 33.4138 191.693 33.6465 191.522 34.0097C191.352 34.3727 191.406 34.8021 191.663 35.1104C194.94 39.0549 196.898 45.0104 196.898 51.0415C196.898 56.8377 195.075 62.3618 191.627 67.0169C191.287 67.4762 191.383 68.1238 191.842 68.4642C192.027 68.6007 192.242 68.6669 192.457 68.6669C192.773 68.6669 193.086 68.5221 193.289 68.248C197.003 63.2339 198.966 57.2834 198.966 51.0404C198.966 45.3477 197.327 39.6911 194.515 35.4828H198.966C199.537 35.4828 200 35.0193 200 34.4483C200 33.8772 199.536 33.4138 198.965 33.4138Z" fill="white"/>
<path d="M186.992 72.5224C186.629 72.3527 186.201 72.4055 185.892 72.6632C181.946 75.9404 175.991 77.8977 169.961 77.8977C164.163 77.8977 158.639 76.075 153.984 72.627C153.525 72.2866 152.877 72.3829 152.537 72.8421C152.197 73.3014 152.293 73.949 152.752 74.2894C157.766 78.0032 163.717 79.9656 169.96 79.9656C175.652 79.9656 181.308 78.327 185.517 75.5153V79.9656C185.517 80.5366 185.981 81.0001 186.552 81.0001C187.123 81.0001 187.586 80.5366 187.586 79.9656V73.4577C187.586 73.0562 187.355 72.6911 186.992 72.5224Z" fill="white"/>
<path d="M148.338 66.8908C145.061 62.9453 143.103 56.9908 143.103 50.9597C143.103 45.1635 144.926 39.6394 148.373 34.9842C148.713 34.525 148.617 33.8774 148.158 33.537C147.699 33.1956 147.051 33.2929 146.711 33.7521C142.997 38.7662 141.035 44.7165 141.035 50.9597C141.035 56.6524 142.673 62.308 145.485 66.5173H141.035C140.463 66.5173 140 66.9808 140 67.5518C140 68.1229 140.463 68.5863 141.035 68.5863H147.542C147.944 68.5863 148.308 68.3547 148.479 67.9915C148.649 67.6283 148.595 67.199 148.338 66.8908Z" fill="white"/>
<path d="M171.035 40.653C171.033 40.082 170.57 39.6206 170 39.6206C170 39.6206 169.999 39.6206 169.998 39.6206C169.426 39.6217 168.964 40.0861 168.965 40.6571L168.99 51.002C168.991 51.573 169.455 52.0344 170.025 52.0344C170.026 52.0344 170.027 52.0344 170.027 52.0344C170.599 52.0333 171.06 51.5689 171.059 50.9979L171.035 40.653Z" fill="white"/>
<path d="M170.025 49.9655H163.793C163.222 49.9655 162.759 50.4289 162.759 51C162.759 51.571 163.222 52.0345 163.793 52.0345H170.025C170.596 52.0345 171.059 51.571 171.059 51C171.059 50.4289 170.596 49.9655 170.025 49.9655Z" fill="white"/>
<path d="M170 29.2759C158.022 29.2759 148.276 39.0208 148.276 51C148.276 62.9793 158.022 72.7241 170 72.7241C181.979 72.7241 191.724 62.9793 191.724 51C191.724 39.0208 181.979 29.2759 170 29.2759ZM170 70.6552C159.162 70.6552 150.345 61.8384 150.345 51C150.345 40.1617 159.162 31.3449 170 31.3449C180.838 31.3449 189.655 40.1617 189.655 51C189.655 61.8384 180.838 70.6552 170 70.6552Z" fill="white"/>
<path d="M155.517 49.9655H153.448C152.877 49.9655 152.414 50.4289 152.414 51C152.414 51.571 152.877 52.0345 153.448 52.0345H155.517C156.088 52.0345 156.552 51.571 156.552 51C156.552 50.4289 156.088 49.9655 155.517 49.9655Z" fill="white"/>
<path d="M186.552 49.9655H184.483C183.912 49.9655 183.448 50.4289 183.448 51C183.448 51.571 183.912 52.0345 184.483 52.0345H186.552C187.123 52.0345 187.586 51.571 187.586 51C187.586 50.4289 187.123 49.9655 186.552 49.9655Z" fill="white"/>
<path d="M170 64.4483C169.429 64.4483 168.965 64.9118 168.965 65.4828V67.5518C168.965 68.1228 169.429 68.5863 170 68.5863C170.571 68.5863 171.035 68.1228 171.035 67.5518V65.4828C171.035 64.9117 170.571 64.4483 170 64.4483Z" fill="white"/>
<path d="M170 33.4138C169.429 33.4138 168.965 33.8772 168.965 34.4483V36.5172C168.965 37.0883 169.429 37.5518 170 37.5518C170.571 37.5518 171.035 37.0883 171.035 36.5172V34.4483C171.035 33.8772 170.571 33.4138 170 33.4138Z" fill="white"/>
<path d="M160.387 60.6135C159.983 60.2089 159.328 60.2089 158.924 60.6135L157.565 61.9718C157.161 62.3753 157.161 63.0301 157.565 63.4345C157.766 63.6362 158.031 63.7376 158.296 63.7376C158.561 63.7376 158.826 63.6373 159.027 63.4345L160.387 62.0762C160.79 61.6727 160.79 61.0179 160.387 60.6135Z" fill="white"/>
<path d="M182.435 38.5655C182.03 38.161 181.376 38.161 180.972 38.5655L179.613 39.9238C179.209 40.3283 179.209 40.9821 179.613 41.3865C179.815 41.5882 180.08 41.6896 180.345 41.6896C180.61 41.6896 180.875 41.5882 181.076 41.3865L182.435 40.0282C182.839 39.6238 182.839 38.97 182.435 38.5655Z" fill="white"/>
<path d="M182.435 61.9717L181.076 60.6133C180.672 60.2088 180.018 60.2088 179.613 60.6133C179.209 61.0179 179.209 61.6717 179.613 62.0761L180.972 63.4344C181.173 63.6361 181.438 63.7374 181.703 63.7374C181.968 63.7374 182.233 63.6371 182.435 63.4344C182.839 63.03 182.839 62.3762 182.435 61.9717Z" fill="white"/>
<path d="M160.387 39.9238L159.027 38.5655C158.624 38.161 157.969 38.161 157.565 38.5655C157.16 38.97 157.16 39.6247 157.565 40.0282L158.924 41.3865C159.125 41.5882 159.39 41.6896 159.655 41.6896C159.92 41.6896 160.185 41.5882 160.387 41.3865C160.791 40.9821 160.791 40.3273 160.387 39.9238Z" fill="white"/>
</g>
<g clip-path="url(#clip1_1_24)">
<path d="M279.064 43.3911C278.904 43.0772 278.591 42.8711 278.24 42.8482L269.827 42.2872C269.391 42.2442 268.988 42.5142 268.829 42.9201L262.765 58.419C262.602 58.835 262.735 59.3079 263.091 59.5789C263.269 59.7148 263.483 59.7829 263.696 59.7829C263.907 59.7829 264.118 59.7169 264.296 59.583L269.329 55.8083L272.26 56.3942C272.738 56.4893 273.216 56.2272 273.39 55.7703C274.964 51.6476 276.859 47.8139 279.02 44.3772C279.207 44.079 279.224 43.704 279.064 43.3911ZM271.828 54.2682L269.282 53.7593C269.004 53.7043 268.714 53.7703 268.486 53.9402L265.908 55.874L270.424 44.3309L276.462 44.7329C274.722 47.6778 273.168 50.8754 271.828 54.2682Z" fill="white"/>
<path d="M297.713 70.174L297.152 61.7606C297.128 61.4086 296.922 61.0957 296.608 60.9356C296.295 60.7757 295.92 60.7916 295.622 60.9796C292.185 63.1404 288.352 65.0353 284.229 66.6091C283.773 66.7821 283.509 67.2601 283.605 67.739L284.191 70.6698L280.417 75.7024C280.149 76.0604 280.15 76.5524 280.421 76.9084C280.614 77.1623 280.91 77.3033 281.216 77.3033C281.338 77.3033 281.461 77.2803 281.581 77.2363L297.08 71.1717C297.486 71.013 297.742 70.6089 297.713 70.174ZM284.125 74.0907L286.059 71.5119C286.229 71.2849 286.295 70.995 286.239 70.716L285.73 68.1712C289.124 66.8313 292.32 65.2774 295.265 63.5375L295.668 69.574L284.125 74.0907Z" fill="white"/>
<path d="M288.998 50.0005H282.26C281.897 50.0005 281.563 50.1975 281.386 50.5145L272.93 65.7094C272.71 66.1054 272.784 66.6013 273.11 66.9153C273.301 67.0993 273.552 67.1953 273.804 67.1953C273.982 67.1953 274.161 67.1483 274.321 67.0503L289.516 57.8551C289.815 57.6741 289.998 57.3501 289.998 57.0002V51.0005C289.998 50.4486 289.55 50.0005 288.998 50.0005ZM287.998 56.4371L276.51 63.3896L282.847 52.0014V52.0003H287.998V56.4371Z" fill="white"/>
<path d="M319.949 20.9637C319.908 20.4768 319.523 20.0908 319.036 20.0498C318.704 20.0238 285.775 17.7249 271.522 55.0561C271.381 55.4252 271.47 55.8411 271.749 56.1201L276.504 60.8747C276.727 61.0977 277.039 61.1996 277.352 61.1577C277.663 61.1127 277.935 60.9247 278.087 60.6497L282.85 52.0004H287.998V56.449L279.297 61.9426C279.04 62.1056 278.871 62.3756 278.837 62.6776C278.803 62.9796 278.909 63.2805 279.124 63.4956L283.878 68.2502C284.069 68.4412 284.324 68.5431 284.585 68.5431C284.705 68.5431 284.826 68.5221 284.942 68.4771C322.275 54.2232 319.978 21.2948 319.949 20.9637ZM314.704 38.7044C311.195 47.3857 303.166 59.1879 284.832 66.3763L281.422 62.9666L289.532 57.8469C289.822 57.663 289.998 57.344 289.998 57.001V51.0014C289.998 50.4494 289.55 50.0014 288.998 50.0014H282.258C281.893 50.0014 281.558 50.2004 281.382 50.5194L276.976 58.5208L273.623 55.167C286.135 23.2476 312.805 21.9416 317.99 22.0146C318.027 24.3465 317.813 31.012 314.704 38.7044Z" fill="white"/>
<path d="M277.129 64.1645C276.912 63.8765 276.566 63.7365 276.227 63.7725C276.262 63.4325 276.122 63.0875 275.835 62.8705C274.327 61.7306 272.381 61.3516 270.494 61.8295C268.491 62.3385 266.853 63.7044 266.001 65.5793L260.09 78.5853C259.917 78.9652 259.998 79.4123 260.293 79.7062C260.484 79.8981 260.74 79.9991 261 79.9991C261.14 79.9991 261.281 79.9691 261.414 79.9091L274.42 73.9966C276.294 73.1457 277.66 71.5078 278.169 69.505C278.648 67.6202 278.269 65.6734 277.129 64.1645ZM276.231 69.013C275.873 70.424 274.911 71.5768 273.593 72.1768L263.014 76.9855L267.822 66.4053C268.421 65.0874 269.575 64.1254 270.986 63.7676C271.357 63.6736 271.73 63.6275 272.098 63.6275C272.721 63.6275 273.33 63.7605 273.885 64.0195L272.933 65.7044C272.712 66.0953 272.779 66.5864 273.097 66.9033C273.415 67.2223 273.906 67.2883 274.296 67.0673L275.981 66.1143C276.391 66.9963 276.484 68.0151 276.231 69.013Z" fill="white"/>
<path d="M319.949 20.9648C319.908 20.4779 319.522 20.0919 319.036 20.0509C318.646 20.0198 309.376 19.3179 298.475 24.3396C298.178 24.4755 297.967 24.7495 297.909 25.0715C297.851 25.3935 297.955 25.7234 298.186 25.9544L314.045 41.8132C314.234 42.0022 314.489 42.1062 314.752 42.1062C314.811 42.1062 314.87 42.1011 314.929 42.0912C315.251 42.0332 315.524 41.8222 315.661 41.5252C320.683 30.624 319.981 21.3538 319.949 20.9648ZM314.428 39.3664L300.633 25.5714C308.613 22.2027 315.602 21.9706 317.991 22.0107C318.031 24.4016 317.806 31.368 314.428 39.3664Z" fill="white"/>
<path d="M304.161 35.8387C300.798 32.4759 295.327 32.4759 291.965 35.8387C288.602 39.2014 288.602 44.6719 291.965 48.0347C293.645 49.7166 295.854 50.5566 298.062 50.5566C300.271 50.5566 302.479 49.7156 304.161 48.0347C307.523 44.6719 307.523 39.2013 304.161 35.8387ZM302.747 46.6207C300.164 49.2035 295.961 49.2035 293.379 46.6207C290.796 44.038 290.796 39.8353 293.379 37.2525C294.669 35.9616 296.366 35.3157 298.062 35.3157C299.758 35.3157 301.455 35.9616 302.747 37.2525C305.33 39.8353 305.33 44.038 302.747 46.6207Z" fill="white"/>
<path d="M300.05 43.925C298.954 45.0229 297.17 45.0219 296.073 43.925C294.977 42.8281 294.977 41.0453 296.073 39.9483C297.169 38.8523 298.953 38.8514 300.05 39.9483C300.44 40.3392 301.074 40.3392 301.464 39.9483C301.855 39.5573 301.855 38.9253 301.464 38.5344C299.589 36.6586 296.535 36.6586 294.659 38.5344C292.783 40.4102 292.783 43.463 294.659 45.3388C295.597 46.2768 296.83 46.7458 298.062 46.7458C299.295 46.7458 300.527 46.2768 301.464 45.3388C301.855 44.9479 301.855 44.3159 301.464 43.925C301.074 43.5341 300.44 43.5341 300.05 43.925Z" fill="white"/>
</g>
<defs>
<clipPath id="clip0_1_24">
<rect width="60" height="60" fill="white" transform="translate(140 21)"/>
</clipPath>
<clipPath id="clip1_1_24">
<rect width="60" height="60" fill="white" transform="translate(260 20)"/>
</clipPath>
</defs>
</svg>
