<svg width="60" height="60" viewBox="0 0 60 60" fill="none" xmlns="http://www.w3.org/2000/svg">
<g clip-path="url(#clip0_1_422)">
<rect width="60" height="60" rx="30" fill="#EF2A82"/>
<path d="M30 60C13.4316 60 0 46.5684 0 30C0 13.4316 13.4316 0 30 0C46.5684 0 60 13.4316 60 30C60 46.5684 46.5684 60 30 60ZM30 58.5366C45.7602 58.5366 58.5366 45.7602 58.5366 30C58.5366 14.2398 45.7602 1.46341 30 1.46341C14.2398 1.46341 1.46341 14.2398 1.46341 30C1.46341 45.7602 14.2398 58.5366 30 58.5366ZM42.5301 21.5854C41.8164 21.5854 41.3063 22.0236 40.8574 22.41C40.7963 22.4623 40.736 22.515 40.6745 22.5662L39.7559 23.3342L38.8372 24.1017C38.595 24.3029 38.5116 24.6095 38.6162 24.9C38.7253 25.1989 39.0128 25.4078 39.3168 25.4078C39.4837 25.4078 39.6435 25.3467 39.7807 25.2326L40.4524 24.671L41.1238 24.1094C41.2185 24.0307 41.3213 23.9341 41.4304 23.8313C41.5149 23.7512 41.6034 23.6671 41.6949 23.5869C41.5262 25.5889 40.8114 29.6225 37.8245 31.1572C37.5187 30.6936 37.1025 30.3132 36.6134 30.0502C36.1243 29.7872 35.5774 29.6497 35.0221 29.6502C33.9252 29.6502 32.9276 30.1709 32.3023 31.0398C29.7501 27.3077 27.0015 25.9599 25.6862 25.5029V25.4743C25.6862 23.6195 24.1782 22.1115 22.324 22.1115C20.471 22.1115 18.9633 23.6198 18.9633 25.4743C18.9633 25.6126 18.9721 25.751 18.9889 25.8885C18.4168 26.2082 17.8923 26.6065 17.4307 27.0717C15.9867 28.5194 14.9616 30.6674 14.3839 33.4548C13.9745 35.4224 13.9339 37.0803 13.9302 37.4674L13.9024 37.5377L13.9299 37.6058V37.8889L14.0162 37.8948C13.9541 38.0185 13.9245 38.156 13.9303 38.2943C13.936 38.4326 13.9769 38.5672 14.049 38.6854C14.1212 38.8035 14.2222 38.9013 14.3427 38.9696C14.4631 39.0379 14.5989 39.0744 14.7374 39.0756C14.8758 39.0768 15.0123 39.0428 15.1339 38.9767C15.2555 38.9106 15.3583 38.8146 15.4326 38.6978C15.5068 38.581 15.5502 38.4472 15.5584 38.309C15.5666 38.1708 15.5395 38.0327 15.4796 37.9079H15.5682L15.5733 37.5545C15.5733 37.4916 15.6081 31.2282 18.5953 28.2318C18.8983 27.9288 19.2393 27.6663 19.6097 27.4507C19.9219 27.8783 20.3302 28.2264 20.8018 28.4669C21.2734 28.7074 21.795 28.8335 22.3244 28.8351C22.9428 28.8374 23.5498 28.668 24.0776 28.3456C24.6054 28.0233 25.0333 27.5607 25.3138 27.0095C26.6155 27.5019 29.295 28.9405 31.6646 32.8891C31.6621 32.933 31.6603 32.9725 31.6603 33.0124C31.6603 34.8658 33.1676 36.3739 35.0224 36.3739C36.8755 36.3739 38.3839 34.8658 38.3839 33.0124C38.3839 32.9176 38.3788 32.8211 38.3693 32.7216C39.8908 31.9935 42.8268 29.8328 43.3266 23.9027C43.3599 23.9587 43.3932 24.0147 43.4246 24.0688C43.5187 24.2298 43.6087 24.382 43.6954 24.5078L44.7234 25.9887C44.8566 26.1815 45.0615 26.2924 45.2824 26.2924C45.5568 26.2924 45.8217 26.1256 45.9567 25.8681C46.0116 25.7627 46.0401 25.6503 46.0423 25.5387V25.511C46.039 25.3641 45.9921 25.2215 45.9077 25.1013L45.2071 24.0919L44.6334 23.265C44.5684 23.1704 44.5049 23.0746 44.4432 22.9778C44.0825 22.4228 43.6335 21.7325 42.8005 21.6066C42.7109 21.5924 42.6204 21.5852 42.5298 21.5854H42.5301ZM20.6583 25.4743C20.6586 25.0325 20.8342 24.6088 21.1465 24.2962C21.4589 23.9837 21.8825 23.8078 22.3244 23.8072C22.7665 23.8077 23.1902 23.9835 23.5029 24.296C23.8155 24.6086 23.9914 25.0323 23.992 25.4743C23.9911 25.9162 23.8151 26.3397 23.5025 26.6519C23.1899 26.9642 22.7662 27.1398 22.3244 27.1402C21.8827 27.1398 21.4592 26.9641 21.1468 26.6518C20.8345 26.3396 20.6588 25.916 20.6583 25.4743ZM33.3553 33.0124C33.3559 32.5705 33.5318 32.1469 33.8443 31.8345C34.1569 31.5221 34.5806 31.3464 35.0224 31.346C35.4642 31.3465 35.8878 31.5223 36.2002 31.8347C36.5126 32.1471 36.6883 32.5706 36.6889 33.0124C36.6884 33.4542 36.5127 33.8778 36.2003 34.1903C35.8878 34.5027 35.4643 34.6784 35.0224 34.6789C34.5805 34.6786 34.1567 34.503 33.8441 34.1905C33.5316 33.8781 33.3557 33.4543 33.3553 33.0124Z" fill="url(#paint0_linear_1_422)"/>
</g>
<defs>
<linearGradient id="paint0_linear_1_422" x1="6000" y1="3000" x2="0" y2="3000" gradientUnits="userSpaceOnUse">
<stop stop-color="#95C11F"/>
<stop offset="1" stop-color="#006633"/>
</linearGradient>
<clipPath id="clip0_1_422">
<rect width="60" height="60" rx="30" fill="white"/>
</clipPath>
</defs>
</svg>
