<svg width="670" height="480" viewBox="0 0 670 480" fill="none" xmlns="http://www.w3.org/2000/svg">
<g filter="url(#filter0_d_1_324)">
<rect x="35" y="17" width="600" height="410" rx="30" fill="white"/>
</g>
<path d="M146.015 157.077L255 94.1547L363.985 157.077V282.923L255 345.845L146.015 282.923V157.077Z" stroke="#EEEEF7" stroke-width="2"/>
<path d="M184.12 179.077L255 138.155L325.88 179.077V260.923L255 301.845L184.12 260.923V179.077Z" stroke="#EEEEF7" stroke-width="2"/>
<path d="M197.413 187.015L255.363 139.292L337.08 171.394L342.931 269.403L255.346 321.468L191.077 254.278L197.413 187.015Z" stroke="#0088F0" stroke-width="4"/>
<path d="M171.521 172.392L254.362 126.637L300.24 194.966L330.442 264H255.274L202.79 249.338L171.521 172.392Z" stroke="#EF2A82" stroke-width="4"/>
<path d="M230.885 206.077L255 192.155L279.115 206.077V233.923L255 247.845L230.885 233.923V206.077Z" stroke="#EEEEF7" stroke-width="2"/>
<path d="M495.508 153.252H498.184C499.866 153.226 501.188 152.783 502.15 151.923C503.113 151.063 503.594 149.902 503.594 148.439C503.594 145.153 501.958 143.51 498.685 143.51C497.145 143.51 495.913 143.953 494.989 144.838C494.077 145.711 493.622 146.873 493.622 148.323H490.06C490.06 146.103 490.869 144.261 492.486 142.798C494.116 141.322 496.182 140.584 498.685 140.584C501.329 140.584 503.402 141.283 504.903 142.682C506.405 144.081 507.156 146.026 507.156 148.516C507.156 149.735 506.758 150.916 505.962 152.058C505.179 153.2 504.108 154.054 502.747 154.619C504.287 155.106 505.475 155.915 506.309 157.044C507.156 158.174 507.58 159.554 507.58 161.184C507.58 163.699 506.758 165.695 505.115 167.171C503.472 168.647 501.335 169.385 498.704 169.385C496.073 169.385 493.93 168.673 492.274 167.248C490.631 165.823 489.81 163.943 489.81 161.607H493.391C493.391 163.083 493.872 164.264 494.835 165.15C495.797 166.035 497.087 166.478 498.704 166.478C500.424 166.478 501.74 166.029 502.651 165.13C503.562 164.232 504.018 162.942 504.018 161.261C504.018 159.631 503.517 158.379 502.516 157.506C501.515 156.634 500.071 156.184 498.184 156.159H495.508V153.252ZM527.506 159.586H531.395V162.493H527.506V169H523.925V162.493H511.16V160.394L523.713 140.969H527.506V159.586ZM515.203 159.586H523.925V145.84L523.501 146.61L515.203 159.586ZM534.302 146.359C534.302 144.678 534.834 143.292 535.9 142.201C536.978 141.11 538.357 140.564 540.039 140.564C541.746 140.564 543.126 141.116 544.178 142.22C545.243 143.311 545.776 144.729 545.776 146.475V147.842C545.776 149.536 545.237 150.922 544.159 152C543.093 153.066 541.733 153.598 540.077 153.598C538.409 153.598 537.029 153.066 535.938 152C534.847 150.922 534.302 149.491 534.302 147.707V146.359ZM536.958 147.842C536.958 148.843 537.241 149.671 537.806 150.325C538.37 150.967 539.128 151.288 540.077 151.288C540.989 151.288 541.72 150.973 542.272 150.345C542.837 149.716 543.119 148.856 543.119 147.765V146.359C543.119 145.358 542.843 144.53 542.291 143.876C541.739 143.221 540.989 142.894 540.039 142.894C539.089 142.894 538.338 143.221 537.786 143.876C537.234 144.53 536.958 145.384 536.958 146.436V147.842ZM547.951 162.127C547.951 160.446 548.484 159.066 549.549 157.988C550.628 156.897 552.007 156.351 553.689 156.351C555.37 156.351 556.75 156.89 557.828 157.968C558.906 159.047 559.445 160.478 559.445 162.262V163.629C559.445 165.31 558.906 166.696 557.828 167.787C556.763 168.865 555.396 169.404 553.727 169.404C552.059 169.404 550.679 168.872 549.588 167.806C548.497 166.728 547.951 165.297 547.951 163.513V162.127ZM550.608 163.629C550.608 164.643 550.891 165.477 551.455 166.131C552.02 166.773 552.777 167.094 553.727 167.094C554.651 167.094 555.389 166.78 555.941 166.151C556.493 165.509 556.769 164.643 556.769 163.552V162.127C556.769 161.113 556.487 160.285 555.922 159.643C555.37 159.002 554.626 158.681 553.689 158.681C552.777 158.681 552.033 159.002 551.455 159.643C550.891 160.272 550.608 161.126 550.608 162.204V163.629ZM540.886 166.882L538.864 165.612L552.553 143.703L554.574 144.973L540.886 166.882Z" fill="#EF2A82"/>
<path d="M497.211 195.931H498.898C498.811 196.739 498.579 197.463 498.204 198.102C497.829 198.74 497.299 199.247 496.613 199.622C495.928 199.991 495.072 200.176 494.047 200.176C493.297 200.176 492.614 200.035 491.999 199.754C491.39 199.473 490.865 199.074 490.426 198.559C489.986 198.037 489.646 197.413 489.406 196.687C489.172 195.954 489.055 195.14 489.055 194.243V192.969C489.055 192.072 489.172 191.261 489.406 190.534C489.646 189.802 489.989 189.175 490.435 188.653C490.886 188.132 491.428 187.73 492.061 187.449C492.693 187.168 493.405 187.027 494.196 187.027C495.163 187.027 495.98 187.209 496.648 187.572C497.316 187.936 497.835 188.439 498.204 189.084C498.579 189.723 498.811 190.464 498.898 191.308H497.211C497.129 190.71 496.977 190.197 496.754 189.77C496.531 189.336 496.215 189.002 495.805 188.768C495.395 188.533 494.858 188.416 494.196 188.416C493.628 188.416 493.127 188.524 492.693 188.741C492.266 188.958 491.905 189.266 491.612 189.664C491.325 190.062 491.108 190.54 490.962 191.097C490.815 191.653 490.742 192.271 490.742 192.951V194.243C490.742 194.87 490.807 195.459 490.936 196.01C491.07 196.561 491.272 197.044 491.542 197.46C491.812 197.876 492.154 198.204 492.57 198.444C492.986 198.679 493.479 198.796 494.047 198.796C494.768 198.796 495.342 198.682 495.77 198.453C496.197 198.225 496.52 197.896 496.736 197.469C496.959 197.041 497.117 196.528 497.211 195.931ZM504.91 200.176C504.248 200.176 503.647 200.064 503.108 199.842C502.575 199.613 502.115 199.294 501.729 198.884C501.348 198.474 501.055 197.987 500.85 197.425C500.645 196.862 500.542 196.247 500.542 195.579V195.21C500.542 194.437 500.656 193.748 500.885 193.145C501.113 192.535 501.424 192.02 501.816 191.598C502.209 191.176 502.654 190.856 503.152 190.64C503.65 190.423 504.166 190.314 504.699 190.314C505.379 190.314 505.965 190.432 506.457 190.666C506.955 190.9 507.362 191.229 507.679 191.65C507.995 192.066 508.229 192.559 508.382 193.127C508.534 193.689 508.61 194.305 508.61 194.973V195.702H501.509V194.375H506.984V194.252C506.961 193.83 506.873 193.42 506.721 193.021C506.574 192.623 506.34 192.295 506.018 192.037C505.695 191.779 505.256 191.65 504.699 191.65C504.33 191.65 503.99 191.729 503.68 191.888C503.369 192.04 503.103 192.269 502.88 192.573C502.657 192.878 502.484 193.25 502.361 193.689C502.238 194.129 502.177 194.636 502.177 195.21V195.579C502.177 196.03 502.238 196.455 502.361 196.854C502.49 197.246 502.675 197.592 502.915 197.891C503.161 198.189 503.457 198.424 503.803 198.594C504.154 198.764 504.553 198.849 504.998 198.849C505.572 198.849 506.059 198.731 506.457 198.497C506.855 198.263 507.204 197.949 507.503 197.557L508.487 198.339C508.282 198.649 508.021 198.945 507.705 199.227C507.389 199.508 506.999 199.736 506.536 199.912C506.079 200.088 505.537 200.176 504.91 200.176ZM516.652 190.49V191.835H512.258V200H510.632V190.49H516.652ZM523.534 197.838L526.769 190.49H528.333L524.097 200H522.972L518.753 190.49H520.317L523.534 197.838ZM519.843 190.49V200H518.217V190.49H519.843ZM527.173 200V190.49H528.808V200H527.173ZM535.373 200.176C534.711 200.176 534.11 200.064 533.571 199.842C533.038 199.613 532.578 199.294 532.191 198.884C531.811 198.474 531.518 197.987 531.312 197.425C531.107 196.862 531.005 196.247 531.005 195.579V195.21C531.005 194.437 531.119 193.748 531.348 193.145C531.576 192.535 531.887 192.02 532.279 191.598C532.672 191.176 533.117 190.856 533.615 190.64C534.113 190.423 534.629 190.314 535.162 190.314C535.842 190.314 536.428 190.432 536.92 190.666C537.418 190.9 537.825 191.229 538.142 191.65C538.458 192.066 538.692 192.559 538.845 193.127C538.997 193.689 539.073 194.305 539.073 194.973V195.702H531.972V194.375H537.447V194.252C537.424 193.83 537.336 193.42 537.184 193.021C537.037 192.623 536.803 192.295 536.48 192.037C536.158 191.779 535.719 191.65 535.162 191.65C534.793 191.65 534.453 191.729 534.143 191.888C533.832 192.04 533.565 192.269 533.343 192.573C533.12 192.878 532.947 193.25 532.824 193.689C532.701 194.129 532.64 194.636 532.64 195.21V195.579C532.64 196.03 532.701 196.455 532.824 196.854C532.953 197.246 533.138 197.592 533.378 197.891C533.624 198.189 533.92 198.424 534.266 198.594C534.617 198.764 535.016 198.849 535.461 198.849C536.035 198.849 536.521 198.731 536.92 198.497C537.318 198.263 537.667 197.949 537.966 197.557L538.95 198.339C538.745 198.649 538.484 198.945 538.168 199.227C537.852 199.508 537.462 199.736 536.999 199.912C536.542 200.088 536 200.176 535.373 200.176ZM547.423 194.612V195.931H542.396V194.612H547.423ZM542.738 190.49V200H541.112V190.49H542.738ZM548.741 190.49V200H547.106V190.49H548.741ZM555.236 190.49V200H553.602V190.49H555.236ZM558.427 190.49V191.809H550.473V190.49H558.427ZM569.659 187.133V200H568.033V189.163L564.755 190.358V188.891L569.404 187.133H569.659Z" fill="#8794BA"/>
<path d="M508.696 281H490.33V278.439L500.033 267.658C501.47 266.028 502.458 264.706 502.997 263.692C503.549 262.665 503.825 261.607 503.825 260.516C503.825 259.052 503.383 257.852 502.497 256.915C501.611 255.979 500.431 255.51 498.955 255.51C497.183 255.51 495.804 256.017 494.815 257.031C493.84 258.032 493.352 259.431 493.352 261.228H489.79C489.79 258.648 490.618 256.562 492.274 254.971C493.943 253.379 496.169 252.584 498.955 252.584C501.56 252.584 503.62 253.27 505.134 254.644C506.649 256.004 507.406 257.82 507.406 260.092C507.406 262.852 505.648 266.137 502.131 269.949L494.623 278.093H508.696V281ZM526.119 268.679C525.375 269.564 524.483 270.277 523.443 270.816C522.417 271.355 521.287 271.624 520.055 271.624C518.438 271.624 517.026 271.226 515.819 270.431C514.626 269.635 513.702 268.518 513.047 267.081C512.393 265.63 512.065 264.032 512.065 262.287C512.065 260.413 512.418 258.725 513.124 257.223C513.843 255.722 514.857 254.573 516.166 253.777C517.475 252.982 519.003 252.584 520.748 252.584C523.52 252.584 525.702 253.623 527.294 255.703C528.898 257.769 529.7 260.593 529.7 264.174V265.213C529.7 270.668 528.622 274.653 526.466 277.169C524.31 279.672 521.056 280.955 516.705 281.019H516.012V278.016H516.763C519.702 277.965 521.961 277.201 523.54 275.725C525.118 274.236 525.978 271.887 526.119 268.679ZM520.633 268.679C521.826 268.679 522.924 268.313 523.925 267.581C524.939 266.85 525.677 265.945 526.139 264.867V263.442C526.139 261.106 525.632 259.206 524.618 257.743C523.604 256.28 522.32 255.549 520.767 255.549C519.201 255.549 517.944 256.152 516.994 257.358C516.044 258.552 515.569 260.131 515.569 262.094C515.569 264.007 516.025 265.585 516.936 266.83C517.86 268.062 519.092 268.679 520.633 268.679ZM534.302 258.359C534.302 256.678 534.834 255.292 535.9 254.201C536.978 253.11 538.357 252.564 540.039 252.564C541.746 252.564 543.126 253.116 544.178 254.22C545.243 255.311 545.776 256.729 545.776 258.475V259.842C545.776 261.536 545.237 262.922 544.159 264C543.093 265.066 541.733 265.598 540.077 265.598C538.409 265.598 537.029 265.066 535.938 264C534.847 262.922 534.302 261.491 534.302 259.707V258.359ZM536.958 259.842C536.958 260.843 537.241 261.671 537.806 262.325C538.37 262.967 539.128 263.288 540.077 263.288C540.989 263.288 541.72 262.973 542.272 262.345C542.837 261.716 543.119 260.856 543.119 259.765V258.359C543.119 257.358 542.843 256.53 542.291 255.876C541.739 255.221 540.989 254.894 540.039 254.894C539.089 254.894 538.338 255.221 537.786 255.876C537.234 256.53 536.958 257.384 536.958 258.436V259.842ZM547.951 274.127C547.951 272.446 548.484 271.066 549.549 269.988C550.628 268.897 552.007 268.351 553.689 268.351C555.37 268.351 556.75 268.89 557.828 269.968C558.906 271.047 559.445 272.478 559.445 274.262V275.629C559.445 277.31 558.906 278.696 557.828 279.787C556.763 280.865 555.396 281.404 553.727 281.404C552.059 281.404 550.679 280.872 549.588 279.806C548.497 278.728 547.951 277.297 547.951 275.513V274.127ZM550.608 275.629C550.608 276.643 550.891 277.477 551.455 278.131C552.02 278.773 552.777 279.094 553.727 279.094C554.651 279.094 555.389 278.78 555.941 278.151C556.493 277.509 556.769 276.643 556.769 275.552V274.127C556.769 273.113 556.487 272.285 555.922 271.643C555.37 271.002 554.626 270.681 553.689 270.681C552.777 270.681 552.033 271.002 551.455 271.643C550.891 272.272 550.608 273.126 550.608 274.204V275.629ZM540.886 278.882L538.864 277.612L552.553 255.703L554.574 256.973L540.886 278.882Z" fill="#0088F0"/>
<path d="M497.211 307.931H498.898C498.811 308.739 498.579 309.463 498.204 310.102C497.829 310.74 497.299 311.247 496.613 311.622C495.928 311.991 495.072 312.176 494.047 312.176C493.297 312.176 492.614 312.035 491.999 311.754C491.39 311.473 490.865 311.074 490.426 310.559C489.986 310.037 489.646 309.413 489.406 308.687C489.172 307.954 489.055 307.14 489.055 306.243V304.969C489.055 304.072 489.172 303.261 489.406 302.534C489.646 301.802 489.989 301.175 490.435 300.653C490.886 300.132 491.428 299.73 492.061 299.449C492.693 299.168 493.405 299.027 494.196 299.027C495.163 299.027 495.98 299.209 496.648 299.572C497.316 299.936 497.835 300.439 498.204 301.084C498.579 301.723 498.811 302.464 498.898 303.308H497.211C497.129 302.71 496.977 302.197 496.754 301.77C496.531 301.336 496.215 301.002 495.805 300.768C495.395 300.533 494.858 300.416 494.196 300.416C493.628 300.416 493.127 300.524 492.693 300.741C492.266 300.958 491.905 301.266 491.612 301.664C491.325 302.062 491.108 302.54 490.962 303.097C490.815 303.653 490.742 304.271 490.742 304.951V306.243C490.742 306.87 490.807 307.459 490.936 308.01C491.07 308.561 491.272 309.044 491.542 309.46C491.812 309.876 492.154 310.204 492.57 310.444C492.986 310.679 493.479 310.796 494.047 310.796C494.768 310.796 495.342 310.682 495.77 310.453C496.197 310.225 496.52 309.896 496.736 309.469C496.959 309.041 497.117 308.528 497.211 307.931ZM504.91 312.176C504.248 312.176 503.647 312.064 503.108 311.842C502.575 311.613 502.115 311.294 501.729 310.884C501.348 310.474 501.055 309.987 500.85 309.425C500.645 308.862 500.542 308.247 500.542 307.579V307.21C500.542 306.437 500.656 305.748 500.885 305.145C501.113 304.535 501.424 304.02 501.816 303.598C502.209 303.176 502.654 302.856 503.152 302.64C503.65 302.423 504.166 302.314 504.699 302.314C505.379 302.314 505.965 302.432 506.457 302.666C506.955 302.9 507.362 303.229 507.679 303.65C507.995 304.066 508.229 304.559 508.382 305.127C508.534 305.689 508.61 306.305 508.61 306.973V307.702H501.509V306.375H506.984V306.252C506.961 305.83 506.873 305.42 506.721 305.021C506.574 304.623 506.34 304.295 506.018 304.037C505.695 303.779 505.256 303.65 504.699 303.65C504.33 303.65 503.99 303.729 503.68 303.888C503.369 304.04 503.103 304.269 502.88 304.573C502.657 304.878 502.484 305.25 502.361 305.689C502.238 306.129 502.177 306.636 502.177 307.21V307.579C502.177 308.03 502.238 308.455 502.361 308.854C502.49 309.246 502.675 309.592 502.915 309.891C503.161 310.189 503.457 310.424 503.803 310.594C504.154 310.764 504.553 310.849 504.998 310.849C505.572 310.849 506.059 310.731 506.457 310.497C506.855 310.263 507.204 309.949 507.503 309.557L508.487 310.339C508.282 310.649 508.021 310.945 507.705 311.227C507.389 311.508 506.999 311.736 506.536 311.912C506.079 312.088 505.537 312.176 504.91 312.176ZM516.652 302.49V303.835H512.258V312H510.632V302.49H516.652ZM523.534 309.838L526.769 302.49H528.333L524.097 312H522.972L518.753 302.49H520.317L523.534 309.838ZM519.843 302.49V312H518.217V302.49H519.843ZM527.173 312V302.49H528.808V312H527.173ZM535.373 312.176C534.711 312.176 534.11 312.064 533.571 311.842C533.038 311.613 532.578 311.294 532.191 310.884C531.811 310.474 531.518 309.987 531.312 309.425C531.107 308.862 531.005 308.247 531.005 307.579V307.21C531.005 306.437 531.119 305.748 531.348 305.145C531.576 304.535 531.887 304.02 532.279 303.598C532.672 303.176 533.117 302.856 533.615 302.64C534.113 302.423 534.629 302.314 535.162 302.314C535.842 302.314 536.428 302.432 536.92 302.666C537.418 302.9 537.825 303.229 538.142 303.65C538.458 304.066 538.692 304.559 538.845 305.127C538.997 305.689 539.073 306.305 539.073 306.973V307.702H531.972V306.375H537.447V306.252C537.424 305.83 537.336 305.42 537.184 305.021C537.037 304.623 536.803 304.295 536.48 304.037C536.158 303.779 535.719 303.65 535.162 303.65C534.793 303.65 534.453 303.729 534.143 303.888C533.832 304.04 533.565 304.269 533.343 304.573C533.12 304.878 532.947 305.25 532.824 305.689C532.701 306.129 532.64 306.636 532.64 307.21V307.579C532.64 308.03 532.701 308.455 532.824 308.854C532.953 309.246 533.138 309.592 533.378 309.891C533.624 310.189 533.92 310.424 534.266 310.594C534.617 310.764 535.016 310.849 535.461 310.849C536.035 310.849 536.521 310.731 536.92 310.497C537.318 310.263 537.667 309.949 537.966 309.557L538.95 310.339C538.745 310.649 538.484 310.945 538.168 311.227C537.852 311.508 537.462 311.736 536.999 311.912C536.542 312.088 536 312.176 535.373 312.176ZM547.423 306.612V307.931H542.396V306.612H547.423ZM542.738 302.49V312H541.112V302.49H542.738ZM548.741 302.49V312H547.106V302.49H548.741ZM555.236 302.49V312H553.602V302.49H555.236ZM558.427 302.49V303.809H550.473V302.49H558.427ZM572.7 310.664V312H564.324V310.831L568.517 306.164C569.032 305.59 569.431 305.104 569.712 304.705C569.999 304.301 570.198 303.94 570.31 303.624C570.427 303.302 570.485 302.974 570.485 302.64C570.485 302.218 570.397 301.837 570.222 301.497C570.052 301.151 569.8 300.876 569.466 300.671C569.132 300.466 568.728 300.363 568.253 300.363C567.685 300.363 567.21 300.475 566.829 300.697C566.454 300.914 566.173 301.219 565.985 301.611C565.798 302.004 565.704 302.455 565.704 302.965H564.078C564.078 302.244 564.236 301.585 564.553 300.987C564.869 300.39 565.338 299.915 565.959 299.563C566.58 299.206 567.345 299.027 568.253 299.027C569.062 299.027 569.753 299.171 570.327 299.458C570.901 299.739 571.341 300.138 571.646 300.653C571.956 301.163 572.111 301.761 572.111 302.446C572.111 302.821 572.047 303.202 571.918 303.589C571.795 303.97 571.622 304.351 571.399 304.731C571.183 305.112 570.928 305.487 570.635 305.856C570.348 306.226 570.04 306.589 569.712 306.946L566.284 310.664H572.7Z" fill="#8794BA"/>
<path d="M244.637 81H243.547V73.7754L241.361 74.5781V73.5938L244.467 72.4277H244.637V81ZM252.986 74.6953C252.986 75.1211 252.873 75.5 252.646 75.832C252.424 76.1641 252.121 76.4238 251.738 76.6113C252.184 76.8027 252.535 77.082 252.793 77.4492C253.055 77.8164 253.186 78.2324 253.186 78.6973C253.186 79.4355 252.936 80.0234 252.436 80.4609C251.939 80.8984 251.285 81.1172 250.473 81.1172C249.652 81.1172 248.994 80.8984 248.498 80.4609C248.006 80.0195 247.76 79.4316 247.76 78.6973C247.76 78.2363 247.885 77.8203 248.135 77.4492C248.389 77.0781 248.738 76.7969 249.184 76.6055C248.805 76.418 248.506 76.1582 248.287 75.8262C248.068 75.4941 247.959 75.1172 247.959 74.6953C247.959 73.9766 248.189 73.4062 248.65 72.9844C249.111 72.5625 249.719 72.3516 250.473 72.3516C251.223 72.3516 251.828 72.5625 252.289 72.9844C252.754 73.4062 252.986 73.9766 252.986 74.6953ZM252.102 78.6738C252.102 78.1973 251.949 77.8086 251.645 77.5078C251.344 77.207 250.949 77.0566 250.461 77.0566C249.973 77.0566 249.58 77.2051 249.283 77.502C248.99 77.7988 248.844 78.1895 248.844 78.6738C248.844 79.1582 248.986 79.5391 249.271 79.8164C249.561 80.0938 249.961 80.2324 250.473 80.2324C250.98 80.2324 251.379 80.0938 251.668 79.8164C251.957 79.5352 252.102 79.1543 252.102 78.6738ZM250.473 73.2422C250.047 73.2422 249.701 73.375 249.436 73.6406C249.174 73.9023 249.043 74.2598 249.043 74.7129C249.043 75.1465 249.172 75.498 249.43 75.7676C249.691 76.0332 250.039 76.166 250.473 76.166C250.906 76.166 251.252 76.0332 251.51 75.7676C251.771 75.498 251.902 75.1465 251.902 74.7129C251.902 74.2793 251.768 73.9258 251.498 73.6523C251.229 73.3789 250.887 73.2422 250.473 73.2422ZM256.918 77.8184H254.059V76.9336H256.918V77.8184ZM263.457 81H257.867V80.2207L260.82 76.9395C261.258 76.4434 261.559 76.041 261.723 75.7324C261.891 75.4199 261.975 75.0977 261.975 74.7656C261.975 74.3203 261.84 73.9551 261.57 73.6699C261.301 73.3848 260.941 73.2422 260.492 73.2422C259.953 73.2422 259.533 73.3965 259.232 73.7051C258.936 74.0098 258.787 74.4355 258.787 74.9824H257.703C257.703 74.1973 257.955 73.5625 258.459 73.0781C258.967 72.5938 259.645 72.3516 260.492 72.3516C261.285 72.3516 261.912 72.5605 262.373 72.9785C262.834 73.3926 263.064 73.9453 263.064 74.6367C263.064 75.4766 262.529 76.4766 261.459 77.6367L259.174 80.1152H263.457V81ZM269.182 78.1348H270.365V79.0195H269.182V81H268.092V79.0195H264.207V78.3809L268.027 72.4688H269.182V78.1348ZM265.438 78.1348H268.092V73.9512L267.963 74.1855L265.438 78.1348Z" fill="#8794BA"/>
<path d="M387.664 159H382.074V158.221L385.027 154.939C385.465 154.443 385.766 154.041 385.93 153.732C386.098 153.42 386.182 153.098 386.182 152.766C386.182 152.32 386.047 151.955 385.777 151.67C385.508 151.385 385.148 151.242 384.699 151.242C384.16 151.242 383.74 151.396 383.439 151.705C383.143 152.01 382.994 152.436 382.994 152.982H381.91C381.91 152.197 382.162 151.562 382.666 151.078C383.174 150.594 383.852 150.352 384.699 150.352C385.492 150.352 386.119 150.561 386.58 150.979C387.041 151.393 387.271 151.945 387.271 152.637C387.271 153.477 386.736 154.477 385.666 155.637L383.381 158.115H387.664V159ZM389.311 154.723L389.744 150.469H394.115V151.471H390.664L390.406 153.797C390.824 153.551 391.299 153.428 391.83 153.428C392.607 153.428 393.225 153.686 393.682 154.201C394.139 154.713 394.367 155.406 394.367 156.281C394.367 157.16 394.129 157.854 393.652 158.361C393.18 158.865 392.518 159.117 391.666 159.117C390.912 159.117 390.297 158.908 389.82 158.49C389.344 158.072 389.072 157.494 389.006 156.756H390.031C390.098 157.244 390.271 157.613 390.553 157.863C390.834 158.109 391.205 158.232 391.666 158.232C392.17 158.232 392.564 158.061 392.85 157.717C393.139 157.373 393.283 156.898 393.283 156.293C393.283 155.723 393.127 155.266 392.814 154.922C392.506 154.574 392.094 154.4 391.578 154.4C391.105 154.4 390.734 154.504 390.465 154.711L390.178 154.945L389.311 154.723ZM397.918 155.818H395.059V154.934H397.918V155.818ZM400.443 154.207H401.258C401.77 154.199 402.172 154.064 402.465 153.803C402.758 153.541 402.904 153.188 402.904 152.742C402.904 151.742 402.406 151.242 401.41 151.242C400.941 151.242 400.566 151.377 400.285 151.646C400.008 151.912 399.869 152.266 399.869 152.707H398.785C398.785 152.031 399.031 151.471 399.523 151.025C400.02 150.576 400.648 150.352 401.41 150.352C402.215 150.352 402.846 150.564 403.303 150.99C403.76 151.416 403.988 152.008 403.988 152.766C403.988 153.137 403.867 153.496 403.625 153.844C403.387 154.191 403.061 154.451 402.646 154.623C403.115 154.771 403.477 155.018 403.73 155.361C403.988 155.705 404.117 156.125 404.117 156.621C404.117 157.387 403.867 157.994 403.367 158.443C402.867 158.893 402.217 159.117 401.416 159.117C400.615 159.117 399.963 158.9 399.459 158.467C398.959 158.033 398.709 157.461 398.709 156.75H399.799C399.799 157.199 399.945 157.559 400.238 157.828C400.531 158.098 400.924 158.232 401.416 158.232C401.939 158.232 402.34 158.096 402.617 157.822C402.895 157.549 403.033 157.156 403.033 156.645C403.033 156.148 402.881 155.768 402.576 155.502C402.271 155.236 401.832 155.1 401.258 155.092H400.443V154.207ZM410.182 156.135H411.365V157.02H410.182V159H409.092V157.02H405.207V156.381L409.027 150.469H410.182V156.135ZM406.438 156.135H409.092V151.951L408.963 152.186L406.438 156.135Z" fill="#8794BA"/>
<path d="M383.65 285.207H384.465C384.977 285.199 385.379 285.064 385.672 284.803C385.965 284.541 386.111 284.188 386.111 283.742C386.111 282.742 385.613 282.242 384.617 282.242C384.148 282.242 383.773 282.377 383.492 282.646C383.215 282.912 383.076 283.266 383.076 283.707H381.992C381.992 283.031 382.238 282.471 382.73 282.025C383.227 281.576 383.855 281.352 384.617 281.352C385.422 281.352 386.053 281.564 386.51 281.99C386.967 282.416 387.195 283.008 387.195 283.766C387.195 284.137 387.074 284.496 386.832 284.844C386.594 285.191 386.268 285.451 385.854 285.623C386.322 285.771 386.684 286.018 386.938 286.361C387.195 286.705 387.324 287.125 387.324 287.621C387.324 288.387 387.074 288.994 386.574 289.443C386.074 289.893 385.424 290.117 384.623 290.117C383.822 290.117 383.17 289.9 382.666 289.467C382.166 289.033 381.916 288.461 381.916 287.75H383.006C383.006 288.199 383.152 288.559 383.445 288.828C383.738 289.098 384.131 289.232 384.623 289.232C385.146 289.232 385.547 289.096 385.824 288.822C386.102 288.549 386.24 288.156 386.24 287.645C386.24 287.148 386.088 286.768 385.783 286.502C385.479 286.236 385.039 286.1 384.465 286.092H383.65V285.207ZM389.311 285.723L389.744 281.469H394.115V282.471H390.664L390.406 284.797C390.824 284.551 391.299 284.428 391.83 284.428C392.607 284.428 393.225 284.686 393.682 285.201C394.139 285.713 394.367 286.406 394.367 287.281C394.367 288.16 394.129 288.854 393.652 289.361C393.18 289.865 392.518 290.117 391.666 290.117C390.912 290.117 390.297 289.908 389.82 289.49C389.344 289.072 389.072 288.494 389.006 287.756H390.031C390.098 288.244 390.271 288.613 390.553 288.863C390.834 289.109 391.205 289.232 391.666 289.232C392.17 289.232 392.564 289.061 392.85 288.717C393.139 288.373 393.283 287.898 393.283 287.293C393.283 286.723 393.127 286.266 392.814 285.922C392.506 285.574 392.094 285.4 391.578 285.4C391.105 285.4 390.734 285.504 390.465 285.711L390.178 285.945L389.311 285.723ZM397.918 286.818H395.059V285.934H397.918V286.818ZM403.443 287.135H404.627V288.02H403.443V290H402.354V288.02H398.469V287.381L402.289 281.469H403.443V287.135ZM399.699 287.135H402.354V282.951L402.225 283.186L399.699 287.135ZM410.182 287.135H411.365V288.02H410.182V290H409.092V288.02H405.207V287.381L409.027 281.469H410.182V287.135ZM406.438 287.135H409.092V282.951L408.963 283.186L406.438 287.135Z" fill="#8794BA"/>
<path d="M245.65 372.135H246.834V373.02H245.65V375H244.561V373.02H240.676V372.381L244.496 366.469H245.65V372.135ZM241.906 372.135H244.561V367.951L244.432 368.186L241.906 372.135ZM248.311 370.723L248.744 366.469H253.115V367.471H249.664L249.406 369.797C249.824 369.551 250.299 369.428 250.83 369.428C251.607 369.428 252.225 369.686 252.682 370.201C253.139 370.713 253.367 371.406 253.367 372.281C253.367 373.16 253.129 373.854 252.652 374.361C252.18 374.865 251.518 375.117 250.666 375.117C249.912 375.117 249.297 374.908 248.82 374.49C248.344 374.072 248.072 373.494 248.006 372.756H249.031C249.098 373.244 249.271 373.613 249.553 373.863C249.834 374.109 250.205 374.232 250.666 374.232C251.17 374.232 251.564 374.061 251.85 373.717C252.139 373.373 252.283 372.898 252.283 372.293C252.283 371.723 252.127 371.266 251.814 370.922C251.506 370.574 251.094 370.4 250.578 370.4C250.105 370.4 249.734 370.504 249.465 370.711L249.178 370.945L248.311 370.723ZM256.918 371.818H254.059V370.934H256.918V371.818ZM258.365 370.723L258.799 366.469H263.17V367.471H259.719L259.461 369.797C259.879 369.551 260.354 369.428 260.885 369.428C261.662 369.428 262.279 369.686 262.736 370.201C263.193 370.713 263.422 371.406 263.422 372.281C263.422 373.16 263.184 373.854 262.707 374.361C262.234 374.865 261.572 375.117 260.721 375.117C259.967 375.117 259.352 374.908 258.875 374.49C258.398 374.072 258.127 373.494 258.061 372.756H259.086C259.152 373.244 259.326 373.613 259.607 373.863C259.889 374.109 260.26 374.232 260.721 374.232C261.225 374.232 261.619 374.061 261.904 373.717C262.193 373.373 262.338 372.898 262.338 372.293C262.338 371.723 262.182 371.266 261.869 370.922C261.561 370.574 261.148 370.4 260.633 370.4C260.16 370.4 259.789 370.504 259.52 370.711L259.232 370.945L258.365 370.723ZM269.182 372.135H270.365V373.02H269.182V375H268.092V373.02H264.207V372.381L268.027 366.469H269.182V372.135ZM265.438 372.135H268.092V367.951L267.963 368.186L265.438 372.135Z" fill="#8794BA"/>
<path d="M100.572 285.723L101.006 281.469H105.377V282.471H101.926L101.668 284.797C102.086 284.551 102.561 284.428 103.092 284.428C103.869 284.428 104.486 284.686 104.943 285.201C105.4 285.713 105.629 286.406 105.629 287.281C105.629 288.16 105.391 288.854 104.914 289.361C104.441 289.865 103.779 290.117 102.928 290.117C102.174 290.117 101.559 289.908 101.082 289.49C100.605 289.072 100.334 288.494 100.268 287.756H101.293C101.359 288.244 101.533 288.613 101.814 288.863C102.096 289.109 102.467 289.232 102.928 289.232C103.432 289.232 103.826 289.061 104.111 288.717C104.4 288.373 104.545 287.898 104.545 287.293C104.545 286.723 104.389 286.266 104.076 285.922C103.768 285.574 103.355 285.4 102.84 285.4C102.367 285.4 101.996 285.504 101.727 285.711L101.439 285.945L100.572 285.723ZM107.311 285.723L107.744 281.469H112.115V282.471H108.664L108.406 284.797C108.824 284.551 109.299 284.428 109.83 284.428C110.607 284.428 111.225 284.686 111.682 285.201C112.139 285.713 112.367 286.406 112.367 287.281C112.367 288.16 112.129 288.854 111.652 289.361C111.18 289.865 110.518 290.117 109.666 290.117C108.912 290.117 108.297 289.908 107.82 289.49C107.344 289.072 107.072 288.494 107.006 287.756H108.031C108.098 288.244 108.271 288.613 108.553 288.863C108.834 289.109 109.205 289.232 109.666 289.232C110.17 289.232 110.564 289.061 110.85 288.717C111.139 288.373 111.283 287.898 111.283 287.293C111.283 286.723 111.127 286.266 110.814 285.922C110.506 285.574 110.094 285.4 109.578 285.4C109.105 285.4 108.734 285.504 108.465 285.711L108.178 285.945L107.311 285.723ZM115.918 286.818H113.059V285.934H115.918V286.818ZM121.121 281.463V282.383H120.922C120.078 282.398 119.406 282.648 118.906 283.133C118.406 283.617 118.117 284.299 118.039 285.178C118.488 284.662 119.102 284.404 119.879 284.404C120.621 284.404 121.213 284.666 121.654 285.189C122.1 285.713 122.322 286.389 122.322 287.217C122.322 288.096 122.082 288.799 121.602 289.326C121.125 289.854 120.484 290.117 119.68 290.117C118.863 290.117 118.201 289.805 117.693 289.18C117.186 288.551 116.932 287.742 116.932 286.754V286.338C116.932 284.768 117.266 283.568 117.934 282.74C118.605 281.908 119.604 281.482 120.928 281.463H121.121ZM119.697 285.307C119.326 285.307 118.984 285.418 118.672 285.641C118.359 285.863 118.143 286.143 118.021 286.479V286.877C118.021 287.58 118.18 288.146 118.496 288.576C118.812 289.006 119.207 289.221 119.68 289.221C120.168 289.221 120.551 289.041 120.828 288.682C121.109 288.322 121.25 287.852 121.25 287.27C121.25 286.684 121.107 286.211 120.822 285.852C120.541 285.488 120.166 285.307 119.697 285.307ZM128.182 287.135H129.365V288.02H128.182V290H127.092V288.02H123.207V287.381L127.027 281.469H128.182V287.135ZM124.438 287.135H127.092V282.951L126.963 283.186L124.438 287.135Z" fill="#8794BA"/>
<path d="M109.32 150.463V151.383H109.121C108.277 151.398 107.605 151.648 107.105 152.133C106.605 152.617 106.316 153.299 106.238 154.178C106.688 153.662 107.301 153.404 108.078 153.404C108.82 153.404 109.412 153.666 109.854 154.189C110.299 154.713 110.521 155.389 110.521 156.217C110.521 157.096 110.281 157.799 109.801 158.326C109.324 158.854 108.684 159.117 107.879 159.117C107.062 159.117 106.4 158.805 105.893 158.18C105.385 157.551 105.131 156.742 105.131 155.754V155.338C105.131 153.768 105.465 152.568 106.133 151.74C106.805 150.908 107.803 150.482 109.127 150.463H109.32ZM107.896 154.307C107.525 154.307 107.184 154.418 106.871 154.641C106.559 154.863 106.342 155.143 106.221 155.479V155.877C106.221 156.58 106.379 157.146 106.695 157.576C107.012 158.006 107.406 158.221 107.879 158.221C108.367 158.221 108.75 158.041 109.027 157.682C109.309 157.322 109.449 156.852 109.449 156.27C109.449 155.684 109.307 155.211 109.021 154.852C108.74 154.488 108.365 154.307 107.896 154.307ZM112.303 154.723L112.736 150.469H117.107V151.471H113.656L113.398 153.797C113.816 153.551 114.291 153.428 114.822 153.428C115.6 153.428 116.217 153.686 116.674 154.201C117.131 154.713 117.359 155.406 117.359 156.281C117.359 157.16 117.121 157.854 116.645 158.361C116.172 158.865 115.51 159.117 114.658 159.117C113.904 159.117 113.289 158.908 112.812 158.49C112.336 158.072 112.064 157.494 111.998 156.756H113.023C113.09 157.244 113.264 157.613 113.545 157.863C113.826 158.109 114.197 158.232 114.658 158.232C115.162 158.232 115.557 158.061 115.842 157.717C116.131 157.373 116.275 156.898 116.275 156.293C116.275 155.723 116.119 155.266 115.807 154.922C115.498 154.574 115.086 154.4 114.57 154.4C114.098 154.4 113.727 154.504 113.457 154.711L113.17 154.945L112.303 154.723ZM121.76 154.424H124.139V155.449H121.76V158.145H120.67V155.449H118.291V154.424H120.67V151.934H121.76V154.424Z" fill="#8794BA"/>
<defs>
<filter id="filter0_d_1_324" x="0" y="0" width="670" height="480" filterUnits="userSpaceOnUse" color-interpolation-filters="sRGB">
<feFlood flood-opacity="0" result="BackgroundImageFix"/>
<feColorMatrix in="SourceAlpha" type="matrix" values="0 0 0 0 0 0 0 0 0 0 0 0 0 0 0 0 0 0 127 0" result="hardAlpha"/>
<feMorphology radius="15" operator="erode" in="SourceAlpha" result="effect1_dropShadow_1_324"/>
<feOffset dy="18"/>
<feGaussianBlur stdDeviation="25"/>
<feColorMatrix type="matrix" values="0 0 0 0 0.0996452 0 0 0 0 0.164326 0 0 0 0 0.350284 0 0 0 0.2 0"/>
<feBlend mode="normal" in2="BackgroundImageFix" result="effect1_dropShadow_1_324"/>
<feBlend mode="normal" in="SourceGraphic" in2="effect1_dropShadow_1_324" result="shape"/>
</filter>
</defs>
</svg>
