<svg width="277" height="60" viewBox="0 0 277 60" fill="none" xmlns="http://www.w3.org/2000/svg">
<path d="M88.336 37.288C83.584 37.288 79.912 33.688 79.912 29.08C79.912 24.472 83.608 20.872 88.36 20.872C90.784 20.872 93.064 21.904 94.48 23.608C94.816 23.992 94.984 24.376 94.984 24.808C94.984 25.6 94.312 26.272 93.472 26.272C93.016 26.272 92.584 26.056 92.224 25.648C91.192 24.448 89.896 23.872 88.36 23.872C85.384 23.872 83.248 26.056 83.248 29.104C83.248 32.128 85.384 34.288 88.36 34.288C89.872 34.288 91.144 33.712 92.2 32.512C92.584 32.104 92.992 31.888 93.472 31.888C94.312 31.888 94.96 32.56 94.96 33.352C94.96 33.736 94.816 34.12 94.456 34.552C93.064 36.256 90.784 37.288 88.336 37.288ZM100.229 37C99.2694 37 98.5734 36.304 98.5734 35.344V22.528C98.5734 21.664 99.2454 20.872 100.205 20.872C101.141 20.872 101.813 21.592 101.813 22.528V34.072H107.453C108.317 34.072 108.941 34.72 108.941 35.536C108.941 36.376 108.317 37 107.453 37H100.229ZM113.268 37.288C112.308 37.288 111.636 36.568 111.636 35.632V22.528C111.636 21.592 112.308 20.872 113.268 20.872C114.204 20.872 114.876 21.592 114.876 22.528V35.632C114.876 36.568 114.204 37.288 113.268 37.288ZM120.588 37C119.676 37 118.98 36.304 118.98 35.392V22.768C118.98 21.856 119.676 21.16 120.588 21.16H128.34C129.204 21.16 129.828 21.784 129.828 22.624C129.828 23.44 129.18 24.088 128.34 24.088H122.22V27.304H126.42C127.236 27.304 127.836 27.904 127.836 28.696C127.836 29.464 127.236 30.064 126.42 30.064H122.22V34.072H128.628C129.492 34.072 130.116 34.72 130.116 35.536C130.116 36.376 129.468 37 128.628 37H120.588ZM145.094 20.872C146.006 20.872 146.702 21.592 146.702 22.528V35.656C146.702 36.568 146.03 37.288 145.118 37.288C144.326 37.288 143.942 36.832 143.51 36.304L136.454 27.232V35.632C136.454 36.568 135.758 37.288 134.846 37.288C133.91 37.288 133.214 36.568 133.214 35.632V22.504C133.214 21.592 133.91 20.872 134.798 20.872C135.614 20.872 135.974 21.328 136.454 21.928L143.486 30.928L143.462 22.528C143.462 21.592 144.158 20.872 145.094 20.872ZM156.008 37.288C155.096 37.288 154.4 36.568 154.4 35.632V24.088H150.632C149.792 24.088 149.144 23.44 149.144 22.624C149.144 21.784 149.792 21.16 150.632 21.16H161.408C162.272 21.16 162.896 21.784 162.896 22.624C162.896 23.44 162.248 24.088 161.408 24.088H157.64V35.632C157.64 36.568 156.944 37.288 156.008 37.288ZM176.41 37.288C174.538 37.288 172.474 36.448 171.298 35.152C170.914 34.768 170.698 34.36 170.698 33.904C170.722 33.04 171.418 32.464 172.186 32.464C172.474 32.464 172.786 32.56 173.026 32.776C173.674 33.448 174.802 34.408 176.41 34.408C177.826 34.408 178.666 33.736 178.666 32.656C178.666 31.744 178.114 31.36 176.65 30.688L174.946 29.92C172.426 28.768 171.106 27.4 171.106 25.36C171.106 22.696 173.362 20.872 176.362 20.872C178.738 20.872 180.13 21.976 180.802 22.744C181.138 23.104 181.234 23.464 181.234 23.776C181.234 24.592 180.49 25.216 179.746 25.216C179.458 25.216 179.146 25.12 178.858 24.88C178.21 24.304 177.49 23.752 176.362 23.752C175.21 23.752 174.394 24.304 174.394 25.288C174.394 26.08 174.826 26.464 176.242 27.112L178.042 27.904C180.682 29.08 181.954 30.376 181.954 32.536C181.954 35.464 179.578 37.288 176.41 37.288ZM186.909 37.288C185.973 37.288 185.277 36.568 185.277 35.632V22.816C185.277 21.856 185.973 21.16 186.933 21.16H191.253C194.637 21.16 196.941 23.224 196.941 26.272C196.941 29.296 194.589 31.408 191.253 31.408H188.517V35.632C188.517 36.568 187.821 37.288 186.909 37.288ZM188.517 28.576H191.229C192.717 28.576 193.629 27.688 193.629 26.272C193.629 24.904 192.717 24.016 191.229 24.016H188.517V28.576ZM211.161 34.864C211.305 35.2 211.353 35.488 211.353 35.728C211.353 36.592 210.681 37.288 209.769 37.288C209.073 37.288 208.545 36.88 208.233 36.136L207.561 34.504H200.865L200.193 36.136C199.905 36.88 199.377 37.288 198.681 37.288C197.769 37.288 197.073 36.592 197.073 35.728C197.073 35.488 197.145 35.2 197.265 34.864L202.689 21.976C202.977 21.256 203.505 20.872 204.225 20.872C204.945 20.872 205.473 21.256 205.761 21.976L211.161 34.864ZM204.225 25.648L201.921 31.84H206.481L204.225 25.648ZM221.633 37.288C216.881 37.288 213.209 33.688 213.209 29.08C213.209 24.472 216.905 20.872 221.657 20.872C224.081 20.872 226.361 21.904 227.777 23.608C228.113 23.992 228.281 24.376 228.281 24.808C228.281 25.6 227.609 26.272 226.769 26.272C226.313 26.272 225.881 26.056 225.521 25.648C224.489 24.448 223.193 23.872 221.657 23.872C218.681 23.872 216.545 26.056 216.545 29.104C216.545 32.128 218.681 34.288 221.657 34.288C223.169 34.288 224.441 33.712 225.497 32.512C225.881 32.104 226.289 31.888 226.769 31.888C227.609 31.888 228.257 32.56 228.257 33.352C228.257 33.736 228.113 34.12 227.753 34.552C226.361 36.256 224.081 37.288 221.633 37.288ZM233.478 37C232.566 37 231.87 36.304 231.87 35.392V22.768C231.87 21.856 232.566 21.16 233.478 21.16H241.23C242.094 21.16 242.718 21.784 242.718 22.624C242.718 23.44 242.07 24.088 241.23 24.088H235.11V27.304H239.31C240.126 27.304 240.726 27.904 240.726 28.696C240.726 29.464 240.126 30.064 239.31 30.064H235.11V34.072H241.518C242.382 34.072 243.006 34.72 243.006 35.536C243.006 36.376 242.358 37 241.518 37H233.478Z" fill="#8794BA"/>
<g clip-path="url(#clip0_1_20)">
<rect width="60" height="60" rx="30" fill="#8794BA"/>
<path d="M30 60C13.4316 60 0 46.5684 0 30C0 13.4316 13.4316 0 30 0C46.5684 0 60 13.4316 60 30C60 46.5684 46.5684 60 30 60ZM30 58.5366C45.7602 58.5366 58.5366 45.7602 58.5366 30C58.5366 14.2398 45.7602 1.46341 30 1.46341C14.2398 1.46341 1.46341 14.2398 1.46341 30C1.46341 45.7602 14.2398 58.5366 30 58.5366ZM42.5301 21.5854C41.8164 21.5854 41.3063 22.0236 40.8574 22.41C40.7963 22.4623 40.736 22.515 40.6745 22.5662L39.7559 23.3342L38.8372 24.1017C38.595 24.3029 38.5116 24.6095 38.6162 24.9C38.7253 25.1989 39.0128 25.4078 39.3168 25.4078C39.4837 25.4078 39.6435 25.3467 39.7807 25.2326L40.4524 24.671L41.1238 24.1094C41.2185 24.0307 41.3213 23.9341 41.4304 23.8313C41.5149 23.7512 41.6034 23.6671 41.6949 23.5869C41.5262 25.5889 40.8114 29.6225 37.8245 31.1572C37.5187 30.6936 37.1025 30.3132 36.6134 30.0502C36.1243 29.7872 35.5774 29.6497 35.0221 29.6502C33.9252 29.6502 32.9276 30.1709 32.3023 31.0398C29.7501 27.3077 27.0015 25.9599 25.6862 25.5029V25.4743C25.6862 23.6195 24.1782 22.1115 22.324 22.1115C20.471 22.1115 18.9633 23.6198 18.9633 25.4743C18.9633 25.6126 18.9721 25.751 18.9889 25.8885C18.4168 26.2082 17.8923 26.6065 17.4307 27.0717C15.9867 28.5194 14.9616 30.6674 14.3839 33.4548C13.9745 35.4224 13.9339 37.0803 13.9302 37.4674L13.9024 37.5377L13.9299 37.6058V37.8889L14.0162 37.8948C13.9541 38.0185 13.9245 38.156 13.9303 38.2943C13.936 38.4326 13.9769 38.5672 14.049 38.6854C14.1212 38.8035 14.2222 38.9013 14.3427 38.9696C14.4631 39.0379 14.5989 39.0744 14.7374 39.0756C14.8758 39.0768 15.0123 39.0428 15.1339 38.9767C15.2555 38.9106 15.3583 38.8146 15.4326 38.6978C15.5068 38.581 15.5502 38.4472 15.5584 38.309C15.5666 38.1708 15.5395 38.0327 15.4796 37.9079H15.5682L15.5733 37.5545C15.5733 37.4916 15.6081 31.2282 18.5953 28.2318C18.8983 27.9288 19.2393 27.6663 19.6097 27.4507C19.9219 27.8783 20.3302 28.2264 20.8018 28.4669C21.2734 28.7074 21.795 28.8335 22.3244 28.8351C22.9428 28.8374 23.5498 28.668 24.0776 28.3456C24.6054 28.0233 25.0333 27.5607 25.3138 27.0095C26.6155 27.5019 29.295 28.9405 31.6646 32.8891C31.6621 32.933 31.6603 32.9725 31.6603 33.0124C31.6603 34.8658 33.1676 36.3739 35.0224 36.3739C36.8755 36.3739 38.3839 34.8658 38.3839 33.0124C38.3839 32.9176 38.3788 32.8211 38.3693 32.7216C39.8908 31.9935 42.8268 29.8328 43.3266 23.9027C43.3599 23.9587 43.3932 24.0147 43.4246 24.0688C43.5187 24.2298 43.6087 24.382 43.6954 24.5078L44.7234 25.9887C44.8566 26.1815 45.0615 26.2924 45.2824 26.2924C45.5568 26.2924 45.8217 26.1256 45.9567 25.8681C46.0116 25.7627 46.0401 25.6503 46.0423 25.5387V25.511C46.039 25.3641 45.9921 25.2215 45.9077 25.1013L45.2071 24.0919L44.6334 23.265C44.5684 23.1704 44.5049 23.0746 44.4432 22.9778C44.0825 22.4228 43.6335 21.7325 42.8005 21.6066C42.7109 21.5924 42.6204 21.5852 42.5298 21.5854H42.5301ZM20.6583 25.4743C20.6586 25.0325 20.8342 24.6088 21.1465 24.2962C21.4589 23.9837 21.8825 23.8078 22.3244 23.8072C22.7665 23.8077 23.1902 23.9835 23.5029 24.296C23.8155 24.6086 23.9914 25.0323 23.992 25.4743C23.9911 25.9162 23.8151 26.3397 23.5025 26.6519C23.1899 26.9642 22.7662 27.1398 22.3244 27.1402C21.8827 27.1398 21.4592 26.9641 21.1468 26.6518C20.8345 26.3396 20.6588 25.916 20.6583 25.4743ZM33.3553 33.0124C33.3559 32.5705 33.5318 32.1469 33.8443 31.8345C34.1569 31.5221 34.5806 31.3464 35.0224 31.346C35.4642 31.3465 35.8878 31.5223 36.2002 31.8347C36.5126 32.1471 36.6883 32.5706 36.6889 33.0124C36.6884 33.4542 36.5127 33.8778 36.2003 34.1903C35.8878 34.5027 35.4643 34.6784 35.0224 34.6789C34.5805 34.6786 34.1567 34.503 33.8441 34.1905C33.5316 33.8781 33.3557 33.4543 33.3553 33.0124Z" fill="url(#paint0_linear_1_20)"/>
</g>
<defs>
<linearGradient id="paint0_linear_1_20" x1="6000" y1="3000" x2="0" y2="3000" gradientUnits="userSpaceOnUse">
<stop stop-color="#95C11F"/>
<stop offset="1" stop-color="#006633"/>
</linearGradient>
<clipPath id="clip0_1_20">
<rect width="60" height="60" rx="30" fill="white"/>
</clipPath>
</defs>
</svg>
