<svg width="1600" height="815" viewBox="0 0 1600 815" fill="none" xmlns="http://www.w3.org/2000/svg">
<path d="M0 544H1600V604L0 815V544Z" fill="#EF2A82"/>
<path d="M0 0H1600V587L0 798V0Z" fill="#1F2C3E"/>
<path opacity="0.25" d="M467.832 42.9717C459.981 42.9717 454.371 47.6538 449.433 51.7813C448.761 52.3402 448.097 52.9031 447.421 53.4503L427.21 69.8547C424.546 72.0044 423.629 75.2803 424.78 78.3837C425.979 81.577 429.142 83.8086 432.486 83.8086C434.321 83.8086 436.08 83.1558 437.589 81.9363L452.363 69.9367C453.405 69.0964 454.536 68.0645 455.735 66.9662C456.665 66.1102 457.639 65.2114 458.645 64.3554C456.789 85.7431 448.926 128.836 416.071 145.232C412.707 140.28 408.129 136.216 402.748 133.406C397.368 130.596 391.353 129.127 385.244 129.132C373.179 129.132 362.204 134.695 355.327 143.978C327.252 104.106 297.017 89.7066 282.549 84.8248V84.5195C282.549 64.703 265.961 48.5922 245.565 48.5922C225.182 48.5922 208.597 64.7069 208.597 84.5195C208.597 85.997 208.694 87.4747 208.879 88.9443C202.586 92.3597 196.816 96.615 191.739 101.585C175.855 117.052 164.578 139.999 158.224 169.779C153.721 190.799 153.274 208.512 153.234 212.647L152.928 213.398L153.23 214.125V217.15L154.179 217.213C153.496 218.535 153.171 220.004 153.234 221.481C153.297 222.959 153.747 224.397 154.54 225.659C155.334 226.921 156.446 227.966 157.77 228.695C159.095 229.425 160.589 229.815 162.112 229.828C163.635 229.841 165.136 229.478 166.474 228.772C167.812 228.066 168.942 227.04 169.759 225.792C170.576 224.543 171.053 223.114 171.143 221.638C171.234 220.161 170.935 218.687 170.277 217.353H171.251L171.307 213.577C171.307 212.905 171.69 145.99 204.549 113.979C207.883 110.742 211.634 107.937 215.708 105.634C219.141 110.202 223.634 113.921 228.821 116.491C234.009 119.06 239.746 120.407 245.569 120.424C252.372 120.448 259.049 118.638 264.854 115.195C270.66 111.751 275.368 106.809 278.453 100.92C292.771 106.181 322.246 121.55 348.312 163.735C348.284 164.204 348.264 164.626 348.264 165.052C348.264 184.853 364.844 200.965 385.248 200.965C405.631 200.965 422.224 184.853 422.224 165.052C422.224 164.04 422.167 163.008 422.063 161.945C438.8 154.167 471.096 131.083 476.594 67.7286C476.96 68.3266 477.326 68.9251 477.672 69.5035C478.706 71.2233 479.696 72.849 480.65 74.1936L491.959 90.015C493.424 92.0748 495.677 93.2594 498.108 93.2594C501.126 93.2594 504.04 91.4775 505.525 88.7258C506.128 87.6001 506.442 86.3996 506.466 85.2075V84.9107C506.43 83.3414 505.914 81.8184 504.986 80.5336L490.969 60.9163C490.253 59.9053 489.555 58.8818 488.876 57.8474C484.908 51.9181 479.97 44.5434 470.806 43.1989C469.821 43.0467 468.83 42.9705 467.832 42.9717ZM227.242 84.5195C227.245 79.7986 229.177 75.2723 232.613 71.933C236.049 68.5937 240.709 66.7148 245.569 66.7085C250.432 66.7137 255.094 68.5921 258.532 71.9311C261.971 75.2702 263.906 79.7969 263.912 84.5195C263.903 89.2398 261.967 93.7644 258.528 97.1003C255.09 100.436 250.429 102.312 245.569 102.316C240.711 102.312 236.052 100.436 232.616 97.0993C229.18 93.7629 227.248 89.2383 227.242 84.5195ZM366.909 165.052C366.916 160.331 368.851 155.806 372.289 152.469C375.727 149.131 380.387 147.254 385.248 147.249C390.108 147.255 394.767 149.133 398.203 152.47C401.639 155.808 403.573 160.332 403.579 165.052C403.574 169.772 401.641 174.298 398.204 177.636C394.767 180.973 390.108 182.851 385.248 182.856C380.386 182.853 375.725 180.976 372.287 177.639C368.848 174.301 366.914 169.774 366.909 165.052Z" fill="url(#paint0_linear_278_3433)" fill-opacity="0.8"/>
<path opacity="0.25" d="M330 411C479.117 411 600 290.117 600 141C600 -8.11688 479.117 -129 330 -129C180.883 -129 60 -8.11688 60 141C60 290.117 180.883 411 330 411Z" stroke="#A7C8B7" stroke-width="120"/>
<defs>
<linearGradient id="paint0_linear_278_3433" x1="66000" y1="31862.7" x2="0.00105339" y2="31862.7" gradientUnits="userSpaceOnUse">
<stop stop-color="#95C11F"/>
<stop offset="1" stop-color="#006633"/>
</linearGradient>
</defs>
</svg>
