<svg width="61" height="60" viewBox="0 0 61 60" fill="none" xmlns="http://www.w3.org/2000/svg">
<g clip-path="url(#clip0_278_5425)">
<mask id="mask0_278_5425" style="mask-type:luminance" maskUnits="userSpaceOnUse" x="0" y="0" width="61" height="60">
<path d="M60.5 0H0.5V60H60.5V0Z" fill="white"/>
</mask>
<g mask="url(#mask0_278_5425)">
<path d="M47.7483 6.71074C42.7342 2.99684 36.7839 1.03453 30.5407 1.03453C24.848 1.03453 19.1924 2.67316 14.9831 5.48484V1.03453C14.9831 0.463477 14.5197 0 13.9486 0C13.3776 0 12.9141 0.463477 12.9141 1.03453V7.54242C12.9141 7.94379 13.1458 8.30894 13.5089 8.47863C13.872 8.64937 14.3013 8.59453 14.6097 8.33789C18.5551 5.06063 24.5107 3.10336 30.5407 3.10336C36.3369 3.10336 41.861 4.92609 46.5172 8.3741C46.7024 8.51062 46.9175 8.57684 47.1318 8.57684C47.4483 8.57684 47.7607 8.43199 47.9635 8.15789C48.3039 7.69863 48.2077 7.05105 47.7483 6.71074Z" fill="#E77432"/>
<path d="M59.4659 12.4141H52.958C52.5567 12.4141 52.1935 12.6468 52.0229 13.01C51.8521 13.373 51.907 13.8024 52.1636 14.1107C55.4409 18.0552 57.3981 24.0107 57.3981 30.0418C57.3981 35.838 55.5754 41.3621 52.1274 46.0172C51.7871 46.4765 51.8833 47.1241 52.3426 47.4645C52.5277 47.601 52.7429 47.6672 52.9571 47.6672C53.2736 47.6672 53.586 47.5224 53.7898 47.2483C57.5036 42.2342 59.466 36.2837 59.466 30.0407C59.466 24.348 57.8274 18.6914 55.0157 14.4831H59.466C60.0371 14.4831 60.5006 14.0196 60.5006 13.4486C60.5004 12.8775 60.037 12.4141 59.4659 12.4141Z" fill="#E77432"/>
<path d="M47.4931 51.5228C47.1301 51.3531 46.7017 51.4059 46.3924 51.6636C42.4469 54.9408 36.4913 56.8981 30.4613 56.8981C24.664 56.8981 19.1399 55.0754 14.4848 51.6274C14.0255 51.287 13.3779 51.3833 13.0375 51.8425C12.6972 52.3018 12.7934 52.9494 13.2527 53.2898C18.2668 57.0036 24.2172 58.966 30.4602 58.966C36.153 58.966 41.8086 57.3274 46.0178 54.5157V58.966C46.0178 59.537 46.4813 60.0005 47.0524 60.0005C47.6234 60.0005 48.0869 59.537 48.0869 58.966V52.4581C48.0869 52.0566 47.8552 51.6915 47.4931 51.5228Z" fill="#E77432"/>
<path d="M8.83789 45.8908C5.56063 41.9454 3.60336 35.9908 3.60336 29.9598C3.60336 24.1636 5.42609 18.6395 8.87305 13.9843C9.21336 13.525 9.11715 12.8775 8.65789 12.537C8.19863 12.1957 7.55105 12.2929 7.21063 12.7522C3.49684 17.7663 1.53453 23.7166 1.53453 29.9598C1.53453 35.6525 3.17316 41.3081 5.98484 45.5173H1.53453C0.963477 45.5173 0.5 45.9808 0.5 46.5519C0.5 47.1229 0.963477 47.5864 1.53453 47.5864H8.04242C8.44379 47.5864 8.80789 47.3547 8.97863 46.9916C9.14937 46.6284 9.09453 46.199 8.83789 45.8908Z" fill="#E77432"/>
<path d="M31.5339 19.6526C31.5328 19.0815 31.0694 18.6201 30.4994 18.6201H30.4973C29.9251 18.6212 29.4638 19.0856 29.4648 19.6567L29.4897 30.0015C29.4907 30.5726 29.9542 31.0339 30.5242 31.0339H30.5263C31.0984 31.0329 31.5598 30.5685 31.5587 29.9974L31.5339 19.6526Z" fill="#E77432"/>
<path d="M30.5241 28.9658H24.2924C23.7213 28.9658 23.2578 29.4292 23.2578 30.0003C23.2578 30.5713 23.7213 31.0348 24.2924 31.0348H30.5241C31.0951 31.0348 31.5586 30.5713 31.5586 30.0003C31.5586 29.4292 31.0951 28.9658 30.5241 28.9658Z" fill="#E77432"/>
<path d="M30.4995 8.27637C18.5212 8.27637 8.77539 18.0212 8.77539 30.0004C8.77539 41.9797 18.5212 51.7245 30.4995 51.7245C42.4787 51.7245 52.2236 41.9797 52.2236 30.0004C52.2236 18.0212 42.4787 8.27637 30.4995 8.27637ZM30.4995 49.6556C19.6612 49.6556 10.8443 40.8388 10.8443 30.0004C10.8443 19.1621 19.6612 10.3453 30.4995 10.3453C41.3378 10.3453 50.1546 19.1621 50.1546 30.0004C50.1546 40.8388 41.3378 49.6556 30.4995 49.6556Z" fill="#E77432"/>
<path d="M16.0176 28.9658H13.9487C13.3776 28.9658 12.9141 29.4292 12.9141 30.0003C12.9141 30.5713 13.3776 31.0348 13.9487 31.0348H16.0176C16.5887 31.0348 17.0521 30.5713 17.0521 30.0003C17.0521 29.4292 16.5887 28.9658 16.0176 28.9658Z" fill="#E77432"/>
<path d="M47.0508 28.9658H44.9819C44.4108 28.9658 43.9473 29.4292 43.9473 30.0003C43.9473 30.5713 44.4108 31.0348 44.9819 31.0348H47.0508C47.6219 31.0348 48.0854 30.5713 48.0854 30.0003C48.0854 29.4292 47.6219 28.9658 47.0508 28.9658Z" fill="#E77432"/>
<path d="M30.4993 43.4482C29.9283 43.4482 29.4648 43.9117 29.4648 44.4827V46.5517C29.4648 47.1227 29.9283 47.5862 30.4993 47.5862C31.0704 47.5862 31.5338 47.1227 31.5338 46.5517V44.4827C31.5338 43.9116 31.0704 43.4482 30.4993 43.4482Z" fill="#E77432"/>
<path d="M30.4993 12.4141C29.9283 12.4141 29.4648 12.8775 29.4648 13.4486V15.5175C29.4648 16.0886 29.9283 16.5521 30.4993 16.5521C31.0704 16.5521 31.5338 16.0886 31.5338 15.5175V13.4486C31.5338 12.8775 31.0704 12.4141 30.4993 12.4141Z" fill="#E77432"/>
<path d="M20.8863 39.613C20.4828 39.2084 19.8279 39.2084 19.4235 39.613L18.0643 40.9713C17.6608 41.3748 17.6608 42.0296 18.0643 42.434C18.2659 42.6357 18.5308 42.7371 18.7956 42.7371C19.0605 42.7371 19.3253 42.6368 19.527 42.434L20.8863 41.0757C21.2897 40.6722 21.2897 40.0174 20.8863 39.613Z" fill="#E77432"/>
<path d="M42.935 17.5651C42.5305 17.1606 41.8767 17.1606 41.4723 17.5651L40.114 18.9234C39.7094 19.3279 39.7094 19.9817 40.114 20.3861C40.3156 20.5878 40.5805 20.6892 40.8453 20.6892C41.1102 20.6892 41.375 20.5878 41.5767 20.3861L42.935 19.0278C43.3394 18.6234 43.3394 17.9696 42.935 17.5651Z" fill="#E77432"/>
<path d="M42.935 40.9713L41.5767 39.613C41.1722 39.2084 40.5184 39.2084 40.114 39.613C39.7094 40.0175 39.7094 40.6713 40.114 41.0757L41.4723 42.434C41.674 42.6357 41.9388 42.7371 42.2036 42.7371C42.4685 42.7371 42.7333 42.6368 42.935 42.434C43.3394 42.0296 43.3394 41.3758 42.935 40.9713Z" fill="#E77432"/>
<path d="M20.8871 18.9234L19.5278 17.5651C19.1243 17.1606 18.4695 17.1606 18.0651 17.5651C17.6606 17.9696 17.6606 18.6243 18.0651 19.0278L19.4243 20.3861C19.626 20.5878 19.8909 20.6892 20.1557 20.6892C20.4206 20.6892 20.6854 20.5878 20.8871 20.3861C21.2916 19.9817 21.2916 19.3269 20.8871 18.9234Z" fill="#E77432"/>
</g>
</g>
<defs>
<clipPath id="clip0_278_5425">
<rect width="60" height="60" fill="white" transform="translate(0.5)"/>
</clipPath>
</defs>
</svg>
