<svg width="62" height="60" viewBox="0 0 62 60" fill="none" xmlns="http://www.w3.org/2000/svg">
<mask id="mask0_278_5795" style="mask-type:luminance" maskUnits="userSpaceOnUse" x="1" y="0" width="60" height="60">
<path d="M61 0H1V60H61V0Z" fill="white"/>
</mask>
<g mask="url(#mask0_278_5795)">
<path d="M34 41H28C27.448 41 27 41.448 27 42C27 42.5519 27.448 43 28 43H34C34.5519 43 34.9999 42.5519 34.9999 42C34.9999 41.448 34.5519 41 34 41Z" fill="#C1445E"/>
<path d="M56.999 1H5.00102C2.79496 1 1 2.79508 1 5.00102V38C1 38.5519 1.44801 38.9999 1.99996 38.9999H59.9999C60.5519 38.9999 60.9999 38.5519 60.9999 38V5.00102C61 2.79508 59.205 1 56.999 1ZM59 37H3.00004V5.00102C3.00004 3.89699 3.89805 3.00004 5.00102 3.00004H56.999C58.102 3.00004 59 3.89699 59 5.00102V37Z" fill="#C1445E"/>
<path d="M60 37H1.99996C1.44801 37 1 37.4481 1 38.0001V42.999C1 45.205 2.79496 47 5.00102 47H56.999C59.205 47 61 45.205 61 42.999L60.9999 38.0001C60.9999 37.4481 60.552 37 60 37ZM59 42.9991C59 44.1031 58.102 45.0001 56.999 45.0001H5.00102C3.89805 45.0001 3.00004 44.1031 3.00004 42.9991V39.0001H59.0001L59 42.9991Z" fill="#C1445E"/>
<path d="M55.9999 5H5.99996C5.44801 5 5 5.44801 5 5.99996V38C5 38.552 5.44801 39 5.99996 39H56C56.552 39 57 38.552 57 38V5.99996C57 5.44801 56.552 5 55.9999 5ZM55 37H6.99992V6.99992H55V37Z" fill="#C1445E"/>
<path d="M43.9999 53H18C16.346 53 15 54.346 15 56C15 57.654 16.346 59 18 59H44C45.654 59 47 57.654 47 56C47 54.346 45.6539 53 43.9999 53ZM43.9999 56.9999H18C17.4481 56.9999 17 56.551 17 56C17 55.449 17.4481 55 18 55H44C44.552 55 45 55.449 45 56C45 56.551 44.552 56.9999 43.9999 56.9999Z" fill="#C1445E"/>
<path d="M42 53C38.6819 53 36.9999 50.645 36.9999 46C36.9999 45.4481 36.5519 45 36 45H26C25.4481 45 25 45.4481 25 46C25 50.645 23.3181 53 20 53C19.4481 53 19 53.448 19 53.9999C19 54.5519 19.4481 54.9999 20 54.9999H42C42.5519 54.9999 42.9999 54.5519 42.9999 53.9999C42.9999 53.448 42.5519 53 42 53ZM24.8709 53C26.102 51.636 26.8269 49.6049 26.9729 47H35.0279C35.1729 49.6049 35.8979 51.636 37.1299 53H24.8709Z" fill="#C1445E"/>
<path d="M48.7833 30.4643L46.3693 28.0503L47.7123 26.7073C47.9613 26.4583 48.0613 26.0963 47.9753 25.7553C47.8892 25.4143 47.6303 25.1443 47.2932 25.0423L37.2933 22.0423C36.9403 21.9363 36.5593 22.0333 36.2993 22.2934C36.0383 22.5534 35.9423 22.9353 36.0483 23.2873L39.0483 33.2873C39.1493 33.6253 39.4202 33.8843 39.7612 33.9703C40.1012 34.0543 40.4642 33.9562 40.7133 33.7073L42.1273 32.2923L44.5412 34.7073C44.7282 34.8952 44.9832 35.0002 45.2482 35.0002C45.5131 35.0002 45.7681 34.8952 45.9552 34.7073L48.7831 31.8782C49.1742 31.4873 49.1742 30.8553 48.7833 30.4643ZM45.2482 32.5863L43.0502 30.3873C42.7952 30.1323 42.4612 30.0052 42.1273 30.0052C41.7922 30.0052 41.4582 30.1332 41.2043 30.3862L40.4823 31.1082L38.4973 24.4912L45.1142 26.4762L44.3402 27.2503C44.1272 27.4643 44.0102 27.7483 44.0102 28.0503C44.0102 28.3534 44.1282 28.6393 44.3422 28.8513L46.6622 31.1712L45.2482 32.5863Z" fill="#C1445E"/>
<path d="M42.9999 9H15C14.448 9 14 9.44801 14 9.99996V15C14 15.5519 14.448 15.9999 15 15.9999H42.9999C43.5519 15.9999 43.9999 15.5519 43.9999 15V9.99996C43.9999 9.44801 43.5519 9 42.9999 9ZM42 14H15.9999V11H42V14Z" fill="#C1445E"/>
<path d="M27 20H19C18.448 20 18 20.448 18 20.9999V24.9999C18 25.5518 18.448 25.9998 19 25.9998H27C27.552 25.9998 28 25.5518 28 24.9999V20.9999C28 20.448 27.552 20 27 20ZM26 23.9999H20V21.9999H26V23.9999Z" fill="#C1445E"/>
<path d="M42.9999 9H15C14.448 9 14 9.44801 14 9.99996V28.9999C14 29.5518 14.448 29.9999 15 29.9999H38.806C39.123 29.9999 39.42 29.8509 39.608 29.5968C39.7971 29.3429 39.8551 29.0149 39.764 28.7118L38.498 24.4909L42.713 25.7559C43.0161 25.847 43.3441 25.789 43.597 25.5999C43.8509 25.412 44 25.114 44 24.7979L43.9999 9.99996C43.9999 9.44801 43.5519 9 42.9999 9ZM42 23.454L37.2929 22.042C36.9399 21.9359 36.5589 22.033 36.2989 22.293C36.0379 22.554 35.942 22.935 36.0479 23.2881L37.4619 28H15.9999V11H42V23.454Z" fill="#C1445E"/>
</g>
</svg>
