<svg width="139" height="30" viewBox="0 0 139 30" fill="none" xmlns="http://www.w3.org/2000/svg">
<path d="M44.4493 19.144C42.0733 19.144 40.2373 17.344 40.2373 15.04C40.2373 12.736 42.0853 10.936 44.4613 10.936C45.6733 10.936 46.8133 11.452 47.5213 12.304C47.6893 12.496 47.7733 12.688 47.7733 12.904C47.7733 13.3 47.4373 13.636 47.0173 13.636C46.7893 13.636 46.5733 13.528 46.3932 13.324C45.8773 12.724 45.2293 12.436 44.4613 12.436C42.9733 12.436 41.9053 13.528 41.9053 15.052C41.9053 16.564 42.9733 17.644 44.4613 17.644C45.2173 17.644 45.8533 17.356 46.3813 16.756C46.5733 16.552 46.7773 16.444 47.0173 16.444C47.4373 16.444 47.7613 16.78 47.7613 17.176C47.7613 17.368 47.6893 17.56 47.5093 17.776C46.8133 18.628 45.6733 19.144 44.4493 19.144ZM50.646 19C50.166 19 49.818 18.652 49.818 18.172V11.764C49.818 11.332 50.154 10.936 50.634 10.936C51.102 10.936 51.438 11.296 51.438 11.764V17.536H54.258C54.69 17.536 55.002 17.86 55.002 18.268C55.002 18.688 54.69 19 54.258 19H50.646ZM57.4152 19.144C56.9352 19.144 56.5992 18.784 56.5992 18.316V11.764C56.5992 11.296 56.9352 10.936 57.4152 10.936C57.8832 10.936 58.2192 11.296 58.2192 11.764V18.316C58.2192 18.784 57.8832 19.144 57.4152 19.144ZM61.3251 19C60.8691 19 60.5211 18.652 60.5211 18.196V11.884C60.5211 11.428 60.8691 11.08 61.3251 11.08H65.2011C65.6331 11.08 65.9451 11.392 65.9451 11.812C65.9451 12.22 65.6211 12.544 65.2011 12.544H62.1411V14.152H64.2411C64.6491 14.152 64.9491 14.452 64.9491 14.848C64.9491 15.232 64.6491 15.532 64.2411 15.532H62.1411V17.536H65.3451C65.7771 17.536 66.0891 17.86 66.0891 18.268C66.0891 18.688 65.7651 19 65.3451 19H61.3251ZM73.8283 10.936C74.2843 10.936 74.6323 11.296 74.6323 11.764V18.328C74.6323 18.784 74.2963 19.144 73.8403 19.144C73.4443 19.144 73.2523 18.916 73.0363 18.652L69.5083 14.116V18.316C69.5083 18.784 69.1603 19.144 68.7043 19.144C68.2363 19.144 67.8883 18.784 67.8883 18.316V11.752C67.8883 11.296 68.2363 10.936 68.6803 10.936C69.0883 10.936 69.2683 11.164 69.5083 11.464L73.0243 15.964L73.0123 11.764C73.0123 11.296 73.3603 10.936 73.8283 10.936ZM79.5353 19.144C79.0793 19.144 78.7313 18.784 78.7313 18.316V12.544H76.8473C76.4272 12.544 76.1033 12.22 76.1033 11.812C76.1033 11.392 76.4272 11.08 76.8473 11.08H82.2353C82.6673 11.08 82.9793 11.392 82.9793 11.812C82.9793 12.22 82.6553 12.544 82.2353 12.544H80.3513V18.316C80.3513 18.784 80.0033 19.144 79.5353 19.144ZM90.2364 19.144C89.3004 19.144 88.2684 18.724 87.6804 18.076C87.4884 17.884 87.3804 17.68 87.3804 17.452C87.3924 17.02 87.7404 16.732 88.1244 16.732C88.2684 16.732 88.4244 16.78 88.5444 16.888C88.8684 17.224 89.4324 17.704 90.2364 17.704C90.9444 17.704 91.3644 17.368 91.3644 16.828C91.3644 16.372 91.0884 16.18 90.3564 15.844L89.5044 15.46C88.2444 14.884 87.5844 14.2 87.5844 13.18C87.5844 11.848 88.7124 10.936 90.2124 10.936C91.4004 10.936 92.0964 11.488 92.4324 11.872C92.6004 12.052 92.6484 12.232 92.6484 12.388C92.6484 12.796 92.2764 13.108 91.9044 13.108C91.7604 13.108 91.6044 13.06 91.4604 12.94C91.1364 12.652 90.7764 12.376 90.2124 12.376C89.6364 12.376 89.2284 12.652 89.2284 13.144C89.2284 13.54 89.4444 13.732 90.1524 14.056L91.0524 14.452C92.3724 15.04 93.0084 15.688 93.0084 16.768C93.0084 18.232 91.8204 19.144 90.2364 19.144ZM95.7355 19.144C95.2675 19.144 94.9195 18.784 94.9195 18.316V11.908C94.9195 11.428 95.2675 11.08 95.7475 11.08H97.9075C99.5995 11.08 100.752 12.112 100.752 13.636C100.752 15.148 99.5755 16.204 97.9075 16.204H96.5395V18.316C96.5395 18.784 96.1915 19.144 95.7355 19.144ZM96.5395 14.788H97.8955C98.6395 14.788 99.0955 14.344 99.0955 13.636C99.0955 12.952 98.6395 12.508 97.8955 12.508H96.5395V14.788ZM108.112 17.932C108.184 18.1 108.208 18.244 108.208 18.364C108.208 18.796 107.872 19.144 107.416 19.144C107.068 19.144 106.804 18.94 106.648 18.568L106.312 17.752H102.964L102.628 18.568C102.484 18.94 102.22 19.144 101.872 19.144C101.416 19.144 101.068 18.796 101.068 18.364C101.068 18.244 101.104 18.1 101.164 17.932L103.876 11.488C104.02 11.128 104.284 10.936 104.644 10.936C105.004 10.936 105.268 11.128 105.412 11.488L108.112 17.932ZM104.644 13.324L103.492 16.42H105.772L104.644 13.324ZM113.598 19.144C111.222 19.144 109.386 17.344 109.386 15.04C109.386 12.736 111.234 10.936 113.61 10.936C114.822 10.936 115.962 11.452 116.67 12.304C116.838 12.496 116.922 12.688 116.922 12.904C116.922 13.3 116.586 13.636 116.166 13.636C115.938 13.636 115.722 13.528 115.542 13.324C115.026 12.724 114.378 12.436 113.61 12.436C112.122 12.436 111.054 13.528 111.054 15.052C111.054 16.564 112.122 17.644 113.61 17.644C114.366 17.644 115.002 17.356 115.53 16.756C115.722 16.552 115.926 16.444 116.166 16.444C116.586 16.444 116.91 16.78 116.91 17.176C116.91 17.368 116.838 17.56 116.658 17.776C115.962 18.628 114.822 19.144 113.598 19.144ZM119.77 19C119.314 19 118.966 18.652 118.966 18.196V11.884C118.966 11.428 119.314 11.08 119.77 11.08H123.646C124.078 11.08 124.39 11.392 124.39 11.812C124.39 12.22 124.066 12.544 123.646 12.544H120.586V14.152H122.686C123.094 14.152 123.394 14.452 123.394 14.848C123.394 15.232 123.094 15.532 122.686 15.532H120.586V17.536H123.79C124.222 17.536 124.534 17.86 124.534 18.268C124.534 18.688 124.21 19 123.79 19H119.77Z" fill="#8794BA"/>
<g clip-path="url(#clip0_242_5467)">
<rect width="30.2137" height="30" rx="15" fill="#8794BA"/>
<path d="M15.1068 30C6.76363 30 0 23.2842 0 15C0 6.71579 6.76363 0 15.1068 0C23.4501 0 30.2137 6.71579 30.2137 15C30.2137 23.2842 23.4501 30 15.1068 30ZM15.1068 29.2683C23.0431 29.2683 29.4768 22.8801 29.4768 15C29.4768 7.11988 23.0431 0.731707 15.1068 0.731707C7.17059 0.731707 0.736919 7.11988 0.736919 15C0.736919 22.8801 7.17059 29.2683 15.1068 29.2683ZM21.4165 10.7927C21.0571 10.7927 20.8003 11.0118 20.5742 11.205C20.5435 11.2311 20.5131 11.2575 20.4821 11.2831L20.0195 11.6671L19.5569 12.0508C19.435 12.1515 19.393 12.3048 19.4456 12.45C19.5005 12.5995 19.6453 12.7039 19.7984 12.7039C19.8825 12.7039 19.963 12.6734 20.032 12.6163L20.3703 12.3355L20.7084 12.0547C20.7561 12.0154 20.8078 11.9671 20.8627 11.9157C20.9053 11.8756 20.9499 11.8335 20.9959 11.7935C20.911 12.7944 20.551 14.8112 19.047 15.5786C18.893 15.3468 18.6834 15.1566 18.4371 15.0251C18.1908 14.8936 17.9154 14.8249 17.6358 14.8251C17.0834 14.8251 16.5811 15.0854 16.2662 15.5199C14.981 13.6538 13.5969 12.9799 12.9346 12.7515V12.7372C12.9346 11.8097 12.1752 11.0557 11.2415 11.0557C10.3084 11.0557 9.54919 11.8099 9.54919 12.7372C9.54919 12.8063 9.55361 12.8755 9.56208 12.9443C9.274 13.1041 9.00988 13.3033 8.77744 13.5359C8.05029 14.2597 7.53407 15.3337 7.24318 16.7274C7.03702 17.7112 7.01657 18.5402 7.01473 18.7337L7.00073 18.7688L7.01455 18.8029V18.9444L7.05802 18.9474C7.02675 19.0093 7.01186 19.078 7.01476 19.1472C7.01765 19.2163 7.03822 19.2836 7.07455 19.3427C7.11089 19.4018 7.16178 19.4507 7.22242 19.4848C7.28306 19.5189 7.35146 19.5372 7.42116 19.5378C7.49087 19.5384 7.55959 19.5214 7.62084 19.4884C7.6821 19.4553 7.73385 19.4073 7.77125 19.3489C7.80865 19.2905 7.83046 19.2236 7.8346 19.1545C7.83875 19.0854 7.82509 19.0164 7.79494 18.954H7.83953L7.84211 18.7772C7.84211 18.7458 7.85962 15.6141 9.36385 14.1159C9.51648 13.9644 9.68818 13.8331 9.87471 13.7254C10.0319 13.9392 10.2375 14.1132 10.475 14.2335C10.7125 14.3537 10.9751 14.4168 11.2417 14.4175C11.5531 14.4187 11.8588 14.334 12.1245 14.1728C12.3903 14.0116 12.6058 13.7804 12.747 13.5047C13.4025 13.751 14.7518 14.4702 15.9451 16.4446C15.9438 16.4665 15.9429 16.4863 15.9429 16.5062C15.9429 17.4329 16.7019 18.187 17.636 18.187C18.5691 18.187 19.3287 17.4329 19.3287 16.5062C19.3287 16.4588 19.3261 16.4105 19.3213 16.3608C20.0875 15.9968 21.5659 14.9164 21.8176 11.9513C21.8344 11.9793 21.8511 12.0073 21.867 12.0344C21.9143 12.1149 21.9596 12.191 22.0033 12.2539L22.521 12.9944C22.5881 13.0908 22.6912 13.1462 22.8025 13.1462C22.9407 13.1462 23.074 13.0628 23.142 12.934C23.1697 12.8814 23.184 12.8252 23.1851 12.7694V12.7555C23.1834 12.682 23.1599 12.6108 23.1173 12.5506L22.7645 12.0459L22.4757 11.6325C22.4429 11.5852 22.411 11.5373 22.3799 11.4889C22.1982 11.2114 21.9722 10.8662 21.5527 10.8033C21.5076 10.7962 21.462 10.7926 21.4163 10.7927H21.4165ZM10.4027 12.7372C10.4029 12.5162 10.4913 12.3044 10.6486 12.1481C10.8059 11.9918 11.0192 11.9039 11.2417 11.9036C11.4643 11.9038 11.6777 11.9917 11.8351 12.148C11.9926 12.3043 12.0811 12.5161 12.0814 12.7372C12.081 12.9581 11.9923 13.1698 11.8349 13.326C11.6775 13.4821 11.4642 13.5699 11.2417 13.5701C11.0193 13.5699 10.806 13.4821 10.6487 13.3259C10.4914 13.1698 10.403 12.958 10.4027 12.7372ZM16.7964 16.5062C16.7968 16.2853 16.8853 16.0735 17.0427 15.9173C17.2001 15.7611 17.4134 15.6732 17.636 15.673C17.8584 15.6733 18.0717 15.7612 18.229 15.9174C18.3863 16.0736 18.4748 16.2853 18.4751 16.5062C18.4749 16.7271 18.3864 16.9389 18.2291 17.0951C18.0717 17.2513 17.8584 17.3392 17.636 17.3395C17.4134 17.3393 17.2 17.2515 17.0426 17.0953C16.8852 16.939 16.7967 16.7272 16.7964 16.5062Z" fill="url(#paint0_linear_242_5467)"/>
</g>
<defs>
<linearGradient id="paint0_linear_242_5467" x1="3021.37" y1="1500" x2="0" y2="1500" gradientUnits="userSpaceOnUse">
<stop stop-color="#95C11F"/>
<stop offset="1" stop-color="#006633"/>
</linearGradient>
<clipPath id="clip0_242_5467">
<rect width="30.2137" height="30" rx="15" fill="white"/>
</clipPath>
</defs>
</svg>
