<svg width="437" height="323" viewBox="0 0 437 323" fill="none" xmlns="http://www.w3.org/2000/svg">
<g filter="url(#filter0_d_242_8249)">
<rect x="38" y="19" width="361" height="246.683" fill="white"/>
</g>
<path d="M282.805 204.579C290.319 192.908 294.518 179.454 294.961 165.627C295.404 151.8 292.076 138.11 285.324 125.993C278.573 113.875 268.648 103.776 256.589 96.7547C244.53 89.7334 230.782 86.0484 216.787 86.0862C202.791 86.124 189.064 89.8832 177.044 96.9696C165.025 104.056 155.155 114.208 148.471 126.362C141.787 138.516 138.534 152.224 139.054 166.048C139.574 179.873 143.847 193.304 151.425 204.934L161.04 198.813C154.572 188.888 150.925 177.426 150.482 165.629C150.038 153.831 152.814 142.133 158.518 131.761C164.223 121.389 172.645 112.725 182.902 106.678C193.16 100.63 204.875 97.4222 216.818 97.39C228.762 97.3577 240.494 100.502 250.785 106.494C261.075 112.486 269.546 121.104 275.307 131.446C281.069 141.787 283.909 153.469 283.531 165.269C283.152 177.069 279.569 188.55 273.157 198.51L282.805 204.579Z" fill="#F8EFE2"/>
<rect x="75" y="44.0322" width="16" height="16.0205" fill="#45A8A3"/>
<path d="M100.194 56.0332C100.106 56.0332 100.033 56.0051 99.977 55.9488C99.9207 55.8925 99.8926 55.8201 99.8926 55.7317V47.8917C99.8926 47.8032 99.9207 47.7308 99.977 47.6746C100.033 47.6183 100.106 47.5901 100.194 47.5901H106.695C106.784 47.5901 106.856 47.6183 106.912 47.6746C106.969 47.7308 106.997 47.8032 106.997 47.8917V55.7317C106.997 55.8201 106.969 55.8925 106.912 55.9488C106.856 56.0051 106.784 56.0332 106.695 56.0332H105.381C105.292 56.0332 105.22 56.0051 105.163 55.9488C105.107 55.8925 105.079 55.8201 105.079 55.7317V49.3029H101.81V55.7317C101.81 55.8201 101.782 55.8925 101.726 55.9488C101.67 56.0051 101.597 56.0332 101.509 56.0332H100.194ZM108.954 58.3249C108.866 58.3249 108.794 58.2968 108.737 58.2405C108.681 58.1842 108.653 58.1118 108.653 58.0234V50.0627C108.653 49.9743 108.681 49.9019 108.737 49.8456C108.794 49.7893 108.866 49.7612 108.954 49.7612H110.1C110.189 49.7612 110.261 49.7893 110.317 49.8456C110.374 49.9019 110.402 49.9743 110.402 50.0627V50.5211C110.595 50.2638 110.844 50.0547 111.15 49.8939C111.455 49.725 111.837 49.6406 112.295 49.6406C112.714 49.6406 113.075 49.7089 113.381 49.8456C113.695 49.9743 113.956 50.1633 114.165 50.4125C114.382 50.6538 114.547 50.9473 114.66 51.293C114.78 51.6388 114.849 52.0288 114.865 52.463C114.873 52.6158 114.877 52.7605 114.877 52.8972C114.877 53.0339 114.873 53.1827 114.865 53.3435C114.857 53.7536 114.792 54.1315 114.672 54.4773C114.559 54.823 114.394 55.1205 114.177 55.3698C113.96 55.6191 113.695 55.8121 113.381 55.9488C113.075 56.0855 112.714 56.1538 112.295 56.1538C111.885 56.1538 111.528 56.0814 111.222 55.9367C110.924 55.7839 110.679 55.5789 110.486 55.3216V58.0234C110.486 58.1118 110.458 58.1842 110.402 58.2405C110.346 58.2968 110.277 58.3249 110.197 58.3249H108.954ZM111.753 54.7064C112.058 54.7064 112.3 54.6421 112.476 54.5134C112.653 54.3768 112.778 54.1998 112.85 53.9827C112.931 53.7656 112.979 53.5284 112.995 53.2711C113.011 53.0218 113.011 52.7726 112.995 52.5233C112.979 52.266 112.931 52.0288 112.85 51.8117C112.778 51.5946 112.653 51.4217 112.476 51.293C112.3 51.1563 112.058 51.088 111.753 51.088C111.455 51.088 111.214 51.1563 111.029 51.293C110.844 51.4297 110.711 51.6026 110.631 51.8117C110.551 52.0207 110.502 52.2459 110.486 52.4871C110.478 52.6318 110.474 52.7806 110.474 52.9334C110.474 53.0862 110.478 53.2389 110.486 53.3917C110.494 53.6169 110.543 53.83 110.631 54.031C110.727 54.224 110.864 54.3848 111.041 54.5134C111.226 54.6421 111.463 54.7064 111.753 54.7064ZM119.027 56.1538C118.359 56.1538 117.8 56.0453 117.35 55.8282C116.9 55.603 116.554 55.2854 116.313 54.8753C116.08 54.4652 115.951 53.9868 115.927 53.44C115.919 53.2792 115.915 53.0982 115.915 52.8972C115.915 52.6881 115.919 52.5072 115.927 52.3544C115.951 51.7996 116.088 51.3212 116.337 50.9191C116.586 50.509 116.936 50.1954 117.386 49.9783C117.837 49.7532 118.383 49.6406 119.027 49.6406C119.662 49.6406 120.205 49.7532 120.655 49.9783C121.105 50.1954 121.455 50.509 121.704 50.9191C121.954 51.3212 122.09 51.7996 122.114 52.3544C122.131 52.5072 122.139 52.6881 122.139 52.8972C122.139 53.0982 122.131 53.2792 122.114 53.44C122.09 53.9868 121.958 54.4652 121.716 54.8753C121.483 55.2854 121.141 55.603 120.691 55.8282C120.241 56.0453 119.686 56.1538 119.027 56.1538ZM119.027 54.827C119.421 54.827 119.718 54.7064 119.919 54.4652C120.12 54.2159 120.229 53.8541 120.245 53.3797C120.253 53.259 120.257 53.0982 120.257 52.8972C120.257 52.6962 120.253 52.5354 120.245 52.4147C120.229 51.9484 120.12 51.5905 119.919 51.3413C119.718 51.092 119.421 50.9674 119.027 50.9674C118.633 50.9674 118.331 51.092 118.122 51.3413C117.921 51.5905 117.812 51.9484 117.796 52.4147C117.788 52.5354 117.784 52.6962 117.784 52.8972C117.784 53.0982 117.788 53.259 117.796 53.3797C117.812 53.8541 117.921 54.2159 118.122 54.4652C118.331 54.7064 118.633 54.827 119.027 54.827ZM123.689 56.0332C123.609 56.0332 123.541 56.0051 123.484 55.9488C123.428 55.8925 123.4 55.8201 123.4 55.7317V50.0627C123.4 49.9743 123.428 49.9019 123.484 49.8456C123.541 49.7893 123.609 49.7612 123.689 49.7612H127.609C127.698 49.7612 127.77 49.7893 127.827 49.8456C127.883 49.9019 127.911 49.9743 127.911 50.0627V50.8829C127.911 50.9714 127.883 51.0437 127.827 51.1C127.77 51.1563 127.698 51.1845 127.609 51.1845H125.197V55.7317C125.197 55.8201 125.169 55.8925 125.113 55.9488C125.056 56.0051 124.984 56.0332 124.896 56.0332H123.689ZM129.155 58.3249C129.067 58.3249 128.994 58.2968 128.938 58.2405C128.882 58.1842 128.854 58.1118 128.854 58.0234V50.0627C128.854 49.9743 128.882 49.9019 128.938 49.8456C128.994 49.7893 129.067 49.7612 129.155 49.7612H130.301C130.389 49.7612 130.462 49.7893 130.518 49.8456C130.574 49.9019 130.603 49.9743 130.603 50.0627V50.5211C130.796 50.2638 131.045 50.0547 131.35 49.8939C131.656 49.725 132.038 49.6406 132.496 49.6406C132.914 49.6406 133.276 49.7089 133.582 49.8456C133.895 49.9743 134.157 50.1633 134.366 50.4125C134.583 50.6538 134.748 50.9473 134.86 51.293C134.981 51.6388 135.049 52.0288 135.065 52.463C135.073 52.6158 135.077 52.7605 135.077 52.8972C135.077 53.0339 135.073 53.1827 135.065 53.3435C135.057 53.7536 134.993 54.1315 134.872 54.4773C134.76 54.823 134.595 55.1205 134.378 55.3698C134.161 55.6191 133.895 55.8121 133.582 55.9488C133.276 56.0855 132.914 56.1538 132.496 56.1538C132.086 56.1538 131.728 56.0814 131.423 55.9367C131.125 55.7839 130.88 55.5789 130.687 55.3216V58.0234C130.687 58.1118 130.659 58.1842 130.603 58.2405C130.546 58.2968 130.478 58.3249 130.398 58.3249H129.155ZM131.953 54.7064C132.259 54.7064 132.5 54.6421 132.677 54.5134C132.854 54.3768 132.979 54.1998 133.051 53.9827C133.131 53.7656 133.18 53.5284 133.196 53.2711C133.212 53.0218 133.212 52.7726 133.196 52.5233C133.18 52.266 133.131 52.0288 133.051 51.8117C132.979 51.5946 132.854 51.4217 132.677 51.293C132.5 51.1563 132.259 51.088 131.953 51.088C131.656 51.088 131.415 51.1563 131.23 51.293C131.045 51.4297 130.912 51.6026 130.832 51.8117C130.751 52.0207 130.703 52.2459 130.687 52.4871C130.679 52.6318 130.675 52.7806 130.675 52.9334C130.675 53.0862 130.679 53.2389 130.687 53.3917C130.695 53.6169 130.743 53.83 130.832 54.031C130.928 54.224 131.065 54.3848 131.242 54.5134C131.427 54.6421 131.664 54.7064 131.953 54.7064ZM139.155 56.1538C138.23 56.1538 137.495 55.8965 136.948 55.3819C136.409 54.8673 136.124 54.1194 136.091 53.1384C136.091 53.0741 136.091 52.9897 136.091 52.8851C136.091 52.7726 136.091 52.6841 136.091 52.6198C136.124 52.0006 136.264 51.4699 136.514 51.0277C136.763 50.5774 137.113 50.2356 137.563 50.0024C138.013 49.7612 138.54 49.6406 139.143 49.6406C139.818 49.6406 140.381 49.7813 140.832 50.0627C141.29 50.3361 141.632 50.7141 141.857 51.1965C142.09 51.6709 142.207 52.2177 142.207 52.8369V53.1143C142.207 53.1947 142.174 53.2631 142.11 53.3194C142.054 53.3756 141.985 53.4038 141.905 53.4038H137.961C137.961 53.4118 137.961 53.4279 137.961 53.452C137.961 53.4681 137.961 53.4842 137.961 53.5003C137.969 53.7576 138.017 53.9948 138.106 54.2119C138.202 54.421 138.335 54.5898 138.504 54.7185C138.681 54.8472 138.89 54.9115 139.131 54.9115C139.332 54.9115 139.497 54.8833 139.625 54.827C139.754 54.7708 139.859 54.7024 139.939 54.622C140.027 54.5416 140.092 54.4732 140.132 54.417C140.204 54.3365 140.261 54.2883 140.301 54.2722C140.349 54.2481 140.421 54.236 140.518 54.236H141.772C141.853 54.236 141.917 54.2602 141.965 54.3084C142.022 54.3486 142.046 54.4089 142.038 54.4893C142.03 54.618 141.961 54.7788 141.833 54.9718C141.712 55.1567 141.531 55.3417 141.29 55.5266C141.049 55.7035 140.747 55.8523 140.385 55.9729C140.032 56.0935 139.621 56.1538 139.155 56.1538ZM137.961 52.3062H140.325V52.2821C140.325 51.9926 140.277 51.7433 140.18 51.5342C140.092 51.3171 139.959 51.1483 139.782 51.0277C139.605 50.907 139.392 50.8467 139.143 50.8467C138.894 50.8467 138.681 50.907 138.504 51.0277C138.327 51.1483 138.19 51.3171 138.094 51.5342C138.005 51.7433 137.961 51.9926 137.961 52.2821V52.3062ZM146.198 56.1538C145.612 56.1538 145.093 56.0453 144.643 55.8282C144.2 55.611 143.851 55.2974 143.593 54.8874C143.336 54.4692 143.195 53.9707 143.171 53.3917C143.163 53.2631 143.159 53.1022 143.159 52.9093C143.159 52.7082 143.163 52.5434 143.171 52.4147C143.195 51.8277 143.332 51.3292 143.581 50.9191C143.838 50.501 144.192 50.1834 144.643 49.9662C145.093 49.7491 145.612 49.6406 146.198 49.6406C146.737 49.6406 147.196 49.717 147.574 49.8698C147.951 50.0145 148.261 50.1994 148.502 50.4246C148.743 50.6497 148.92 50.8869 149.033 51.1362C149.154 51.3774 149.218 51.5905 149.226 51.7755C149.234 51.8559 149.206 51.9283 149.142 51.9926C149.085 52.0489 149.017 52.077 148.936 52.077H147.646C147.565 52.077 147.501 52.0569 147.453 52.0167C147.413 51.9685 147.372 51.9041 147.332 51.8237C147.22 51.5423 147.075 51.3413 146.898 51.2206C146.721 51.1 146.5 51.0397 146.235 51.0397C145.873 51.0397 145.587 51.1563 145.378 51.3895C145.169 51.6227 145.057 51.9845 145.041 52.475C145.033 52.7886 145.033 53.0741 145.041 53.3314C145.065 53.83 145.177 54.1918 145.378 54.417C145.587 54.6421 145.873 54.7547 146.235 54.7547C146.516 54.7547 146.741 54.6944 146.91 54.5738C147.079 54.4531 147.22 54.2521 147.332 53.9707C147.364 53.8903 147.405 53.83 147.453 53.7898C147.501 53.7415 147.565 53.7174 147.646 53.7174H148.936C149.017 53.7174 149.085 53.7496 149.142 53.8139C149.206 53.8702 149.234 53.9385 149.226 54.0189C149.218 54.1556 149.178 54.3164 149.105 54.5014C149.041 54.6863 148.932 54.8753 148.78 55.0683C148.635 55.2613 148.446 55.4422 148.213 55.611C147.98 55.7719 147.694 55.9045 147.356 56.0091C147.027 56.1056 146.641 56.1538 146.198 56.1538ZM153.195 56.1538C152.608 56.1538 152.089 56.0453 151.639 55.8282C151.197 55.611 150.847 55.2974 150.59 54.8874C150.333 54.4692 150.192 53.9707 150.168 53.3917C150.16 53.2631 150.156 53.1022 150.156 52.9093C150.156 52.7082 150.16 52.5434 150.168 52.4147C150.192 51.8277 150.329 51.3292 150.578 50.9191C150.835 50.501 151.189 50.1834 151.639 49.9662C152.089 49.7491 152.608 49.6406 153.195 49.6406C153.734 49.6406 154.192 49.717 154.57 49.8698C154.948 50.0145 155.258 50.1994 155.499 50.4246C155.74 50.6497 155.917 50.8869 156.03 51.1362C156.15 51.3774 156.215 51.5905 156.223 51.7755C156.231 51.8559 156.202 51.9283 156.138 51.9926C156.082 52.0489 156.014 52.077 155.933 52.077H154.643C154.562 52.077 154.498 52.0569 154.45 52.0167C154.409 51.9685 154.369 51.9041 154.329 51.8237C154.216 51.5423 154.072 51.3413 153.895 51.2206C153.718 51.1 153.497 51.0397 153.231 51.0397C152.869 51.0397 152.584 51.1563 152.375 51.3895C152.166 51.6227 152.053 51.9845 152.037 52.475C152.029 52.7886 152.029 53.0741 152.037 53.3314C152.061 53.83 152.174 54.1918 152.375 54.417C152.584 54.6421 152.869 54.7547 153.231 54.7547C153.513 54.7547 153.738 54.6944 153.907 54.5738C154.076 54.4531 154.216 54.2521 154.329 53.9707C154.361 53.8903 154.401 53.83 154.45 53.7898C154.498 53.7415 154.562 53.7174 154.643 53.7174H155.933C156.014 53.7174 156.082 53.7496 156.138 53.8139C156.202 53.8702 156.231 53.9385 156.223 54.0189C156.215 54.1556 156.174 54.3164 156.102 54.5014C156.038 54.6863 155.929 54.8753 155.776 55.0683C155.632 55.2613 155.443 55.4422 155.209 55.611C154.976 55.7719 154.691 55.9045 154.353 56.0091C154.023 56.1056 153.637 56.1538 153.195 56.1538ZM160.357 56.0332C160.277 56.0332 160.208 56.0051 160.152 55.9488C160.096 55.8925 160.068 55.8201 160.068 55.7317V50.0627C160.068 49.9743 160.096 49.9019 160.152 49.8456C160.208 49.7893 160.277 49.7612 160.357 49.7612H161.539C161.628 49.7612 161.7 49.7893 161.756 49.8456C161.812 49.9019 161.841 49.9743 161.841 50.0627V52.1373H162.6L164 49.9542C164.024 49.9059 164.06 49.8617 164.108 49.8215C164.164 49.7813 164.237 49.7612 164.325 49.7612H165.64C165.712 49.7612 165.773 49.7853 165.821 49.8336C165.877 49.8738 165.905 49.926 165.905 49.9904C165.905 50.0145 165.897 50.0426 165.881 50.0748C165.873 50.107 165.861 50.1351 165.845 50.1592L164.144 52.7886L166.11 55.6472C166.143 55.6955 166.159 55.7477 166.159 55.804C166.159 55.8684 166.135 55.9246 166.086 55.9729C166.038 56.0131 165.978 56.0332 165.905 56.0332H164.446C164.365 56.0332 164.297 56.0171 164.241 55.985C164.193 55.9448 164.148 55.8965 164.108 55.8402L162.588 53.5726H161.841V55.7317C161.841 55.8201 161.812 55.8925 161.756 55.9488C161.7 56.0051 161.628 56.0332 161.539 56.0332H160.357ZM175.067 57.4806C174.987 57.4806 174.918 57.4524 174.862 57.3962C174.806 57.3399 174.778 57.2675 174.778 57.179V56.0332H170.11C170.03 56.0332 169.961 56.0051 169.905 55.9488C169.849 55.8925 169.82 55.8201 169.82 55.7317V50.0627C169.82 49.9743 169.849 49.9019 169.905 49.8456C169.961 49.7893 170.03 49.7612 170.11 49.7612H171.316C171.405 49.7612 171.477 49.7893 171.533 49.8456C171.589 49.9019 171.618 49.9743 171.618 50.0627V54.6099H173.946V50.0627C173.946 49.9743 173.974 49.9019 174.03 49.8456C174.086 49.7893 174.159 49.7612 174.247 49.7612H175.453C175.534 49.7612 175.602 49.7893 175.658 49.8456C175.715 49.9019 175.743 49.9743 175.743 50.0627V54.6099H176.273C176.362 54.6099 176.434 54.6381 176.49 54.6944C176.547 54.7507 176.575 54.823 176.575 54.9115V57.179C176.575 57.2675 176.547 57.3399 176.49 57.3962C176.434 57.4524 176.362 57.4806 176.273 57.4806H175.067ZM180.416 56.1538C179.492 56.1538 178.756 55.8965 178.209 55.3819C177.67 54.8673 177.385 54.1194 177.353 53.1384C177.353 53.0741 177.353 52.9897 177.353 52.8851C177.353 52.7726 177.353 52.6841 177.353 52.6198C177.385 52.0006 177.526 51.4699 177.775 51.0277C178.024 50.5774 178.374 50.2356 178.824 50.0024C179.275 49.7612 179.801 49.6406 180.404 49.6406C181.08 49.6406 181.643 49.7813 182.093 50.0627C182.551 50.3361 182.893 50.7141 183.118 51.1965C183.351 51.6709 183.468 52.2177 183.468 52.8369V53.1143C183.468 53.1947 183.436 53.2631 183.371 53.3194C183.315 53.3756 183.247 53.4038 183.166 53.4038H179.222C179.222 53.4118 179.222 53.4279 179.222 53.452C179.222 53.4681 179.222 53.4842 179.222 53.5003C179.23 53.7576 179.279 53.9948 179.367 54.2119C179.463 54.421 179.596 54.5898 179.765 54.7185C179.942 54.8472 180.151 54.9115 180.392 54.9115C180.593 54.9115 180.758 54.8833 180.887 54.827C181.015 54.7708 181.12 54.7024 181.2 54.622C181.289 54.5416 181.353 54.4732 181.393 54.417C181.466 54.3365 181.522 54.2883 181.562 54.2722C181.61 54.2481 181.683 54.236 181.779 54.236H183.034C183.114 54.236 183.178 54.2602 183.227 54.3084C183.283 54.3486 183.307 54.4089 183.299 54.4893C183.291 54.618 183.223 54.7788 183.094 54.9718C182.973 55.1567 182.792 55.3417 182.551 55.5266C182.31 55.7035 182.008 55.8523 181.647 55.9729C181.293 56.0935 180.883 56.1538 180.416 56.1538ZM179.222 52.3062H181.586V52.2821C181.586 51.9926 181.538 51.7433 181.442 51.5342C181.353 51.3171 181.22 51.1483 181.044 51.0277C180.867 50.907 180.654 50.8467 180.404 50.8467C180.155 50.8467 179.942 50.907 179.765 51.0277C179.588 51.1483 179.451 51.3171 179.355 51.5342C179.266 51.7433 179.222 51.9926 179.222 52.2821V52.3062ZM184.517 56.0332C184.436 56.0332 184.364 56.0051 184.3 55.9488C184.243 55.8844 184.215 55.8121 184.215 55.7317V54.827C184.215 54.6501 184.312 54.5537 184.505 54.5376C184.738 54.5134 184.919 54.4049 185.047 54.2119C185.184 54.0109 185.281 53.7053 185.337 53.2952C185.393 52.8851 185.421 52.3585 185.421 51.7152V50.0627C185.421 49.9743 185.45 49.9019 185.506 49.8456C185.562 49.7893 185.634 49.7612 185.723 49.7612H190.222C190.31 49.7612 190.383 49.7893 190.439 49.8456C190.495 49.9019 190.523 49.9743 190.523 50.0627V55.7317C190.523 55.8201 190.495 55.8925 190.439 55.9488C190.383 56.0051 190.31 56.0332 190.222 56.0332H189.016C188.935 56.0332 188.863 56.0051 188.799 55.9488C188.742 55.8925 188.714 55.8201 188.714 55.7317V51.1845H187.146V51.9202C187.146 52.6841 187.102 53.3314 187.014 53.8621C186.933 54.3928 186.792 54.819 186.591 55.1406C186.39 55.4542 186.121 55.6834 185.783 55.8282C185.446 55.9649 185.023 56.0332 184.517 56.0332ZM192.36 56.0332C192.288 56.0332 192.223 56.0051 192.167 55.9488C192.111 55.8925 192.082 55.8241 192.082 55.7437V50.0627C192.082 49.9743 192.111 49.9019 192.167 49.8456C192.223 49.7893 192.292 49.7612 192.372 49.7612H193.578C193.667 49.7612 193.739 49.7893 193.795 49.8456C193.852 49.9019 193.88 49.9743 193.88 50.0627V54.6461L193.397 54.3687L196.545 49.9542C196.585 49.8979 196.63 49.8537 196.678 49.8215C196.734 49.7813 196.803 49.7612 196.883 49.7612H197.969C198.049 49.7612 198.117 49.7893 198.174 49.8456C198.23 49.9019 198.258 49.9662 198.258 50.0386V55.7317C198.258 55.8201 198.23 55.8925 198.174 55.9488C198.117 56.0051 198.045 56.0332 197.956 56.0332H196.75C196.67 56.0332 196.602 56.0051 196.545 55.9488C196.489 55.8925 196.461 55.8201 196.461 55.7317V51.3292L196.955 51.4136L193.783 55.8402C193.751 55.8965 193.707 55.9448 193.65 55.985C193.594 56.0171 193.53 56.0332 193.457 56.0332H192.36Z" fill="#42404C"/>
<rect width="91" height="28.0359" transform="translate(263 38)" fill="#EFF1F3"/>
<path d="M276.194 56C276.106 56 276.033 55.9719 275.977 55.9156C275.921 55.8593 275.893 55.7869 275.893 55.6985V47.8585C275.893 47.77 275.921 47.6976 275.977 47.6414C276.033 47.5851 276.106 47.5569 276.194 47.5569H282.695C282.784 47.5569 282.856 47.5851 282.912 47.6414C282.969 47.6976 282.997 47.77 282.997 47.8585V55.6985C282.997 55.7869 282.969 55.8593 282.912 55.9156C282.856 55.9719 282.784 56 282.695 56H281.381C281.292 56 281.22 55.9719 281.163 55.9156C281.107 55.8593 281.079 55.7869 281.079 55.6985V49.2697H277.81V55.6985C277.81 55.7869 277.782 55.8593 277.726 55.9156C277.67 55.9719 277.597 56 277.509 56H276.194ZM287.451 56.1206C286.526 56.1206 285.791 55.8633 285.244 55.3487C284.705 54.8341 284.42 54.0862 284.388 53.1052C284.388 53.0409 284.388 52.9565 284.388 52.8519C284.388 52.7394 284.388 52.6509 284.388 52.5866C284.42 51.9674 284.56 51.4367 284.81 50.9945C285.059 50.5442 285.409 50.2024 285.859 49.9692C286.309 49.728 286.836 49.6074 287.439 49.6074C288.115 49.6074 288.677 49.7481 289.128 50.0295C289.586 50.3029 289.928 50.6809 290.153 51.1633C290.386 51.6377 290.503 52.1845 290.503 52.8037V53.0811C290.503 53.1615 290.471 53.2299 290.406 53.2862C290.35 53.3424 290.282 53.3706 290.201 53.3706H286.257C286.257 53.3786 286.257 53.3947 286.257 53.4188C286.257 53.4349 286.257 53.451 286.257 53.4671C286.265 53.7244 286.313 53.9616 286.402 54.1787C286.498 54.3878 286.631 54.5566 286.8 54.6853C286.977 54.8139 287.186 54.8783 287.427 54.8783C287.628 54.8783 287.793 54.8501 287.922 54.7938C288.05 54.7376 288.155 54.6692 288.235 54.5888C288.324 54.5084 288.388 54.44 288.428 54.3838C288.501 54.3033 288.557 54.2551 288.597 54.239C288.645 54.2149 288.718 54.2028 288.814 54.2028H290.069C290.149 54.2028 290.213 54.227 290.262 54.2752C290.318 54.3154 290.342 54.3757 290.334 54.4561C290.326 54.5848 290.258 54.7456 290.129 54.9386C290.008 55.1235 289.827 55.3085 289.586 55.4934C289.345 55.6703 289.043 55.8191 288.681 55.9397C288.328 56.0603 287.918 56.1206 287.451 56.1206ZM286.257 52.273H288.621V52.2489C288.621 51.9594 288.573 51.7101 288.476 51.501C288.388 51.2839 288.255 51.1151 288.078 50.9945C287.901 50.8738 287.688 50.8135 287.439 50.8135C287.19 50.8135 286.977 50.8738 286.8 50.9945C286.623 51.1151 286.486 51.2839 286.39 51.501C286.301 51.7101 286.257 51.9594 286.257 52.2489V52.273ZM292.01 58.2917C291.922 58.2917 291.849 58.2635 291.793 58.2073C291.737 58.151 291.708 58.0786 291.708 57.9902V50.0295C291.708 49.9411 291.737 49.8687 291.793 49.8124C291.849 49.7561 291.922 49.728 292.01 49.728H293.156C293.244 49.728 293.317 49.7561 293.373 49.8124C293.429 49.8687 293.457 49.9411 293.457 50.0295V50.4879C293.65 50.2306 293.9 50.0215 294.205 49.8607C294.511 49.6918 294.893 49.6074 295.351 49.6074C295.769 49.6074 296.131 49.6757 296.437 49.8124C296.75 49.9411 297.011 50.1301 297.221 50.3793C297.438 50.6206 297.603 50.9141 297.715 51.2598C297.836 51.6056 297.904 51.9956 297.92 52.4298C297.928 52.5826 297.932 52.7273 297.932 52.864C297.932 53.0007 297.928 53.1495 297.92 53.3103C297.912 53.7204 297.848 54.0983 297.727 54.4441C297.615 54.7898 297.45 55.0873 297.233 55.3366C297.016 55.5859 296.75 55.7789 296.437 55.9156C296.131 56.0523 295.769 56.1206 295.351 56.1206C294.941 56.1206 294.583 56.0482 294.278 55.9035C293.98 55.7507 293.735 55.5457 293.542 55.2884V57.9902C293.542 58.0786 293.514 58.151 293.457 58.2073C293.401 58.2635 293.333 58.2917 293.252 58.2917H292.01ZM294.808 54.6732C295.114 54.6732 295.355 54.6089 295.532 54.4802C295.709 54.3435 295.833 54.1666 295.906 53.9495C295.986 53.7324 296.035 53.4952 296.051 53.2379C296.067 52.9886 296.067 52.7394 296.051 52.4901C296.035 52.2328 295.986 51.9956 295.906 51.7785C295.833 51.5614 295.709 51.3885 295.532 51.2598C295.355 51.1231 295.114 51.0548 294.808 51.0548C294.511 51.0548 294.27 51.1231 294.085 51.2598C293.9 51.3965 293.767 51.5694 293.687 51.7785C293.606 51.9875 293.558 52.2127 293.542 52.4539C293.534 52.5986 293.53 52.7474 293.53 52.9002C293.53 53.053 293.534 53.2057 293.542 53.3585C293.55 53.5837 293.598 53.7968 293.687 53.9978C293.783 54.1908 293.92 54.3516 294.097 54.4802C294.282 54.6089 294.519 54.6732 294.808 54.6732ZM299.489 56C299.417 56 299.352 55.9719 299.296 55.9156C299.24 55.8593 299.212 55.7909 299.212 55.7105V50.0295C299.212 49.9411 299.24 49.8687 299.296 49.8124C299.352 49.7561 299.421 49.728 299.501 49.728H300.707C300.796 49.728 300.868 49.7561 300.924 49.8124C300.981 49.8687 301.009 49.9411 301.009 50.0295V54.6129L300.526 54.3355L303.674 49.921C303.715 49.8647 303.759 49.8205 303.807 49.7883C303.863 49.7481 303.932 49.728 304.012 49.728H305.098C305.178 49.728 305.246 49.7561 305.303 49.8124C305.359 49.8687 305.387 49.933 305.387 50.0054V55.6985C305.387 55.7869 305.359 55.8593 305.303 55.9156C305.246 55.9719 305.174 56 305.086 56H303.879C303.799 56 303.731 55.9719 303.674 55.9156C303.618 55.8593 303.59 55.7869 303.59 55.6985V51.296L304.084 51.3804L300.912 55.807C300.88 55.8633 300.836 55.9115 300.78 55.9518C300.723 55.9839 300.659 56 300.587 56H299.489ZM309.68 56.1206C309.012 56.1206 308.453 56.0121 308.003 55.795C307.553 55.5698 307.207 55.2522 306.966 54.8421C306.733 54.432 306.604 53.9536 306.58 53.4068C306.572 53.2459 306.568 53.065 306.568 52.864C306.568 52.6549 306.572 52.474 306.58 52.3212C306.604 51.7664 306.741 51.288 306.99 50.8859C307.239 50.4758 307.589 50.1622 308.039 49.9451C308.489 49.72 309.036 49.6074 309.68 49.6074C310.315 49.6074 310.858 49.72 311.308 49.9451C311.758 50.1622 312.108 50.4758 312.357 50.8859C312.606 51.288 312.743 51.7664 312.767 52.3212C312.783 52.474 312.791 52.6549 312.791 52.864C312.791 53.065 312.783 53.2459 312.767 53.4068C312.743 53.9536 312.611 54.432 312.369 54.8421C312.136 55.2522 311.794 55.5698 311.344 55.795C310.894 56.0121 310.339 56.1206 309.68 56.1206ZM309.68 54.7938C310.074 54.7938 310.371 54.6732 310.572 54.432C310.773 54.1827 310.882 53.8209 310.898 53.3465C310.906 53.2258 310.91 53.065 310.91 52.864C310.91 52.663 310.906 52.5022 310.898 52.3815C310.882 51.9152 310.773 51.5573 310.572 51.3081C310.371 51.0588 310.074 50.9342 309.68 50.9342C309.286 50.9342 308.984 51.0588 308.775 51.3081C308.574 51.5573 308.465 51.9152 308.449 52.3815C308.441 52.5022 308.437 52.663 308.437 52.864C308.437 53.065 308.441 53.2258 308.449 53.3465C308.465 53.8209 308.574 54.1827 308.775 54.432C308.984 54.6732 309.286 54.7938 309.68 54.7938ZM313.86 57.3268C313.78 57.3268 313.711 57.2986 313.655 57.2423C313.599 57.1861 313.57 57.1137 313.57 57.0252V54.8783C313.57 54.7898 313.599 54.7175 313.655 54.6612C313.711 54.6049 313.78 54.5767 313.86 54.5767H313.968C314.178 54.5767 314.342 54.4682 314.463 54.2511C314.592 54.034 314.684 53.7123 314.74 53.2862C314.797 52.86 314.825 52.3253 314.825 51.682V50.0295C314.825 49.9411 314.853 49.8687 314.909 49.8124C314.966 49.7561 315.034 49.728 315.114 49.728H319.625C319.714 49.728 319.786 49.7561 319.842 49.8124C319.899 49.8687 319.927 49.9411 319.927 50.0295V54.5647H320.458C320.538 54.5647 320.606 54.5928 320.663 54.6491C320.719 54.7054 320.747 54.7778 320.747 54.8662V57.0252C320.747 57.1137 320.719 57.1861 320.663 57.2423C320.606 57.2986 320.538 57.3268 320.458 57.3268H319.251C319.163 57.3268 319.091 57.2986 319.034 57.2423C318.978 57.1861 318.95 57.1137 318.95 57.0252V56H315.368V57.0252C315.368 57.1137 315.339 57.1861 315.283 57.2423C315.227 57.2986 315.155 57.3268 315.066 57.3268H313.86ZM316.043 54.5767L318.13 54.5647V51.1513H316.538V51.887C316.538 52.5464 316.493 53.0972 316.405 53.5394C316.324 53.9817 316.204 54.3275 316.043 54.5767Z" fill="#424252"/>
<path d="M332 49.75C332 49.75 336 54.25 337 54.25C338 54.25 342 49.75 342 49.75" stroke="#82888F" stroke-width="1.5" stroke-linecap="round"/>
<path d="M207 50.04C207 50.04 211 54.5458 212 54.5458C213 54.5458 217 50.04 217 50.04" stroke="#82888F" stroke-width="1.5" stroke-linecap="round"/>
<path d="M267.965 104.82C253.737 92.6807 235.552 86.0282 216.756 86.0863C197.96 86.1444 179.818 92.9093 165.666 105.137C151.515 117.364 142.306 134.231 139.734 152.635C137.162 171.039 141.4 189.742 151.668 205.303L161.246 199.128C152.484 185.848 148.867 169.887 151.062 154.182C153.257 138.476 161.116 124.082 173.192 113.647C185.269 103.213 200.752 97.4396 216.792 97.39C232.832 97.3404 248.351 103.018 260.493 113.377L267.965 104.82Z" fill="#3BAFA8"/>
<path d="M230 186.215C230 192.851 224.627 198.23 218 198.23C211.373 198.23 206 192.851 206 186.215C206 179.579 211.373 174.199 218 174.199C224.627 174.199 230 179.579 230 186.215ZM210.61 186.215C210.61 190.301 213.919 193.614 218 193.614C222.081 193.614 225.39 190.301 225.39 186.215C225.39 182.128 222.081 178.815 218 178.815C213.919 178.815 210.61 182.128 210.61 186.215Z" fill="#FF9053"/>
<path d="M199.594 106.864L201.509 112.379" stroke="#D9D9D9" stroke-linecap="square"/>
<path d="M218.5 104.61V109.616" stroke="#D9D9D9" stroke-linecap="square"/>
<path d="M238 107.113L235.5 111.619" stroke="#D9D9D9" stroke-linecap="square"/>
<path d="M254.5 115.624L251.5 119.629" stroke="#D9D9D9" stroke-linecap="square"/>
<path d="M268 129.141L263.5 132.646" stroke="#D9D9D9" stroke-linecap="square"/>
<path d="M277 145.663L272 148.166" stroke="#D9D9D9" stroke-linecap="square"/>
<path d="M279.5 164.687H274.5" stroke="#D9D9D9" stroke-linecap="square"/>
<path d="M276 183.21L271.5 181.708" stroke="#D9D9D9" stroke-linecap="square"/>
<path d="M269 199.732C268.6 199.732 265.833 197.395 264.5 196.227" stroke="#D9D9D9" stroke-linecap="square"/>
<path d="M168 199.231L172.5 196.728" stroke="#D9D9D9" stroke-linecap="square"/>
<path d="M159.5 183.211L165 181.208" stroke="#D9D9D9" stroke-linecap="square"/>
<path d="M157.5 164.687H163" stroke="#D9D9D9" stroke-linecap="square"/>
<path d="M160 146.163L166 147.164" stroke="#D9D9D9" stroke-linecap="square"/>
<path d="M169 129.141L173.5 132.646" stroke="#D9D9D9" stroke-linecap="square"/>
<path d="M182.5 115.624L186 120.13" stroke="#D9D9D9" stroke-linecap="square"/>
<path d="M250.49 130.399L231.85 177.032L219.408 169.825L250.49 130.399Z" fill="url(#paint0_linear_242_8249)"/>
<path d="M173.962 233.535C173.83 233.535 173.722 233.493 173.638 233.409C173.566 233.325 173.53 233.223 173.53 233.103V231.015H164.836C164.716 231.015 164.614 230.973 164.53 230.889C164.446 230.805 164.404 230.697 164.404 230.565V218.847C164.404 218.715 164.446 218.613 164.53 218.541C164.614 218.457 164.716 218.415 164.836 218.415H166.474C166.606 218.415 166.708 218.457 166.78 218.541C166.864 218.625 166.906 218.727 166.906 218.847V228.765H172.216V218.847C172.216 218.727 172.258 218.625 172.342 218.541C172.426 218.457 172.528 218.415 172.648 218.415H174.268C174.4 218.415 174.508 218.457 174.592 218.541C174.676 218.625 174.718 218.727 174.718 218.847V228.765H175.582C175.714 228.765 175.822 228.807 175.906 228.891C175.99 228.975 176.032 229.077 176.032 229.197V233.103C176.032 233.223 175.99 233.325 175.906 233.409C175.822 233.493 175.714 233.535 175.582 233.535H173.962ZM181.843 231.195C180.511 231.195 179.455 230.811 178.675 230.043C177.895 229.275 177.475 228.183 177.415 226.767C177.403 226.647 177.397 226.497 177.397 226.317C177.397 226.125 177.403 225.975 177.415 225.867C177.463 224.967 177.667 224.187 178.027 223.527C178.399 222.867 178.909 222.363 179.557 222.015C180.205 221.655 180.967 221.475 181.843 221.475C182.815 221.475 183.631 221.679 184.291 222.087C184.951 222.483 185.449 223.041 185.785 223.761C186.121 224.469 186.289 225.291 186.289 226.227V226.605C186.289 226.725 186.247 226.827 186.163 226.911C186.079 226.995 185.971 227.037 185.839 227.037H179.863C179.863 227.037 179.863 227.055 179.863 227.091C179.863 227.127 179.863 227.157 179.863 227.181C179.875 227.601 179.953 227.991 180.097 228.351C180.253 228.699 180.475 228.981 180.763 229.197C181.063 229.413 181.417 229.521 181.825 229.521C182.161 229.521 182.443 229.473 182.671 229.377C182.899 229.269 183.085 229.149 183.229 229.017C183.373 228.885 183.475 228.777 183.535 228.693C183.643 228.549 183.727 228.465 183.787 228.441C183.859 228.405 183.961 228.387 184.093 228.387H185.641C185.761 228.387 185.857 228.423 185.929 228.495C186.013 228.567 186.049 228.657 186.037 228.765C186.025 228.957 185.923 229.191 185.731 229.467C185.551 229.743 185.287 230.013 184.939 230.277C184.591 230.541 184.153 230.763 183.625 230.943C183.109 231.111 182.515 231.195 181.843 231.195ZM179.863 225.525H183.841V225.471C183.841 225.003 183.763 224.595 183.607 224.247C183.451 223.899 183.223 223.623 182.923 223.419C182.623 223.215 182.263 223.113 181.843 223.113C181.423 223.113 181.063 223.215 180.763 223.419C180.463 223.623 180.235 223.899 180.079 224.247C179.935 224.595 179.863 225.003 179.863 225.471V225.525ZM187.912 231.015C187.78 231.015 187.672 230.973 187.588 230.889C187.504 230.805 187.462 230.697 187.462 230.565V229.449C187.462 229.185 187.6 229.041 187.876 229.017C188.236 228.993 188.524 228.825 188.74 228.513C188.956 228.201 189.112 227.721 189.208 227.073C189.304 226.413 189.352 225.561 189.352 224.517V222.087C189.352 221.967 189.394 221.865 189.478 221.781C189.562 221.697 189.67 221.655 189.802 221.655H196.192C196.312 221.655 196.414 221.697 196.498 221.781C196.582 221.865 196.624 221.967 196.624 222.087V230.583C196.624 230.703 196.582 230.805 196.498 230.889C196.414 230.973 196.312 231.015 196.192 231.015H194.698C194.566 231.015 194.458 230.973 194.374 230.889C194.302 230.805 194.266 230.703 194.266 230.583V223.563H191.62V224.769C191.62 225.921 191.554 226.899 191.422 227.703C191.302 228.495 191.092 229.137 190.792 229.629C190.504 230.109 190.12 230.463 189.64 230.691C189.172 230.907 188.596 231.015 187.912 231.015ZM199.477 231.015C199.357 231.015 199.255 230.973 199.171 230.889C199.087 230.805 199.045 230.703 199.045 230.583V222.087C199.045 221.967 199.087 221.865 199.171 221.781C199.255 221.697 199.357 221.655 199.477 221.655H200.989C201.109 221.655 201.211 221.697 201.295 221.781C201.379 221.865 201.421 221.967 201.421 222.087V224.625H203.275C204.499 224.625 205.417 224.913 206.029 225.489C206.641 226.065 206.947 226.857 206.947 227.865C206.947 228.909 206.617 229.695 205.957 230.223C205.297 230.751 204.355 231.015 203.131 231.015H199.477ZM201.385 229.305H203.077C203.665 229.305 204.097 229.197 204.373 228.981C204.661 228.765 204.805 228.393 204.805 227.865C204.805 227.349 204.667 226.965 204.391 226.713C204.127 226.461 203.689 226.335 203.077 226.335H201.385V229.305ZM208.968 224.715C208.848 224.715 208.746 224.673 208.662 224.589C208.578 224.505 208.536 224.403 208.536 224.283V222.573C208.536 222.441 208.578 222.333 208.662 222.249C208.746 222.165 208.848 222.123 208.968 222.123H210.75C210.882 222.123 210.99 222.165 211.074 222.249C211.158 222.333 211.2 222.441 211.2 222.573V224.283C211.2 224.403 211.158 224.505 211.074 224.589C210.99 224.673 210.882 224.715 210.75 224.715H208.968ZM208.968 231.015C208.848 231.015 208.746 230.973 208.662 230.889C208.578 230.805 208.536 230.703 208.536 230.583V228.873C208.536 228.741 208.578 228.633 208.662 228.549C208.746 228.465 208.848 228.423 208.968 228.423H210.75C210.882 228.423 210.99 228.465 211.074 228.549C211.158 228.633 211.2 228.741 211.2 228.873V230.583C211.2 230.703 211.158 230.805 211.074 230.889C210.99 230.973 210.882 231.015 210.75 231.015H208.968Z" fill="#83868E"/>
<path d="M226.832 216.767V231.015H224.02V220.009L220.641 221.083V218.866L226.529 216.767H226.832ZM231.715 229.657C231.715 229.241 231.858 228.892 232.145 228.612C232.438 228.332 232.825 228.192 233.307 228.192C233.788 228.192 234.173 228.332 234.459 228.612C234.752 228.892 234.898 229.241 234.898 229.657C234.898 230.074 234.752 230.422 234.459 230.702C234.173 230.982 233.788 231.122 233.307 231.122C232.825 231.122 232.438 230.982 232.145 230.702C231.858 230.422 231.715 230.074 231.715 229.657ZM239.254 228.876H239.439C240.221 228.876 240.891 228.782 241.451 228.593C242.018 228.397 242.483 228.118 242.848 227.753C243.212 227.388 243.482 226.942 243.658 226.415C243.834 225.881 243.922 225.276 243.922 224.599V221.903C243.922 221.389 243.87 220.937 243.766 220.546C243.668 220.155 243.525 219.833 243.336 219.579C243.154 219.319 242.939 219.123 242.691 218.993C242.451 218.863 242.184 218.798 241.891 218.798C241.578 218.798 241.301 218.876 241.061 219.032C240.82 219.182 240.615 219.387 240.445 219.647C240.283 219.908 240.156 220.207 240.064 220.546C239.98 220.878 239.938 221.226 239.938 221.591C239.938 221.955 239.98 222.304 240.064 222.636C240.149 222.961 240.276 223.251 240.445 223.505C240.615 223.752 240.826 223.951 241.08 224.101C241.334 224.244 241.633 224.315 241.979 224.315C242.311 224.315 242.607 224.254 242.867 224.13C243.134 224 243.359 223.83 243.541 223.622C243.73 223.414 243.873 223.183 243.971 222.929C244.075 222.675 244.127 222.418 244.127 222.157L245.055 222.665C245.055 223.121 244.957 223.57 244.762 224.013C244.566 224.455 244.293 224.859 243.941 225.224C243.596 225.582 243.196 225.868 242.74 226.083C242.285 226.298 241.796 226.405 241.275 226.405C240.611 226.405 240.022 226.285 239.508 226.044C238.993 225.797 238.557 225.458 238.199 225.028C237.848 224.592 237.581 224.084 237.398 223.505C237.216 222.925 237.125 222.297 237.125 221.62C237.125 220.93 237.236 220.282 237.457 219.677C237.685 219.071 238.007 218.537 238.424 218.075C238.847 217.613 239.352 217.252 239.938 216.991C240.53 216.724 241.188 216.591 241.91 216.591C242.633 216.591 243.29 216.731 243.883 217.011C244.475 217.291 244.983 217.688 245.406 218.202C245.829 218.71 246.155 219.319 246.383 220.028C246.617 220.738 246.734 221.526 246.734 222.392V223.368C246.734 224.293 246.633 225.152 246.432 225.946C246.236 226.741 245.94 227.46 245.543 228.104C245.152 228.743 244.664 229.289 244.078 229.745C243.499 230.201 242.825 230.549 242.057 230.79C241.288 231.031 240.429 231.151 239.479 231.151H239.254V228.876ZM258.707 225.702V227.909H248.463L248.326 226.2L254.254 216.796H256.49L254.068 220.849L251.119 225.702H258.707ZM257.096 216.796V231.015H254.283V216.796H257.096ZM263.111 222.685H264.615C265.097 222.685 265.494 222.603 265.807 222.44C266.119 222.271 266.35 222.037 266.5 221.737C266.656 221.431 266.734 221.076 266.734 220.673C266.734 220.308 266.663 219.986 266.52 219.706C266.383 219.42 266.171 219.198 265.885 219.042C265.598 218.879 265.237 218.798 264.801 218.798C264.456 218.798 264.137 218.866 263.844 219.003C263.551 219.14 263.316 219.332 263.141 219.579C262.965 219.826 262.877 220.126 262.877 220.478H260.055C260.055 219.696 260.263 219.016 260.68 218.437C261.103 217.857 261.669 217.405 262.379 217.079C263.089 216.754 263.87 216.591 264.723 216.591C265.686 216.591 266.529 216.747 267.252 217.06C267.975 217.366 268.538 217.818 268.941 218.417C269.345 219.016 269.547 219.758 269.547 220.644C269.547 221.093 269.443 221.529 269.234 221.952C269.026 222.369 268.727 222.746 268.336 223.085C267.952 223.417 267.483 223.684 266.93 223.886C266.376 224.081 265.755 224.179 265.064 224.179H263.111V222.685ZM263.111 224.823V223.368H265.064C265.839 223.368 266.52 223.456 267.105 223.632C267.691 223.808 268.183 224.062 268.58 224.394C268.977 224.719 269.277 225.106 269.479 225.556C269.68 225.998 269.781 226.49 269.781 227.03C269.781 227.694 269.654 228.287 269.4 228.808C269.146 229.322 268.788 229.758 268.326 230.116C267.87 230.474 267.337 230.748 266.725 230.937C266.113 231.119 265.445 231.21 264.723 231.21C264.124 231.21 263.535 231.129 262.955 230.966C262.382 230.797 261.861 230.546 261.393 230.214C260.93 229.875 260.559 229.452 260.279 228.944C260.006 228.43 259.869 227.821 259.869 227.118H262.691C262.691 227.483 262.783 227.808 262.965 228.095C263.147 228.381 263.398 228.606 263.717 228.769C264.042 228.931 264.404 229.013 264.801 229.013C265.25 229.013 265.634 228.931 265.953 228.769C266.279 228.599 266.526 228.365 266.695 228.065C266.871 227.759 266.959 227.405 266.959 227.001C266.959 226.48 266.865 226.063 266.676 225.751C266.487 225.432 266.217 225.198 265.865 225.048C265.514 224.898 265.097 224.823 264.615 224.823H263.111Z" fill="black"/>
<path d="M193.98 138.128C193.833 138.128 193.713 138.082 193.62 137.988C193.527 137.895 193.48 137.775 193.48 137.628V124.628C193.48 124.482 193.527 124.362 193.62 124.268C193.713 124.175 193.833 124.128 193.98 124.128H199.28C200.947 124.128 202.26 124.515 203.22 125.288C204.18 126.048 204.66 127.148 204.66 128.588C204.66 129.562 204.427 130.375 203.96 131.028C203.493 131.682 202.867 132.168 202.08 132.488L204.9 137.488C204.94 137.568 204.96 137.642 204.96 137.708C204.96 137.815 204.92 137.915 204.84 138.008C204.76 138.088 204.66 138.128 204.54 138.128H202.32C202.08 138.128 201.9 138.068 201.78 137.948C201.66 137.815 201.573 137.695 201.52 137.588L199.08 133.008H196.66V137.628C196.66 137.775 196.613 137.895 196.52 137.988C196.427 138.082 196.307 138.128 196.16 138.128H193.98ZM196.66 130.468H199.22C199.953 130.468 200.493 130.302 200.84 129.968C201.2 129.635 201.38 129.168 201.38 128.568C201.38 127.968 201.207 127.495 200.86 127.148C200.513 126.802 199.967 126.628 199.22 126.628H196.66V130.468ZM212.614 138.328C211.401 138.328 210.354 138.128 209.474 137.728C208.594 137.328 207.908 136.728 207.414 135.928C206.921 135.115 206.654 134.095 206.614 132.868C206.601 132.295 206.594 131.728 206.594 131.168C206.594 130.595 206.601 130.015 206.614 129.428C206.654 128.228 206.921 127.222 207.414 126.408C207.921 125.582 208.614 124.962 209.494 124.548C210.388 124.135 211.428 123.928 212.614 123.928C213.788 123.928 214.814 124.135 215.694 124.548C216.588 124.962 217.288 125.582 217.794 126.408C218.301 127.222 218.568 128.228 218.594 129.428C218.621 130.015 218.634 130.595 218.634 131.168C218.634 131.728 218.621 132.295 218.594 132.868C218.554 134.095 218.288 135.115 217.794 135.928C217.301 136.728 216.614 137.328 215.734 137.728C214.854 138.128 213.814 138.328 212.614 138.328ZM212.614 135.748C213.388 135.748 214.021 135.515 214.514 135.048C215.021 134.568 215.288 133.808 215.314 132.768C215.341 132.182 215.354 131.635 215.354 131.128C215.354 130.608 215.341 130.062 215.314 129.488C215.301 128.795 215.174 128.228 214.934 127.788C214.694 127.348 214.374 127.028 213.974 126.828C213.588 126.615 213.134 126.508 212.614 126.508C212.094 126.508 211.634 126.615 211.234 126.828C210.834 127.028 210.514 127.348 210.274 127.788C210.048 128.228 209.921 128.795 209.894 129.488C209.881 130.062 209.874 130.608 209.874 131.128C209.874 131.635 209.881 132.182 209.894 132.768C209.934 133.808 210.201 134.568 210.694 135.048C211.188 135.515 211.828 135.748 212.614 135.748ZM221.617 138.128C221.483 138.128 221.363 138.082 221.257 137.988C221.163 137.895 221.117 137.775 221.117 137.628V124.628C221.117 124.482 221.163 124.362 221.257 124.268C221.363 124.175 221.483 124.128 221.617 124.128H223.477C223.677 124.128 223.823 124.182 223.917 124.288C224.023 124.395 224.097 124.475 224.137 124.528L227.817 131.308L231.537 124.528C231.563 124.475 231.623 124.395 231.717 124.288C231.823 124.182 231.977 124.128 232.177 124.128H234.037C234.183 124.128 234.303 124.175 234.397 124.268C234.49 124.362 234.537 124.482 234.537 124.628V137.628C234.537 137.775 234.49 137.895 234.397 137.988C234.303 138.082 234.183 138.128 234.037 138.128H231.997C231.863 138.128 231.75 138.082 231.657 137.988C231.563 137.895 231.517 137.775 231.517 137.628V129.548L228.977 134.308C228.91 134.428 228.823 134.535 228.717 134.628C228.61 134.722 228.47 134.768 228.297 134.768H227.357C227.183 134.768 227.043 134.722 226.937 134.628C226.83 134.535 226.743 134.428 226.677 134.308L224.137 129.548V137.628C224.137 137.775 224.09 137.895 223.997 137.988C223.903 138.082 223.79 138.128 223.657 138.128H221.617ZM238.003 138.128C237.857 138.128 237.737 138.082 237.643 137.988C237.55 137.895 237.503 137.775 237.503 137.628V124.628C237.503 124.482 237.55 124.362 237.643 124.268C237.737 124.175 237.857 124.128 238.003 124.128H240.263C240.41 124.128 240.53 124.175 240.623 124.268C240.717 124.362 240.763 124.482 240.763 124.628V137.628C240.763 137.775 240.717 137.895 240.623 137.988C240.53 138.082 240.41 138.128 240.263 138.128H238.003Z" fill="black"/>
<defs>
<filter id="filter0_d_242_8249" x="0.618341" y="0.843195" width="435.763" height="321.446" filterUnits="userSpaceOnUse" color-interpolation-filters="sRGB">
<feFlood flood-opacity="0" result="BackgroundImageFix"/>
<feColorMatrix in="SourceAlpha" type="matrix" values="0 0 0 0 0 0 0 0 0 0 0 0 0 0 0 0 0 0 127 0" result="hardAlpha"/>
<feMorphology radius="16.0207" operator="erode" in="SourceAlpha" result="effect1_dropShadow_242_8249"/>
<feOffset dy="19.2249"/>
<feGaussianBlur stdDeviation="26.7012"/>
<feColorMatrix type="matrix" values="0 0 0 0 0.0996452 0 0 0 0 0.164326 0 0 0 0 0.350284 0 0 0 0.2 0"/>
<feBlend mode="normal" in2="BackgroundImageFix" result="effect1_dropShadow_242_8249"/>
<feBlend mode="normal" in="SourceGraphic" in2="effect1_dropShadow_242_8249" result="shape"/>
</filter>
<linearGradient id="paint0_linear_242_8249" x1="250.49" y1="130.399" x2="225.581" y2="173.401" gradientUnits="userSpaceOnUse">
<stop stop-color="#FF9053"/>
<stop offset="1" stop-color="#FF9053" stop-opacity="0"/>
</linearGradient>
</defs>
</svg>
