<svg width="335" height="229" viewBox="0 0 335 229" fill="none" xmlns="http://www.w3.org/2000/svg">
<g clip-path="url(#clip0_249_13226)">
<path d="M17.5002 0.400391H319C328.3 0.400391 335.8 7.90039 335.8 17.2004V212.6C335.8 221.9 328.3 229.4 319 229.4H17.5002C8.20019 229.4 0.700195 221.9 0.700195 212.6V17.1004C0.800195 7.90039 8.30019 0.400391 17.5002 0.400391Z" fill="white"/>
<rect x="60.2969" y="53" width="0.580778" height="157.391" fill="#EEEEF7"/>
<rect x="96.8857" y="53" width="0.580778" height="157.391" fill="#EEEEF7"/>
<rect x="133.474" y="53" width="0.580778" height="157.391" fill="#EEEEF7"/>
<rect x="170.063" y="53" width="0.580778" height="157.391" fill="#EEEEF7"/>
<rect x="206.652" y="53" width="0.580778" height="157.391" fill="#EEEEF7"/>
<rect x="243.241" y="53" width="0.580778" height="157.391" fill="#EEEEF7"/>
<rect x="279.83" y="53" width="0.580778" height="157.391" fill="#EEEEF7"/>
<rect x="316.42" y="53" width="0.580778" height="157.391" fill="#EEEEF7"/>
<path d="M35.3843 63.9342H34.474V63.5668H35.3843C35.5606 63.5668 35.7034 63.5387 35.8126 63.4826C35.9218 63.4264 36.0014 63.3484 36.0513 63.2485C36.1028 63.1487 36.1285 63.0348 36.1285 62.9068C36.1285 62.7898 36.1028 62.6798 36.0513 62.5769C36.0014 62.4739 35.9218 62.3912 35.8126 62.3288C35.7034 62.2648 35.5606 62.2329 35.3843 62.2329H34.5793V65.2705H34.1276V61.8631H35.3843C35.6418 61.8631 35.8594 61.9076 36.0373 61.9965C36.2151 62.0854 36.3501 62.2087 36.4421 62.3662C36.5342 62.5223 36.5802 62.7009 36.5802 62.9022C36.5802 63.1206 36.5342 63.307 36.4421 63.4615C36.3501 63.6159 36.2151 63.7337 36.0373 63.8149C35.8594 63.8944 35.6418 63.9342 35.3843 63.9342ZM38.5507 64.8376V63.534C38.5507 63.4342 38.5304 63.3476 38.4898 63.2743C38.4508 63.1994 38.3916 63.1417 38.312 63.1011C38.2324 63.0605 38.1341 63.0402 38.0171 63.0402C37.9079 63.0402 37.8119 63.059 37.7293 63.0964C37.6481 63.1339 37.5842 63.183 37.5374 63.2438C37.4921 63.3047 37.4695 63.3702 37.4695 63.4404H37.0365C37.0365 63.3499 37.0599 63.2602 37.1068 63.1713C37.1536 63.0824 37.2206 63.002 37.308 62.9303C37.3969 62.8569 37.503 62.7992 37.6263 62.7571C37.7511 62.7134 37.89 62.6915 38.0429 62.6915C38.227 62.6915 38.3892 62.7227 38.5296 62.7852C38.6716 62.8476 38.7824 62.942 38.8619 63.0683C38.9431 63.1931 38.9836 63.3499 38.9836 63.5387V64.7182C38.9836 64.8025 38.9907 64.8922 39.0047 64.9873C39.0203 65.0825 39.0429 65.1644 39.0726 65.2331V65.2705H38.6209C38.5991 65.2206 38.5819 65.1543 38.5694 65.0716C38.5569 64.9873 38.5507 64.9093 38.5507 64.8376ZM38.6256 63.7353L38.6303 64.0395H38.1926C38.0694 64.0395 37.9594 64.0497 37.8627 64.07C37.7659 64.0887 37.6848 64.1175 37.6193 64.1565C37.5537 64.1955 37.5038 64.2447 37.4695 64.304C37.4352 64.3617 37.418 64.4296 37.418 64.5076C37.418 64.5872 37.4359 64.6597 37.4718 64.7252C37.5077 64.7908 37.5615 64.843 37.6333 64.882C37.7066 64.9195 37.7963 64.9382 37.9024 64.9382C38.0351 64.9382 38.1521 64.9101 38.2535 64.8539C38.3549 64.7978 38.4352 64.7291 38.4945 64.648C38.5554 64.5669 38.5881 64.4881 38.5928 64.4116L38.7777 64.6199C38.7668 64.6854 38.7371 64.758 38.6888 64.8376C38.6404 64.9171 38.5757 64.9936 38.4945 65.0669C38.415 65.1387 38.3198 65.1987 38.209 65.2471C38.0998 65.2939 37.9765 65.3173 37.8393 65.3173C37.6676 65.3173 37.5171 65.2838 37.3876 65.2167C37.2596 65.1496 37.1598 65.0599 37.088 64.9476C37.0178 64.8337 36.9827 64.7065 36.9827 64.5661C36.9827 64.4304 37.0092 64.311 37.0623 64.208C37.1153 64.1035 37.1918 64.0169 37.2916 63.9483C37.3915 63.8781 37.5116 63.825 37.652 63.7891C37.7924 63.7532 37.9492 63.7353 38.1224 63.7353H38.6256ZM40.678 64.9616C40.781 64.9616 40.8761 64.9405 40.9635 64.8984C41.0509 64.8563 41.1226 64.7986 41.1788 64.7252C41.235 64.6503 41.2669 64.5653 41.2747 64.4701H41.6866C41.6788 64.6199 41.6281 64.7596 41.5345 64.889C41.4425 65.017 41.3216 65.1207 41.1718 65.2003C41.022 65.2783 40.8574 65.3173 40.678 65.3173C40.4876 65.3173 40.3215 65.2838 40.1795 65.2167C40.0391 65.1496 39.9221 65.0575 39.8285 64.9405C39.7364 64.8235 39.667 64.6893 39.6202 64.538C39.5749 64.3851 39.5523 64.2236 39.5523 64.0536V63.9553C39.5523 63.7852 39.5749 63.6245 39.6202 63.4732C39.667 63.3203 39.7364 63.1853 39.8285 63.0683C39.9221 62.9513 40.0391 62.8593 40.1795 62.7922C40.3215 62.7251 40.4876 62.6915 40.678 62.6915C40.8761 62.6915 41.0493 62.7321 41.1975 62.8132C41.3457 62.8928 41.462 63.002 41.5462 63.1409C41.632 63.2782 41.6788 63.4342 41.6866 63.6089H41.2747C41.2669 63.5044 41.2373 63.41 41.1858 63.3258C41.1359 63.2415 41.0672 63.1744 40.9799 63.1245C40.8941 63.073 40.7934 63.0473 40.678 63.0473C40.5454 63.0473 40.4338 63.0738 40.3433 63.1268C40.2544 63.1783 40.1834 63.2485 40.1304 63.3375C40.0789 63.4248 40.0414 63.5223 40.018 63.63C39.9962 63.7361 39.9853 63.8445 39.9853 63.9553V64.0536C39.9853 64.1643 39.9962 64.2736 40.018 64.3812C40.0399 64.4889 40.0765 64.5864 40.128 64.6737C40.1811 64.7611 40.2521 64.8313 40.341 64.8844C40.4315 64.9359 40.5438 64.9616 40.678 64.9616ZM42.4659 62.7383L43.0206 63.6604L43.5822 62.7383H44.0901L43.2616 63.988L44.1158 65.2705H43.615L43.0299 64.3204L42.4449 65.2705H41.9417L42.7936 63.988L41.9675 62.7383H42.4659ZM44.3896 64.0325V63.9787C44.3896 63.7961 44.4162 63.6269 44.4692 63.4709C44.5222 63.3133 44.5987 63.1768 44.6985 63.0613C44.7984 62.9443 44.9193 62.8538 45.0613 62.7898C45.2033 62.7243 45.3624 62.6915 45.5387 62.6915C45.7166 62.6915 45.8765 62.7243 46.0185 62.7898C46.162 62.8538 46.2837 62.9443 46.3835 63.0613C46.4849 63.1768 46.5622 63.3133 46.6152 63.4709C46.6683 63.6269 46.6948 63.7961 46.6948 63.9787V64.0325C46.6948 64.2151 46.6683 64.3843 46.6152 64.5403C46.5622 64.6964 46.4849 64.8329 46.3835 64.9499C46.2837 65.0653 46.1628 65.1558 46.0208 65.2214C45.8804 65.2853 45.7212 65.3173 45.5434 65.3173C45.3655 65.3173 45.2056 65.2853 45.0636 65.2214C44.9216 65.1558 44.8 65.0653 44.6985 64.9499C44.5987 64.8329 44.5222 64.6964 44.4692 64.5403C44.4162 64.3843 44.3896 64.2151 44.3896 64.0325ZM44.8226 63.9787V64.0325C44.8226 64.1589 44.8374 64.2782 44.867 64.3906C44.8967 64.5013 44.9412 64.5996 45.0004 64.6854C45.0613 64.7713 45.137 64.8391 45.2274 64.889C45.3179 64.9374 45.4232 64.9616 45.5434 64.9616C45.662 64.9616 45.7657 64.9374 45.8546 64.889C45.9451 64.8391 46.02 64.7713 46.0793 64.6854C46.1386 64.5996 46.183 64.5013 46.2127 64.3906C46.2439 64.2782 46.2595 64.1589 46.2595 64.0325V63.9787C46.2595 63.8539 46.2439 63.7361 46.2127 63.6253C46.183 63.513 46.1378 63.4139 46.077 63.3281C46.0177 63.2407 45.9428 63.1721 45.8523 63.1222C45.7634 63.0722 45.6588 63.0473 45.5387 63.0473C45.4201 63.0473 45.3156 63.0722 45.2251 63.1222C45.1362 63.1721 45.0613 63.2407 45.0004 63.3281C44.9412 63.4139 44.8967 63.513 44.867 63.6253C44.8374 63.7361 44.8226 63.8539 44.8226 63.9787ZM47.5256 62.7383H47.9585L47.9211 63.6862C47.9117 63.9264 47.8844 64.1339 47.8392 64.3087C47.7939 64.4834 47.7362 64.6324 47.666 64.7557C47.5958 64.8773 47.517 64.9795 47.4296 65.0622C47.3438 65.1449 47.2549 65.2143 47.1628 65.2705H46.9475L46.9592 64.9171L47.0482 64.9148C47.0996 64.8539 47.1496 64.7915 47.1979 64.7276C47.2463 64.662 47.2908 64.5848 47.3313 64.4959C47.3719 64.4054 47.4054 64.2954 47.432 64.1659C47.46 64.0349 47.478 63.8749 47.4858 63.6862L47.5256 62.7383ZM47.6332 62.7383H49.1567V65.2705H48.7238V63.1385H47.6332V62.7383ZM46.8492 64.9148H49.482V66.017H49.0491V65.2705H47.2822V66.017H46.8469L46.8492 64.9148ZM50.3175 63.6089H51.0781C51.2825 63.6089 51.4549 63.6448 51.5953 63.7166C51.7357 63.7868 51.8418 63.8843 51.9136 64.0091C51.9869 64.1324 52.0236 64.2728 52.0236 64.4304C52.0236 64.5474 52.0033 64.6574 51.9627 64.7603C51.9221 64.8617 51.8613 64.9507 51.7802 65.0271C51.7006 65.1036 51.6015 65.1636 51.483 65.2073C51.3659 65.2494 51.231 65.2705 51.0781 65.2705H50.0016V62.7383H50.4345V64.9148H51.0781C51.2029 64.9148 51.3028 64.8922 51.3776 64.8469C51.4525 64.8017 51.5064 64.7432 51.5391 64.6714C51.5719 64.5996 51.5883 64.5247 51.5883 64.4467C51.5883 64.3703 51.5719 64.2954 51.5391 64.2221C51.5064 64.1487 51.4525 64.0879 51.3776 64.0395C51.3028 63.9896 51.2029 63.9646 51.0781 63.9646H50.3175V63.6089ZM52.9246 62.7383V65.2705H52.4916V62.7383H52.9246Z" fill="#8794BA"/>
<path d="M43.0744 95.4504V95.6657C43.0744 95.9215 43.0424 96.1509 42.9785 96.3537C42.9145 96.5565 42.8224 96.7289 42.7023 96.8709C42.5822 97.0129 42.4379 97.1213 42.2694 97.1962C42.1024 97.2711 41.9152 97.3085 41.7077 97.3085C41.5064 97.3085 41.3216 97.2711 41.1531 97.1962C40.9861 97.1213 40.841 97.0129 40.7178 96.8709C40.5961 96.7289 40.5017 96.5565 40.4346 96.3537C40.3675 96.1509 40.334 95.9215 40.334 95.6657V95.4504C40.334 95.1945 40.3667 94.9659 40.4323 94.7647C40.4993 94.5618 40.5937 94.3894 40.7154 94.2475C40.8371 94.1039 40.9814 93.9947 41.1484 93.9198C41.3169 93.8449 41.5018 93.8075 41.703 93.8075C41.9105 93.8075 42.0977 93.8449 42.2647 93.9198C42.4332 93.9947 42.5775 94.1039 42.6976 94.2475C42.8193 94.3894 42.9122 94.5618 42.9761 94.7647C43.0416 94.9659 43.0744 95.1945 43.0744 95.4504ZM42.6274 95.6657V95.4457C42.6274 95.2429 42.6064 95.0634 42.5642 94.9074C42.5237 94.7514 42.4636 94.6203 42.384 94.5143C42.3045 94.4082 42.207 94.3278 42.0915 94.2732C41.9776 94.2186 41.8481 94.1913 41.703 94.1913C41.5626 94.1913 41.4354 94.2186 41.3216 94.2732C41.2092 94.3278 41.1125 94.4082 41.0314 94.5143C40.9518 94.6203 40.8902 94.7514 40.8465 94.9074C40.8028 95.0634 40.781 95.2429 40.781 95.4457V95.6657C40.781 95.87 40.8028 96.051 40.8465 96.2086C40.8902 96.3646 40.9526 96.4965 41.0337 96.6041C41.1164 96.7102 41.2139 96.7905 41.3262 96.8452C41.4401 96.8998 41.5673 96.9271 41.7077 96.9271C41.8544 96.9271 41.9846 96.8998 42.0985 96.8452C42.2124 96.7905 42.3084 96.7102 42.3864 96.6041C42.4659 96.4965 42.526 96.3646 42.5666 96.2086C42.6071 96.051 42.6274 95.87 42.6274 95.6657ZM43.9777 94.7296L44.5324 95.6516L45.0941 94.7296H45.6019L44.7734 95.9793L45.6276 97.2617H45.1268L44.5418 96.3116L43.9567 97.2617H43.4535L44.3054 95.9793L43.4793 94.7296H43.9777ZM47.2518 96.1478H46.421L46.4163 95.8014H47.095C47.2291 95.8014 47.3407 95.7881 47.4296 95.7616C47.5201 95.7351 47.588 95.6953 47.6332 95.6423C47.6785 95.5892 47.7011 95.5237 47.7011 95.4457C47.7011 95.3848 47.6878 95.3318 47.6613 95.2865C47.6363 95.2397 47.5981 95.2015 47.5466 95.1719C47.4952 95.1407 47.4312 95.118 47.3547 95.104C47.2799 95.0884 47.1917 95.0806 47.0903 95.0806H46.5356V97.2617H46.1027V94.7296H47.0903C47.251 94.7296 47.3953 94.7436 47.5232 94.7717C47.6527 94.7998 47.7627 94.8427 47.8532 94.9004C47.9453 94.9566 48.0155 95.0283 48.0638 95.1157C48.1122 95.2031 48.1364 95.306 48.1364 95.4246C48.1364 95.5011 48.1208 95.5736 48.0896 95.6423C48.0584 95.7109 48.0124 95.7718 47.9515 95.8248C47.8907 95.8778 47.8158 95.9215 47.7268 95.9559C47.6379 95.9886 47.5357 96.0097 47.4203 96.019L47.2518 96.1478ZM47.2518 97.2617H46.2642L46.4795 96.9107H47.2518C47.3719 96.9107 47.4718 96.8959 47.5513 96.8662C47.6309 96.835 47.6902 96.7913 47.7292 96.7352C47.7697 96.6774 47.79 96.6088 47.79 96.5292C47.79 96.4496 47.7697 96.3818 47.7292 96.3256C47.6902 96.2679 47.6309 96.2242 47.5513 96.1946C47.4718 96.1634 47.3719 96.1478 47.2518 96.1478H46.5942L46.5988 95.8014H47.4203L47.5771 95.9325C47.7159 95.9434 47.8337 95.9777 47.9304 96.0354C48.0272 96.0932 48.1005 96.1665 48.1504 96.2554C48.2004 96.3428 48.2253 96.4379 48.2253 96.5409C48.2253 96.6595 48.2027 96.764 48.1574 96.8545C48.1138 96.945 48.0498 97.0207 47.9655 97.0815C47.8813 97.1408 47.7791 97.1861 47.659 97.2173C47.5388 97.2469 47.4031 97.2617 47.2518 97.2617ZM50.2988 96.8288V95.5252C50.2988 95.4254 50.2785 95.3388 50.2379 95.2655C50.1989 95.1906 50.1396 95.1329 50.0601 95.0923C49.9805 95.0517 49.8822 95.0315 49.7652 95.0315C49.656 95.0315 49.56 95.0502 49.4774 95.0876C49.3962 95.1251 49.3323 95.1742 49.2855 95.2351C49.2402 95.2959 49.2176 95.3614 49.2176 95.4316H48.7846C48.7846 95.3411 48.808 95.2514 48.8548 95.1625C48.9017 95.0736 48.9687 94.9932 49.0561 94.9215C49.145 94.8481 49.2511 94.7904 49.3744 94.7483C49.4992 94.7046 49.6381 94.6828 49.7909 94.6828C49.975 94.6828 50.1373 94.714 50.2777 94.7764C50.4197 94.8388 50.5305 94.9332 50.61 95.0595C50.6912 95.1844 50.7317 95.3411 50.7317 95.5299V96.7094C50.7317 96.7937 50.7388 96.8834 50.7528 96.9785C50.7684 97.0737 50.791 97.1556 50.8207 97.2243V97.2617H50.369C50.3471 97.2118 50.33 97.1455 50.3175 97.0628C50.305 96.9785 50.2988 96.9005 50.2988 96.8288ZM50.3737 95.7265L50.3784 96.0307H49.9407C49.8175 96.0307 49.7075 96.0409 49.6107 96.0612C49.514 96.0799 49.4329 96.1088 49.3674 96.1478C49.3018 96.1868 49.2519 96.2359 49.2176 96.2952C49.1833 96.3529 49.1661 96.4208 49.1661 96.4988C49.1661 96.5784 49.184 96.6509 49.2199 96.7164C49.2558 96.782 49.3096 96.8342 49.3814 96.8732C49.4547 96.9107 49.5444 96.9294 49.6505 96.9294C49.7831 96.9294 49.9002 96.9013 50.0016 96.8452C50.103 96.789 50.1833 96.7203 50.2426 96.6392C50.3035 96.5581 50.3362 96.4793 50.3409 96.4028L50.5258 96.6111C50.5149 96.6767 50.4852 96.7492 50.4369 96.8288C50.3885 96.9083 50.3237 96.9848 50.2426 97.0581C50.163 97.1299 50.0679 97.19 49.9571 97.2383C49.8479 97.2851 49.7246 97.3085 49.5873 97.3085C49.4157 97.3085 49.2652 97.275 49.1357 97.2079C49.0077 97.1408 48.9079 97.0511 48.8361 96.9388C48.7659 96.8249 48.7308 96.6977 48.7308 96.5573C48.7308 96.4216 48.7573 96.3022 48.8104 96.1992C48.8634 96.0947 48.9399 96.0081 49.0397 95.9395C49.1396 95.8693 49.2597 95.8162 49.4001 95.7803C49.5405 95.7445 49.6973 95.7265 49.8705 95.7265H50.3737ZM52.4074 94.7296V97.2617H51.9721V94.7296H52.4074ZM53.2569 94.7296V95.0806H51.1389V94.7296H53.2569Z" fill="#8794BA"/>
<path d="M35.733 127.298V130.705H35.2837V127.667H33.6034V130.705H33.1517V127.298H35.733ZM36.9195 128.66V131.679H36.4842V128.173H36.8821L36.9195 128.66ZM38.6256 129.418V129.467C38.6256 129.651 38.6037 129.822 38.5601 129.98C38.5164 130.136 38.4524 130.271 38.3681 130.387C38.2855 130.502 38.1833 130.592 38.0616 130.656C37.9399 130.72 37.8002 130.752 37.6427 130.752C37.482 130.752 37.34 130.725 37.2167 130.672C37.0935 130.619 36.989 130.542 36.9031 130.441C36.8173 130.339 36.7487 130.218 36.6972 130.076C36.6473 129.934 36.613 129.774 36.5942 129.596V129.334C36.613 129.146 36.6481 128.979 36.6995 128.831C36.751 128.682 36.8189 128.556 36.9031 128.451C36.989 128.345 37.0927 128.265 37.2144 128.21C37.3361 128.154 37.4765 128.126 37.6356 128.126C37.7948 128.126 37.936 128.157 38.0592 128.22C38.1825 128.281 38.2862 128.368 38.3705 128.482C38.4547 128.596 38.5179 128.732 38.5601 128.891C38.6037 129.049 38.6256 129.224 38.6256 129.418ZM38.1903 129.467V129.418C38.1903 129.292 38.177 129.173 38.1505 129.062C38.124 128.95 38.0826 128.852 38.0265 128.767C37.9719 128.682 37.9017 128.614 37.8158 128.566C37.73 128.516 37.6278 128.491 37.5093 128.491C37.4001 128.491 37.3049 128.51 37.2238 128.547C37.1442 128.585 37.0763 128.636 37.0202 128.699C36.964 128.762 36.918 128.834 36.8821 128.915C36.8478 128.994 36.822 129.077 36.8049 129.163V129.769C36.8361 129.878 36.8797 129.981 36.9359 130.078C36.9921 130.173 37.067 130.25 37.1606 130.31C37.2542 130.367 37.372 130.396 37.514 130.396C37.631 130.396 37.7316 130.372 37.8158 130.324C37.9017 130.274 37.9719 130.206 38.0265 130.12C38.0826 130.034 38.124 129.936 38.1505 129.825C38.177 129.713 38.1903 129.593 38.1903 129.467ZM39.0632 129.467V129.413C39.0632 129.231 39.0897 129.061 39.1428 128.905C39.1958 128.748 39.2723 128.611 39.3721 128.496C39.472 128.379 39.5929 128.288 39.7349 128.224C39.8768 128.159 40.036 128.126 40.2123 128.126C40.3901 128.126 40.55 128.159 40.692 128.224C40.8356 128.288 40.9573 128.379 41.0571 128.496C41.1585 128.611 41.2357 128.748 41.2888 128.905C41.3418 129.061 41.3684 129.231 41.3684 129.413V129.467C41.3684 129.65 41.3418 129.819 41.2888 129.975C41.2357 130.131 41.1585 130.267 41.0571 130.384C40.9573 130.5 40.8363 130.59 40.6944 130.656C40.5539 130.72 40.3948 130.752 40.217 130.752C40.0391 130.752 39.8792 130.72 39.7372 130.656C39.5952 130.59 39.4735 130.5 39.3721 130.384C39.2723 130.267 39.1958 130.131 39.1428 129.975C39.0897 129.819 39.0632 129.65 39.0632 129.467ZM39.4962 129.413V129.467C39.4962 129.593 39.511 129.713 39.5406 129.825C39.5703 129.936 39.6147 130.034 39.674 130.12C39.7349 130.206 39.8105 130.274 39.901 130.324C39.9915 130.372 40.0968 130.396 40.217 130.396C40.3355 130.396 40.4393 130.372 40.5282 130.324C40.6187 130.274 40.6936 130.206 40.7529 130.12C40.8122 130.034 40.8566 129.936 40.8863 129.825C40.9175 129.713 40.9331 129.593 40.9331 129.467V129.413C40.9331 129.288 40.9175 129.171 40.8863 129.06C40.8566 128.948 40.8114 128.848 40.7505 128.763C40.6912 128.675 40.6164 128.607 40.5259 128.557C40.4369 128.507 40.3324 128.482 40.2123 128.482C40.0937 128.482 39.9892 128.507 39.8987 128.557C39.8097 128.607 39.7349 128.675 39.674 128.763C39.6147 128.848 39.5703 128.948 39.5406 129.06C39.511 129.171 39.4962 129.288 39.4962 129.413ZM42.1992 128.173H42.6321L42.5947 129.121C42.5853 129.361 42.558 129.568 42.5127 129.743C42.4675 129.918 42.4098 130.067 42.3396 130.19C42.2694 130.312 42.1906 130.414 42.1032 130.497C42.0174 130.579 41.9285 130.649 41.8364 130.705H41.6211L41.6328 130.352L41.7217 130.349C41.7732 130.289 41.8231 130.226 41.8715 130.162C41.9199 130.097 41.9643 130.019 42.0049 129.93C42.0455 129.84 42.079 129.73 42.1055 129.6C42.1336 129.469 42.1516 129.31 42.1594 129.121L42.1992 128.173ZM42.3068 128.173H43.8303V130.705H43.3974V128.573H42.3068V128.173ZM41.5228 130.349H44.1556V131.452H43.7227V130.705H41.9558V131.452H41.5205L41.5228 130.349ZM46.1284 130.272V128.969C46.1284 128.869 46.1082 128.782 46.0676 128.709C46.0286 128.634 45.9693 128.576 45.8897 128.536C45.8102 128.495 45.7119 128.475 45.5949 128.475C45.4857 128.475 45.3897 128.494 45.307 128.531C45.2259 128.568 45.1619 128.618 45.1151 128.678C45.0699 128.739 45.0472 128.805 45.0472 128.875H44.6143C44.6143 128.785 44.6377 128.695 44.6845 128.606C44.7313 128.517 44.7984 128.437 44.8858 128.365C44.9747 128.291 45.0808 128.234 45.204 128.192C45.3289 128.148 45.4677 128.126 45.6206 128.126C45.8047 128.126 45.967 128.157 46.1074 128.22C46.2494 128.282 46.3601 128.377 46.4397 128.503C46.5208 128.628 46.5614 128.785 46.5614 128.973V130.153C46.5614 130.237 46.5684 130.327 46.5825 130.422C46.5981 130.517 46.6207 130.599 46.6503 130.668V130.705H46.1986C46.1768 130.655 46.1596 130.589 46.1472 130.506C46.1347 130.422 46.1284 130.344 46.1284 130.272ZM46.2033 129.17L46.208 129.474H45.7704C45.6471 129.474 45.5371 129.484 45.4404 129.505C45.3437 129.523 45.2625 129.552 45.197 129.591C45.1315 129.63 45.0816 129.679 45.0472 129.739C45.0129 129.796 44.9958 129.864 44.9958 129.942C44.9958 130.022 45.0137 130.094 45.0496 130.16C45.0855 130.225 45.1393 130.278 45.2111 130.317C45.2844 130.354 45.3741 130.373 45.4802 130.373C45.6128 130.373 45.7298 130.345 45.8312 130.289C45.9326 130.232 46.013 130.164 46.0723 130.083C46.1331 130.001 46.1659 129.923 46.1706 129.846L46.3554 130.054C46.3445 130.12 46.3149 130.193 46.2665 130.272C46.2182 130.352 46.1534 130.428 46.0723 130.501C45.9927 130.573 45.8975 130.633 45.7868 130.682C45.6776 130.728 45.5543 130.752 45.417 130.752C45.2454 130.752 45.0948 130.718 44.9653 130.651C44.8374 130.584 44.7375 130.494 44.6658 130.382C44.5956 130.268 44.5605 130.141 44.5605 130.001C44.5605 129.865 44.587 129.746 44.64 129.643C44.6931 129.538 44.7695 129.451 44.8694 129.383C44.9692 129.313 45.0894 129.26 45.2298 129.224C45.3702 129.188 45.527 129.17 45.7002 129.17H46.2033ZM48.01 129.603L47.0505 128.173H47.5724L48.2277 129.221H48.7331L48.67 129.603H48.01ZM48.2464 129.558L47.5115 130.705H46.9639L47.9726 129.245L48.2464 129.558ZM48.9555 128.173V130.705H48.5225V128.173H48.9555ZM50.4322 128.173L49.4727 129.603H48.8127L48.7449 129.221H49.2527L49.908 128.173H50.4322ZM49.9688 130.705L49.2316 129.558L49.5101 129.245L50.5164 130.705H49.9688ZM51.3847 130.019L52.5524 128.173H52.9877V130.705H52.5524V128.859L51.3847 130.705H50.9541V128.173H51.3847V130.019Z" fill="#8794BA"/>
<path d="M40.0414 160.885V161.1C40.0414 161.356 40.0095 161.585 39.9455 161.788C39.8815 161.991 39.7895 162.163 39.6693 162.305C39.5492 162.447 39.4049 162.556 39.2364 162.631C39.0694 162.706 38.8822 162.743 38.6747 162.743C38.4735 162.743 38.2886 162.706 38.1201 162.631C37.9531 162.556 37.808 162.447 37.6848 162.305C37.5631 162.163 37.4687 161.991 37.4016 161.788C37.3345 161.585 37.301 161.356 37.301 161.1V160.885C37.301 160.629 37.3338 160.4 37.3993 160.199C37.4664 159.996 37.5608 159.824 37.6825 159.682C37.8041 159.539 37.9485 159.429 38.1154 159.354C38.2839 159.28 38.4688 159.242 38.67 159.242C38.8775 159.242 39.0648 159.28 39.2317 159.354C39.4002 159.429 39.5445 159.539 39.6647 159.682C39.7863 159.824 39.8792 159.996 39.9431 160.199C40.0087 160.4 40.0414 160.629 40.0414 160.885ZM39.5944 161.1V160.88C39.5944 160.677 39.5734 160.498 39.5313 160.342C39.4907 160.186 39.4306 160.055 39.3511 159.949C39.2715 159.843 39.174 159.762 39.0585 159.708C38.9446 159.653 38.8151 159.626 38.67 159.626C38.5296 159.626 38.4025 159.653 38.2886 159.708C38.1762 159.762 38.0795 159.843 37.9984 159.949C37.9188 160.055 37.8572 160.186 37.8135 160.342C37.7698 160.498 37.748 160.677 37.748 160.88V161.1C37.748 161.305 37.7698 161.486 37.8135 161.643C37.8572 161.799 37.9196 161.931 38.0007 162.039C38.0834 162.145 38.1809 162.225 38.2933 162.28C38.4072 162.334 38.5343 162.362 38.6747 162.362C38.8214 162.362 38.9517 162.334 39.0655 162.28C39.1794 162.225 39.2754 162.145 39.3534 162.039C39.433 161.931 39.493 161.799 39.5336 161.643C39.5742 161.486 39.5944 161.305 39.5944 161.1ZM41.6843 160.164V162.696H41.249V160.164H41.6843ZM42.5338 160.164V160.515H40.4159V160.164H42.5338ZM43.4301 160.164V162.696H42.9972V160.164H43.4301ZM45.0917 160.164L43.8912 161.615H43.285L43.2195 161.236H43.7156L44.5652 160.164H45.0917ZM44.626 162.696L43.6946 161.55L43.9731 161.236L45.176 162.696H44.626ZM47.2447 160.164V160.522H46.0208V160.164H47.2447ZM47.6262 160.164V162.696H47.1933V160.164H47.6262ZM45.9155 160.164H46.3508L46.2852 161.386C46.2743 161.575 46.2564 161.741 46.2314 161.887C46.208 162.03 46.1752 162.153 46.1331 162.256C46.0926 162.359 46.0411 162.444 45.9787 162.509C45.9178 162.573 45.8445 162.621 45.7587 162.652C45.6729 162.681 45.5738 162.696 45.4615 162.696H45.3257V162.315L45.4193 162.308C45.4864 162.303 45.5434 162.288 45.5902 162.261C45.6385 162.234 45.6791 162.195 45.7119 162.144C45.7446 162.091 45.7712 162.023 45.7914 161.94C45.8133 161.858 45.8297 161.759 45.8406 161.646C45.8531 161.532 45.8624 161.399 45.8687 161.248L45.9155 160.164ZM48.7917 162.011L49.9594 160.164H50.3947V162.696H49.9594V160.85L48.7917 162.696H48.361V160.164H48.7917V162.011ZM51.5602 160.164V162.696H51.1272V160.164H51.5602ZM53.2218 160.164L52.0212 161.615H51.4151L51.3496 161.236H51.8457L52.6952 160.164H53.2218ZM52.7561 162.696L51.8246 161.55L52.1031 161.236L53.306 162.696H52.7561Z" fill="#8794BA"/>
<path d="M38.8409 191.279V194.687H38.3916V191.649H36.7112V194.687H36.2596V191.279H38.8409ZM39.4798 193.449V193.395C39.4798 193.212 39.5063 193.043 39.5593 192.887C39.6124 192.729 39.6888 192.593 39.7887 192.477C39.8885 192.36 40.0095 192.27 40.1514 192.206C40.2934 192.14 40.4525 192.108 40.6288 192.108C40.8067 192.108 40.9666 192.14 41.1086 192.206C41.2521 192.27 41.3738 192.36 41.4737 192.477C41.5751 192.593 41.6523 192.729 41.7054 192.887C41.7584 193.043 41.7849 193.212 41.7849 193.395V193.449C41.7849 193.631 41.7584 193.8 41.7054 193.956C41.6523 194.112 41.5751 194.249 41.4737 194.366C41.3738 194.481 41.2529 194.572 41.1109 194.637C40.9705 194.701 40.8114 194.733 40.6335 194.733C40.4557 194.733 40.2957 194.701 40.1538 194.637C40.0118 194.572 39.8901 194.481 39.7887 194.366C39.6888 194.249 39.6124 194.112 39.5593 193.956C39.5063 193.8 39.4798 193.631 39.4798 193.449ZM39.9127 193.395V193.449C39.9127 193.575 39.9275 193.694 39.9572 193.807C39.9868 193.917 40.0313 194.016 40.0906 194.101C40.1514 194.187 40.2271 194.255 40.3176 194.305C40.4081 194.353 40.5134 194.378 40.6335 194.378C40.7521 194.378 40.8558 194.353 40.9448 194.305C41.0353 194.255 41.1102 194.187 41.1694 194.101C41.2287 194.016 41.2732 193.917 41.3028 193.807C41.334 193.694 41.3496 193.575 41.3496 193.449V193.395C41.3496 193.27 41.334 193.152 41.3028 193.041C41.2732 192.929 41.2279 192.83 41.1671 192.744C41.1078 192.657 41.0329 192.588 40.9424 192.538C40.8535 192.488 40.749 192.463 40.6288 192.463C40.5103 192.463 40.4057 192.488 40.3152 192.538C40.2263 192.588 40.1514 192.657 40.0906 192.744C40.0313 192.83 39.9868 192.929 39.9572 193.041C39.9275 193.152 39.9127 193.27 39.9127 193.395ZM42.7983 192.154V194.687H42.3653V192.154H42.7983ZM44.4598 192.154L43.2593 193.605H42.6532L42.5876 193.226H43.0838L43.9333 192.154H44.4598ZM43.9941 194.687L43.0627 193.54L43.3412 193.226L44.5441 194.687H43.9941ZM46.414 194.254V192.95C46.414 192.85 46.3937 192.764 46.3531 192.69C46.3141 192.615 46.2548 192.558 46.1752 192.517C46.0957 192.477 45.9974 192.456 45.8804 192.456C45.7712 192.456 45.6752 192.475 45.5925 192.512C45.5114 192.55 45.4474 192.599 45.4006 192.66C45.3554 192.721 45.3328 192.786 45.3328 192.856H44.8998C44.8998 192.766 44.9232 192.676 44.97 192.587C45.0168 192.498 45.0839 192.418 45.1713 192.346C45.2602 192.273 45.3663 192.215 45.4896 192.173C45.6144 192.129 45.7532 192.108 45.9061 192.108C46.0902 192.108 46.2525 192.139 46.3929 192.201C46.5349 192.264 46.6456 192.358 46.7252 192.484C46.8063 192.609 46.8469 192.766 46.8469 192.955V194.134C46.8469 194.218 46.8539 194.308 46.868 194.403C46.8836 194.499 46.9062 194.58 46.9358 194.649V194.687H46.4842C46.4623 194.637 46.4452 194.57 46.4327 194.488C46.4202 194.403 46.414 194.325 46.414 194.254ZM46.4888 193.151L46.4935 193.456H46.0559C45.9326 193.456 45.8227 193.466 45.7259 193.486C45.6292 193.505 45.5481 193.534 45.4825 193.573C45.417 193.612 45.3671 193.661 45.3328 193.72C45.2984 193.778 45.2813 193.846 45.2813 193.924C45.2813 194.003 45.2992 194.076 45.3351 194.141C45.371 194.207 45.4248 194.259 45.4966 194.298C45.5699 194.335 45.6596 194.354 45.7657 194.354C45.8983 194.354 46.0153 194.326 46.1167 194.27C46.2182 194.214 46.2985 194.145 46.3578 194.064C46.4186 193.983 46.4514 193.904 46.4561 193.828L46.641 194.036C46.63 194.101 46.6004 194.174 46.552 194.254C46.5037 194.333 46.4389 194.41 46.3578 194.483C46.2782 194.555 46.183 194.615 46.0723 194.663C45.9631 194.71 45.8398 194.733 45.7025 194.733C45.5309 194.733 45.3803 194.7 45.2508 194.633C45.1229 194.566 45.0231 194.476 44.9513 194.364C44.8811 194.25 44.846 194.123 44.846 193.982C44.846 193.846 44.8725 193.727 44.9256 193.624C44.9786 193.52 45.055 193.433 45.1549 193.364C45.2547 193.294 45.3749 193.241 45.5153 193.205C45.6557 193.169 45.8125 193.151 45.9857 193.151H46.4888ZM48.4734 193.477H48.0077V193.21H48.4383C48.5584 193.21 48.6536 193.195 48.7238 193.165C48.794 193.134 48.8439 193.091 48.8736 193.037C48.9032 192.982 48.918 192.918 48.918 192.845C48.918 192.779 48.9009 192.718 48.8665 192.66C48.8338 192.601 48.7807 192.553 48.7074 192.517C48.6341 192.48 48.5358 192.461 48.4125 192.461C48.3127 192.461 48.2222 192.479 48.1411 192.515C48.0599 192.549 47.9952 192.597 47.9468 192.658C47.9 192.717 47.8766 192.784 47.8766 192.859H47.4437C47.4437 192.704 47.4874 192.572 47.5747 192.461C47.6637 192.349 47.7814 192.262 47.9281 192.201C48.0763 192.14 48.2378 192.11 48.4125 192.11C48.5592 192.11 48.6902 192.126 48.8057 192.159C48.9227 192.19 49.0218 192.237 49.1029 192.299C49.184 192.36 49.2457 192.437 49.2878 192.529C49.3315 192.619 49.3533 192.725 49.3533 192.845C49.3533 192.931 49.333 193.012 49.2925 193.088C49.2519 193.165 49.1934 193.232 49.117 193.292C49.0405 193.349 48.9477 193.395 48.8385 193.427C48.7308 193.46 48.6091 193.477 48.4734 193.477ZM48.0077 193.313H48.4734C48.6247 193.313 48.7581 193.328 48.8736 193.357C48.989 193.385 49.0857 193.427 49.1638 193.484C49.2418 193.54 49.3003 193.609 49.3393 193.692C49.3798 193.773 49.4001 193.867 49.4001 193.973C49.4001 194.091 49.3759 194.198 49.3276 194.293C49.2808 194.387 49.2137 194.467 49.1263 194.532C49.0389 194.598 48.9344 194.648 48.8127 194.682C48.6926 194.716 48.5592 194.733 48.4125 194.733C48.2487 194.733 48.0896 194.705 47.9351 194.649C47.7807 194.593 47.6535 194.506 47.5537 194.389C47.4538 194.271 47.4039 194.12 47.4039 193.938H47.8368C47.8368 194.014 47.861 194.087 47.9094 194.155C47.9577 194.224 48.0248 194.279 48.1106 194.321C48.198 194.364 48.2986 194.385 48.4125 194.385C48.5342 194.385 48.6356 194.366 48.7168 194.328C48.7979 194.291 48.8587 194.241 48.8993 194.179C48.9414 194.116 48.9625 194.048 48.9625 193.975C48.9625 193.88 48.9438 193.803 48.9063 193.746C48.8689 193.688 48.8112 193.646 48.7331 193.619C48.6567 193.591 48.5584 193.577 48.4383 193.577H48.0077V193.313ZM50.3175 193.025H51.0781C51.2825 193.025 51.4549 193.061 51.5953 193.133C51.7357 193.203 51.8418 193.3 51.9136 193.425C51.9869 193.548 52.0236 193.689 52.0236 193.846C52.0236 193.963 52.0033 194.073 51.9627 194.176C51.9221 194.278 51.8613 194.367 51.7802 194.443C51.7006 194.52 51.6015 194.58 51.483 194.623C51.3659 194.665 51.231 194.687 51.0781 194.687H50.0016V192.154H50.4345V194.331H51.0781C51.2029 194.331 51.3028 194.308 51.3776 194.263C51.4525 194.218 51.5064 194.159 51.5391 194.087C51.5719 194.016 51.5883 193.941 51.5883 193.863C51.5883 193.786 51.5719 193.711 51.5391 193.638C51.5064 193.565 51.4525 193.504 51.3776 193.456C51.3028 193.406 51.2029 193.381 51.0781 193.381H50.3175V193.025ZM52.9246 192.154V194.687H52.4916V192.154H52.9246Z" fill="#8794BA"/>
<path d="M60.2969 57.0654H209.267C211.031 57.0654 212.461 58.4956 212.461 60.2597V60.2597C212.461 62.0239 211.031 63.454 209.267 63.454H60.2969V57.0654Z" fill="#EF2A82"/>
<path d="M60.2969 90.1699H158.739C160.503 90.1699 161.933 91.6 161.933 93.3642V93.3642C161.933 95.1284 160.503 96.5585 158.739 96.5585H60.2969V90.1699Z" fill="#EF2A82"/>
<path d="M60.2969 123.275H66.395C68.1592 123.275 69.5893 124.706 69.5893 126.47V126.47C69.5893 128.234 68.1592 129.664 66.395 129.664H60.2969V123.275Z" fill="#EF2A82"/>
<path d="M60.2969 156.378H84.98C86.7441 156.378 88.1742 157.808 88.1742 159.572V159.572C88.1742 161.336 86.7441 162.766 84.98 162.766H60.2969V156.378Z" fill="#EF2A82"/>
<path d="M60.2969 189.483H177.904C179.669 189.483 181.099 190.914 181.099 192.678V192.678C181.099 194.442 179.669 195.872 177.904 195.872H60.2969V189.483Z" fill="#EF2A82"/>
<path d="M60.2969 65.1973H143.058C144.822 65.1973 146.252 66.6274 146.252 68.3915V68.3915C146.252 70.1557 144.822 71.5858 143.058 71.5858H60.2969V65.1973Z" fill="#0088F0"/>
<path d="M60.2969 98.2998H177.904C179.669 98.2998 181.099 99.7299 181.099 101.494V101.494C181.099 103.258 179.669 104.688 177.904 104.688H60.2969V98.2998Z" fill="#0088F0"/>
<path d="M60.2969 131.405H84.98C86.7441 131.405 88.1742 132.835 88.1742 134.6V134.6C88.1742 136.364 86.7441 137.794 84.98 137.794H60.2969V131.405Z" fill="#0088F0"/>
<path d="M60.2969 164.51H253.986C255.751 164.51 257.181 165.94 257.181 167.704V167.704C257.181 169.468 255.751 170.898 253.986 170.898H60.2969V164.51Z" fill="#0088F0"/>
<path d="M60.2969 197.613H287.091C288.855 197.613 290.285 199.043 290.285 200.808V200.808C290.285 202.572 288.855 204.002 287.091 204.002H60.2969V197.613Z" fill="#0088F0"/>
<path d="M25.386 29C25.2833 29 25.1993 28.9673 25.134 28.902C25.0687 28.8367 25.036 28.7527 25.036 28.65V19.55C25.036 19.4473 25.0687 19.3633 25.134 19.298C25.1993 19.2327 25.2833 19.2 25.386 19.2H32.932C33.0347 19.2 33.1187 19.2327 33.184 19.298C33.2493 19.3633 33.282 19.4473 33.282 19.55V28.65C33.282 28.7527 33.2493 28.8367 33.184 28.902C33.1187 28.9673 33.0347 29 32.932 29H31.406C31.3033 29 31.2193 28.9673 31.154 28.902C31.0887 28.8367 31.056 28.7527 31.056 28.65V21.188H27.262V28.65C27.262 28.7527 27.2293 28.8367 27.164 28.902C27.0987 28.9673 27.0147 29 26.912 29H25.386ZM35.0223 29C34.9289 29 34.8449 28.9673 34.7703 28.902C34.7049 28.8273 34.6723 28.7433 34.6723 28.65V27.6C34.6723 27.3947 34.7843 27.2827 35.0083 27.264C35.2789 27.236 35.4889 27.11 35.6383 26.886C35.7969 26.6527 35.9089 26.298 35.9743 25.822C36.0396 25.346 36.0723 24.7347 36.0723 23.988V22.07C36.0723 21.9673 36.1049 21.8833 36.1703 21.818C36.2356 21.7527 36.3196 21.72 36.4223 21.72H41.6443C41.7469 21.72 41.8309 21.7527 41.8963 21.818C41.9616 21.8833 41.9943 21.9673 41.9943 22.07V28.65C41.9943 28.7527 41.9616 28.8367 41.8963 28.902C41.8309 28.9673 41.7469 29 41.6443 29H40.2443C40.1509 29 40.0669 28.9673 39.9923 28.902C39.9269 28.8367 39.8943 28.7527 39.8943 28.65V23.372H38.0743V24.226C38.0743 25.1127 38.0229 25.864 37.9203 26.48C37.8269 27.096 37.6636 27.5907 37.4303 27.964C37.1969 28.328 36.8843 28.594 36.4923 28.762C36.1003 28.9207 35.6103 29 35.0223 29ZM45.9459 29.14C45.4512 29.14 45.0079 29.0467 44.6159 28.86C44.2239 28.664 43.9112 28.4027 43.6779 28.076C43.4445 27.7493 43.3279 27.3853 43.3279 26.984C43.3279 26.3213 43.5939 25.7987 44.1259 25.416C44.6672 25.0333 45.3765 24.772 46.2539 24.632L48.0879 24.366V24.114C48.0879 23.75 48.0039 23.47 47.8359 23.274C47.6679 23.078 47.3739 22.98 46.9539 22.98C46.6459 22.98 46.3985 23.0407 46.2119 23.162C46.0252 23.2833 45.8805 23.442 45.7779 23.638C45.7032 23.7593 45.5959 23.82 45.4559 23.82H44.1259C44.0232 23.82 43.9439 23.792 43.8879 23.736C43.8319 23.6707 43.8085 23.596 43.8179 23.512C43.8179 23.3533 43.8785 23.1667 43.9999 22.952C44.1212 22.7373 44.3079 22.5273 44.5599 22.322C44.8119 22.1073 45.1339 21.93 45.5259 21.79C45.9179 21.65 46.3985 21.58 46.9679 21.58C47.5559 21.58 48.0599 21.65 48.4799 21.79C48.8999 21.93 49.2359 22.126 49.4879 22.378C49.7399 22.63 49.9265 22.924 50.0479 23.26C50.1692 23.5867 50.2299 23.9413 50.2299 24.324V28.65C50.2299 28.7527 50.1972 28.8367 50.1319 28.902C50.0665 28.9673 49.9825 29 49.8799 29H48.5079C48.4145 29 48.3352 28.9673 48.2699 28.902C48.2045 28.8367 48.1719 28.7527 48.1719 28.65V28.132C48.0505 28.3093 47.8872 28.4773 47.6819 28.636C47.4765 28.7853 47.2292 28.9067 46.9399 29C46.6599 29.0933 46.3285 29.14 45.9459 29.14ZM46.5059 27.684C46.8139 27.684 47.0892 27.6187 47.3319 27.488C47.5745 27.3573 47.7659 27.1567 47.9059 26.886C48.0459 26.6153 48.1159 26.2747 48.1159 25.864V25.626L46.8139 25.836C46.3099 25.92 45.9412 26.046 45.7079 26.214C45.4745 26.382 45.3579 26.5873 45.3579 26.83C45.3579 27.0073 45.4092 27.1613 45.5119 27.292C45.6239 27.4227 45.7685 27.5207 45.9459 27.586C46.1232 27.6513 46.3099 27.684 46.5059 27.684ZM52.261 29C52.1676 29 52.0883 28.9673 52.023 28.902C51.9576 28.8367 51.925 28.7527 51.925 28.65V22.07C51.925 21.9673 51.9576 21.8833 52.023 21.818C52.0883 21.7527 52.1676 21.72 52.261 21.72H53.661C53.7636 21.72 53.8476 21.7527 53.913 21.818C53.9783 21.8833 54.011 21.9673 54.011 22.07V24.478H56.853V22.07C56.853 21.9673 56.8856 21.8833 56.951 21.818C57.0163 21.7527 57.1003 21.72 57.203 21.72H58.603C58.6963 21.72 58.7756 21.7527 58.841 21.818C58.9063 21.8833 58.939 21.9673 58.939 22.07V28.65C58.939 28.7527 58.9063 28.8367 58.841 28.902C58.7756 28.9673 58.6963 29 58.603 29H57.203C57.1003 29 57.0163 28.9673 56.951 28.902C56.8856 28.8367 56.853 28.7527 56.853 28.65V26.13H54.011V28.65C54.011 28.7527 53.9783 28.8367 53.913 28.902C53.8476 28.9673 53.7636 29 53.661 29H52.261Z" fill="#EF2A82"/>
<path d="M63.5812 30.176C63.4972 30.176 63.4272 30.1433 63.3712 30.078C63.3152 30.022 63.2872 29.9567 63.2872 29.882C63.2872 29.8353 63.2965 29.7887 63.3152 29.742L68.0752 18.318C68.1032 18.2433 68.1498 18.1733 68.2152 18.108C68.2898 18.0333 68.3972 17.996 68.5372 17.996H69.6152C69.6992 17.996 69.7692 18.0287 69.8252 18.094C69.8812 18.15 69.9092 18.2153 69.9092 18.29C69.9092 18.3273 69.8998 18.374 69.8812 18.43L65.1072 29.854C65.0792 29.9193 65.0278 29.9893 64.9532 30.064C64.8878 30.1387 64.7805 30.176 64.6312 30.176H63.5812ZM112.527 29C112.433 29 112.354 28.9673 112.289 28.902C112.223 28.8367 112.191 28.7527 112.191 28.65V22.07C112.191 21.9673 112.223 21.8833 112.289 21.818C112.354 21.7527 112.433 21.72 112.527 21.72H118.729C118.822 21.72 118.901 21.7527 118.967 21.818C119.032 21.8833 119.065 21.9673 119.065 22.07V28.65C119.065 28.7527 119.032 28.8367 118.967 28.902C118.901 28.9673 118.822 29 118.729 29H117.329C117.226 29 117.142 28.9673 117.077 28.902C117.011 28.8367 116.979 28.7527 116.979 28.65V23.372H114.277V28.65C114.277 28.7527 114.244 28.8367 114.179 28.902C114.113 28.9673 114.029 29 113.927 29H112.527ZM124.218 29.14C123.443 29.14 122.795 29.014 122.272 28.762C121.749 28.5007 121.348 28.132 121.068 27.656C120.797 27.18 120.648 26.6247 120.62 25.99C120.611 25.8033 120.606 25.5933 120.606 25.36C120.606 25.1173 120.611 24.9073 120.62 24.73C120.648 24.086 120.807 23.5307 121.096 23.064C121.385 22.588 121.791 22.224 122.314 21.972C122.837 21.7107 123.471 21.58 124.218 21.58C124.955 21.58 125.585 21.7107 126.108 21.972C126.631 22.224 127.037 22.588 127.326 23.064C127.615 23.5307 127.774 24.086 127.802 24.73C127.821 24.9073 127.83 25.1173 127.83 25.36C127.83 25.5933 127.821 25.8033 127.802 25.99C127.774 26.6247 127.62 27.18 127.34 27.656C127.069 28.132 126.673 28.5007 126.15 28.762C125.627 29.014 124.983 29.14 124.218 29.14ZM124.218 27.6C124.675 27.6 125.021 27.46 125.254 27.18C125.487 26.8907 125.613 26.4707 125.632 25.92C125.641 25.78 125.646 25.5933 125.646 25.36C125.646 25.1267 125.641 24.94 125.632 24.8C125.613 24.2587 125.487 23.8433 125.254 23.554C125.021 23.2647 124.675 23.12 124.218 23.12C123.761 23.12 123.411 23.2647 123.168 23.554C122.935 23.8433 122.809 24.2587 122.79 24.8C122.781 24.94 122.776 25.1267 122.776 25.36C122.776 25.5933 122.781 25.78 122.79 25.92C122.809 26.4707 122.935 26.8907 123.168 27.18C123.411 27.46 123.761 27.6 124.218 27.6ZM132.72 29C132.627 29 132.547 28.9673 132.482 28.902C132.417 28.8367 132.384 28.7527 132.384 28.65V22.07C132.384 21.9673 132.417 21.8833 132.482 21.818C132.547 21.7527 132.627 21.72 132.72 21.72H134.092C134.195 21.72 134.279 21.7527 134.344 21.818C134.409 21.8833 134.442 21.9673 134.442 22.07V24.478H135.324L136.948 21.944C136.976 21.888 137.018 21.8367 137.074 21.79C137.139 21.7433 137.223 21.72 137.326 21.72H138.852C138.936 21.72 139.006 21.748 139.062 21.804C139.127 21.8507 139.16 21.9113 139.16 21.986C139.16 22.014 139.151 22.0467 139.132 22.084C139.123 22.1213 139.109 22.154 139.09 22.182L137.116 25.234L139.398 28.552C139.435 28.608 139.454 28.6687 139.454 28.734C139.454 28.8087 139.426 28.874 139.37 28.93C139.314 28.9767 139.244 29 139.16 29H137.466C137.373 29 137.293 28.9813 137.228 28.944C137.172 28.8973 137.121 28.8413 137.074 28.776L135.31 26.144H134.442V28.65C134.442 28.7527 134.409 28.8367 134.344 28.902C134.279 28.9673 134.195 29 134.092 29H132.72ZM142.756 29.14C142.262 29.14 141.818 29.0467 141.426 28.86C141.034 28.664 140.722 28.4027 140.488 28.076C140.255 27.7493 140.138 27.3853 140.138 26.984C140.138 26.3213 140.404 25.7987 140.936 25.416C141.478 25.0333 142.187 24.772 143.064 24.632L144.898 24.366V24.114C144.898 23.75 144.814 23.47 144.646 23.274C144.478 23.078 144.184 22.98 143.764 22.98C143.456 22.98 143.209 23.0407 143.022 23.162C142.836 23.2833 142.691 23.442 142.588 23.638C142.514 23.7593 142.406 23.82 142.266 23.82H140.936C140.834 23.82 140.754 23.792 140.698 23.736C140.642 23.6707 140.619 23.596 140.628 23.512C140.628 23.3533 140.689 23.1667 140.81 22.952C140.932 22.7373 141.118 22.5273 141.37 22.322C141.622 22.1073 141.944 21.93 142.336 21.79C142.728 21.65 143.209 21.58 143.778 21.58C144.366 21.58 144.87 21.65 145.29 21.79C145.71 21.93 146.046 22.126 146.298 22.378C146.55 22.63 146.737 22.924 146.858 23.26C146.98 23.5867 147.04 23.9413 147.04 24.324V28.65C147.04 28.7527 147.008 28.8367 146.942 28.902C146.877 28.9673 146.793 29 146.69 29H145.318C145.225 29 145.146 28.9673 145.08 28.902C145.015 28.8367 144.982 28.7527 144.982 28.65V28.132C144.861 28.3093 144.698 28.4773 144.492 28.636C144.287 28.7853 144.04 28.9067 143.75 29C143.47 29.0933 143.139 29.14 142.756 29.14ZM143.316 27.684C143.624 27.684 143.9 27.6187 144.142 27.488C144.385 27.3573 144.576 27.1567 144.716 26.886C144.856 26.6153 144.926 26.2747 144.926 25.864V25.626L143.624 25.836C143.12 25.92 142.752 26.046 142.518 26.214C142.285 26.382 142.168 26.5873 142.168 26.83C142.168 27.0073 142.22 27.1613 142.322 27.292C142.434 27.4227 142.579 27.5207 142.756 27.586C142.934 27.6513 143.12 27.684 143.316 27.684ZM149.03 29C148.946 29 148.876 28.972 148.82 28.916C148.764 28.86 148.736 28.79 148.736 28.706V22C148.736 21.9253 148.764 21.86 148.82 21.804C148.876 21.748 148.941 21.72 149.016 21.72H150.388C150.556 21.72 150.686 21.804 150.78 21.972L152.824 25.626L154.854 21.972C154.947 21.804 155.078 21.72 155.246 21.72H156.632C156.706 21.72 156.772 21.748 156.828 21.804C156.884 21.86 156.912 21.9253 156.912 22V28.706C156.912 28.79 156.884 28.86 156.828 28.916C156.772 28.972 156.702 29 156.618 29H155.148C155.054 29 154.98 28.972 154.924 28.916C154.877 28.86 154.854 28.79 154.854 28.706V23.876L155.484 24.002L153.496 27.572C153.449 27.656 153.393 27.7307 153.328 27.796C153.272 27.8613 153.188 27.894 153.076 27.894H152.558C152.455 27.894 152.371 27.866 152.306 27.81C152.24 27.7447 152.18 27.6653 152.124 27.572L150.192 24.128L150.78 24.002V28.706C150.78 28.79 150.752 28.86 150.696 28.916C150.64 28.972 150.57 29 150.486 29H149.03ZM159.052 29C158.959 29 158.879 28.9673 158.814 28.902C158.749 28.8367 158.716 28.7527 158.716 28.65V22.07C158.716 21.9673 158.749 21.8833 158.814 21.818C158.879 21.7527 158.959 21.72 159.052 21.72H165.254C165.347 21.72 165.427 21.7527 165.492 21.818C165.557 21.8833 165.59 21.9673 165.59 22.07V28.65C165.59 28.7527 165.557 28.8367 165.492 28.902C165.427 28.9673 165.347 29 165.254 29H163.854C163.751 29 163.667 28.9673 163.602 28.902C163.537 28.8367 163.504 28.7527 163.504 28.65V23.372H160.802V28.65C160.802 28.7527 160.769 28.8367 160.704 28.902C160.639 28.9673 160.555 29 160.452 29H159.052ZM169.553 29.14C169.059 29.14 168.615 29.0467 168.223 28.86C167.831 28.664 167.519 28.4027 167.285 28.076C167.052 27.7493 166.935 27.3853 166.935 26.984C166.935 26.3213 167.201 25.7987 167.733 25.416C168.275 25.0333 168.984 24.772 169.861 24.632L171.695 24.366V24.114C171.695 23.75 171.611 23.47 171.443 23.274C171.275 23.078 170.981 22.98 170.561 22.98C170.253 22.98 170.006 23.0407 169.819 23.162C169.633 23.2833 169.488 23.442 169.385 23.638C169.311 23.7593 169.203 23.82 169.063 23.82H167.733C167.631 23.82 167.551 23.792 167.495 23.736C167.439 23.6707 167.416 23.596 167.425 23.512C167.425 23.3533 167.486 23.1667 167.607 22.952C167.729 22.7373 167.915 22.5273 168.167 22.322C168.419 22.1073 168.741 21.93 169.133 21.79C169.525 21.65 170.006 21.58 170.575 21.58C171.163 21.58 171.667 21.65 172.087 21.79C172.507 21.93 172.843 22.126 173.095 22.378C173.347 22.63 173.534 22.924 173.655 23.26C173.777 23.5867 173.837 23.9413 173.837 24.324V28.65C173.837 28.7527 173.805 28.8367 173.739 28.902C173.674 28.9673 173.59 29 173.487 29H172.115C172.022 29 171.943 28.9673 171.877 28.902C171.812 28.8367 171.779 28.7527 171.779 28.65V28.132C171.658 28.3093 171.495 28.4773 171.289 28.636C171.084 28.7853 170.837 28.9067 170.547 29C170.267 29.0933 169.936 29.14 169.553 29.14ZM170.113 27.684C170.421 27.684 170.697 27.6187 170.939 27.488C171.182 27.3573 171.373 27.1567 171.513 26.886C171.653 26.6153 171.723 26.2747 171.723 25.864V25.626L170.421 25.836C169.917 25.92 169.549 26.046 169.315 26.214C169.082 26.382 168.965 26.5873 168.965 26.83C168.965 27.0073 169.017 27.1613 169.119 27.292C169.231 27.4227 169.376 27.5207 169.553 27.586C169.731 27.6513 169.917 27.684 170.113 27.684ZM175.868 29C175.775 29 175.696 28.9673 175.63 28.902C175.565 28.8367 175.532 28.7527 175.532 28.65V22.07C175.532 21.9673 175.565 21.8833 175.63 21.818C175.696 21.7527 175.775 21.72 175.868 21.72H177.268C177.371 21.72 177.455 21.7527 177.52 21.818C177.586 21.8833 177.618 21.9673 177.618 22.07V24.478H180.46V22.07C180.46 21.9673 180.493 21.8833 180.558 21.818C180.624 21.7527 180.708 21.72 180.81 21.72H182.21C182.304 21.72 182.383 21.7527 182.448 21.818C182.514 21.8833 182.546 21.9673 182.546 22.07V28.65C182.546 28.7527 182.514 28.8367 182.448 28.902C182.383 28.9673 182.304 29 182.21 29H180.81C180.708 29 180.624 28.9673 180.558 28.902C180.493 28.8367 180.46 28.7527 180.46 28.65V26.13H177.618V28.65C177.618 28.7527 177.586 28.8367 177.52 28.902C177.455 28.9673 177.371 29 177.268 29H175.868ZM184.673 29C184.589 29 184.514 28.9673 184.449 28.902C184.383 28.8367 184.351 28.7573 184.351 28.664V22.07C184.351 21.9673 184.383 21.8833 184.449 21.818C184.514 21.7527 184.593 21.72 184.687 21.72H186.087C186.189 21.72 186.273 21.7527 186.339 21.818C186.404 21.8833 186.437 21.9673 186.437 22.07V27.39L185.877 27.068L189.531 21.944C189.577 21.8787 189.629 21.8273 189.685 21.79C189.75 21.7433 189.829 21.72 189.923 21.72H191.183C191.276 21.72 191.355 21.7527 191.421 21.818C191.486 21.8833 191.519 21.958 191.519 22.042V28.65C191.519 28.7527 191.486 28.8367 191.421 28.902C191.355 28.9673 191.271 29 191.169 29H189.769C189.675 29 189.596 28.9673 189.531 28.902C189.465 28.8367 189.433 28.7527 189.433 28.65V23.54L190.007 23.638L186.325 28.776C186.287 28.8413 186.236 28.8973 186.171 28.944C186.105 28.9813 186.031 29 185.947 29H184.673ZM193.491 29C193.407 29 193.332 28.9673 193.267 28.902C193.202 28.8367 193.169 28.7573 193.169 28.664V22.07C193.169 21.9673 193.202 21.8833 193.267 21.818C193.332 21.7527 193.412 21.72 193.505 21.72H194.905C195.008 21.72 195.092 21.7527 195.157 21.818C195.222 21.8833 195.255 21.9673 195.255 22.07V27.39L194.695 27.068L198.349 21.944C198.396 21.8787 198.447 21.8273 198.503 21.79C198.568 21.7433 198.648 21.72 198.741 21.72H200.001C200.094 21.72 200.174 21.7527 200.239 21.818C200.304 21.8833 200.337 21.958 200.337 22.042V28.65C200.337 28.7527 200.304 28.8367 200.239 28.902C200.174 28.9673 200.09 29 199.987 29H198.587C198.494 29 198.414 28.9673 198.349 28.902C198.284 28.8367 198.251 28.7527 198.251 28.65V23.54L198.825 23.638L195.143 28.776C195.106 28.8413 195.054 28.8973 194.989 28.944C194.924 28.9813 194.849 29 194.765 29H193.491Z" fill="#42404C"/>
<path d="M78.1298 31.66C78.0271 31.66 77.9431 31.6273 77.8778 31.562C77.8125 31.4967 77.7798 31.4127 77.7798 31.31V29C76.9398 29 76.2398 28.874 75.6798 28.622C75.1291 28.37 74.7138 28.0153 74.4338 27.558C74.1538 27.0913 73.9951 26.5453 73.9578 25.92C73.9298 25.5467 73.9298 25.1733 73.9578 24.8C73.9951 24.1747 74.1585 23.6333 74.4478 23.176C74.7465 22.7093 75.1711 22.35 75.7218 22.098C76.2818 21.846 76.9678 21.72 77.7798 21.72V19.41C77.7798 19.3073 77.8125 19.2233 77.8778 19.158C77.9431 19.0927 78.0271 19.06 78.1298 19.06H79.5298C79.6231 19.06 79.7025 19.0927 79.7678 19.158C79.8331 19.2233 79.8658 19.3073 79.8658 19.41V21.72C80.6871 21.72 81.3731 21.846 81.9238 22.098C82.4838 22.35 82.9085 22.7093 83.1978 23.176C83.4965 23.6333 83.6645 24.1747 83.7018 24.8C83.7205 25.1733 83.7205 25.5467 83.7018 25.92C83.6645 26.5453 83.5011 27.0913 83.2118 27.558C82.9318 28.0153 82.5165 28.37 81.9658 28.622C81.4151 28.874 80.7151 29 79.8658 29V31.31C79.8658 31.4127 79.8331 31.4967 79.7678 31.562C79.7025 31.6273 79.6231 31.66 79.5298 31.66H78.1298ZM77.7938 27.46V23.26C77.1965 23.26 76.7578 23.4 76.4778 23.68C76.2071 23.96 76.0578 24.38 76.0298 24.94C76.0205 25.0707 76.0158 25.2153 76.0158 25.374C76.0158 25.5233 76.0205 25.6587 76.0298 25.78C76.0671 26.3493 76.2211 26.774 76.4918 27.054C76.7718 27.3247 77.2058 27.46 77.7938 27.46ZM79.8518 27.46C80.4585 27.46 80.8971 27.32 81.1678 27.04C81.4385 26.76 81.5925 26.34 81.6298 25.78C81.6391 25.6587 81.6438 25.5233 81.6438 25.374C81.6438 25.2153 81.6391 25.0707 81.6298 24.94C81.6018 24.3707 81.4431 23.9507 81.1538 23.68C80.8738 23.4 80.4398 23.26 79.8518 23.26V27.46ZM87.3443 29.14C86.8496 29.14 86.4063 29.0467 86.0143 28.86C85.6223 28.664 85.3096 28.4027 85.0763 28.076C84.843 27.7493 84.7263 27.3853 84.7263 26.984C84.7263 26.3213 84.9923 25.7987 85.5243 25.416C86.0656 25.0333 86.775 24.772 87.6523 24.632L89.4863 24.366V24.114C89.4863 23.75 89.4023 23.47 89.2343 23.274C89.0663 23.078 88.7723 22.98 88.3523 22.98C88.0443 22.98 87.797 23.0407 87.6103 23.162C87.4236 23.2833 87.279 23.442 87.1763 23.638C87.1016 23.7593 86.9943 23.82 86.8543 23.82H85.5243C85.4216 23.82 85.3423 23.792 85.2863 23.736C85.2303 23.6707 85.207 23.596 85.2163 23.512C85.2163 23.3533 85.277 23.1667 85.3983 22.952C85.5196 22.7373 85.7063 22.5273 85.9583 22.322C86.2103 22.1073 86.5323 21.93 86.9243 21.79C87.3163 21.65 87.797 21.58 88.3663 21.58C88.9543 21.58 89.4583 21.65 89.8783 21.79C90.2983 21.93 90.6343 22.126 90.8863 22.378C91.1383 22.63 91.325 22.924 91.4463 23.26C91.5676 23.5867 91.6283 23.9413 91.6283 24.324V28.65C91.6283 28.7527 91.5956 28.8367 91.5303 28.902C91.465 28.9673 91.381 29 91.2783 29H89.9063C89.813 29 89.7336 28.9673 89.6683 28.902C89.603 28.8367 89.5703 28.7527 89.5703 28.65V28.132C89.449 28.3093 89.2856 28.4773 89.0803 28.636C88.875 28.7853 88.6276 28.9067 88.3383 29C88.0583 29.0933 87.727 29.14 87.3443 29.14ZM87.9043 27.684C88.2123 27.684 88.4876 27.6187 88.7303 27.488C88.973 27.3573 89.1643 27.1567 89.3043 26.886C89.4443 26.6153 89.5143 26.2747 89.5143 25.864V25.626L88.2123 25.836C87.7083 25.92 87.3396 26.046 87.1063 26.214C86.873 26.382 86.7563 26.5873 86.7563 26.83C86.7563 27.0073 86.8076 27.1613 86.9103 27.292C87.0223 27.4227 87.167 27.5207 87.3443 27.586C87.5216 27.6513 87.7083 27.684 87.9043 27.684ZM93.6594 29C93.5661 29 93.4867 28.9673 93.4214 28.902C93.3561 28.8367 93.3234 28.7527 93.3234 28.65V22.07C93.3234 21.9673 93.3561 21.8833 93.4214 21.818C93.4867 21.7527 93.5661 21.72 93.6594 21.72H95.0314C95.1341 21.72 95.2181 21.7527 95.2834 21.818C95.3487 21.8833 95.3814 21.9673 95.3814 22.07V24.478H96.2634L97.8874 21.944C97.9154 21.888 97.9574 21.8367 98.0134 21.79C98.0787 21.7433 98.1627 21.72 98.2654 21.72H99.7914C99.8754 21.72 99.9454 21.748 100.001 21.804C100.067 21.8507 100.099 21.9113 100.099 21.986C100.099 22.014 100.09 22.0467 100.071 22.084C100.062 22.1213 100.048 22.154 100.029 22.182L98.0554 25.234L100.337 28.552C100.375 28.608 100.393 28.6687 100.393 28.734C100.393 28.8087 100.365 28.874 100.309 28.93C100.253 28.9767 100.183 29 100.099 29H98.4054C98.3121 29 98.2327 28.9813 98.1674 28.944C98.1114 28.8973 98.0601 28.8413 98.0134 28.776L96.2494 26.144H95.3814V28.65C95.3814 28.7527 95.3487 28.8367 95.2834 28.902C95.2181 28.9673 95.1341 29 95.0314 29H93.6594ZM103.766 29C103.663 29 103.579 28.9673 103.514 28.902C103.449 28.8367 103.416 28.7527 103.416 28.65V23.372H101.218C101.115 23.372 101.031 23.3393 100.966 23.274C100.901 23.2087 100.868 23.1247 100.868 23.022V22.07C100.868 21.9673 100.901 21.8833 100.966 21.818C101.031 21.7527 101.115 21.72 101.218 21.72H107.672C107.775 21.72 107.859 21.7527 107.924 21.818C107.989 21.8833 108.022 21.9673 108.022 22.07V23.022C108.022 23.1247 107.989 23.2087 107.924 23.274C107.859 23.3393 107.775 23.372 107.672 23.372H105.474V28.65C105.474 28.7527 105.441 28.8367 105.376 28.902C105.311 28.9673 105.231 29 105.138 29H103.766Z" fill="#0088F0"/>
<path d="M279.87 63C279.803 63 279.747 62.9767 279.7 62.93C279.653 62.8833 279.63 62.8233 279.63 62.75V58.05C279.63 57.9767 279.653 57.9167 279.7 57.87C279.747 57.8233 279.803 57.8 279.87 57.8H284.3C284.367 57.8 284.423 57.8233 284.47 57.87C284.517 57.9167 284.54 57.9767 284.54 58.05V62.75C284.54 62.8233 284.517 62.8833 284.47 62.93C284.423 62.9767 284.367 63 284.3 63H283.3C283.227 63 283.167 62.9767 283.12 62.93C283.073 62.8833 283.05 62.8233 283.05 62.75V58.98H281.12V62.75C281.12 62.8233 281.097 62.8833 281.05 62.93C281.003 62.9767 280.943 63 280.87 63H279.87ZM285.711 63C285.644 63 285.584 62.9767 285.531 62.93C285.484 62.8767 285.461 62.8167 285.461 62.75V62C285.461 61.8533 285.541 61.7733 285.701 61.76C285.894 61.74 286.044 61.65 286.151 61.49C286.264 61.3233 286.344 61.07 286.391 60.73C286.438 60.39 286.461 59.9533 286.461 59.42V58.05C286.461 57.9767 286.484 57.9167 286.531 57.87C286.578 57.8233 286.638 57.8 286.711 57.8H290.441C290.514 57.8 290.574 57.8233 290.621 57.87C290.668 57.9167 290.691 57.9767 290.691 58.05V62.75C290.691 62.8233 290.668 62.8833 290.621 62.93C290.574 62.9767 290.514 63 290.441 63H289.441C289.374 63 289.314 62.9767 289.261 62.93C289.214 62.8833 289.191 62.8233 289.191 62.75V58.98H287.891V59.59C287.891 60.2233 287.854 60.76 287.781 61.2C287.714 61.64 287.598 61.9933 287.431 62.26C287.264 62.52 287.041 62.71 286.761 62.83C286.481 62.9433 286.131 63 285.711 63ZM293.514 63.1C293.16 63.1 292.844 63.0333 292.564 62.9C292.284 62.76 292.06 62.5733 291.894 62.34C291.727 62.1067 291.644 61.8467 291.644 61.56C291.644 61.0867 291.834 60.7133 292.214 60.44C292.6 60.1667 293.107 59.98 293.734 59.88L295.044 59.69V59.51C295.044 59.25 294.984 59.05 294.864 58.91C294.744 58.77 294.534 58.7 294.234 58.7C294.014 58.7 293.837 58.7433 293.704 58.83C293.57 58.9167 293.467 59.03 293.394 59.17C293.34 59.2567 293.264 59.3 293.164 59.3H292.214C292.14 59.3 292.084 59.28 292.044 59.24C292.004 59.1933 291.987 59.14 291.994 59.08C291.994 58.9667 292.037 58.8333 292.124 58.68C292.21 58.5267 292.344 58.3767 292.524 58.23C292.704 58.0767 292.934 57.95 293.214 57.85C293.494 57.75 293.837 57.7 294.244 57.7C294.664 57.7 295.024 57.75 295.324 57.85C295.624 57.95 295.864 58.09 296.044 58.27C296.224 58.45 296.357 58.66 296.444 58.9C296.53 59.1333 296.574 59.3867 296.574 59.66V62.75C296.574 62.8233 296.55 62.8833 296.504 62.93C296.457 62.9767 296.397 63 296.324 63H295.344C295.277 63 295.22 62.9767 295.174 62.93C295.127 62.8833 295.104 62.8233 295.104 62.75V62.38C295.017 62.5067 294.9 62.6267 294.754 62.74C294.607 62.8467 294.43 62.9333 294.224 63C294.024 63.0667 293.787 63.1 293.514 63.1ZM293.914 62.06C294.134 62.06 294.33 62.0133 294.504 61.92C294.677 61.8267 294.814 61.6833 294.914 61.49C295.014 61.2967 295.064 61.0533 295.064 60.76V60.59L294.134 60.74C293.774 60.8 293.51 60.89 293.344 61.01C293.177 61.13 293.094 61.2767 293.094 61.45C293.094 61.5767 293.13 61.6867 293.204 61.78C293.284 61.8733 293.387 61.9433 293.514 61.99C293.64 62.0367 293.774 62.06 293.914 62.06ZM298.024 63C297.958 63 297.901 62.9767 297.854 62.93C297.808 62.8833 297.784 62.8233 297.784 62.75V58.05C297.784 57.9767 297.808 57.9167 297.854 57.87C297.901 57.8233 297.958 57.8 298.024 57.8H299.024C299.098 57.8 299.158 57.8233 299.204 57.87C299.251 57.9167 299.274 57.9767 299.274 58.05V59.77H301.304V58.05C301.304 57.9767 301.328 57.9167 301.374 57.87C301.421 57.8233 301.481 57.8 301.554 57.8H302.554C302.621 57.8 302.678 57.8233 302.724 57.87C302.771 57.9167 302.794 57.9767 302.794 58.05V62.75C302.794 62.8233 302.771 62.8833 302.724 62.93C302.678 62.9767 302.621 63 302.554 63H301.554C301.481 63 301.421 62.9767 301.374 62.93C301.328 62.8833 301.304 62.8233 301.304 62.75V60.95H299.274V62.75C299.274 62.8233 299.251 62.8833 299.204 62.93C299.158 62.9767 299.098 63 299.024 63H298.024Z" fill="#42404C"/>
<path d="M285.42 76.9C285.347 76.9 285.287 76.8767 285.24 76.83C285.193 76.7833 285.17 76.7233 285.17 76.65V75C284.57 75 284.07 74.91 283.67 74.73C283.277 74.55 282.98 74.2967 282.78 73.97C282.58 73.6367 282.467 73.2467 282.44 72.8C282.42 72.5333 282.42 72.2667 282.44 72C282.467 71.5533 282.583 71.1667 282.79 70.84C283.003 70.5067 283.307 70.25 283.7 70.07C284.1 69.89 284.59 69.8 285.17 69.8V68.15C285.17 68.0767 285.193 68.0167 285.24 67.97C285.287 67.9233 285.347 67.9 285.42 67.9H286.42C286.487 67.9 286.543 67.9233 286.59 67.97C286.637 68.0167 286.66 68.0767 286.66 68.15V69.8C287.247 69.8 287.737 69.89 288.13 70.07C288.53 70.25 288.833 70.5067 289.04 70.84C289.253 71.1667 289.373 71.5533 289.4 72C289.413 72.2667 289.413 72.5333 289.4 72.8C289.373 73.2467 289.257 73.6367 289.05 73.97C288.85 74.2967 288.553 74.55 288.16 74.73C287.767 74.91 287.267 75 286.66 75V76.65C286.66 76.7233 286.637 76.7833 286.59 76.83C286.543 76.8767 286.487 76.9 286.42 76.9H285.42ZM285.18 73.9V70.9C284.753 70.9 284.44 71 284.24 71.2C284.047 71.4 283.94 71.7 283.92 72.1C283.913 72.1933 283.91 72.2967 283.91 72.41C283.91 72.5167 283.913 72.6133 283.92 72.7C283.947 73.1067 284.057 73.41 284.25 73.61C284.45 73.8033 284.76 73.9 285.18 73.9ZM286.65 73.9C287.083 73.9 287.397 73.8 287.59 73.6C287.783 73.4 287.893 73.1 287.92 72.7C287.927 72.6133 287.93 72.5167 287.93 72.41C287.93 72.2967 287.927 72.1933 287.92 72.1C287.9 71.6933 287.787 71.3933 287.58 71.2C287.38 71 287.07 70.9 286.65 70.9V73.9ZM292.002 75.1C291.648 75.1 291.332 75.0333 291.052 74.9C290.772 74.76 290.548 74.5733 290.382 74.34C290.215 74.1067 290.132 73.8467 290.132 73.56C290.132 73.0867 290.322 72.7133 290.702 72.44C291.088 72.1667 291.595 71.98 292.222 71.88L293.532 71.69V71.51C293.532 71.25 293.472 71.05 293.352 70.91C293.232 70.77 293.022 70.7 292.722 70.7C292.502 70.7 292.325 70.7433 292.192 70.83C292.058 70.9167 291.955 71.03 291.882 71.17C291.828 71.2567 291.752 71.3 291.652 71.3H290.702C290.628 71.3 290.572 71.28 290.532 71.24C290.492 71.1933 290.475 71.14 290.482 71.08C290.482 70.9667 290.525 70.8333 290.612 70.68C290.698 70.5267 290.832 70.3767 291.012 70.23C291.192 70.0767 291.422 69.95 291.702 69.85C291.982 69.75 292.325 69.7 292.732 69.7C293.152 69.7 293.512 69.75 293.812 69.85C294.112 69.95 294.352 70.09 294.532 70.27C294.712 70.45 294.845 70.66 294.932 70.9C295.018 71.1333 295.062 71.3867 295.062 71.66V74.75C295.062 74.8233 295.038 74.8833 294.992 74.93C294.945 74.9767 294.885 75 294.812 75H293.832C293.765 75 293.708 74.9767 293.662 74.93C293.615 74.8833 293.592 74.8233 293.592 74.75V74.38C293.505 74.5067 293.388 74.6267 293.242 74.74C293.095 74.8467 292.918 74.9333 292.712 75C292.512 75.0667 292.275 75.1 292.002 75.1ZM292.402 74.06C292.622 74.06 292.818 74.0133 292.992 73.92C293.165 73.8267 293.302 73.6833 293.402 73.49C293.502 73.2967 293.552 73.0533 293.552 72.76V72.59L292.622 72.74C292.262 72.8 291.998 72.89 291.832 73.01C291.665 73.13 291.582 73.2767 291.582 73.45C291.582 73.5767 291.618 73.6867 291.692 73.78C291.772 73.8733 291.875 73.9433 292.002 73.99C292.128 74.0367 292.262 74.06 292.402 74.06ZM296.513 75C296.446 75 296.389 74.9767 296.343 74.93C296.296 74.8833 296.273 74.8233 296.273 74.75V70.05C296.273 69.9767 296.296 69.9167 296.343 69.87C296.389 69.8233 296.446 69.8 296.513 69.8H297.493C297.566 69.8 297.626 69.8233 297.673 69.87C297.719 69.9167 297.743 69.9767 297.743 70.05V71.77H298.373L299.533 69.96C299.553 69.92 299.583 69.8833 299.623 69.85C299.669 69.8167 299.729 69.8 299.803 69.8H300.893C300.953 69.8 301.003 69.82 301.043 69.86C301.089 69.8933 301.113 69.9367 301.113 69.99C301.113 70.01 301.106 70.0333 301.093 70.06C301.086 70.0867 301.076 70.11 301.063 70.13L299.653 72.31L301.283 74.68C301.309 74.72 301.323 74.7633 301.323 74.81C301.323 74.8633 301.303 74.91 301.263 74.95C301.223 74.9833 301.173 75 301.113 75H299.903C299.836 75 299.779 74.9867 299.733 74.96C299.693 74.9267 299.656 74.8867 299.623 74.84L298.363 72.96H297.743V74.75C297.743 74.8233 297.719 74.8833 297.673 74.93C297.626 74.9767 297.566 75 297.493 75H296.513ZM303.731 75C303.658 75 303.598 74.9767 303.551 74.93C303.505 74.8833 303.481 74.8233 303.481 74.75V70.98H301.911C301.838 70.98 301.778 70.9567 301.731 70.91C301.685 70.8633 301.661 70.8033 301.661 70.73V70.05C301.661 69.9767 301.685 69.9167 301.731 69.87C301.778 69.8233 301.838 69.8 301.911 69.8H306.521C306.595 69.8 306.655 69.8233 306.701 69.87C306.748 69.9167 306.771 69.9767 306.771 70.05V70.73C306.771 70.8033 306.748 70.8633 306.701 70.91C306.655 70.9567 306.595 70.98 306.521 70.98H304.951V74.75C304.951 74.8233 304.928 74.8833 304.881 74.93C304.835 74.9767 304.778 75 304.711 75H303.731Z" fill="#42404C"/>
<path d="M261 57H273C274.657 57 276 58.3431 276 60V60C276 61.6569 274.657 63 273 63H261V57Z" fill="#EF2A82"/>
<path d="M261 69H275C276.657 69 278 70.3431 278 72V72C278 73.6569 276.657 75 275 75H261V69Z" fill="#0088F0"/>
</g>
<defs>
<clipPath id="clip0_249_13226">
<rect width="335" height="229" fill="white"/>
</clipPath>
</defs>
</svg>
