<svg width="1438" height="1438" viewBox="0 0 1438 1438" fill="none" xmlns="http://www.w3.org/2000/svg">
<path opacity="0.1" d="M1019.3 505.418C1002.2 505.418 989.976 515.619 979.217 524.613C977.753 525.829 976.306 527.056 974.833 528.247L930.798 563.99C924.993 568.675 922.995 575.81 925.503 582.573C928.116 589.53 935.007 594.393 942.293 594.393C946.291 594.393 950.124 592.97 953.411 590.314L985.601 564.169C987.871 562.339 990.335 560.09 992.948 557.696C994.974 555.831 997.096 553.874 999.288 552.009C995.244 598.607 978.112 692.497 906.528 728.221C899.199 717.431 889.224 708.577 877.5 702.455C865.778 696.332 852.673 693.131 839.363 693.142C813.076 693.142 789.163 705.263 774.18 725.489C713.01 638.616 647.135 607.244 615.612 596.607V595.942C615.612 552.765 579.47 517.663 535.032 517.663C490.621 517.663 454.486 552.774 454.486 595.942C454.486 599.16 454.698 602.381 455.101 605.583C441.39 613.024 428.818 622.295 417.756 633.123C383.148 666.823 358.578 716.819 344.734 781.704C334.923 827.502 333.949 866.095 333.862 875.104L333.195 876.74L333.853 878.324V884.915L335.921 885.052C334.433 887.933 333.725 891.133 333.862 894.351C333.999 897.571 334.98 900.705 336.708 903.454C338.437 906.204 340.86 908.481 343.745 910.069C346.632 911.66 349.887 912.509 353.205 912.538C356.524 912.566 359.794 911.775 362.709 910.237C365.624 908.699 368.086 906.463 369.866 903.744C371.647 901.023 372.686 897.909 372.882 894.693C373.08 891.475 372.429 888.264 370.995 885.357H373.117L373.239 877.13C373.239 875.666 374.074 729.872 445.667 660.127C452.931 653.074 461.103 646.963 469.98 641.945C477.459 651.898 487.249 660.001 498.55 665.6C509.854 671.198 522.353 674.132 535.04 674.169C549.863 674.222 564.41 670.278 577.058 662.777C589.708 655.273 599.966 644.505 606.688 631.674C637.884 643.137 702.103 676.623 758.896 768.535C758.835 769.557 758.791 770.476 758.791 771.404C758.791 814.547 794.915 849.651 839.371 849.651C883.782 849.651 919.934 814.547 919.934 771.404C919.934 769.199 919.812 766.951 919.583 764.635C956.05 747.688 1026.42 697.393 1038.39 559.358C1039.19 560.661 1039.99 561.964 1040.74 563.226C1043 566.973 1045.15 570.514 1047.23 573.444L1071.87 607.915C1075.06 612.403 1079.97 614.985 1085.27 614.985C1091.84 614.985 1098.19 611.102 1101.43 605.106C1102.74 602.653 1103.43 600.038 1103.48 597.441V596.794C1103.4 593.376 1102.28 590.057 1100.26 587.258L1069.71 544.514C1068.15 542.314 1066.63 540.083 1065.15 537.83C1056.51 524.909 1045.75 508.843 1025.78 505.913C1023.64 505.581 1021.48 505.416 1019.3 505.418ZM495.11 595.942C495.116 585.656 499.326 575.793 506.812 568.518C514.298 561.243 524.451 557.149 535.04 557.136C545.636 557.147 555.793 561.239 563.284 568.514C570.777 575.788 574.993 585.652 575.006 595.942C574.986 606.226 570.768 616.085 563.275 623.351C555.785 630.62 545.629 634.707 535.04 634.716C524.456 634.707 514.305 630.62 506.819 623.349C499.332 616.081 495.123 606.224 495.11 595.942ZM799.415 771.404C799.43 761.118 803.646 751.259 811.136 743.989C818.627 736.716 828.78 732.626 839.371 732.615C849.96 732.629 860.111 736.72 867.598 743.991C875.084 751.264 879.298 761.121 879.311 771.404C879.3 781.688 875.086 791.549 867.6 798.822C860.111 806.093 849.96 810.185 839.371 810.196C828.778 810.189 818.623 806.099 811.132 798.829C803.639 791.556 799.425 781.693 799.415 771.404Z" fill="url(#paint0_linear_278_5381)" fill-opacity="0.8"/>
<path opacity="0.1" d="M718.999 1307.27C1043.89 1307.27 1307.27 1043.89 1307.27 719C1307.27 394.106 1043.89 130.728 718.999 130.728C394.105 130.728 130.727 394.106 130.727 719C130.727 1043.89 394.105 1307.27 718.999 1307.27Z" stroke="#A7C8B7" stroke-width="120"/>
<defs>
<linearGradient id="paint0_linear_278_5381" x1="143800" y1="69833.9" x2="0.000511504" y2="69833.9" gradientUnits="userSpaceOnUse">
<stop stop-color="#95C11F"/>
<stop offset="1" stop-color="#006633"/>
</linearGradient>
</defs>
</svg>
