<svg width="61" height="60" viewBox="0 0 61 60" fill="none" xmlns="http://www.w3.org/2000/svg">
<g clip-path="url(#clip0_278_5798)">
<mask id="mask0_278_5798" style="mask-type:luminance" maskUnits="userSpaceOnUse" x="0" y="0" width="61" height="60">
<path d="M60.5 0H0.5V60H60.5V0Z" fill="white"/>
</mask>
<g mask="url(#mask0_278_5798)">
<path d="M19.563 23.3916C19.403 23.0776 19.09 22.8716 18.739 22.8486L10.3267 22.2877C9.89078 22.2447 9.48777 22.5147 9.32875 22.9206L3.26424 38.4194C3.10123 38.8354 3.23424 39.3084 3.59025 39.5793C3.76826 39.7153 3.98224 39.7834 4.19517 39.7834C4.4061 39.7834 4.61716 39.7174 4.79516 39.5834L9.82879 35.8088L12.7596 36.3947C13.2376 36.4897 13.7155 36.2277 13.8895 35.7708C15.4634 31.6481 17.3582 27.8144 19.519 24.3777C19.7061 24.0795 19.7231 23.7045 19.563 23.3916ZM12.3275 34.2687L9.78179 33.7598C9.50383 33.7048 9.21379 33.7708 8.98586 33.9407L6.40706 35.8745L10.9236 24.3314L16.9612 24.7334C15.2213 27.6782 13.6674 30.8759 12.3275 34.2687Z" fill="#A13C80"/>
<path d="M38.2135 50.174L37.6525 41.7606C37.6285 41.4086 37.4225 41.0957 37.1086 40.9357C36.7956 40.7757 36.4206 40.7916 36.1227 40.9796C32.6849 43.1404 28.8522 45.0353 24.7296 46.6091C24.2736 46.7821 24.0096 47.2601 24.1057 47.739L24.6916 50.6699L20.9169 55.7024C20.6489 56.0604 20.65 56.5524 20.9209 56.9084C21.1139 57.1623 21.4109 57.3033 21.7168 57.3033C21.8388 57.3033 21.9619 57.2803 22.0818 57.2363L37.5806 51.1718C37.9865 51.013 38.2425 50.6089 38.2135 50.174ZM24.6255 54.0908L26.5593 51.512C26.7294 51.285 26.7953 50.995 26.7393 50.716L26.2304 48.1712C29.6241 46.8313 32.8208 45.2774 35.7656 43.5375L36.1686 49.574L24.6255 54.0908Z" fill="#A13C80"/>
<path d="M29.4983 30.001H22.7608C22.3979 30.001 22.0639 30.198 21.8868 30.515L13.4304 45.7099C13.2105 46.1059 13.2844 46.6018 13.6104 46.9158C13.8015 47.0998 14.0524 47.1958 14.3044 47.1958C14.4824 47.1958 14.6614 47.1488 14.8213 47.0508L30.0162 37.8556C30.3151 37.6746 30.4982 37.3506 30.4982 37.0007V31.001C30.4983 30.4491 30.0503 30.001 29.4983 30.001ZM28.4985 36.4376L17.0104 43.3901L23.3479 32.0019V32.0008H28.4985V36.4376Z" fill="#A13C80"/>
<path d="M60.4504 0.964014C60.4094 0.477105 60.0235 0.0910929 59.5364 0.0500777C59.2045 0.0240623 26.276 -2.27478 12.0231 35.0565C11.8821 35.4255 11.9711 35.8414 12.2501 36.1204L17.0047 40.875C17.2277 41.098 17.5397 41.2 17.8527 41.158C18.1637 41.113 18.4357 40.925 18.5877 40.65L23.3513 32.0007H28.4989V36.4493L19.7976 41.9429C19.5406 42.1059 19.3716 42.3759 19.3377 42.6779C19.3037 42.9799 19.4096 43.2808 19.6247 43.4959L24.3793 48.2505C24.5703 48.4415 24.8253 48.5434 25.0862 48.5434C25.2062 48.5434 25.3272 48.5225 25.4432 48.4775C62.7762 34.2235 60.4784 1.29507 60.4504 0.964014ZM55.2048 18.7048C51.696 27.386 43.6666 39.1882 25.333 46.3767L21.9233 42.9669L30.0327 37.8473C30.3226 37.6633 30.4986 37.3443 30.4986 37.0013V31.0017C30.4986 30.4497 30.0506 30.0017 29.4987 30.0017H22.7592C22.3942 30.0017 22.0592 30.2007 21.8832 30.5197L17.4765 38.5211L14.1238 35.1673C26.6359 3.24786 53.3059 1.94193 58.4904 2.01494C58.5275 4.34683 58.3135 11.0123 55.2048 18.7048Z" fill="#A13C80"/>
<path d="M17.6287 44.1649C17.4116 43.877 17.0657 43.7369 16.7267 43.7729C16.7617 43.4329 16.6217 43.0879 16.3347 42.8709C14.8269 41.731 12.881 41.3521 10.9942 41.8299C8.99133 42.3389 7.35342 43.7048 6.50147 45.5797L0.590005 58.5857C0.417038 58.9656 0.498013 59.4127 0.792972 59.7066C0.983985 59.8985 1.23992 59.9996 1.49996 59.9996C1.63999 59.9996 1.78097 59.9696 1.91398 59.9096L14.92 53.997C16.7938 53.1462 18.1598 51.5082 18.6687 49.5054C19.1476 47.6206 18.7687 45.6738 17.6287 44.1649ZM16.7308 49.0135C16.3728 50.4244 15.4109 51.5773 14.093 52.1773L3.5138 56.9859L8.32243 46.4057C8.92137 45.0878 10.0753 44.1259 11.4862 43.768C11.8572 43.674 12.2301 43.6279 12.5981 43.6279C13.2211 43.6279 13.83 43.7609 14.3849 44.0199L13.433 45.7048C13.212 46.0958 13.2791 46.5868 13.597 46.9038C13.9149 47.2227 14.4059 47.2887 14.7959 47.0677L16.4808 46.1147C16.8907 46.9967 16.9838 48.0155 16.7308 49.0135Z" fill="#A13C80"/>
<path d="M60.4488 0.96501C60.4078 0.478101 60.0218 0.0920899 59.5349 0.0510746C59.1449 0.0200203 49.8756 -0.681927 38.9744 4.33974C38.6775 4.47568 38.4664 4.74966 38.4084 5.07169C38.3504 5.39372 38.4544 5.7236 38.6854 5.95457L54.5443 21.8134C54.7333 22.0024 54.9883 22.1064 55.2512 22.1064C55.3102 22.1064 55.3693 22.1013 55.4282 22.0914C55.7502 22.0334 56.0232 21.8224 56.1601 21.5254C61.1828 10.6242 60.4808 1.35395 60.4488 0.96501ZM54.9272 19.3666L41.1323 5.57161C49.1127 2.20285 56.1011 1.97082 58.4899 2.0109C58.5299 4.40174 58.3049 11.3682 54.9272 19.3666Z" fill="#A13C80"/>
</g>
<path d="M36.3102 19.8645L37.3436 18.9439L36.6359 18.1849C35.5207 16.989 34.2884 17.0201 32.9392 18.2783C32.3106 18.8645 31.9083 19.34 31.7324 19.7047C31.5248 20.1276 31.354 20.5592 31.2199 20.9995C31.0716 21.4245 30.9284 21.7013 30.7904 21.83C30.6678 21.9444 30.5099 22.0056 30.3168 22.0137C30.1247 21.9922 29.9643 21.9124 29.8356 21.7744C29.707 21.6364 29.6539 21.4566 29.6765 21.2348C29.7548 19.8433 30.5145 18.4755 31.9558 17.1315C33.5656 15.6303 35.1153 15.2171 36.6047 15.8921C37.1308 16.1182 37.6369 16.4918 38.123 17.0131L43.0971 22.3932C43.2972 22.6079 43.3784 22.8332 43.3404 23.0692C43.2882 23.2899 43.1701 23.486 42.9861 23.6576C42.8175 23.8149 42.6213 23.9118 42.3975 23.9485C42.1594 23.9699 41.9474 23.8809 41.7616 23.6816L40.9895 22.8536C41.3507 23.9787 41.1556 25.1067 40.4041 26.2374C40.1547 26.5847 39.8459 26.9299 39.478 27.273C39.1253 27.6019 38.7078 27.8765 38.2255 28.097C37.7574 28.3328 37.2781 28.4644 36.7877 28.4918C35.7761 28.5751 34.8843 28.2028 34.1123 27.3749C32.2964 25.4277 33.0291 22.9242 36.3102 19.8645ZM38.3087 19.9788C38.0624 20.2372 37.7705 20.5237 37.4332 20.8382C37.1112 21.1385 36.7887 21.4536 36.4657 21.7834C36.1581 22.099 35.8718 22.4376 35.607 22.7992C35.3576 23.1464 35.1674 23.4958 35.0364 23.8472C34.7704 24.6686 34.9234 25.3859 35.4953 25.9992C35.9528 26.4898 36.5162 26.7098 37.1854 26.659C37.7065 26.603 38.2727 26.3187 38.884 25.8061C39.5892 25.1484 39.9799 24.3685 40.0559 23.4663C40.1472 22.5498 39.8079 21.648 39.0379 20.7608L38.3087 19.9788Z" fill="url(#paint0_linear_278_5798)"/>
</g>
<defs>
<linearGradient id="paint0_linear_278_5798" x1="28.5965" y1="13.4344" x2="40.3886" y2="26.0799" gradientUnits="userSpaceOnUse">
<stop stop-color="#9E3189"/>
<stop offset="0.9999" stop-color="#AF388B"/>
<stop offset="1" stop-color="#9E3189" stop-opacity="0"/>
</linearGradient>
<clipPath id="clip0_278_5798">
<rect width="60" height="60" fill="white" transform="translate(0.5)"/>
</clipPath>
</defs>
</svg>
