<svg width="139" height="30" viewBox="0 0 139 30" fill="none" xmlns="http://www.w3.org/2000/svg">
<path d="M46.9671 19.144C44.5911 19.144 42.7551 17.344 42.7551 15.04C42.7551 12.736 44.6031 10.936 46.9791 10.936C48.1911 10.936 49.3311 11.452 50.0391 12.304C50.2071 12.496 50.2911 12.688 50.2911 12.904C50.2911 13.3 49.9551 13.636 49.5351 13.636C49.3071 13.636 49.0911 13.528 48.9111 13.324C48.3951 12.724 47.7471 12.436 46.9791 12.436C45.4911 12.436 44.4231 13.528 44.4231 15.052C44.4231 16.564 45.4911 17.644 46.9791 17.644C47.7351 17.644 48.3711 17.356 48.8991 16.756C49.0911 16.552 49.2951 16.444 49.5351 16.444C49.9551 16.444 50.2791 16.78 50.2791 17.176C50.2791 17.368 50.2071 17.56 50.0271 17.776C49.3311 18.628 48.1911 19.144 46.9671 19.144ZM53.1638 19C52.6838 19 52.3358 18.652 52.3358 18.172V11.764C52.3358 11.332 52.6718 10.936 53.1518 10.936C53.6198 10.936 53.9558 11.296 53.9558 11.764V17.536H56.7758C57.2078 17.536 57.5198 17.86 57.5198 18.268C57.5198 18.688 57.2078 19 56.7758 19H53.1638ZM59.933 19.144C59.453 19.144 59.117 18.784 59.117 18.316V11.764C59.117 11.296 59.453 10.936 59.933 10.936C60.401 10.936 60.737 11.296 60.737 11.764V18.316C60.737 18.784 60.401 19.144 59.933 19.144ZM63.8429 19C63.3869 19 63.0389 18.652 63.0389 18.196V11.884C63.0389 11.428 63.3869 11.08 63.8429 11.08H67.7189C68.1509 11.08 68.4629 11.392 68.4629 11.812C68.4629 12.22 68.1389 12.544 67.7189 12.544H64.6589V14.152H66.7589C67.1669 14.152 67.4669 14.452 67.4669 14.848C67.4669 15.232 67.1669 15.532 66.7589 15.532H64.6589V17.536H67.8629C68.2949 17.536 68.6069 17.86 68.6069 18.268C68.6069 18.688 68.2829 19 67.8629 19H63.8429ZM76.3461 10.936C76.8021 10.936 77.1501 11.296 77.1501 11.764V18.328C77.1501 18.784 76.8141 19.144 76.3581 19.144C75.9621 19.144 75.7701 18.916 75.5541 18.652L72.0261 14.116V18.316C72.0261 18.784 71.6781 19.144 71.2221 19.144C70.7541 19.144 70.4061 18.784 70.4061 18.316V11.752C70.4061 11.296 70.7541 10.936 71.1981 10.936C71.6061 10.936 71.7861 11.164 72.0261 11.464L75.5421 15.964L75.5301 11.764C75.5301 11.296 75.8781 10.936 76.3461 10.936ZM82.0531 19.144C81.5971 19.144 81.2491 18.784 81.2491 18.316V12.544H79.3651C78.9451 12.544 78.6211 12.22 78.6211 11.812C78.6211 11.392 78.9451 11.08 79.3651 11.08H84.7531C85.1851 11.08 85.4971 11.392 85.4971 11.812C85.4971 12.22 85.1731 12.544 84.7531 12.544H82.8691V18.316C82.8691 18.784 82.5211 19.144 82.0531 19.144ZM92.7542 19.144C91.8182 19.144 90.7862 18.724 90.1982 18.076C90.0062 17.884 89.8982 17.68 89.8982 17.452C89.9102 17.02 90.2582 16.732 90.6422 16.732C90.7862 16.732 90.9422 16.78 91.0622 16.888C91.3862 17.224 91.9502 17.704 92.7542 17.704C93.4622 17.704 93.8822 17.368 93.8822 16.828C93.8822 16.372 93.6062 16.18 92.8742 15.844L92.0222 15.46C90.7622 14.884 90.1022 14.2 90.1022 13.18C90.1022 11.848 91.2302 10.936 92.7302 10.936C93.9182 10.936 94.6142 11.488 94.9502 11.872C95.1182 12.052 95.1662 12.232 95.1662 12.388C95.1662 12.796 94.7942 13.108 94.4222 13.108C94.2782 13.108 94.1222 13.06 93.9782 12.94C93.6542 12.652 93.2942 12.376 92.7302 12.376C92.1542 12.376 91.7462 12.652 91.7462 13.144C91.7462 13.54 91.9622 13.732 92.6702 14.056L93.5702 14.452C94.8902 15.04 95.5262 15.688 95.5262 16.768C95.5262 18.232 94.3382 19.144 92.7542 19.144ZM98.2534 19.144C97.7854 19.144 97.4374 18.784 97.4374 18.316V11.908C97.4374 11.428 97.7854 11.08 98.2654 11.08H100.425C102.117 11.08 103.269 12.112 103.269 13.636C103.269 15.148 102.093 16.204 100.425 16.204H99.0574V18.316C99.0574 18.784 98.7094 19.144 98.2534 19.144ZM99.0574 14.788H100.413C101.157 14.788 101.613 14.344 101.613 13.636C101.613 12.952 101.157 12.508 100.413 12.508H99.0574V14.788ZM110.63 17.932C110.702 18.1 110.726 18.244 110.726 18.364C110.726 18.796 110.39 19.144 109.934 19.144C109.586 19.144 109.322 18.94 109.166 18.568L108.83 17.752H105.482L105.146 18.568C105.002 18.94 104.738 19.144 104.39 19.144C103.934 19.144 103.586 18.796 103.586 18.364C103.586 18.244 103.622 18.1 103.682 17.932L106.394 11.488C106.538 11.128 106.802 10.936 107.162 10.936C107.522 10.936 107.786 11.128 107.93 11.488L110.63 17.932ZM107.162 13.324L106.01 16.42H108.29L107.162 13.324ZM116.116 19.144C113.74 19.144 111.904 17.344 111.904 15.04C111.904 12.736 113.752 10.936 116.128 10.936C117.34 10.936 118.48 11.452 119.188 12.304C119.356 12.496 119.44 12.688 119.44 12.904C119.44 13.3 119.104 13.636 118.684 13.636C118.456 13.636 118.24 13.528 118.06 13.324C117.544 12.724 116.896 12.436 116.128 12.436C114.64 12.436 113.572 13.528 113.572 15.052C113.572 16.564 114.64 17.644 116.128 17.644C116.884 17.644 117.52 17.356 118.048 16.756C118.24 16.552 118.444 16.444 118.684 16.444C119.104 16.444 119.428 16.78 119.428 17.176C119.428 17.368 119.356 17.56 119.176 17.776C118.48 18.628 117.34 19.144 116.116 19.144ZM122.288 19C121.832 19 121.484 18.652 121.484 18.196V11.884C121.484 11.428 121.832 11.08 122.288 11.08H126.164C126.596 11.08 126.908 11.392 126.908 11.812C126.908 12.22 126.584 12.544 126.164 12.544H123.104V14.152H125.204C125.612 14.152 125.912 14.452 125.912 14.848C125.912 15.232 125.612 15.532 125.204 15.532H123.104V17.536H126.308C126.74 17.536 127.052 17.86 127.052 18.268C127.052 18.688 126.728 19 126.308 19H122.288Z" fill="white"/>
<g clip-path="url(#clip0_242_5450)">
<rect x="10.0388" y="3.75" width="23.1667" height="22.5" rx="11.25" fill="#EF2A82"/>
<path d="M21.6222 26.25C15.2249 26.25 10.0388 21.2132 10.0388 15C10.0388 8.78684 15.2249 3.75 21.6222 3.75C28.0194 3.75 33.2055 8.78684 33.2055 15C33.2055 21.2132 28.0194 26.25 21.6222 26.25ZM21.6222 25.7012C27.7074 25.7012 32.6404 20.9101 32.6404 15C32.6404 9.08991 27.7074 4.29878 21.6222 4.29878C15.5369 4.29878 10.6039 9.08991 10.6039 15C10.6039 20.9101 15.5369 25.7012 21.6222 25.7012ZM26.4602 11.8445C26.1846 11.8445 25.9877 12.0089 25.8143 12.1537C25.7907 12.1734 25.7674 12.1931 25.7437 12.2123L25.389 12.5003L25.0343 12.7881C24.9408 12.8636 24.9086 12.9786 24.949 13.0875C24.9911 13.1996 25.1021 13.2779 25.2195 13.2779C25.2839 13.2779 25.3456 13.255 25.3986 13.2122L25.658 13.0016L25.9172 12.791C25.9538 12.7615 25.9934 12.7253 26.0355 12.6867C26.0682 12.6567 26.1024 12.6251 26.1377 12.5951C26.0726 13.3458 25.7965 14.8584 24.6433 15.434C24.5252 15.2601 24.3645 15.1175 24.1757 15.0188C23.9868 14.9202 23.7757 14.8687 23.5612 14.8688C23.1377 14.8688 22.7525 15.0641 22.5111 15.3899C21.5257 13.9904 20.4644 13.485 19.9566 13.3136V13.3029C19.9566 12.6073 19.3743 12.0418 18.6584 12.0418C17.9429 12.0418 17.3608 12.6074 17.3608 13.3029C17.3608 13.3547 17.3641 13.4066 17.3706 13.4582C17.1498 13.5781 16.9472 13.7274 16.769 13.9019C16.2115 14.4448 15.8156 15.2503 15.5926 16.2955C15.4345 17.0334 15.4189 17.6551 15.4174 17.8003L15.4067 17.8266L15.4173 17.8522V17.9583L15.4506 17.9605C15.4267 18.0069 15.4152 18.0585 15.4175 18.1104C15.4197 18.1622 15.4354 18.2127 15.4633 18.257C15.4912 18.3013 15.5302 18.338 15.5767 18.3636C15.6232 18.3892 15.6756 18.4029 15.7291 18.4033C15.7825 18.4038 15.8352 18.3911 15.8822 18.3663C15.9291 18.3415 15.9688 18.3055 15.9975 18.2617C16.0262 18.2179 16.0429 18.1677 16.0461 18.1159C16.0493 18.064 16.0388 18.0123 16.0157 17.9655H16.0499L16.0518 17.8329C16.0518 17.8093 16.0653 15.4606 17.2187 14.3369C17.3357 14.2233 17.4673 14.1249 17.6104 14.044C17.7309 14.2044 17.8885 14.3349 18.0706 14.4251C18.2527 14.5153 18.4541 14.5626 18.6585 14.5632C18.8973 14.564 19.1316 14.5005 19.3354 14.3796C19.5392 14.2587 19.7045 14.0853 19.8127 13.8786C20.3154 14.0632 21.3499 14.6027 22.2649 16.0834C22.2639 16.0999 22.2632 16.1147 22.2632 16.1296C22.2632 16.8247 22.8452 17.3902 23.5614 17.3902C24.2769 17.3902 24.8593 16.8247 24.8593 16.1296C24.8593 16.0941 24.8573 16.0579 24.8536 16.0206C25.4411 15.7476 26.5747 14.9373 26.7677 12.7135C26.7806 12.7345 26.7934 12.7555 26.8055 12.7758C26.8419 12.8362 26.8766 12.8932 26.9101 12.9404L27.307 13.4958C27.3584 13.5681 27.4375 13.6097 27.5229 13.6097C27.6288 13.6097 27.7311 13.5471 27.7832 13.4505C27.8044 13.411 27.8154 13.3689 27.8163 13.327V13.3166C27.815 13.2615 27.7969 13.2081 27.7643 13.163L27.4938 12.7844L27.2723 12.4744C27.2472 12.4389 27.2227 12.403 27.1988 12.3667C27.0595 12.1585 26.8862 11.8997 26.5646 11.8525C26.53 11.8471 26.4952 11.8445 26.4602 11.8445ZM18.0152 13.3029C18.0153 13.1372 18.0831 12.9783 18.2037 12.8611C18.3243 12.7439 18.4879 12.6779 18.6585 12.6777C18.8292 12.6779 18.9928 12.7438 19.1135 12.861C19.2342 12.9782 19.3022 13.1371 19.3024 13.3029C19.302 13.4686 19.2341 13.6274 19.1134 13.7445C18.9927 13.8616 18.8291 13.9274 18.6585 13.9276C18.488 13.9274 18.3244 13.8616 18.2038 13.7444C18.0832 13.6273 18.0154 13.4685 18.0152 13.3029ZM22.9177 16.1296C22.9179 15.9639 22.9858 15.8051 23.1065 15.688C23.2272 15.5708 23.3908 15.5049 23.5614 15.5047C23.732 15.505 23.8955 15.5709 24.0161 15.688C24.1367 15.8052 24.2046 15.964 24.2048 16.1296C24.2046 16.2953 24.1368 16.4542 24.0161 16.5713C23.8955 16.6885 23.732 16.7544 23.5614 16.7546C23.3907 16.7545 23.2271 16.6886 23.1064 16.5714C22.9857 16.4543 22.9178 16.2954 22.9177 16.1296Z" fill="url(#paint0_linear_242_5450)"/>
</g>
<defs>
<linearGradient id="paint0_linear_242_5450" x1="2326.71" y1="1128.75" x2="10.0388" y2="1128.75" gradientUnits="userSpaceOnUse">
<stop stop-color="#95C11F"/>
<stop offset="1" stop-color="#006633"/>
</linearGradient>
<clipPath id="clip0_242_5450">
<rect x="10.0388" y="3.75" width="23.1667" height="22.5" rx="11.25" fill="white"/>
</clipPath>
</defs>
</svg>
